<svg width="42" height="35" viewBox="0 0 42 35" fill="none" xmlns="http://www.w3.org/2000/svg">
<path d="M38.1101 0.281738H4.56468C2.51468 0.281738 0.837402 2.0108 0.837402 4.12409V7.96645C0.837402 9.0231 1.67604 9.88762 2.70104 9.88762C3.72604 9.88762 4.56468 9.0231 4.56468 7.96645V6.04527C4.56468 4.98862 5.40331 4.12409 6.42831 4.12409H36.2465C37.2715 4.12409 38.1101 4.98862 38.1101 6.04527V29.0994C38.1101 30.156 37.2715 31.0206 36.2465 31.0206H26.9283C25.9033 31.0206 25.0647 31.8851 25.0647 32.9418C25.0647 33.9984 25.9033 34.8629 26.9283 34.8629H38.1101C40.1601 34.8629 41.8374 33.1339 41.8374 31.0206V4.12409C41.8374 2.0108 40.1601 0.281738 38.1101 0.281738ZM2.96195 21.5876C1.84377 21.3955 0.837402 22.3369 0.837402 23.5088C0.837402 24.4501 1.50831 25.2378 2.42149 25.3915C6.29786 26.0832 9.35422 29.2339 10.0251 33.2299C10.1742 34.1713 10.9383 34.8629 11.8515 34.8629C12.9883 34.8629 13.8829 33.8255 13.7151 32.6728C13.2728 29.8977 11.9974 27.3355 10.0684 25.347C8.13935 23.3584 5.6539 22.0436 2.96195 21.5876ZM0.837402 29.0994V34.8629H6.42831C6.42831 31.6738 3.93104 29.0994 0.837402 29.0994ZM2.8874 13.826C1.78786 13.73 0.837402 14.6137 0.837402 15.7472C0.837402 16.727 1.54558 17.5531 2.4774 17.6492C10.4351 18.4369 16.7715 24.9689 17.5356 33.1723C17.6288 34.1329 18.4301 34.8437 19.3806 34.8437C20.4988 34.8437 21.356 33.8447 21.2442 32.7112C20.2565 22.7403 12.5597 14.8251 2.8874 13.826Z" fill="#FF9999"/>
</svg>
