<svg width="617" height="406" fill="none" xmlns="http://www.w3.org/2000/svg"><path d="M36.445 83.117c10.477 199.881 405.349 270.337 378.12 89.745-1.194-7.92-4.185-15.815-9.394-21.89-41.874-48.828-157.494-52.47-130.466 91.912 1.586 8.472 4.801 16.715 10.061 23.538 42.228 54.765 156.504 112.602 292.771 65.383" stroke="#191919" stroke-width="3" stroke-dasharray="14.65 14.65"/><path d="M559.714 316.816a1.84 1.84 0 00.024 1.414c.195.433.563.757 1.023.903l25.751 8.194-10.079 26.489c-.181.474-.172.981.024 1.414.195.433.563.757 1.023.903.224.072.465.097.708.074a1.96 1.96 0 00.706-.208 2.07 2.07 0 00.983-1.09l10.715-28.176a1.926 1.926 0 00-.025-1.477 1.743 1.743 0 00-1.069-.944l-27.385-8.717a1.787 1.787 0 00-.708-.073 1.96 1.96 0 00-.706.208 2.067 2.067 0 00-.595.456 2.025 2.025 0 00-.388.633l-.002-.003z" fill="#191919"/></svg>