<svg width="40" height="40" fill="none" xmlns="http://www.w3.org/2000/svg"><path d="M39.99 2.608c0 37.069.07 35.052-.157 35.643a2.608 2.608 0 01-2.451 1.739H2.608A2.608 2.608 0 010 37.382V2.608A2.608 2.608 0 012.608 0h34.774a2.608 2.608 0 012.608 2.608z" fill="#719E35"/><path d="M39.99 2.608c0 37.069.07 35.052-.157 35.643H14.78a12.17 12.17 0 01-12.171-12.17C2.608-1.444 2.538.573 2.764 0h34.618a2.608 2.608 0 012.608 2.608z" fill="#8DC641"/><path d="M32.166 4.347H7.824a.87.87 0 00-.87.869v15.648c0 .48.39.87.87.87h24.342c.48 0 .87-.39.87-.87V5.216a.87.87 0 00-.87-.87z" fill="#C8C8C8"/><path d="M33.035 5.216v14.779h-7.824A15.692 15.692 0 019.563 4.347h22.603a.87.87 0 01.87.869z" fill="#D7D7D7"/><path d="M4.347 19.995H2.608a.87.87 0 010-1.739h1.739a.87.87 0 110 1.739zm0-3.477H2.608a.87.87 0 110-1.74h1.739a.87.87 0 010 1.74zm0-3.478H2.608a.87.87 0 110-1.738h1.739a.87.87 0 010 1.738zm0-3.477H2.608a.87.87 0 110-1.739h1.739a.87.87 0 010 1.739zm33.035 10.432h-1.739a.87.87 0 010-1.739h1.739a.87.87 0 010 1.739zm0-3.477h-1.739a.87.87 0 010-1.74h1.739a.87.87 0 010 1.74zm0-3.478h-1.739a.87.87 0 010-1.738h1.739a.87.87 0 010 1.738zm0-3.477h-1.739a.87.87 0 010-1.739h1.739a.87.87 0 010 1.739z" fill="#3A3A3A"/><path d="M21.734 26.08h3.477v3.478h-3.477V26.08zm10.432 0h3.477v3.478h-3.477V26.08z" fill="#719E35"/><path d="M4.347 26.08h13.91v10.433H4.346V26.08z" fill="#9A9A9A"/><path d="M18.256 26.08v8.694h-2.608a8.693 8.693 0 01-8.693-8.694h11.301z" fill="#CDCDCD"/><path d="M25.211 26.08h6.955v10.433H25.21V26.08z" fill="#2C435E"/><path d="M32.166 26.08c0 9.224-.087 8.694 0 8.694a4.348 4.348 0 01-4.347-4.347V26.08h4.347z" fill="#425B72"/><path d="M7.824 32.166a.87.87 0 110-1.74.87.87 0 010 1.74zm3.477 0a.869.869 0 11-.007-1.738.869.869 0 01.007 1.738zm3.478 0a.87.87 0 110-1.74.87.87 0 010 1.74zm-6.955 2.608a.87.87 0 11.01-1.74.87.87 0 01-.01 1.74zm3.477 0a.869.869 0 110-1.737.869.869 0 010 1.737zm3.478 0a.87.87 0 110-1.738.87.87 0 010 1.738zm-6.955-5.216a.87.87 0 110-1.74.87.87 0 010 1.74zm3.477 0a.87.87 0 110-1.739.87.87 0 010 1.739zm2.86-.252a.87.87 0 111.233-1.227.87.87 0 01-1.232 1.227z" fill="#3A3A3A"/></svg>