<svg width="511" height="466" fill="none" xmlns="http://www.w3.org/2000/svg"><path d="M220.281 85.756H179.37c-1.885 0-3.417-1.465-3.417-3.268 0-1.802-1.533-3.267-3.418-3.267H19.145c-3.758 0-6.81 2.919-6.81 6.512 0 3.593 3.052 6.511 6.81 6.511h41.53c1.545 0 2.81 1.198 2.81 2.686 0 1.477-1.253 2.686-2.81 2.686H7.81c-3.758 0-6.81 2.919-6.81 6.512 0 3.593 3.052 6.512 6.81 6.512h76.568c3.417 0 6.19-2.652 6.19-5.919 0-3.267 2.773-5.919 6.19-5.919h123.523c3.758 0 6.81-2.918 6.81-6.511 0-3.617-3.04-6.535-6.81-6.535zM348.656 4.837c0-2.116-1.8-3.837-4.013-3.837h-78.757c-3.758 0-6.811 2.919-6.811 6.512 0 3.593 3.053 6.511 6.811 6.511h14.995c2.213 0 4.013 1.721 4.013 3.837 0 2.117 1.8 3.838 4.013 3.838h78.757c3.758 0 6.81-2.919 6.81-6.512 0-3.593-3.052-6.512-6.81-6.512h-14.995c-2.226 0-4.013-1.709-4.013-3.837zM67.158 285.709c0-2.116 1.8-3.837 4.013-3.837h78.757c3.757 0 6.81 2.919 6.81 6.512 0 3.593-3.053 6.511-6.81 6.511h-14.995c-2.214 0-4.014 1.721-4.014 3.838 0 2.116-1.799 3.837-4.013 3.837H48.149c-3.757 0-6.81-2.919-6.81-6.512 0-3.593 3.053-6.511 6.81-6.511h14.995c2.214 0 4.014-1.71 4.014-3.838zm398.003 9.524c0-2.582-2.189-4.675-4.889-4.675h-16.916c-2.214 0-4.013-1.721-4.013-3.837s-1.8-3.837-4.014-3.837h-78.756c-3.758 0-6.811 2.918-6.811 6.511s3.053 6.512 6.811 6.512h16.916c1.155 0 2.092.895 2.092 2s-.937 2-2.092 2h-5.728c-3.758 0-6.81 2.919-6.81 6.512 0 3.593 3.052 6.511 6.81 6.511H503.19c3.757 0 6.81-2.918 6.81-6.511s-3.053-6.512-6.81-6.512h-33.152c-2.688 0-4.877-2.093-4.877-4.674zM92.222 270.465H16.275c-3.758 0-6.81-2.918-6.81-6.511s3.052-6.512 6.81-6.512h75.96c3.757 0 6.81 2.919 6.81 6.512-.013 3.593-3.053 6.511-6.823 6.511zm25.308-20.977H82.955c-3.758 0-6.81-2.918-6.81-6.511s3.052-6.512 6.81-6.512h34.575c3.758 0 6.81 2.919 6.81 6.512 0 3.604-3.052 6.511-6.81 6.511zm382.023-83.36h-75.959c-3.758 0-6.811-2.919-6.811-6.512 0-3.593 3.053-6.511 6.811-6.511h75.959c3.758 0 6.811 2.918 6.811 6.511 0 3.605-3.053 6.512-6.811 6.512zm-33.066-54.593c0-3.093 2.627-5.605 5.862-5.605h17.877c3.758 0 6.81-2.918 6.81-6.511s-3.052-6.512-6.81-6.512H413.33c-3.235 0-5.862 2.512-5.862 5.605 0 3.093-2.627 5.604-5.862 5.604h-53.923c-3.758 0-6.811 2.919-6.811 6.512 0 3.593 3.053 6.512 6.811 6.512h2.542c2.103 0 3.818 1.639 3.818 3.651 0 2.011-1.715 3.651-3.818 3.651h-18.352c-3.758 0-6.81 2.918-6.81 6.512 0 3.593 3.052 6.511 6.81 6.511h158.365c3.758 0 6.81-2.918 6.81-6.511 0-3.594-3.052-6.512-6.81-6.512h-42.796c-2.104 0-3.819-1.64-3.819-3.651 0-2.012 1.715-3.651 3.819-3.651h13.195c3.223 0 5.85-2.512 5.85-5.605z" stroke="#FEE7D5" stroke-width="2" stroke-miterlimit="10"/><path d="M262.298 327.5c37.08 0 70.974 13.035 97.121 34.535l31.741-34c-34.551-28.779-79.536-47.57-128.862-47.57-49.265 0-94.177 18.756-128.727 47.43l31.704 34.035c26.147-21.43 59.98-34.43 97.023-34.43z" fill="#B54A41"/><path d="M386.198 333.349l4.962-5.314c-34.551-28.779-79.536-47.57-128.862-47.57-49.265 0-94.177 18.756-128.727 47.43l4.961 5.326c33.833-26.419 76.823-43.454 123.766-43.454 47.004 0 90.043 17.07 123.9 43.582z" fill="#D68981"/><path d="M262.225 234.79c61.877 0 118.269 22.07 161.515 58.268l30.038-32.128c-51.223-43.081-118.111-73.209-191.553-73.209-73.345 0-140.135 30.046-191.297 73.011l29.977 32.163c43.222-36.151 99.504-58.105 161.32-58.105z" fill="#B54A41"/><path d="M449.181 265.849l4.609-4.919c-51.223-43.081-118.111-73.209-191.553-73.209-73.345 0-140.135 30.046-191.298 73.011l4.597 4.931c50.531-40.942 115.533-69.233 186.689-69.233 71.265.012 136.353 28.384 186.956 69.419z" fill="#D68981"/><path d="M327.653 396.046c-17.682-14.244-40.473-24.081-65.331-24.081-24.857 0-47.599 9.814-65.257 23.988L262.322 466l65.331-69.954z" fill="#B54A41"/><path d="M323.639 400.349l4.026-4.303c-17.683-14.244-40.473-24.081-65.331-24.081-24.858 0-47.599 9.814-65.258 23.988l4.026 4.314c17.026-12.5 38.235-20.918 61.244-20.918 22.997 0 44.231 8.442 61.293 21z" fill="#D68981"/><path d="M243.375 281.384l-3.162 3.221h8.27l-4.475 10.558h19.835s.523-5.117-1.034-6.105a5.1 5.1 0 01-.523-.43l.547-.244.183-.105c.267-.14.523-.291.79-.454l.11-.069c.279-.186.571-.384.851-.605.073-.046.134-.105.207-.151.279-.221.559-.454.839-.698a.315.315 0 01.073-.058c.267-.232.523-.477.778-.732l.183-.175c.267-.267.535-.535.79-.825.049-.047.085-.093.134-.152.243-.255.474-.523.705-.79.037-.047.085-.093.122-.14.255-.302.511-.605.754-.907.048-.058.085-.116.134-.174.243-.314.486-.617.717-.93.195-.256.377-.512.559-.768a186.945 186.945 0 00-8.488-.198c-6.361 0-12.672.326-18.899.931z" fill="#B54A41"/><path d="M284.176 104.721l-10.568 19.058s23.034 32.418 28.47 40.081c5.436 7.675 23.033-1.267 14.496-14.488-8.549-13.233-32.398-44.651-32.398-44.651z" fill="#F4A32D"/><path d="M242.196 190.826h31.412c3.661 0 6.725-2.663 7.066-6.152l1.204-12.372h-47.612l.852 12.186c.255 3.57 3.344 6.338 7.078 6.338z" fill="#076D45"/><path opacity=".25" d="M273.62 190.826c3.661 0 6.726-2.663 7.066-6.151l.961-9.884c-6.373.279-15.688 1.651-16.613 8.349-.352 2.5-.924 5.151-1.556 7.674h10.142v.012z" fill="#06492C"/><path d="M269.729 274.709c-1.058 2.582-8.975 15.675-15.36 14.349-6.385-1.314-2.931-14.186-1.204-18.139l16.564 3.79z" fill="#6B201E"/><path d="M287.326 177.709c-8.416-2.825-17.682 1.233-21.136 18.802-3.454 17.57-16.126 73.977-16.126 73.977s.79 7.675 9.838 8.407c9.048.744 12.672-4.953 12.672-4.953s19.155-68.233 20.699-74.977c1.812-7.895 3.624-18.035-5.947-21.256z" fill="#0C9C67"/><path d="M254.174 276.814l-.887-.186c.182-.802 17.913-79.872 19.871-88.756.146-.639.292-1.256.45-1.86.608-2.465 1.143-4.593.158-5.605l.669-.593c1.326 1.349.742 3.686.073 6.395-.146.593-.304 1.21-.438 1.838-1.97 8.895-19.713 87.976-19.896 88.767z" fill="#06492C"/><path opacity=".25" d="M258.674 231.709a9932.03 9932.03 0 01-8.622 38.791s.231 2.151 1.787 4.291c-1.471 5.372-2.395 13.256 2.53 14.267 5.035 1.047 11.03-6.895 13.852-11.558.121-.058.219-.116.328-.174-2.481-5.861-7.175-13.14-7.175-13.14l-2.7-32.477z" fill="#06492C"/><path d="M269.303 203.256c-3.563-2.151-5.047-.117-7.017 9.663-1.97 9.779-4.208 21.86-4.731 24.93-.401 2.418.937 6.977 2.919 8.07 2.821-13.57 6.47-31.117 8.829-42.663z" fill="#06492C"/><path d="M227.517 136.407s2.42 32.36 2.76 35.081c.329 2.709 1.594 3.628 7.869 4.012 6.275.383 39.305-.058 42.418-1.082 3.126-1.023 7.747-.895 7.832-7.081.098-6.186.499-49.023.353-54.209-.134-5.198-4.95-10.768-13.535-12.291-8.586-1.523-15.068-2.105-21.55-2.198-6.47-.093-19.094 2.198-22.912 4.523-3.807 2.314-5.205 7.547-3.235 33.245z" fill="#F4A32D"/><path d="M256.23 111.395c10.677-.5 13.487-7.116 14.18-11.36-6.3-.942-11.529-1.338-16.734-1.407-2.968-.035-7.236.418-11.359 1.162-.049 3.256.961 12.21 13.913 11.605z" fill="#D68981"/><path d="M233.026 131.942a883.546 883.546 0 00-5.339 6.628c.547 7.29 2.311 30.627 2.59 32.907.329 2.709 1.594 3.627 7.869 4.011 2.943.186 11.772.175 20.638.023l-25.758-43.569z" fill="#E77829"/><path d="M230.764 103.163s-33.237 39.662-37.639 48.081c-4.403 8.407 6.372 23.988 20.443 5.442 14.083-18.547 25.794-32.419 25.794-32.419l-8.598-21.104z" fill="#F4A32D"/><path d="M246.525 167.302s6.068-4.209 6.762-4.942c.693-.721 2.298.582.887 2.466-1.41 1.895-1.714 2.337-7.649 2.476z" fill="#B54A41"/><path d="M198.585 153.825c-6.336 9.803 1.508 16.442 17.901 18.64 16.406 2.198 43.137 13.535 45.618 1.372 2.48-12.163-14.46-8.186-14.46-8.186s-21.343-6.616-29.066-9.151c-7.734-2.524-16.272-8.419-19.993-2.675z" fill="#D68981"/><path d="M227.675 174.721c8.695 2.081 18.035 4.639 24.821 4.662-9.303-9.255-18.546-6.534-24.821-4.662z" fill="#B54A41"/><path d="M244.543 285.86l-5.181 12.21h19.835s.523-5.117-1.034-6.105c-1.556-.988-4.487-6.105-4.487-6.105h-9.133z" fill="#91322D"/><path d="M236.078 177.756c-13.56.744-12.416 9.407-11.127 20.046 1.289 10.64 12.939 75.465 12.939 75.465s-6.992 9.652 1.812 9.407l-4.134 4.21h23.811l-3.879-6.431s6.214.5 3.879-4.953c-2.335-5.442-4.134-12.372-4.134-12.372s-3.88-63.337-4.135-70.023c-.256-6.687-1.569-16.082-15.032-15.349z" fill="#076D45"/><path d="M235.957 263.047c4.001-.675 7.467-4.233 7.175-7.71-.401-4.849-5.679-40.314-6.689-47.093-.888-5.942-5.193-6.674-10.872-5.465 1.982 12.826 7.443 43.744 10.386 60.268z" fill="#076645"/><path d="M251.414 287.639l-1.922-6.046.438-.128c.024-.012 2.578-.779 3.199-2.698.425-1.302-.122-2.883-1.63-4.686l-.085-.104-.012-.128c-.061-.71-6.093-71.454-6.896-78.163-.851-7.093 1.228-9.675 4.621-11.372l.426.767c-3.137 1.57-4.925 3.872-4.135 10.5.791 6.57 6.592 74.593 6.884 78.058 1.641 2 2.213 3.814 1.702 5.384-.596 1.837-2.505 2.779-3.369 3.116l1.667 5.233-.888.267z" fill="#0C9C67"/><path d="M301.154 88.07l-6.908-2.128c-1.508-.466-3.113.325-3.6 1.755l-5.959 17.663c-.486 1.442.341 2.977 1.837 3.442l6.907 2.128c1.508.465 3.113-.326 3.6-1.756l5.959-17.663c.486-1.442-.341-2.977-1.836-3.442z" fill="#17BBB3"/><path d="M297.42 149.36c.754 4.291 4.402 14.489 11.128 12.012 6.725-2.477 6.032-9.86 2.493-20.151-3.527-10.291-10.775-29.837-10.775-29.837s4.998-11.024 3.101-12.768c-1.897-1.744-7.637-4.384-8.647-4.546-1.009-.163-1.897 1.604-.608 2.046 1.289.43 5.886 2.965 5.886 2.965s-5.691-1.488-6.53-1.79c-.84-.314-2.068 1.918-.45 2.407 1.617.5 6.02 2.407 6.02 2.407s-5.984-.931-6.811-1.047c-.827-.128-1.8 2.407-.438 2.593 1.362.186 6.02 1.302 6.02 1.302s-5.302.245-6.689.128c-1.386-.116-1.714 2.849.682 2.721 2.395-.128 3.234-.058 3.234-.058s-4.402.616-3.624 3.279c.767 2.663 5.558 35.768 6.008 38.337z" fill="#D68981"/><path d="M302.844 84.279a1.193 1.193 0 01-.839-.686c-.523-1.21-1.63-2.117-2.967-2.43a4.445 4.445 0 00-3.795.86 1.255 1.255 0 01-1.715-.14c-.437-.488-.364-1.22.146-1.64a6.963 6.963 0 015.935-1.336c2.08.488 3.819 1.907 4.646 3.802a1.15 1.15 0 01-.657 1.523 1.392 1.392 0 01-.754.047z" fill="#17BBB3"/><path d="M306.322 82.477a1.193 1.193 0 01-.839-.686c-.973-2.233-3.016-3.907-5.473-4.477-2.456-.57-5.071.023-7.005 1.581a1.254 1.254 0 01-1.714-.14c-.438-.488-.365-1.22.146-1.639 2.517-2.035 5.947-2.802 9.145-2.07 3.211.745 5.874 2.93 7.139 5.85.255.592-.037 1.267-.657 1.523a1.345 1.345 0 01-.742.058z" fill="#17BBB3"/><path d="M309.8 80.674a1.193 1.193 0 01-.839-.686c-1.411-3.255-4.39-5.697-7.966-6.535-3.575-.825-7.394.035-10.203 2.303a1.255 1.255 0 01-1.715-.14c-.437-.488-.365-1.22.146-1.64 3.405-2.743 8.027-3.79 12.344-2.79 4.329 1 7.941 3.953 9.644 7.895a1.15 1.15 0 01-.657 1.524 1.298 1.298 0 01-.754.07z" fill="#17BBB3"/><path d="M247.984 103.163l.864-20.128 15.615 1.15-.864 20.129s-5.606 2.721-9.485 2.395c-3.88-.337-6.13-3.546-6.13-3.546z" fill="#D68981"/><path d="M248.994 83.605l14.703 5.197s-1.873 14.128-15.567 13.779l.864-18.977z" fill="#B54A41"/><path d="M248.592 81.71c.231 1.988.171 10.965 4.658 11.953 4.488.988 9.656 1.43 11.651 1.21 1.982-.222 2.505-4.175 2.237-8.303-.255-4.128-1.118-11.465-2.237-14.349-1.119-2.884-6.044-2.884-8.671-2.72-2.627.162-7.723 1.732-7.638 4.534.085 2.802 0 7.674 0 7.674z" fill="#D68981"/><path d="M249.894 82.186s4.487-4.86 2.359-9.314c0 0 6.081 1.837 11.042.581 4.962-1.255 8.404-6.302 1.156-7.558-7.236-1.256-17.683-2.407-17.573 3.547 0 0-6.057 4.325-.694 12.744h3.71z" fill="#17BBB3"/><path d="M249.796 84.43c.414-2.046.256-3.71-2.335-4.128-2.59-.407-4.317 1.151-4.828 3.465-.523 2.314-.34 4.698 2.238 5.28 2.603.58 4.147-.826 4.925-4.617z" fill="#D68981"/><path d="M248.167 86.558a.32.32 0 01-.268-.151c-.255-.442-1.094-1.616-1.897-1.744-.268-.035-.511.035-.754.244l-.414-.43c.377-.338.803-.465 1.265-.396.633.093 1.204.593 1.63 1.07-.353-1.93-1.168-2.395-1.654-2.5-.73-.151-1.508.36-1.812.907l-.535-.267c.413-.745 1.411-1.419 2.481-1.21.754.151 2.043.896 2.274 4.151.012.14-.085.256-.219.303-.036.023-.073.023-.097.023z" fill="#B54A41"/><path d="M257.896 80.849a.62.62 0 00.632-.605.619.619 0 00-.632-.605.62.62 0 00-.633.605.62.62 0 00.633.605zm5.485-.605c.349 0 .632-.27.632-.605a.619.619 0 00-.632-.604c-.35 0-.633.27-.633.604a.62.62 0 00.633.605zm-1.107 4.605c-.122 0-.256 0-.365-.012a.33.33 0 01-.304-.349.32.32 0 01.365-.29c.778.058 1.374-.117 1.483-.268.013-.011.013-.023-.012-.081-.292-.605-1.751-4-1.812-4.14-.073-.163.012-.349.183-.418a.34.34 0 01.438.174c.012.035 1.507 3.523 1.799 4.116.122.245.11.5-.048.721-.316.407-1.058.547-1.727.547zm.413 1.093c-.024 0-2.152.5-3.818.477-.183 0-.341.139-.341.313 0 .07.024.14.073.198.17.616.827 2.628 1.812 2.581 1.107-.058 1.314-1.941 1.362-2.72a13.5 13.5 0 001.083-.221c.012 0 .024 0 .036-.012.158-.058.255-.22.207-.384a.34.34 0 00-.414-.232z" fill="#6B201E"/><path d="M374.036 439.232l-1.812 13.245h-6.153v-14.442l7.965 1.197zm59.177.268h-9.802l1.119 11.639h7.005l1.678-11.639z" fill="#D68981"/><path d="M429.881 290.128l-34.696-1.582.547 3.71s-7.832 18.186-9.51 22.732c-1.678 4.547-22.656 124.907-22.656 124.907l12.587 5.349 35.523-119.826h2.541l7.528 116.617h13.426s5.035-113.14 5.315-120.628c.28-7.489-.28-15.512-12.028-27.012l1.423-4.267z" fill="#F4A32D"/><path d="M409.791 325.43h1.873c-5.266 17.768-10.532 35.523-15.798 53.291 4.646-17.768 9.279-35.535 13.925-53.291z" fill="#E77829"/><path d="M424.713 415.419c-2.956-41.024-2.846-39.593-2.919-40.64-.097-1.244-.949-12.5-1.192-16.581-.17-2.896-1.131-21.442-2.152-27.268-.146-.802-.475-2.453-1.8-3.174-.888-.489-1.885-.372-2.445-.268 1.119 16.733 2.311 34.686 3.418 51.419 1.386 21.046 2.76 42.093 4.122 63.128h4.889c-.024-.395-1.034-14.256-1.058-14.663-.024-.326-.839-11.686-.863-11.953z" fill="#E78D29"/><path d="M430.185 338.523c5.181.64 8.902 6.558 8.829 14.895-.085 9.466-1.872 34.826-1.641 41.745.17 5.209-.949 7.895-4.731 7.604-.73-18.232-1.727-43.418-2.457-64.244z" fill="#FCB85E"/><path d="M426.634 442.105l1.678-.105c-.073-.977-7.041-97.628-7.564-105.535-.499-7.372-.79-11.023-6.531-11.023l.11 1.697c3.758 0 4.196 1.198 4.743 9.431.523 7.895 7.491 104.558 7.564 105.535zm-53.631 1.686c12.465-39.454 24.918-78.907 37.384-118.361h-1.679l-37.323 117.942 1.618.419zm37.384-154.593h-1.679v36.221h1.679v-36.221z" fill="#E77829"/><path d="M433.213 448.465h-10.349l-4.195 6.419s4.755 1.872 9.096 1.872c4.342 0 8.537-2.547 8.537-2.547l-3.089-5.744zm-59.177.535v6.291h-27.131s1.264-4.954 4.621-5.617c3.356-.674 7.832 1.21 9.79-.674 1.958-1.872 3.222-5.082 3.222-5.082s6.142 4.675 9.498 5.082z" fill="#91322D"/><path d="M407.188 255.349c-5.326 7.209-16.649 22.465-18.74 24.744-2.104 2.279-8.817 6.419-13.147 2.547-4.341-3.884 14.825-27.233 19.86-32.5 5.034-5.268 7.698-7.489 11.188-4.686 3.502 2.802 4.621 4.79.839 9.895z" fill="#D68981"/><path d="M388.8 279.686a9.016 9.016 0 01-.352.407c-2.104 2.279-8.817 6.419-13.147 2.547-2.444-2.186 2.566-10.535 8.294-18.361l.11-.046c0-.012 3.818 8.523 5.095 15.453z" fill="#B54A41"/><path d="M395.027 276.616L380.762 259.5s11.468-14.314 13.012-16.849c1.545-2.546 8.489-5.883 15.786-2.011 7.296 3.883 3.94 10.302-.815 16.186-4.767 5.872-13.718 19.79-13.718 19.79z" fill="#D0B39C"/><path d="M378.414 225.442l4.293-1.628c1.472-.558 3.126.128 3.71 1.523l5.29 12.698c.584 1.407-.134 2.988-1.593 3.547l-4.293 1.639c-1.472.558-3.126-.128-3.709-1.523L376.821 229c-.583-1.407.134-3 1.593-3.558z" fill="#17BBB3"/><path d="M382.33 242.21l-3.916-9.407 5.911-2.082 7.297 9.965c-.244.303-.56.547-.961.698l-5.375 2.046c-1.168.442-2.493-.104-2.956-1.22z" fill="#117F77"/><path d="M384.252 274.151c-.353 3.454-2.688 11.733-8.172 10.117-5.485-1.628-5.339-7.524-3.102-15.872 2.238-8.349 6.896-24.245 6.896-24.245s-4.585-8.5-3.174-9.988c1.41-1.488 5.825-3.872 6.616-4.058.79-.186 1.593 1.186.595 1.593-1.009.407-4.511 2.663-4.511 2.663s4.438-1.465 5.095-1.756c.657-.291 1.751 1.418.499 1.895-1.253.477-4.646 2.221-4.646 2.221s4.694-1.046 5.351-1.186c.645-.139 1.557 1.826.499 2.047-1.07.221-4.707 1.337-4.707 1.337s4.22-.07 5.327-.244c1.095-.175 1.52 2.174-.389 2.197-1.91.024-2.578.117-2.578.117s3.526.267 3.064 2.418c-.486 2.14-2.444 28.675-2.663 30.744z" fill="#D68981"/><path d="M379.886 244.14s2.688 2.407 4.488 2.604l-7.954 9.372c1.8-6.325 3.466-11.976 3.466-11.976z" fill="#B54A41"/><path d="M376.323 222.721a.964.964 0 00.632-.581c.353-.989 1.18-1.768 2.226-2.082a3.568 3.568 0 013.064.489.988.988 0 001.35-.198.901.901 0 00-.207-1.291 5.596 5.596 0 00-4.791-.767c-1.63.488-2.931 1.709-3.478 3.256-.17.488.097 1.011.608 1.174.194.058.401.058.596 0z" fill="#17BBB3"/><path d="M373.453 221.465a.964.964 0 00.632-.581c.645-1.826 2.177-3.256 4.098-3.837a6.586 6.586 0 015.656.895.987.987 0 001.349-.198.9.9 0 00-.206-1.29c-2.116-1.489-4.877-1.931-7.382-1.175s-4.512 2.628-5.351 5.012c-.171.488.097 1.011.608 1.174.207.058.413.058.596 0z" fill="#17BBB3"/><path d="M370.595 220.209a.961.961 0 00.632-.581c.937-2.663 3.174-4.756 5.971-5.593 2.797-.837 5.874-.349 8.234 1.314a.987.987 0 001.349-.198.9.9 0 00-.206-1.291c-2.858-2.011-6.58-2.604-9.96-1.581-3.381 1.023-6.081 3.547-7.224 6.767-.17.489.097 1.012.608 1.175.194.046.401.046.596-.012z" fill="#17BBB3"/><path d="M428.446 294.395s-25.453-2.674-32.726-2.139c0 0-4.196-28.617-4.755-33.698l13.706-20.326s10.349-1.604 16.503 0c6.153 1.605 14.265 2.942 15.943 10.965 1.691 8.024-3.344 29.954-8.671 45.198z" fill="#EFDCCC"/><path d="M430.27 288.884c-2.383-2.814-6.336-8.151-7.552-13.768-1.775-8.221 5.874-12.337 5.874-12.337 1.946-1.233 4.536 2.477 6.725 6.744-1.313 6.326-3.101 13.151-5.047 19.361z" fill="#E1CCBD"/><path d="M415.056 244.977c-5.083-1.245-7.199-5.21-7.734-7.082 3.478-.36 9.644-.767 13.852.326 1.654.43 3.441.849 5.205 1.372-1.411 2.884-5.85 6.721-11.323 5.384z" fill="#D68981"/><path d="M419.374 201.593c-3.588-1.465-11.906-2.337-13.961 1.605-2.056 3.942-9.401 12.779-1.983 17.093 7.419 4.302 15.603 10.697 21.83 6.197 6.227-4.5 2.858-11.651 2.517-14.395-.352-2.744-3.149-8.36-8.403-10.5z" fill="#6B201E"/><path d="M427.583 198.953c6.542 4.221-.535 10.221-4.609 7.175-4.075-3.058-1.934-11.396 4.609-7.175z" fill="#6B201E"/><path d="M422.718 241.174l-2.384-24.407-11.881 1.21 1.678 22.128 12.587 1.069z" fill="#D68981"/><path d="M420.979 223.36c-2.493 2.338-9.729 4.175-14.071 3.5-4.341-.674-4.341-3.465-3.916-8.883.426-5.419 4.476-18.128 14.825-12.512s6.324 14.93 3.162 17.895z" fill="#D68981"/><path d="M420.59 219.36c1.593-1.779 3.174-2.162 4.925-.639s1.824 2.128 0 4.395c-1.824 2.279-4.037 1.14-4.925 0-.876-1.139-.949-2.697 0-3.756z" fill="#D68981"/><path d="M420.493 221.558a.297.297 0 00.279.012c.414-.221 1.654-.744 2.335-.465.231.093.377.267.45.534l.535-.139c-.121-.43-.389-.733-.778-.884-.535-.209-1.228-.104-1.788.07 1.241-1.314 2.092-1.314 2.53-1.163.644.221.997.965.948 1.535l.548.035c.061-.756-.389-1.744-1.314-2.07-.656-.232-2.031-.256-3.843 2.151-.073.105-.073.233.025.326a.253.253 0 00.073.058z" fill="#B54A41"/><path d="M411.749 214.174a.654.654 0 01.742-.546c.364.046.62.36.571.709a.655.655 0 01-.742.547.654.654 0 01-.571-.71zm-5.619-1.325a.655.655 0 01.742-.547c.365.047.62.361.571.71a.653.653 0 01-.741.546c-.365-.046-.621-.36-.572-.709zm1.082 5.628l.39.034a.344.344 0 00.364-.313.329.329 0 00-.34-.349c-.827-.035-1.411-.303-1.508-.465-.012-.012-.012-.024.024-.082.389-.581 2.372-3.918 2.457-4.07.097-.162.036-.36-.134-.453a.366.366 0 00-.486.128c-.025.035-2.068 3.465-2.445 4.035-.158.244-.182.511-.048.744.267.465 1.033.709 1.726.791zm1.557 2.86c1.18 0 2.445-.279 3.308-.593.219-.081.328-.314.243-.512a.418.418 0 00-.535-.232c-1.581.57-4.22.872-5.071-.07a.436.436 0 00-.596-.035.392.392 0 00-.037.57c.584.639 1.606.872 2.688.872z" fill="#6B201E"/><path d="M403.503 211.151c.535 2.768 6.859-2.744 7.479-5.221 0 0 1.034 7.675 5.874 8.314 4.828.64 1.046 6.163 0 7.384-1.045 1.221.292 2.907 3.199.442 2.906-2.465 6.932-1.5 6.798-6.977-.134-5.488-4.597-12.035-12.648-12.977-8.051-.942-11.334 5.768-10.702 9.035z" fill="#6B201E"/><path d="M428.312 253.279l11.14-1.209s6.433 29.011 6.3 31.965c-.134 2.942-10.058 38.523-10.058 38.523s-.267 8.023 0 9.5c.268 1.477-.17 4.058-1.97 4.151 0 0 .17 1.326-.778 1.349 0 0-.426.826-1.52.802-1.107-.023-2.943-1.407-2.785-2.535.158-1.128.158-3.255.158-3.255s-1.362 2.453-2.201 1.453c-.84-1-.864-1.825.571-2.779 1.447-.953.329-8.012 3.649-9.616l2.055-37.582-4.561-30.767z" fill="#D68981"/><path d="M439.452 252.081l-11.14 1.21 4.001 26.93 11.906-5.582c-1.872-9.5-4.767-22.558-4.767-22.558zm-7.82 54.698l-.814 14.849 4.706-14.849h-3.892z" fill="#B54A41"/><path d="M426.853 242.581c4.743-2.837 11.334-1.197 15.396 11.64 4.062 12.837 5.74 17.256 5.74 17.256s-7.832 2.697-15.384 2.755c-7.552.059-8.123-2.081-8.123-2.081s-3.649-25.965 2.371-29.57z" fill="#EFD7CC"/><path d="M103.058 449.768c-3.892-.849-9.146 1.232-11.383-.989-2.238-2.221-3.624-5.988-3.624-5.988s-.718.523-1.812 1.256l.158-8.14-11.213 1.488.547 10.733c-.535.163-1.058.291-1.52.337l-.146 7.314 34.247.616c-.013.012-1.363-5.779-5.254-6.627zm-43.757-4.698h-.024l.182-9.175-11.626-.209-.194 10.081-5.485 7.838s5.497 3.465 11.237 3.569c5.74.105 12.088-2.267 12.088-2.267l-6.178-9.837z" fill="#6B201E"/><path d="M48.478 290.035l33.784-1.163-.097 2.5c3.064 6.372 11.42 41.07 15.323 57.686a56.98 56.98 0 011.313 17.814l-6.214 74.419-22.304.616 7.212-77-5.497-39.872-7.005 116.511-21.063 1.489s1.544-105.14 1.41-112.628c-.134-7.488 4.074-37.465 4.074-37.465l-.936-2.907z" fill="#F4A32D"/><path d="M51.591 327.593c-.219-2.43-2.785-4.302-5.776-5.291-.329 3.454-.523 6.361-.5 8.082.074 4.384-.413 42.186-.838 72.802 3.758-1.081 7.637-4.849 7.15-21.511-.68-23.279.487-48.256-.036-54.082zm20.383-2.581L79.927 365c-.815-.035-1.63-.07-2.457-.116a44909.14 44909.14 0 00-5.496-39.872z" fill="#E77829"/><path d="M74.467 441.779l-4.196.117 7.2-77.012 2.456.116-5.46 76.779zm-1.782-150.371l-1.825.01.212 33.593 1.824-.01-.211-33.593z" fill="#E77829"/><path d="M76.303 441.802l-1.824-.116L79.915 365l-7.954-39.988h.912c2.956 13.29 5.923 26.593 8.878 39.883l-5.448 76.907z" fill="#E77829"/><path d="M97.743 379.384c-5.545-.279-8.123 9.756-8.975 20.593-.851 10.837-4.73 28.209 3.685 30.302.353.093.681.128 1.01.186l4.28-51.081z" fill="#FCB85E"/><path d="M73.652 243.082c-7.942 7.802-1.812 11.476 2.736 17.232 4.536 5.756 12.976 17.384 17.926 21.116 4.937 3.721 18.242-3.651 4.524-19.279-13.73-15.639-17.245-26.86-25.186-19.069z" fill="#560000"/><path d="M86.141 272.803c2.98 3.639 5.923 6.941 8.16 8.627 4.938 3.721 18.243-3.651 4.525-19.279a167.797 167.797 0 01-5.728-6.93c-1.265 2.803-4.585 10.419-6.957 17.582z" fill="#1D0404"/><path d="M100.771 224.872l-4.256-1.709c-1.46-.581-3.125.07-3.746 1.465l-5.533 12.593c-.608 1.396.073 2.989 1.532 3.582l4.257 1.709c1.46.581 3.125-.07 3.745-1.465l5.534-12.593c.608-1.384-.073-2.989-1.533-3.582z" fill="#076D45"/><path d="M93.973 273.465c.292 3.454 2.457 11.779 7.966 10.256 5.509-1.523 5.485-7.43 3.417-15.814-2.067-8.395-6.42-24.372-6.42-24.372s4.754-8.419 3.368-9.93c-1.387-1.512-5.74-3.977-6.53-4.175-.791-.197-1.618 1.152-.621 1.582.997.43 4.463 2.744 4.463 2.744s-4.414-1.547-5.059-1.849c-.645-.302-1.776 1.384-.535 1.884 1.253.5 4.597 2.302 4.597 2.302s-4.682-1.128-5.327-1.279c-.644-.151-1.593 1.791-.535 2.035 1.07.233 4.682 1.419 4.682 1.419s-4.22-.152-5.314-.338c-1.095-.186-1.569 2.14.34 2.198 1.91.058 2.566.163 2.566.163s-3.539.209-3.113 2.36c.45 2.175 1.885 28.745 2.055 30.814z" fill="#D68981"/><path d="M98.947 243.547s-2.736 2.36-4.536 2.523l7.771 9.512a1995.888 1995.888 0 00-3.235-12.035z" fill="#B54A41"/><path d="M102.924 222.198a.963.963 0 01-.62-.593c-.329-1-1.143-1.791-2.177-2.117a3.56 3.56 0 00-3.077.431 1.003 1.003 0 01-1.35-.221.903.903 0 01.231-1.291 5.57 5.57 0 014.804-.674c1.617.523 2.894 1.755 3.405 3.314a.92.92 0 01-.632 1.162 1.103 1.103 0 01-.584-.011z" fill="#076D45"/><path d="M105.818 220.989a.967.967 0 01-.62-.594c-.608-1.837-2.116-3.302-4.013-3.906a6.557 6.557 0 00-5.667.802.99.99 0 01-1.35-.221.903.903 0 01.231-1.291c2.14-1.453 4.913-1.837 7.406-1.046 2.493.802 4.451 2.709 5.254 5.104a.92.92 0 01-.632 1.163 1.08 1.08 0 01-.609-.011z" fill="#076D45"/><path d="M108.701 219.791a.967.967 0 01-.621-.593c-.887-2.675-3.076-4.803-5.861-5.698a9.606 9.606 0 00-8.258 1.163c-.438.291-1.046.198-1.35-.221a.903.903 0 01.231-1.291c2.895-1.953 6.628-2.488 9.997-1.407 3.369 1.082 6.02 3.663 7.09 6.896a.92.92 0 01-.632 1.162 1.145 1.145 0 01-.596-.011z" fill="#076D45"/><path d="M90.957 250.117l13.572-1.524s11.225 37.303-1.605 37.942c-12.842.628-13.146-24.256-11.967-36.418zM49.39 292.919s25.502-2.221 32.763-1.547c0 0 2.128-46.814-2.554-51.139-4.695-4.326-15.652-4.826-21.83-3.338-6.19 1.489-14.326 2.687-16.162 10.675-1.837 7.988 2.772 30.012 7.783 45.349z" fill="#600"/><path d="M47.687 287.372a510.93 510.93 0 011.715-14.965 520.718 520.718 0 013.758-24.523c-1.922-1.268-9.79 2-10.143 20.023 1.18 6.372 2.846 13.221 4.67 19.465z" fill="#560000"/><path d="M63.752 243.744c5.108-1.151 7.297-5.069 7.869-6.93-3.478-.43-9.632-.942-13.852.081-1.654.396-3.454.78-5.23 1.28 1.363 2.895 5.729 6.802 11.213 5.569z" fill="#D68981"/><path d="M56.176 239.802l2.858-24.36 11.857 1.419-2.116 22.093-12.6.848z" fill="#D68981"/><path d="M70.891 216.861l-11.857-1.419-.766 6.581s-1.204 12.198 10.896 13.047l1.727-18.209z" fill="#B54A41"/><path d="M58.255 222.023c2.445 2.384 9.657 4.349 13.998 3.756 4.354-.593 4.403-3.384 4.086-8.814-.316-5.43-4.122-18.209-14.581-12.779-10.447 5.43-6.604 14.814-3.503 17.837z" fill="#D68981"/><path d="M67.668 213.012c-.036-.349-.365-.593-.73-.558-.364.035-.632.349-.583.698.036.348.365.593.73.558a.646.646 0 00.583-.698zm5.655-1.233c-.036-.349-.364-.593-.73-.558-.364.035-.632.349-.583.698.036.348.365.593.73.558a.646.646 0 00.583-.698zm-1.203 5.617c-.134.011-.268.023-.39.023a.355.355 0 01-.365-.326c0-.186.146-.337.34-.349.828-.023 1.412-.267 1.509-.441.012-.012.012-.024-.012-.082-.377-.593-2.299-3.965-2.384-4.105a.322.322 0 01.146-.453.353.353 0 01.474.14c.025.034 1.995 3.5 2.36 4.081.158.244.17.512.036.744-.255.465-1.01.686-1.715.768zm-1.606 2.825a10.223 10.223 0 01-3.296-.651.392.392 0 01-.23-.523c.084-.21.328-.303.547-.221 1.568.604 4.195.942 5.07.023a.436.436 0 01.597-.023c.17.151.182.407.024.57-.608.627-1.63.848-2.712.825zm-11.784-2.198s3.162-2.523 1.958-6.593l-1.216-4.069s10.872 2.372 14.119-1.349c3.235-3.721-.268-10.907-8.233-7.779-7.966 3.128-15.688 5.534-14.217 11.302 1.484 5.767.9 12.07 7.589 8.488z" fill="#6B201E"/><path d="M58.73 218.023c-1.557-1.802-3.138-2.221-4.913-.732-1.776 1.488-1.861 2.093-.086 4.395 1.776 2.302 4.014 1.209 4.926.093.9-1.116 1.01-2.663.073-3.756z" fill="#D68981"/><path d="M58.778 220.233a.3.3 0 01-.28 0c-.413-.233-1.641-.768-2.334-.512-.231.093-.377.256-.462.523l-.523-.151c.133-.43.401-.721.79-.872.547-.209 1.228-.081 1.788.105-1.216-1.338-2.067-1.349-2.505-1.21-.645.21-1.01.954-.985 1.512l-.548.035c-.036-.756.426-1.733 1.35-2.047.657-.221 2.031-.221 3.795 2.221a.255.255 0 01-.025.326c-.012.046-.036.058-.06.07z" fill="#B54A41"/><path d="M50.339 251.814l-11.116-1.407s-8.112 31.907-8.026 34.849c.085 2.942 10.41 35.686 10.41 35.686s.11 8.023-.183 9.488c-.304 1.466.085 4.059 1.885 4.186 0 0-.194 1.326.754 1.373 0 0 .402.837 1.508.825 1.107 0 2.968-1.349 2.834-2.477-.134-1.128-.097-3.267-.097-3.267s1.313 2.477 2.176 1.488c.864-.988.9-1.814-.523-2.79-1.422-.977-.17-8.012-3.453-9.675l-3.77-37.221 7.6-31.058z" fill="#D68981"/><path d="M48.6 242.07c-8.769-2.047-14.242 10.442-17.306 21.977-3.065 11.535-4.536 24.5-4.536 24.5l11.225 27.139s11.516.989 12.599-1.907l-5.619-27.407s6.932-23.046 8.027-30.058c1.094-7.012.291-13.139-4.39-14.244z" fill="#600"/></svg>