<svg width="511" height="466" viewBox="0 0 511 466" fill="none" xmlns="http://www.w3.org/2000/svg">
<path d="M220.281 85.7558H179.37C177.485 85.7558 175.953 84.2907 175.953 82.4884C175.953 80.6861 174.42 79.2209 172.535 79.2209H19.1447C15.3868 79.2209 12.3344 82.1396 12.3344 85.7326C12.3344 89.3256 15.3868 92.2442 19.1447 92.2442H60.6756C62.2201 92.2442 63.4849 93.4419 63.4849 94.9303C63.4849 96.407 62.2323 97.6163 60.6756 97.6163H7.81034C4.05249 97.6163 1 100.535 1 104.128C1 107.721 4.05249 110.64 7.81034 110.64H84.378C87.7953 110.64 90.5681 107.988 90.5681 104.721C90.5681 101.454 93.3409 98.8023 96.7583 98.8023H220.281C224.039 98.8023 227.091 95.8837 227.091 92.2907C227.091 88.6744 224.051 85.7558 220.281 85.7558Z" stroke="#FEE7D5" stroke-width="2" stroke-miterlimit="10"/>
<path d="M348.656 4.83721C348.656 2.72093 346.856 1 344.643 1H265.886C262.128 1 259.075 3.91861 259.075 7.51163C259.075 11.1047 262.128 14.0233 265.886 14.0233H280.881C283.094 14.0233 284.894 15.7442 284.894 17.8605C284.894 19.9767 286.694 21.6977 288.907 21.6977H367.664C371.422 21.6977 374.474 18.7791 374.474 15.186C374.474 11.593 371.422 8.67442 367.664 8.67442H352.669C350.443 8.67442 348.656 6.96512 348.656 4.83721Z" stroke="#FEE7D5" stroke-width="2" stroke-miterlimit="10"/>
<path d="M67.1576 285.709C67.1576 283.593 68.9575 281.872 71.1708 281.872H149.928C153.685 281.872 156.738 284.791 156.738 288.384C156.738 291.977 153.685 294.895 149.928 294.895H134.933C132.719 294.895 130.919 296.616 130.919 298.733C130.919 300.849 129.12 302.57 126.906 302.57H48.1495C44.3916 302.57 41.3391 299.651 41.3391 296.058C41.3391 292.465 44.3916 289.547 48.1495 289.547H63.1444C65.3577 289.547 67.1576 287.837 67.1576 285.709Z" stroke="#FEE7D5" stroke-width="2" stroke-miterlimit="10"/>
<path d="M465.161 295.233C465.161 292.651 462.972 290.558 460.272 290.558H443.356C441.142 290.558 439.343 288.837 439.343 286.721C439.343 284.605 437.543 282.884 435.329 282.884H356.573C352.815 282.884 349.762 285.802 349.762 289.395C349.762 292.988 352.815 295.907 356.573 295.907H373.489C374.644 295.907 375.581 296.802 375.581 297.907C375.581 299.012 374.644 299.907 373.489 299.907H367.761C364.003 299.907 360.951 302.826 360.951 306.419C360.951 310.012 364.003 312.93 367.761 312.93H503.19C506.947 312.93 510 310.012 510 306.419C510 302.826 506.947 299.907 503.19 299.907H470.038C467.35 299.907 465.161 297.814 465.161 295.233Z" stroke="#FEE7D5" stroke-width="2" stroke-miterlimit="10"/>
<path d="M92.2221 270.465H16.2746C12.5168 270.465 9.46427 267.547 9.46427 263.954C9.46427 260.361 12.5168 257.442 16.2746 257.442H92.2342C95.9921 257.442 99.0446 260.361 99.0446 263.954C99.0324 267.547 95.9921 270.465 92.2221 270.465Z" stroke="#FEE7D5" stroke-width="2" stroke-miterlimit="10"/>
<path d="M117.53 249.488H82.9552C79.1973 249.488 76.1448 246.57 76.1448 242.977C76.1448 239.384 79.1973 236.465 82.9552 236.465H117.53C121.288 236.465 124.34 239.384 124.34 242.977C124.34 246.581 121.288 249.488 117.53 249.488Z" stroke="#FEE7D5" stroke-width="2" stroke-miterlimit="10"/>
<path d="M499.553 166.128H423.594C419.836 166.128 416.783 163.209 416.783 159.616C416.783 156.023 419.836 153.105 423.594 153.105H499.553C503.311 153.105 506.364 156.023 506.364 159.616C506.364 163.221 503.311 166.128 499.553 166.128Z" stroke="#FEE7D5" stroke-width="2" stroke-miterlimit="10"/>
<path d="M466.487 111.535C466.487 108.442 469.114 105.93 472.349 105.93H490.226C493.984 105.93 497.036 103.012 497.036 99.4186C497.036 95.8256 493.984 92.907 490.226 92.907H413.33C410.095 92.907 407.468 95.4186 407.468 98.5116C407.468 101.605 404.841 104.116 401.606 104.116H347.683C343.925 104.116 340.872 107.035 340.872 110.628C340.872 114.221 343.925 117.14 347.683 117.14H350.225C352.328 117.14 354.043 118.779 354.043 120.791C354.043 122.802 352.328 124.442 350.225 124.442H331.873C328.115 124.442 325.063 127.36 325.063 130.954C325.063 134.547 328.115 137.465 331.873 137.465H490.238C493.996 137.465 497.048 134.547 497.048 130.954C497.048 127.36 493.996 124.442 490.238 124.442H447.442C445.338 124.442 443.623 122.802 443.623 120.791C443.623 118.779 445.338 117.14 447.442 117.14H460.637C463.86 117.14 466.487 114.628 466.487 111.535Z" stroke="#FEE7D5" stroke-width="2" stroke-miterlimit="10"/>
<path d="M262.298 327.5C299.378 327.5 333.272 340.535 359.419 362.035L391.16 328.035C356.609 299.256 311.624 280.465 262.298 280.465C213.033 280.465 168.121 299.221 133.571 327.895L165.275 361.93C191.422 340.5 225.255 327.5 262.298 327.5Z" fill="#B54A41"/>
<path d="M386.198 333.349L391.16 328.035C356.609 299.256 311.624 280.465 262.298 280.465C213.033 280.465 168.121 299.221 133.571 327.895L138.532 333.221C172.365 306.802 215.355 289.767 262.298 289.767C309.302 289.767 352.341 306.837 386.198 333.349Z" fill="#D68981"/>
<path d="M262.225 234.79C324.102 234.79 380.494 256.86 423.74 293.058L453.778 260.93C402.555 217.849 335.667 187.721 262.225 187.721C188.88 187.721 122.09 217.767 70.9276 260.732L100.905 292.895C144.127 256.744 200.409 234.79 262.225 234.79Z" fill="#B54A41"/>
<path d="M449.181 265.849L453.79 260.93C402.567 217.849 335.679 187.721 262.237 187.721C188.892 187.721 122.102 217.767 70.9395 260.732L75.5364 265.663C126.067 224.721 191.069 196.43 262.225 196.43C333.49 196.442 398.578 224.814 449.181 265.849Z" fill="#D68981"/>
<path d="M327.653 396.046C309.971 381.802 287.18 371.965 262.322 371.965C237.465 371.965 214.723 381.779 197.065 395.953L262.322 466L327.653 396.046Z" fill="#B54A41"/>
<path d="M323.639 400.349L327.665 396.046C309.982 381.802 287.192 371.965 262.334 371.965C237.476 371.965 214.735 381.779 197.076 395.953L201.102 400.267C218.128 387.767 239.337 379.349 262.346 379.349C285.343 379.349 306.577 387.791 323.639 400.349Z" fill="#D68981"/>
<path d="M243.375 281.384L240.213 284.605H248.483L244.008 295.163H263.843C263.843 295.163 264.366 290.046 262.809 289.058C262.651 288.953 262.481 288.802 262.286 288.628C262.468 288.546 262.651 288.465 262.833 288.384C262.894 288.349 262.955 288.314 263.016 288.279C263.283 288.139 263.539 287.988 263.806 287.825C263.843 287.802 263.879 287.779 263.916 287.756C264.195 287.57 264.487 287.372 264.767 287.151C264.84 287.105 264.901 287.046 264.974 287C265.253 286.779 265.533 286.546 265.813 286.302C265.837 286.279 265.861 286.256 265.886 286.244C266.153 286.012 266.409 285.767 266.664 285.512C266.725 285.453 266.786 285.395 266.847 285.337C267.114 285.07 267.382 284.802 267.637 284.512C267.686 284.465 267.722 284.419 267.771 284.36C268.014 284.105 268.245 283.837 268.476 283.57C268.513 283.523 268.561 283.477 268.598 283.43C268.853 283.128 269.109 282.825 269.352 282.523C269.4 282.465 269.437 282.407 269.486 282.349C269.729 282.035 269.972 281.732 270.203 281.419C270.398 281.163 270.58 280.907 270.762 280.651C267.941 280.523 265.12 280.453 262.274 280.453C255.913 280.453 249.602 280.779 243.375 281.384Z" fill="#B54A41"/>
<path d="M284.176 104.721L273.608 123.779C273.608 123.779 296.642 156.197 302.078 163.86C307.514 171.535 325.111 162.593 316.574 149.372C308.025 136.139 284.176 104.721 284.176 104.721Z" fill="#F4A32D"/>
<path d="M242.196 190.826H273.608C277.269 190.826 280.333 188.163 280.674 184.674L281.878 172.302H234.266L235.118 184.488C235.373 188.058 238.462 190.826 242.196 190.826Z" fill="#076D45"/>
<path opacity="0.25" d="M273.62 190.826C277.281 190.826 280.346 188.163 280.686 184.675L281.647 174.791C275.274 175.07 265.959 176.442 265.034 183.14C264.682 185.64 264.11 188.291 263.478 190.814H273.62V190.826Z" fill="#06492C"/>
<path d="M269.729 274.709C268.671 277.291 260.754 290.384 254.369 289.058C247.984 287.744 251.438 274.872 253.165 270.919L269.729 274.709Z" fill="#6B201E"/>
<path d="M287.326 177.709C278.91 174.884 269.644 178.942 266.19 196.511C262.736 214.081 250.064 270.488 250.064 270.488C250.064 270.488 250.854 278.163 259.902 278.895C268.95 279.639 272.574 273.942 272.574 273.942C272.574 273.942 291.729 205.709 293.273 198.965C295.085 191.07 296.897 180.93 287.326 177.709Z" fill="#0C9C67"/>
<path d="M254.174 276.814L253.287 276.628C253.469 275.826 271.2 196.756 273.158 187.872C273.304 187.233 273.45 186.616 273.608 186.012C274.216 183.547 274.751 181.419 273.766 180.407L274.435 179.814C275.761 181.163 275.177 183.5 274.508 186.209C274.362 186.802 274.204 187.419 274.07 188.047C272.1 196.942 254.357 276.023 254.174 276.814Z" fill="#06492C"/>
<path opacity="0.25" d="M258.674 231.709C254.381 251.233 250.052 270.5 250.052 270.5C250.052 270.5 250.283 272.651 251.839 274.791C250.368 280.163 249.444 288.047 254.369 289.058C259.404 290.105 265.399 282.163 268.221 277.5C268.342 277.442 268.44 277.384 268.549 277.326C266.068 271.465 261.374 264.186 261.374 264.186L258.674 231.709Z" fill="#06492C"/>
<path d="M269.303 203.256C265.74 201.105 264.256 203.139 262.286 212.919C260.316 222.698 258.078 234.779 257.555 237.849C257.154 240.267 258.492 244.826 260.474 245.919C263.295 232.349 266.944 214.802 269.303 203.256Z" fill="#06492C"/>
<path d="M227.517 136.407C227.517 136.407 229.937 168.767 230.277 171.488C230.606 174.197 231.871 175.116 238.146 175.5C244.421 175.883 277.451 175.442 280.564 174.418C283.69 173.395 288.311 173.523 288.396 167.337C288.494 161.151 288.895 118.314 288.749 113.128C288.615 107.93 283.799 102.36 275.214 100.837C266.628 99.3136 260.146 98.7322 253.664 98.6392C247.194 98.5462 234.57 100.837 230.752 103.162C226.945 105.476 225.547 110.709 227.517 136.407Z" fill="#F4A32D"/>
<path d="M256.23 111.395C266.907 110.895 269.717 104.279 270.41 100.035C264.11 99.0927 258.881 98.6974 253.676 98.6276C250.708 98.5927 246.44 99.0462 242.317 99.7904C242.268 103.046 243.278 112 256.23 111.395Z" fill="#D68981"/>
<path d="M233.026 131.942C231.469 133.86 229.669 136.081 227.687 138.57C228.234 145.86 229.998 169.197 230.277 171.477C230.606 174.186 231.871 175.104 238.146 175.488C241.089 175.674 249.918 175.663 258.784 175.511L233.026 131.942Z" fill="#E77829"/>
<path d="M230.764 103.163C230.764 103.163 197.527 142.825 193.125 151.244C188.722 159.651 199.497 175.232 213.568 156.686C227.651 138.139 239.362 124.267 239.362 124.267L230.764 103.163Z" fill="#F4A32D"/>
<path d="M246.525 167.302C246.525 167.302 252.593 163.093 253.287 162.36C253.98 161.639 255.585 162.942 254.174 164.826C252.764 166.721 252.46 167.163 246.525 167.302Z" fill="#B54A41"/>
<path d="M198.585 153.825C192.249 163.628 200.093 170.267 216.486 172.465C232.892 174.663 259.623 186 262.104 173.837C264.584 161.674 247.644 165.651 247.644 165.651C247.644 165.651 226.301 159.035 218.578 156.5C210.844 153.976 202.306 148.081 198.585 153.825Z" fill="#D68981"/>
<path d="M227.675 174.721C236.37 176.802 245.71 179.36 252.496 179.383C243.193 170.128 233.95 172.849 227.675 174.721Z" fill="#B54A41"/>
<path d="M244.543 285.86L239.362 298.07H259.197C259.197 298.07 259.72 292.953 258.163 291.965C256.607 290.977 253.676 285.86 253.676 285.86H244.543Z" fill="#91322D"/>
<path d="M236.078 177.756C222.518 178.5 223.662 187.163 224.951 197.802C226.24 208.442 237.89 273.267 237.89 273.267C237.89 273.267 230.898 282.919 239.702 282.674L235.568 286.884H259.379L255.5 280.453C255.5 280.453 261.714 280.953 259.379 275.5C257.044 270.058 255.245 263.128 255.245 263.128C255.245 263.128 251.365 199.791 251.11 193.105C250.854 186.418 249.541 177.023 236.078 177.756Z" fill="#076D45"/>
<path d="M235.957 263.047C239.958 262.372 243.424 258.814 243.132 255.337C242.731 250.488 237.453 215.023 236.443 208.244C235.555 202.302 231.25 201.57 225.571 202.779C227.553 215.605 233.014 246.523 235.957 263.047Z" fill="#076645"/>
<path d="M251.414 287.639L249.492 281.593L249.93 281.465C249.954 281.453 252.508 280.686 253.129 278.767C253.554 277.465 253.007 275.884 251.499 274.081L251.414 273.977L251.402 273.849C251.341 273.139 245.309 202.395 244.506 195.686C243.655 188.593 245.734 186.011 249.127 184.314L249.553 185.081C246.416 186.651 244.628 188.953 245.418 195.581C246.209 202.151 252.01 270.174 252.302 273.639C253.943 275.639 254.515 277.453 254.004 279.023C253.408 280.86 251.499 281.802 250.635 282.139L252.302 287.372L251.414 287.639Z" fill="#0C9C67"/>
<path d="M301.154 88.0694L294.246 85.9415C292.738 85.4764 291.133 86.2671 290.646 87.6973L284.687 105.36C284.201 106.802 285.028 108.337 286.524 108.802L293.431 110.93C294.939 111.395 296.544 110.604 297.031 109.174L302.99 91.5113C303.476 90.0694 302.649 88.5345 301.154 88.0694Z" fill="#17BBB3"/>
<path d="M297.42 149.36C298.174 153.651 301.822 163.849 308.548 161.372C315.273 158.895 314.58 151.512 311.041 141.221C307.514 130.93 300.266 111.384 300.266 111.384C300.266 111.384 305.264 100.36 303.367 98.6162C301.47 96.872 295.73 94.2324 294.72 94.0696C293.711 93.9068 292.823 95.6743 294.112 96.1162C295.401 96.5464 299.998 99.0813 299.998 99.0813C299.998 99.0813 294.307 97.5929 293.468 97.2906C292.628 96.9766 291.4 99.2092 293.018 99.6975C294.635 100.198 299.038 102.105 299.038 102.105C299.038 102.105 293.054 101.174 292.227 101.058C291.4 100.93 290.427 103.465 291.789 103.651C293.151 103.837 297.809 104.953 297.809 104.953C297.809 104.953 292.507 105.198 291.12 105.081C289.734 104.965 289.406 107.93 291.802 107.802C294.197 107.674 295.036 107.744 295.036 107.744C295.036 107.744 290.634 108.36 291.412 111.023C292.179 113.686 296.97 146.791 297.42 149.36Z" fill="#D68981"/>
<path d="M302.844 84.2788C302.479 84.1974 302.163 83.9532 302.005 83.5927C301.482 82.3834 300.375 81.4764 299.038 81.1625C297.712 80.8485 296.289 81.1741 295.243 82.0229C294.732 82.4415 293.966 82.3718 293.528 81.8834C293.091 81.395 293.164 80.6625 293.674 80.2439C295.316 78.9183 297.53 78.4183 299.609 78.9067C301.689 79.395 303.428 80.8136 304.255 82.709C304.51 83.302 304.218 83.9881 303.598 84.2322C303.355 84.3136 303.087 84.3369 302.844 84.2788Z" fill="#17BBB3"/>
<path d="M306.322 82.4767C305.957 82.3953 305.641 82.1511 305.483 81.7907C304.51 79.5581 302.467 77.8837 300.01 77.3139C297.554 76.7441 294.939 77.3372 293.005 78.8953C292.495 79.3139 291.729 79.2441 291.291 78.7558C290.853 78.2674 290.926 77.5348 291.437 77.1162C293.954 75.0814 297.384 74.3139 300.582 75.0465C303.793 75.7906 306.456 77.9767 307.721 80.8953C307.976 81.4883 307.684 82.1627 307.064 82.4186C306.833 82.5116 306.565 82.5232 306.322 82.4767Z" fill="#17BBB3"/>
<path d="M309.8 80.6743C309.435 80.5929 309.119 80.3487 308.961 79.9883C307.55 76.7325 304.571 74.2906 300.995 73.4534C297.42 72.6278 293.601 73.4883 290.792 75.7557C290.281 76.1743 289.515 76.1045 289.077 75.6162C288.64 75.1278 288.712 74.3952 289.223 73.9766C292.628 71.2325 297.25 70.1859 301.567 71.1859C305.896 72.1859 309.508 75.1394 311.211 79.0813C311.466 79.6743 311.174 80.3604 310.554 80.6046C310.311 80.7092 310.043 80.7208 309.8 80.6743Z" fill="#17BBB3"/>
<path d="M247.984 103.163L248.848 83.0347L264.463 84.1858L263.599 104.314C263.599 104.314 257.993 107.035 254.114 106.709C250.234 106.372 247.984 103.163 247.984 103.163Z" fill="#D68981"/>
<path d="M248.994 83.6045L263.697 88.8022C263.697 88.8022 261.824 102.93 248.13 102.581L248.994 83.6045Z" fill="#B54A41"/>
<path d="M248.592 81.7094C248.823 83.6978 248.763 92.6745 253.25 93.6629C257.738 94.6513 262.906 95.0931 264.901 94.8722C266.883 94.6513 267.406 90.6978 267.138 86.5699C266.883 82.442 266.02 75.1048 264.901 72.221C263.782 69.3373 258.857 69.3373 256.23 69.5001C253.603 69.6629 248.507 71.2327 248.592 74.035C248.677 76.8373 248.592 81.7094 248.592 81.7094Z" fill="#D68981"/>
<path d="M249.894 82.1859C249.894 82.1859 254.381 77.3254 252.253 72.8719C252.253 72.8719 258.334 74.7091 263.295 73.4533C268.257 72.1975 271.699 67.151 264.451 65.8952C257.215 64.6394 246.768 63.4882 246.878 69.4417C246.878 69.4417 240.821 73.7673 246.184 82.1859H249.894Z" fill="#17BBB3"/>
<path d="M249.796 84.4301C250.21 82.3836 250.052 80.7208 247.461 80.3022C244.871 79.8952 243.144 81.4533 242.633 83.7673C242.11 86.0812 242.293 88.465 244.871 89.0464C247.474 89.6278 249.018 88.2208 249.796 84.4301Z" fill="#D68981"/>
<path d="M248.167 86.5581C248.057 86.5581 247.96 86.5 247.899 86.407C247.644 85.9651 246.805 84.7907 246.002 84.6628C245.734 84.6279 245.491 84.6977 245.248 84.907L244.834 84.4767C245.211 84.1395 245.637 84.0116 246.099 84.0814C246.732 84.1744 247.303 84.6744 247.729 85.1511C247.376 83.2209 246.561 82.7558 246.075 82.6511C245.345 82.5 244.567 83.0116 244.263 83.5581L243.728 83.2907C244.141 82.5465 245.139 81.8721 246.209 82.0814C246.963 82.2325 248.252 82.9767 248.483 86.2325C248.495 86.3721 248.398 86.4884 248.264 86.5349C248.228 86.5581 248.191 86.5581 248.167 86.5581Z" fill="#B54A41"/>
<path d="M257.896 80.8487C258.245 80.8487 258.528 80.578 258.528 80.2441C258.528 79.9101 258.245 79.6394 257.896 79.6394C257.546 79.6394 257.263 79.9101 257.263 80.2441C257.263 80.578 257.546 80.8487 257.896 80.8487Z" fill="#6B201E"/>
<path d="M263.381 80.244C263.73 80.244 264.013 79.9733 264.013 79.6393C264.013 79.3054 263.73 79.0347 263.381 79.0347C263.031 79.0347 262.748 79.3054 262.748 79.6393C262.748 79.9733 263.031 80.244 263.381 80.244Z" fill="#6B201E"/>
<path d="M262.274 84.8488C262.152 84.8488 262.018 84.8489 261.909 84.8372C261.727 84.8256 261.593 84.6628 261.605 84.4884C261.617 84.314 261.775 84.1744 261.97 84.1977C262.748 84.2558 263.344 84.0814 263.453 83.9303C263.466 83.9186 263.466 83.907 263.441 83.8489C263.149 83.2442 261.69 79.8488 261.629 79.7093C261.556 79.5465 261.641 79.3605 261.812 79.2907C261.982 79.2209 262.177 79.3023 262.25 79.4651C262.262 79.5 263.757 82.9884 264.049 83.5814C264.171 83.8256 264.159 84.0814 264.001 84.3023C263.685 84.7093 262.943 84.8488 262.274 84.8488Z" fill="#6B201E"/>
<path d="M262.687 85.9417C262.663 85.9417 260.535 86.4417 258.869 86.4185C258.686 86.4185 258.528 86.558 258.528 86.7324C258.528 86.8022 258.552 86.8719 258.601 86.9301C258.771 87.5464 259.428 89.558 260.413 89.5115C261.52 89.4533 261.727 87.5696 261.775 86.7906C262.395 86.6859 262.821 86.5812 262.858 86.5696C262.87 86.5696 262.882 86.5696 262.894 86.558C263.052 86.4999 263.149 86.3371 263.101 86.1743C263.052 85.9999 262.87 85.8952 262.687 85.9417Z" fill="#6B201E"/>
<path d="M374.036 439.232L372.224 452.477H366.071V438.035L374.036 439.232Z" fill="#D68981"/>
<path d="M433.213 439.5H423.411L424.53 451.139H431.535L433.213 439.5Z" fill="#D68981"/>
<path d="M429.881 290.128L395.185 288.546L395.732 292.256C395.732 292.256 387.9 310.442 386.222 314.988C384.544 319.535 363.566 439.895 363.566 439.895L376.153 445.244L411.676 325.418H414.217L421.745 442.035H435.171C435.171 442.035 440.206 328.895 440.486 321.407C440.766 313.918 440.206 305.895 428.458 294.395L429.881 290.128Z" fill="#F4A32D"/>
<path d="M409.791 325.43C410.411 325.43 411.043 325.43 411.664 325.43C406.398 343.198 401.132 360.953 395.866 378.721C400.512 360.953 405.145 343.186 409.791 325.43Z" fill="#E77829"/>
<path d="M424.713 415.419C421.757 374.395 421.867 375.826 421.794 374.779C421.697 373.535 420.845 362.279 420.602 358.198C420.432 355.302 419.471 336.756 418.45 330.93C418.304 330.128 417.975 328.477 416.65 327.756C415.762 327.267 414.765 327.384 414.205 327.488C415.324 344.221 416.516 362.174 417.623 378.907C419.009 399.953 420.383 421 421.745 442.035C422.56 442.035 423.387 442.035 424.202 442.035C425.017 442.035 425.831 442.035 426.634 442.035C426.61 441.64 425.6 427.779 425.576 427.372C425.552 427.046 424.737 415.686 424.713 415.419Z" fill="#E78D29"/>
<path d="M430.185 338.523C435.366 339.163 439.087 345.081 439.014 353.418C438.929 362.884 437.142 388.244 437.373 395.163C437.543 400.372 436.424 403.058 432.642 402.767C431.912 384.535 430.915 359.349 430.185 338.523Z" fill="#FCB85E"/>
<path d="M426.634 442.105L428.312 442C428.239 441.023 421.271 344.372 420.748 336.465C420.249 329.093 419.958 325.442 414.217 325.442L414.327 327.139C418.085 327.139 418.523 328.337 419.07 336.57C419.593 344.465 426.561 441.128 426.634 442.105Z" fill="#E77829"/>
<path d="M373.003 443.791C385.468 404.337 397.921 364.884 410.387 325.43C409.827 325.43 409.268 325.43 408.708 325.43C396.267 364.744 383.826 404.058 371.385 443.372L373.003 443.791Z" fill="#E77829"/>
<path d="M410.387 289.198H408.708V325.419H410.387V289.198Z" fill="#E77829"/>
<path d="M433.213 448.465H422.864L418.669 454.884C418.669 454.884 423.424 456.756 427.765 456.756C432.107 456.756 436.302 454.209 436.302 454.209L433.213 448.465Z" fill="#91322D"/>
<path d="M374.036 449V455.291H346.905C346.905 455.291 348.169 450.337 351.526 449.674C354.882 449 359.358 450.884 361.316 449C363.274 447.128 364.538 443.918 364.538 443.918C364.538 443.918 370.68 448.593 374.036 449Z" fill="#91322D"/>
<path d="M407.188 255.349C401.862 262.558 390.539 277.814 388.448 280.093C386.344 282.372 379.631 286.512 375.301 282.64C370.96 278.756 390.126 255.407 395.161 250.14C400.195 244.872 402.859 242.651 406.349 245.454C409.851 248.256 410.97 250.244 407.188 255.349Z" fill="#D68981"/>
<path d="M388.8 279.686C388.666 279.849 388.545 279.989 388.448 280.093C386.344 282.372 379.631 286.512 375.301 282.64C372.857 280.454 377.867 272.105 383.595 264.279L383.705 264.233C383.705 264.221 387.523 272.756 388.8 279.686Z" fill="#B54A41"/>
<path d="M395.027 276.616L380.762 259.5C380.762 259.5 392.23 245.186 393.774 242.651C395.319 240.105 402.263 236.768 409.56 240.64C416.856 244.523 413.5 250.942 408.745 256.826C403.978 262.698 395.027 276.616 395.027 276.616Z" fill="#D0B39C"/>
<path d="M378.414 225.442L382.707 223.814C384.179 223.256 385.833 223.942 386.417 225.337L391.707 238.035C392.291 239.442 391.573 241.023 390.114 241.582L385.821 243.221C384.349 243.779 382.695 243.093 382.112 241.698L376.821 229C376.238 227.593 376.955 226 378.414 225.442Z" fill="#17BBB3"/>
<path d="M382.33 242.21L378.414 232.803L384.325 230.721L391.622 240.686C391.378 240.989 391.062 241.233 390.661 241.384L385.286 243.43C384.118 243.872 382.793 243.326 382.33 242.21Z" fill="#117F77"/>
<path d="M384.252 274.151C383.899 277.605 381.564 285.884 376.08 284.268C370.595 282.64 370.741 276.744 372.978 268.396C375.216 260.047 379.874 244.151 379.874 244.151C379.874 244.151 375.289 235.651 376.7 234.163C378.11 232.675 382.525 230.291 383.316 230.105C384.106 229.919 384.909 231.291 383.911 231.698C382.902 232.105 379.4 234.361 379.4 234.361C379.4 234.361 383.838 232.896 384.495 232.605C385.152 232.314 386.246 234.023 384.994 234.5C383.741 234.977 380.348 236.721 380.348 236.721C380.348 236.721 385.042 235.675 385.699 235.535C386.344 235.396 387.256 237.361 386.198 237.582C385.128 237.803 381.491 238.919 381.491 238.919C381.491 238.919 385.711 238.849 386.818 238.675C387.913 238.5 388.338 240.849 386.429 240.872C384.519 240.896 383.851 240.989 383.851 240.989C383.851 240.989 387.377 241.256 386.915 243.407C386.429 245.547 384.471 272.082 384.252 274.151Z" fill="#D68981"/>
<path d="M379.886 244.14C379.886 244.14 382.574 246.547 384.374 246.744L376.42 256.116C378.22 249.791 379.886 244.14 379.886 244.14Z" fill="#B54A41"/>
<path d="M376.323 222.721C376.602 222.64 376.846 222.43 376.955 222.14C377.308 221.151 378.135 220.372 379.181 220.058C380.227 219.744 381.37 219.93 382.245 220.547C382.671 220.849 383.279 220.768 383.595 220.349C383.911 219.942 383.814 219.361 383.388 219.058C382.014 218.093 380.227 217.803 378.597 218.291C376.967 218.779 375.666 220 375.119 221.547C374.949 222.035 375.216 222.558 375.727 222.721C375.921 222.779 376.128 222.779 376.323 222.721Z" fill="#17BBB3"/>
<path d="M373.453 221.465C373.732 221.384 373.976 221.174 374.085 220.884C374.73 219.058 376.262 217.628 378.183 217.047C380.105 216.465 382.209 216.802 383.839 217.942C384.264 218.244 384.872 218.163 385.188 217.744C385.505 217.337 385.407 216.756 384.982 216.454C382.866 214.965 380.105 214.523 377.6 215.279C375.095 216.035 373.088 217.907 372.249 220.291C372.078 220.779 372.346 221.302 372.857 221.465C373.064 221.523 373.27 221.523 373.453 221.465Z" fill="#17BBB3"/>
<path d="M370.595 220.209C370.874 220.128 371.118 219.919 371.227 219.628C372.164 216.965 374.401 214.872 377.198 214.035C379.995 213.198 383.072 213.686 385.432 215.349C385.857 215.651 386.465 215.57 386.781 215.151C387.098 214.744 387 214.163 386.575 213.86C383.717 211.849 379.995 211.256 376.615 212.279C373.234 213.302 370.534 215.826 369.391 219.046C369.221 219.535 369.488 220.058 369.999 220.221C370.193 220.267 370.4 220.267 370.595 220.209Z" fill="#17BBB3"/>
<path d="M428.446 294.395C428.446 294.395 402.993 291.721 395.72 292.256C395.72 292.256 391.524 263.639 390.965 258.558L404.671 238.232C404.671 238.232 415.02 236.628 421.174 238.232C427.327 239.837 435.439 241.174 437.117 249.197C438.808 257.221 433.773 279.151 428.446 294.395Z" fill="#EFDCCC"/>
<path d="M430.27 288.884C427.887 286.07 423.934 280.733 422.718 275.116C420.943 266.895 428.592 262.779 428.592 262.779C430.538 261.546 433.128 265.256 435.317 269.523C434.004 275.849 432.216 282.674 430.27 288.884Z" fill="#E1CCBD"/>
<path d="M415.056 244.977C409.973 243.732 407.857 239.767 407.322 237.895C410.8 237.535 416.966 237.128 421.174 238.221C422.828 238.651 424.615 239.07 426.379 239.593C424.968 242.477 420.529 246.314 415.056 244.977Z" fill="#D68981"/>
<path d="M419.374 201.593C415.786 200.128 407.468 199.256 405.413 203.198C403.357 207.14 396.012 215.977 403.43 220.291C410.849 224.593 419.033 230.988 425.26 226.488C431.487 221.988 428.118 214.837 427.777 212.093C427.425 209.349 424.628 203.733 419.374 201.593Z" fill="#6B201E"/>
<path d="M427.583 198.953C434.125 203.174 427.048 209.174 422.974 206.128C418.899 203.07 421.04 194.732 427.583 198.953Z" fill="#6B201E"/>
<path d="M422.718 241.174L420.334 216.767L408.453 217.977L410.131 240.105L422.718 241.174Z" fill="#D68981"/>
<path d="M420.979 223.36C418.486 225.698 411.25 227.535 406.908 226.86C402.567 226.186 402.567 223.395 402.992 217.977C403.418 212.558 407.468 199.849 417.817 205.465C428.166 211.081 424.141 220.395 420.979 223.36Z" fill="#D68981"/>
<path d="M420.59 219.36C422.183 217.581 423.764 217.198 425.515 218.721C427.266 220.244 427.339 220.849 425.515 223.116C423.691 225.395 421.478 224.256 420.59 223.116C419.714 221.977 419.641 220.419 420.59 219.36Z" fill="#D68981"/>
<path d="M420.493 221.558C420.578 221.605 420.687 221.616 420.772 221.57C421.186 221.349 422.426 220.826 423.107 221.105C423.338 221.198 423.484 221.372 423.557 221.639L424.092 221.5C423.971 221.07 423.703 220.767 423.314 220.616C422.779 220.407 422.086 220.512 421.526 220.686C422.767 219.372 423.618 219.372 424.056 219.523C424.7 219.744 425.053 220.488 425.004 221.058L425.552 221.093C425.613 220.337 425.163 219.349 424.238 219.023C423.582 218.791 422.207 218.767 420.395 221.174C420.322 221.279 420.322 221.407 420.42 221.5C420.456 221.535 420.468 221.546 420.493 221.558Z" fill="#B54A41"/>
<path d="M411.749 214.174C411.797 213.826 412.126 213.581 412.491 213.628C412.855 213.674 413.111 213.988 413.062 214.337C413.013 214.686 412.685 214.93 412.32 214.884C411.968 214.837 411.712 214.523 411.749 214.174Z" fill="#6B201E"/>
<path d="M406.13 212.849C406.179 212.5 406.507 212.256 406.872 212.302C407.237 212.349 407.492 212.663 407.443 213.012C407.395 213.36 407.067 213.605 406.702 213.558C406.337 213.512 406.081 213.198 406.13 212.849Z" fill="#6B201E"/>
<path d="M407.212 218.477C407.346 218.488 407.48 218.5 407.602 218.511C407.796 218.523 407.954 218.372 407.966 218.198C407.979 218.011 407.833 217.849 407.626 217.849C406.799 217.814 406.215 217.546 406.118 217.384C406.106 217.372 406.106 217.36 406.142 217.302C406.531 216.721 408.514 213.384 408.599 213.232C408.696 213.07 408.635 212.872 408.465 212.779C408.295 212.686 408.076 212.744 407.979 212.907C407.954 212.942 405.911 216.372 405.534 216.942C405.376 217.186 405.352 217.453 405.486 217.686C405.753 218.151 406.519 218.395 407.212 218.477Z" fill="#6B201E"/>
<path d="M408.769 221.337C409.949 221.337 411.214 221.058 412.077 220.744C412.296 220.663 412.405 220.43 412.32 220.232C412.235 220.023 411.992 219.918 411.785 220C410.204 220.57 407.565 220.872 406.714 219.93C406.556 219.767 406.3 219.744 406.118 219.895C405.948 220.046 405.923 220.29 406.081 220.465C406.665 221.104 407.687 221.337 408.769 221.337Z" fill="#6B201E"/>
<path d="M403.503 211.151C404.038 213.919 410.362 208.407 410.982 205.93C410.982 205.93 412.016 213.605 416.856 214.244C421.684 214.884 417.902 220.407 416.856 221.628C415.811 222.849 417.148 224.535 420.055 222.07C422.961 219.605 426.987 220.57 426.853 215.093C426.719 209.605 422.256 203.058 414.205 202.116C406.154 201.174 402.871 207.884 403.503 211.151Z" fill="#6B201E"/>
<path d="M428.312 253.279L439.452 252.07C439.452 252.07 445.885 281.081 445.752 284.035C445.618 286.977 435.694 322.558 435.694 322.558C435.694 322.558 435.427 330.581 435.694 332.058C435.962 333.535 435.524 336.116 433.724 336.209C433.724 336.209 433.894 337.535 432.946 337.558C432.946 337.558 432.52 338.384 431.426 338.36C430.319 338.337 428.483 336.953 428.641 335.825C428.799 334.697 428.799 332.57 428.799 332.57C428.799 332.57 427.437 335.023 426.598 334.023C425.758 333.023 425.734 332.198 427.169 331.244C428.616 330.291 427.498 323.232 430.818 321.628L432.873 284.046L428.312 253.279Z" fill="#D68981"/>
<path d="M439.452 252.081L428.312 253.291L432.313 280.221L444.219 274.639C442.347 265.139 439.452 252.081 439.452 252.081Z" fill="#B54A41"/>
<path d="M431.632 306.779L430.818 321.628L435.524 306.779H431.632Z" fill="#B54A41"/>
<path d="M426.853 242.581C431.596 239.744 438.187 241.384 442.249 254.221C446.311 267.058 447.989 271.477 447.989 271.477C447.989 271.477 440.157 274.174 432.605 274.232C425.053 274.291 424.482 272.151 424.482 272.151C424.482 272.151 420.833 246.186 426.853 242.581Z" fill="#EFD7CC"/>
<path d="M103.058 449.768C99.1662 448.919 93.9125 451 91.6748 448.779C89.4371 446.558 88.0507 442.791 88.0507 442.791C88.0507 442.791 87.3332 443.314 86.2387 444.047L86.3968 435.907L75.1841 437.395L75.7313 448.128C75.1962 448.291 74.6733 448.419 74.2112 448.465L74.0652 455.779L108.312 456.395C108.299 456.407 106.949 450.616 103.058 449.768Z" fill="#6B201E"/>
<path d="M59.3014 445.07H59.2771L59.4595 435.895L47.8333 435.686L47.6387 445.767L42.1539 453.605C42.1539 453.605 47.6508 457.07 53.391 457.174C59.1311 457.279 65.4793 454.907 65.4793 454.907L59.3014 445.07Z" fill="#6B201E"/>
<path d="M48.4778 290.035L82.262 288.872L82.1647 291.372C85.2293 297.744 93.5842 332.442 97.4879 349.058C98.8622 354.895 99.3 360.895 98.8014 366.872L92.5869 441.291L70.2831 441.907L77.4947 364.907L71.9978 325.035L64.9929 441.546L43.9295 443.035C43.9295 443.035 45.474 337.895 45.3402 330.407C45.2064 322.919 49.4142 292.942 49.4142 292.942L48.4778 290.035Z" fill="#F4A32D"/>
<path d="M51.5911 327.593C51.3722 325.163 48.8062 323.291 45.8145 322.302C45.4861 325.756 45.2915 328.663 45.3159 330.384C45.3888 334.768 44.9024 372.57 44.4767 403.186C48.2346 402.105 52.114 398.337 51.6276 381.675C50.9466 358.396 52.114 333.419 51.5911 327.593Z" fill="#E77829"/>
<path d="M71.9735 325.012C74.6247 338.337 77.2758 351.675 79.927 365C79.1122 364.965 78.2974 364.93 77.4704 364.884C75.6462 351.593 73.8099 338.302 71.9735 325.012Z" fill="#E77829"/>
<path d="M74.4666 441.779L70.2709 441.896L77.4704 364.884L79.927 365L74.4666 441.779Z" fill="#E77829"/>
<path d="M72.6846 291.408L70.8604 291.418L71.0718 325.011L72.896 325.001L72.6846 291.408Z" fill="#E77829"/>
<path d="M76.3029 441.802L74.4787 441.686L79.9148 365C77.2637 351.675 74.6125 338.337 71.9613 325.012C72.2654 325.012 72.5694 325.012 72.8734 325.012C75.8286 338.302 78.796 351.605 81.7512 364.895L76.3029 441.802Z" fill="#E77829"/>
<path d="M97.7433 379.384C92.1978 379.105 89.6196 389.14 88.7683 399.977C87.917 410.814 84.0375 428.186 92.4531 430.279C92.8058 430.372 93.1342 430.407 93.4625 430.465L97.7433 379.384Z" fill="#FCB85E"/>
<path d="M73.6517 243.082C65.7104 250.884 71.8397 254.558 76.388 260.314C80.9242 266.07 89.3642 277.698 94.3138 281.43C99.2513 285.151 112.556 277.779 98.8378 262.151C85.1077 246.512 81.5931 235.291 73.6517 243.082Z" fill="#560000"/>
<path d="M86.1414 272.803C89.1209 276.442 92.064 279.744 94.3016 281.43C99.2391 285.151 112.544 277.779 98.8257 262.151C96.6853 259.71 94.8003 257.384 93.0977 255.221C91.8329 258.024 88.5129 265.64 86.1414 272.803Z" fill="#1D0404"/>
<path d="M100.771 224.872L96.515 223.163C95.0557 222.582 93.3896 223.233 92.7693 224.628L87.2359 237.221C86.6279 238.617 87.3089 240.21 88.7683 240.803L93.0247 242.512C94.4841 243.093 96.1502 242.442 96.7704 241.047L102.304 228.454C102.912 227.07 102.231 225.465 100.771 224.872Z" fill="#076D45"/>
<path d="M93.9733 273.465C94.2652 276.919 96.4299 285.244 101.939 283.721C107.448 282.198 107.424 276.291 105.356 267.907C103.289 259.512 98.9351 243.535 98.9351 243.535C98.9351 243.535 103.69 235.116 102.304 233.605C100.917 232.093 96.5636 229.628 95.7732 229.43C94.9827 229.233 94.1557 230.582 95.1529 231.012C96.1502 231.442 99.6161 233.756 99.6161 233.756C99.6161 233.756 95.2016 232.209 94.557 231.907C93.9125 231.605 92.7815 233.291 94.0219 233.791C95.2746 234.291 98.6189 236.093 98.6189 236.093C98.6189 236.093 93.9368 234.965 93.2923 234.814C92.6477 234.663 91.6991 236.605 92.7572 236.849C93.8274 237.082 97.4393 238.268 97.4393 238.268C97.4393 238.268 93.2193 238.116 92.1248 237.93C91.0302 237.744 90.556 240.07 92.4653 240.128C94.3746 240.186 95.0313 240.291 95.0313 240.291C95.0313 240.291 91.4924 240.5 91.918 242.651C92.368 244.826 93.803 271.396 93.9733 273.465Z" fill="#D68981"/>
<path d="M98.9473 243.547C98.9473 243.547 96.211 245.907 94.4111 246.07L102.182 255.582C100.492 249.21 98.9473 243.547 98.9473 243.547Z" fill="#B54A41"/>
<path d="M102.924 222.198C102.644 222.105 102.401 221.895 102.304 221.605C101.975 220.605 101.161 219.814 100.127 219.488C99.0932 219.151 97.95 219.314 97.0501 219.919C96.6123 220.209 96.0164 220.116 95.7002 219.698C95.3962 219.279 95.4935 218.698 95.9313 218.407C97.3298 217.465 99.1175 217.209 100.735 217.733C102.352 218.256 103.629 219.488 104.14 221.047C104.298 221.535 104.019 222.058 103.508 222.209C103.325 222.256 103.106 222.256 102.924 222.198Z" fill="#076D45"/>
<path d="M105.818 220.989C105.539 220.895 105.295 220.686 105.198 220.395C104.59 218.558 103.082 217.093 101.185 216.489C99.2756 215.872 97.1596 216.175 95.5178 217.291C95.08 217.593 94.4841 217.489 94.1679 217.07C93.8639 216.651 93.9611 216.07 94.399 215.779C96.5393 214.326 99.3121 213.942 101.805 214.733C104.298 215.535 106.256 217.442 107.059 219.837C107.217 220.326 106.937 220.849 106.427 221C106.208 221.058 106.001 221.047 105.818 220.989Z" fill="#076D45"/>
<path d="M108.701 219.791C108.421 219.698 108.178 219.488 108.08 219.198C107.193 216.523 105.004 214.395 102.219 213.5C99.4459 212.605 96.3569 213.047 93.9611 214.663C93.5233 214.954 92.9153 214.861 92.6112 214.442C92.3072 214.023 92.4045 213.442 92.8423 213.151C95.7367 211.198 99.4702 210.663 102.839 211.744C106.208 212.826 108.859 215.407 109.929 218.64C110.087 219.128 109.807 219.651 109.297 219.802C109.102 219.849 108.883 219.849 108.701 219.791Z" fill="#076D45"/>
<path d="M90.9573 250.117L104.529 248.593C104.529 248.593 115.754 285.896 102.924 286.535C90.0817 287.163 89.7776 262.279 90.9573 250.117Z" fill="#660000"/>
<path d="M49.3899 292.919C49.3899 292.919 74.8922 290.698 82.1525 291.372C82.1525 291.372 84.2807 244.558 79.5986 240.233C74.9044 235.907 63.947 235.407 57.7691 236.895C51.5789 238.384 43.443 239.582 41.6067 247.57C39.7703 255.558 44.3794 277.582 49.3899 292.919Z" fill="#660000"/>
<path d="M47.6873 287.372C48.1738 282.477 48.7453 277.488 49.4021 272.407C50.4966 263.93 51.7614 255.744 53.1599 247.884C51.2384 246.616 43.37 249.884 43.0174 267.907C44.197 274.279 45.8631 281.128 47.6873 287.372Z" fill="#560000"/>
<path d="M63.7524 243.744C68.8602 242.593 71.0492 238.675 71.6208 236.814C68.1427 236.384 61.989 235.872 57.7691 236.895C56.1151 237.291 54.3153 237.675 52.5397 238.175C53.9018 241.07 58.2677 244.977 63.7524 243.744Z" fill="#D68981"/>
<path d="M56.1759 239.802L59.0338 215.442L70.8911 216.861L68.775 238.954L56.1759 239.802Z" fill="#D68981"/>
<path d="M70.8911 216.861L59.0338 215.442L58.2677 222.023C58.2677 222.023 57.0637 234.221 69.1642 235.07L70.8911 216.861Z" fill="#B54A41"/>
<path d="M58.2555 222.023C60.6999 224.407 67.9116 226.372 72.2532 225.779C76.6069 225.186 76.6556 222.395 76.3394 216.965C76.0232 211.535 72.2167 198.756 61.758 204.186C51.3114 209.616 55.1544 219 58.2555 222.023Z" fill="#D68981"/>
<path d="M67.6684 213.012C67.6319 212.663 67.3035 212.419 66.9387 212.454C66.5738 212.489 66.3063 212.803 66.3549 213.152C66.3914 213.5 66.7198 213.745 67.0846 213.71C67.4373 213.675 67.7049 213.361 67.6684 213.012Z" fill="#6B201E"/>
<path d="M73.3233 211.779C73.2869 211.43 72.9585 211.186 72.5937 211.221C72.2288 211.256 71.9613 211.57 72.0099 211.919C72.0464 212.267 72.3748 212.512 72.7396 212.477C73.0923 212.442 73.3598 212.128 73.3233 211.779Z" fill="#6B201E"/>
<path d="M72.1194 217.396C71.9856 217.407 71.8519 217.419 71.7303 217.419C71.5357 217.419 71.3776 217.279 71.3654 217.093C71.3654 216.907 71.5114 216.756 71.7059 216.744C72.5329 216.721 73.1166 216.477 73.2139 216.303C73.2261 216.291 73.2261 216.279 73.2018 216.221C72.8248 215.628 70.9033 212.256 70.8182 212.116C70.7209 211.954 70.7938 211.744 70.9641 211.663C71.1344 211.57 71.3533 211.64 71.4384 211.803C71.4627 211.837 73.4328 215.303 73.7977 215.884C73.9558 216.128 73.9679 216.396 73.8342 216.628C73.5788 217.093 72.8248 217.314 72.1194 217.396Z" fill="#6B201E"/>
<path d="M70.5141 220.221C69.3344 220.198 68.0818 219.907 67.2184 219.57C66.9995 219.489 66.9022 219.256 66.9873 219.047C67.0724 218.837 67.3157 218.744 67.5346 218.826C69.1034 219.43 71.7302 219.768 72.6058 218.849C72.7639 218.686 73.0315 218.675 73.2017 218.826C73.372 218.977 73.3842 219.233 73.2261 219.396C72.618 220.023 71.5965 220.244 70.5141 220.221Z" fill="#6B201E"/>
<path d="M58.7298 218.023C58.7298 218.023 61.8917 215.5 60.6878 211.43C59.4716 207.361 59.4716 207.361 59.4716 207.361C59.4716 207.361 70.3438 209.733 73.5909 206.012C76.8258 202.291 73.3234 195.105 65.3577 198.233C57.392 201.361 49.6696 203.767 51.1411 209.535C52.6248 215.302 52.041 221.605 58.7298 218.023Z" fill="#6B201E"/>
<path d="M58.7298 218.023C57.1731 216.221 55.5922 215.802 53.8166 217.291C52.041 218.779 51.9559 219.384 53.7315 221.686C55.507 223.988 57.7447 222.895 58.6568 221.779C59.5567 220.663 59.6662 219.116 58.7298 218.023Z" fill="#D68981"/>
<path d="M58.7784 220.233C58.6933 220.279 58.5839 220.279 58.4987 220.233C58.0852 220 56.8569 219.465 56.1638 219.721C55.9327 219.814 55.7868 219.977 55.7016 220.244L55.1787 220.093C55.3125 219.663 55.58 219.372 55.9692 219.221C56.5164 219.012 57.1975 219.14 57.7569 219.326C56.5408 217.988 55.6895 217.977 55.2517 218.116C54.6071 218.326 54.2423 219.07 54.2666 219.628L53.7193 219.663C53.6829 218.907 54.145 217.93 55.0692 217.616C55.726 217.395 57.1002 217.395 58.8636 219.837C58.9365 219.942 58.9244 220.07 58.8393 220.163C58.8271 220.209 58.8028 220.221 58.7784 220.233Z" fill="#B54A41"/>
<path d="M50.3385 251.814L39.223 250.407C39.223 250.407 31.1114 282.314 31.1966 285.256C31.2817 288.198 41.6067 320.942 41.6067 320.942C41.6067 320.942 41.7161 328.965 41.4243 330.43C41.1202 331.896 41.5094 334.489 43.3092 334.616C43.3092 334.616 43.1147 335.942 44.0633 335.989C44.0633 335.989 44.4646 336.826 45.5713 336.814C46.6779 336.814 48.5386 335.465 48.4048 334.337C48.2711 333.209 48.3076 331.07 48.3076 331.07C48.3076 331.07 49.621 333.547 50.4844 332.558C51.3479 331.57 51.3844 330.744 49.9615 329.768C48.5386 328.791 49.7912 321.756 46.5077 320.093L42.7377 282.872L50.3385 251.814Z" fill="#D68981"/>
<path d="M48.5994 242.07C39.8311 240.023 34.3585 252.512 31.2939 264.047C28.2292 275.582 26.7577 288.547 26.7577 288.547L37.9826 315.686C37.9826 315.686 49.4994 316.675 50.5817 313.779L44.9632 286.372C44.9632 286.372 51.8951 263.326 52.9897 256.314C54.0842 249.302 53.2815 243.175 48.5994 242.07Z" fill="#660000"/>
</svg>
