<svg width="371" height="363" viewBox="0 0 371 363" fill="none" xmlns="http://www.w3.org/2000/svg">
<path d="M359.806 0.544434H11.6826C5.68327 0.544434 0.813782 5.39919 0.813782 11.3804V256.531C0.813782 262.512 5.68327 267.367 11.6826 267.367H145.289C145.289 267.367 153.788 293.565 127.441 307.122H252.378C252.378 307.122 222.631 296.954 230.28 267.367H359.816C365.816 267.367 370.685 262.512 370.685 256.531V11.3804C370.675 5.38922 365.806 0.544434 359.806 0.544434Z" fill="#560000"/>
<path d="M364.686 222.508H6.80316V14.6999C6.80316 9.35669 11.1427 5.03027 16.5022 5.03027H354.987C360.346 5.03027 364.686 9.35669 364.686 14.6999V222.508Z" fill="white"/>
<path d="M364.686 23.1036H6.80316V14.1617C6.80316 9.11749 10.9027 5.04028 15.9522 5.04028H357.167C361.316 5.04028 364.686 8.38977 364.686 12.5368V23.1036Z" fill="#EBEBEB"/>
<path d="M18.202 16.9535C19.5881 16.9535 20.7117 15.8331 20.7117 14.4511C20.7117 13.069 19.5881 11.9486 18.202 11.9486C16.8159 11.9486 15.6922 13.069 15.6922 14.4511C15.6922 15.8331 16.8159 16.9535 18.202 16.9535Z" fill="#E0E0E0"/>
<path d="M25.7012 16.9535C27.0873 16.9535 28.2109 15.8331 28.2109 14.4511C28.2109 13.069 27.0873 11.9486 25.7012 11.9486C24.3151 11.9486 23.1915 13.069 23.1915 14.4511C23.1915 15.8331 24.3151 16.9535 25.7012 16.9535Z" fill="#E0E0E0"/>
<path d="M32.8204 16.9535C34.2065 16.9535 35.3302 15.8331 35.3302 14.4511C35.3302 13.069 34.2065 11.9486 32.8204 11.9486C31.4344 11.9486 30.3107 13.069 30.3107 14.4511C30.3107 15.8331 31.4344 16.9535 32.8204 16.9535Z" fill="#E0E0E0"/>
<path d="M297.573 267.396C297.573 267.516 248.038 267.606 186.934 267.606C125.821 267.606 76.2859 267.516 76.2859 267.396C76.2859 267.277 125.811 267.187 186.934 267.187C248.028 267.187 297.573 267.277 297.573 267.396Z" fill="#263238"/>
<path d="M363.866 52.3517H6.92314V131.792H363.866V52.3517Z" fill="#F5F5F5"/>
<path d="M67.2069 31.4275H15.6922V44.8653H67.2069V31.4275Z" fill="#F5F5F5"/>
<path d="M348.708 31.4275H302.552V44.8653H348.708V31.4275Z" fill="#F5F5F5"/>
<path d="M292.953 31.4275H246.798V44.8653H292.953V31.4275Z" fill="#F5F5F5"/>
<path d="M131.42 154.172H24.3013V162.735H131.42V154.172Z" fill="#F5F5F5"/>
<path d="M194.984 172.066H24.3013V175.428H194.984V172.066Z" fill="#F5F5F5"/>
<path d="M237.899 31.4275H191.744V44.8653H237.899V31.4275Z" fill="#F5F5F5"/>
<path d="M181.945 31.4275H135.79V44.8653H181.945V31.4275Z" fill="#F5F5F5"/>
<path d="M194.984 179.802H24.3013V183.163H194.984V179.802Z" fill="#F5F5F5"/>
<path d="M194.984 186.72H24.3013V190.081H194.984V186.72Z" fill="#F5F5F5"/>
<path d="M148.178 100.122L156.848 91.479L171.966 105.216L198.613 78.6792L206.672 87.3221L170.726 121.894L148.178 100.122Z" fill="#EFDCCC"/>
<path d="M231.25 121.255C228.89 121.415 226.56 119.581 226.17 117.248C225.78 114.925 227.37 112.433 229.65 111.805C228.26 110.24 228.01 107.778 229.06 105.973C230.11 104.169 232.38 103.152 234.429 103.581C234.609 101.527 235.939 99.6134 237.799 98.7162C239.659 97.8191 241.989 97.9686 243.709 99.105C246.078 97.2608 249.758 97.3705 252.028 99.3343C254.047 99.0651 256.187 100.231 257.037 102.076C257.887 103.92 257.397 106.302 255.877 107.658" fill="#263238"/>
<path d="M230.52 121.904C231.87 111.347 241.129 103.601 251.788 104.1L252.848 104.15C264.236 105.346 269.586 115.664 268.066 126.978L264.636 164.819L263.736 173.741L237.849 170.691L238.339 161.031C238.339 161.031 227.44 158.818 227.82 147.863C228 142.579 229.26 131.713 230.52 121.904Z" fill="#D68981"/>
<path d="M238.249 161.011C238.249 161.011 245.238 161.759 252.828 157.482C252.828 157.482 249.078 165.199 238.169 163.703L238.249 161.011Z" fill="#BF7B74"/>
<path d="M232.94 131.993C232.87 132.821 233.519 133.559 234.379 133.639C235.239 133.728 235.989 133.13 236.059 132.302C236.129 131.474 235.479 130.736 234.619 130.656C233.759 130.566 233 131.165 232.94 131.993Z" fill="#263238"/>
<path d="M232.63 127.368C232.81 127.577 234.04 126.759 235.729 126.839C237.419 126.899 238.609 127.826 238.809 127.627C238.899 127.537 238.719 127.158 238.199 126.749C237.689 126.33 236.799 125.911 235.749 125.871C234.699 125.831 233.8 126.17 233.27 126.54C232.73 126.909 232.54 127.268 232.63 127.368Z" fill="#263238"/>
<path d="M248.298 132.76C248.228 133.588 248.878 134.327 249.738 134.406C250.597 134.496 251.347 133.898 251.417 133.07C251.487 132.242 250.837 131.504 249.977 131.424C249.128 131.334 248.368 131.933 248.298 132.76Z" fill="#263238"/>
<path d="M249.198 128.454C249.378 128.664 250.618 127.846 252.298 127.925C253.987 127.985 255.177 128.903 255.377 128.713C255.467 128.624 255.297 128.245 254.767 127.836C254.257 127.417 253.368 126.998 252.318 126.958C251.268 126.918 250.368 127.257 249.838 127.626C249.298 127.995 249.108 128.354 249.198 128.454Z" fill="#263238"/>
<path d="M242.489 140.635C242.499 140.535 241.459 140.306 239.769 140.017C239.339 139.957 238.939 139.847 238.879 139.548C238.789 139.229 238.999 138.781 239.229 138.292C239.679 137.275 240.159 136.199 240.659 135.082C242.649 130.507 244.109 126.739 243.919 126.659C243.729 126.579 241.969 130.228 239.989 134.803C239.509 135.93 239.049 137.006 238.619 138.033C238.429 138.512 238.129 139.05 238.319 139.708C238.419 140.037 238.729 140.286 238.999 140.366C239.269 140.465 239.509 140.475 239.729 140.505C241.419 140.675 242.479 140.735 242.489 140.635Z" fill="#263238"/>
<path d="M231.81 116.929C231.81 116.929 235.029 110.21 238.419 108.765C242.519 107.02 244.049 111.486 247.918 110.599C251.798 109.712 255.707 108.027 259.477 111.157C263.606 114.587 261.497 116.75 261.527 121.625C261.677 141.363 265.016 147.095 266.486 137.874C266.646 136.867 269.516 136.189 270.136 131.912C270.936 126.37 271.476 119.621 270.406 115.614C269.516 112.234 267.716 109.842 264.416 107.15C259.217 102.893 251.818 102.465 246.758 102.734C241.719 103.013 231.76 108.326 231.81 116.929Z" fill="#263238"/>
<path d="M265.806 137.545C265.956 135.86 267.476 134.594 269.156 134.833C271.196 135.122 273.415 136.388 273.085 140.595C272.496 148.071 265.096 145.938 265.096 145.719C265.106 145.579 265.526 140.665 265.806 137.545Z" fill="#D68981"/>
<path d="M266.956 143.038C266.986 143.018 267.076 143.138 267.296 143.258C267.506 143.377 267.866 143.467 268.266 143.357C269.075 143.128 269.845 141.932 269.985 140.586C270.055 139.908 269.965 139.25 269.765 138.691C269.575 138.123 269.255 137.714 268.865 137.615C268.476 137.495 268.176 137.704 268.066 137.914C267.946 138.113 267.986 138.263 267.946 138.273C267.926 138.293 267.796 138.133 267.876 137.834C267.916 137.684 268.016 137.515 268.206 137.385C268.396 137.256 268.666 137.196 268.945 137.256C269.515 137.345 269.995 137.914 270.215 138.522C270.465 139.14 270.585 139.878 270.505 140.636C270.335 142.141 269.455 143.487 268.346 143.716C267.806 143.816 267.376 143.617 267.166 143.427C266.946 143.218 266.926 143.048 266.956 143.038Z" fill="#AD716B"/>
<path d="M266.336 123.04C265.326 123.658 264.266 124.296 263.087 124.356C261.907 124.416 260.597 123.678 260.447 122.512C260.387 121.983 260.537 121.385 260.217 120.966C259.827 120.468 259.067 120.578 258.437 120.618C256.247 120.747 254.077 119.102 253.628 116.959C253.028 117.767 251.738 117.667 250.918 117.089C250.098 116.51 249.598 115.593 248.978 114.816C248.358 114.028 247.458 113.32 246.458 113.41C245.898 113.46 245.368 113.769 244.808 113.689C243.829 113.56 243.399 112.383 243.299 111.397C243.199 110.41 243.129 109.273 242.319 108.705C241.569 108.177 240.549 108.416 239.639 108.506C238.729 108.595 237.559 108.326 237.369 107.439C237.269 106.97 237.489 106.492 237.769 106.093C239.019 104.309 241.609 103.621 243.589 104.528C244.438 102.086 246.848 100.271 249.438 100.122C252.028 99.9724 254.627 101.498 255.757 103.82C257.407 102.455 259.747 101.966 261.807 102.534C263.876 103.103 265.616 104.727 266.326 106.751C268.176 106.362 270.226 107.16 271.306 108.695C272.396 110.24 272.456 112.433 271.456 114.028C272.766 114.856 273.865 116.251 273.815 117.796C273.775 119.342 272.186 120.817 270.706 120.338C271.256 121.575 270.686 123.189 269.486 123.808C268.286 124.426 266.636 123.957 265.946 122.791" fill="#263238"/>
<path d="M242.939 106.711C242.929 106.711 242.929 106.761 242.939 106.851C242.949 106.94 242.939 107.08 242.969 107.249C243.019 107.598 243.139 108.117 243.449 108.715C243.759 109.303 244.258 110.001 245.028 110.559C245.788 111.127 246.848 111.586 248.058 111.576L247.938 111.406C247.678 112.034 247.698 112.802 247.988 113.48C248.258 114.168 248.708 114.776 249.188 115.384C249.438 115.673 249.638 116.012 249.988 116.281C250.328 116.54 250.738 116.7 251.158 116.779C251.998 116.929 252.968 116.71 253.617 116.032L253.338 115.942C253.458 117.437 254.237 118.963 255.547 119.939C256.237 120.488 257.107 120.847 257.977 120.857C258.847 120.887 259.667 120.667 260.427 120.438L260.227 120.338C260.587 121.285 261.167 122.113 261.897 122.731C262.607 123.349 263.576 123.738 264.476 123.558C266.266 123.269 267.506 121.853 267.806 120.478L267.636 120.548C268.496 121.066 269.436 121.156 270.196 121.046C270.966 120.946 271.586 120.637 272.036 120.328C272.486 120.009 272.756 119.68 272.916 119.451C273.065 119.212 273.135 119.072 273.125 119.072C273.085 119.042 272.845 119.63 271.966 120.219C271.526 120.498 270.926 120.777 270.176 120.857C269.446 120.946 268.556 120.837 267.756 120.348L267.616 120.258L267.576 120.418C267.276 121.694 266.086 123.02 264.426 123.269C263.606 123.419 262.757 123.07 262.087 122.491C261.407 121.903 260.857 121.116 260.517 120.219L260.467 120.079L260.327 120.119C259.577 120.348 258.787 120.548 257.977 120.518C257.177 120.498 256.397 120.179 255.737 119.66C254.507 118.743 253.777 117.318 253.647 115.892L253.617 115.533L253.368 115.793C252.818 116.381 251.958 116.59 251.198 116.45C250.818 116.391 250.458 116.241 250.158 116.022C249.868 115.802 249.648 115.474 249.408 115.184C248.928 114.596 248.498 113.998 248.238 113.36C247.958 112.732 247.938 112.054 248.158 111.486L248.228 111.307H248.038C246.888 111.327 245.868 110.918 245.128 110.38C244.368 109.851 243.879 109.193 243.549 108.625C242.939 107.489 242.999 106.701 242.939 106.711Z" fill="#455A64"/>
<path d="M240.569 146.149C240.539 146.219 240.959 146.478 241.719 146.648C242.479 146.817 243.579 146.837 244.728 146.508C245.878 146.169 246.798 145.54 247.338 144.992C247.888 144.443 248.088 143.994 248.028 143.954C247.888 143.825 246.688 145.291 244.548 145.899C242.429 146.548 240.619 145.969 240.569 146.149Z" fill="#263238"/>
<path d="M215.831 268.643L282.325 269.55C282.325 269.55 300.923 261.794 306.032 261.585C311.142 261.375 321.28 262.023 325.97 269.55C330.819 277.325 331.499 291.052 316.551 301.031C302.002 310.74 235.469 319.722 226.34 318.895L209.532 296.396C209.532 296.396 209.352 277.953 209.532 277.076C209.712 276.199 212.522 268.294 212.522 268.294L215.831 268.643Z" fill="#F4A32D"/>
<path d="M252.738 298.459L292.433 313.163L274.345 362.498C269.726 360.484 269.596 331.505 269.596 331.505L243.769 323.132L252.738 298.459Z" fill="#91322D"/>
<path d="M292.443 313.163L288.434 311.678L272.556 359.627C272.556 359.627 272.706 362.169 274.355 362.488L292.443 313.163Z" fill="#263238"/>
<path d="M230.83 297.432L195.254 313.881L215.551 358.112C219.671 355.919 217.671 329.153 217.671 329.153L240.899 319.543L230.83 297.432Z" fill="#91322D"/>
<path d="M195.264 313.882L198.853 312.217L217.011 355.331C217.011 355.331 217.051 357.694 215.561 358.103L195.264 313.882Z" fill="#263238"/>
<path d="M212.522 268.294C212.522 268.294 183.805 257.607 173.236 258.983C167.326 259.761 158.087 264.257 157.377 271.803C156.678 279.359 158.517 289.457 168.736 294.372C178.955 299.287 219.731 317.529 229.42 320.34C239.109 323.152 263.266 329.731 263.266 329.731L272.446 303.663C272.446 303.663 222.381 286.377 219.741 284.453C217.101 282.519 210.402 279.887 210.402 279.887L212.522 268.294Z" fill="#F4A32D"/>
<path d="M312.331 271.843C312.331 271.843 312.261 271.833 312.131 271.793C311.981 271.753 311.791 271.693 311.551 271.614C311.042 271.464 310.292 271.245 309.322 271.015C308.342 270.786 307.142 270.527 305.722 270.387C304.302 270.248 302.672 270.238 300.893 270.397C299.113 270.557 297.163 270.876 295.143 271.494C294.143 271.803 293.113 272.172 292.113 272.67C291.104 273.159 290.054 273.667 288.984 274.195C284.684 276.239 279.895 278.342 274.785 280.346C264.556 284.433 254.737 286.377 247.728 287.962C244.218 288.74 241.379 289.378 239.419 289.836C238.459 290.066 237.699 290.245 237.169 290.365C236.919 290.425 236.729 290.464 236.579 290.494C236.449 290.524 236.379 290.534 236.379 290.534C236.379 290.524 236.439 290.504 236.579 290.464C236.729 290.425 236.919 290.375 237.159 290.305C237.669 290.165 238.419 289.956 239.399 289.717C241.349 289.218 244.178 288.55 247.688 287.743C254.677 286.098 264.476 284.134 274.675 280.057C279.775 278.043 284.574 275.96 288.864 273.936C289.934 273.418 290.974 272.919 291.994 272.431C293.013 271.933 294.053 271.554 295.073 271.255C297.113 270.647 299.073 270.338 300.873 270.188C302.672 270.048 304.312 270.068 305.742 270.228C307.172 270.387 308.372 270.657 309.352 270.906C310.332 271.155 311.072 271.394 311.571 271.564C311.811 271.653 311.991 271.713 312.141 271.763C312.271 271.813 312.331 271.833 312.331 271.843Z" fill="#455A64"/>
<path d="M310.822 268.065C310.812 268.115 309.952 267.955 308.542 267.806C307.132 267.656 305.182 267.536 303.032 267.646C300.883 267.756 298.953 268.075 297.563 268.364C296.183 268.654 295.333 268.903 295.323 268.853C295.313 268.833 295.523 268.753 295.893 268.624C296.273 268.494 296.823 268.324 297.513 268.155C298.893 267.806 300.843 267.447 303.012 267.337C305.182 267.227 307.162 267.377 308.562 267.586C309.262 267.686 309.832 267.796 310.222 267.885C310.612 267.985 310.832 268.045 310.822 268.065Z" fill="#455A64"/>
<path d="M200.443 275.871C200.413 275.911 199.613 275.302 198.243 274.445C196.873 273.598 194.884 272.551 192.564 271.723C190.234 270.906 188.034 270.477 186.424 270.277C184.815 270.078 183.815 270.058 183.815 270.008C183.815 269.988 184.065 269.978 184.525 269.968C184.985 269.958 185.645 269.988 186.454 270.058C188.074 270.198 190.314 270.597 192.674 271.424C195.024 272.252 197.013 273.348 198.373 274.246C199.053 274.694 199.583 275.083 199.933 275.382C200.263 275.681 200.453 275.851 200.443 275.871Z" fill="#455A64"/>
<path d="M214.852 314.758C214.852 314.758 214.932 314.788 215.072 314.848C215.222 314.907 215.441 315.007 215.721 315.117C216.301 315.346 217.131 315.745 218.261 316.173C220.501 317.061 223.801 318.267 228.04 319.663C236.519 322.424 248.718 325.943 263.306 329.611L263.137 329.701C265.856 322.175 268.856 313.871 272.016 305.138L272.106 305.328C268.586 303.882 264.876 302.367 261.117 300.832C236.889 290.893 215.112 281.951 200.293 275.87L200.273 275.86L200.253 275.84C197.773 273.228 195.504 270.926 193.364 269.071C191.224 267.217 189.264 265.782 187.584 264.735C185.915 263.668 184.545 263 183.625 262.532C183.165 262.313 182.805 262.153 182.565 262.033C182.325 261.924 182.205 261.854 182.205 261.854C182.205 261.854 182.335 261.904 182.575 262.004C182.825 262.113 183.185 262.273 183.655 262.472C184.585 262.921 185.975 263.579 187.654 264.635C189.344 265.672 191.324 267.098 193.474 268.942C195.624 270.796 197.923 273.089 200.403 275.691L200.363 275.671C215.192 281.732 236.979 290.634 261.227 300.533C264.996 302.078 268.696 303.593 272.216 305.038L272.356 305.098L272.306 305.238C269.136 313.97 266.126 322.274 263.406 329.791L263.366 329.91L263.247 329.88C248.658 326.192 236.469 322.633 228 319.822C223.771 318.406 220.471 317.17 218.241 316.263C217.121 315.825 216.291 315.406 215.721 315.167C215.441 315.037 215.232 314.947 215.082 314.878C214.922 314.798 214.852 314.758 214.852 314.758Z" fill="#455A64"/>
<path d="M285.814 177.07C285.814 177.07 294.083 181.815 295.753 187.398C296.773 190.787 304.482 234.121 305.702 242.664C306.932 251.287 304.352 257.537 300.693 260.369C297.033 263.2 285.954 266.978 285.954 266.978L270.366 272.012L265.896 260.678L280.735 239.424L279.295 225.109L285.814 177.07Z" fill="#EFDCCC"/>
<path d="M269.566 169.584L263.357 166.045C263.357 166.045 257.697 172.644 249.988 171.837C242.269 171.029 237.699 165.138 237.699 165.138L214.692 169.813C213.152 170.122 210.332 171.099 207.642 174.927C204.643 179.204 190.404 198.184 190.404 198.184H180.435C177.685 198.184 175.166 199.699 173.886 202.122C172.186 205.351 170.136 209.678 170.336 211.462C170.676 214.493 170.086 222.797 174.156 225.399C175.446 226.226 180.065 228.688 183.655 228.519C188.944 228.27 195.094 225.528 198.633 223.056C201.633 220.962 208.602 213.745 211.282 210.924V210.964L213.002 271.145L273.335 269.43L285.834 177.07C285.814 177.07 270.176 169.584 269.566 169.584Z" fill="#EFDCCC"/>
<path d="M211.052 185.703C211.142 185.703 211.292 193.16 211.402 202.361C211.512 211.562 211.532 219.028 211.442 219.028C211.352 219.028 211.202 211.572 211.092 202.371C210.992 193.17 210.972 185.703 211.052 185.703Z" fill="#263238"/>
<path d="M293.123 234.35C293.123 234.38 292.613 234.43 291.704 234.609C290.794 234.779 289.484 235.138 287.964 235.796C286.444 236.454 284.734 237.461 282.994 238.786C281.255 240.112 279.485 241.767 277.755 243.621C276.025 245.475 274.455 247.32 272.975 248.944C271.496 250.579 270.106 252.005 268.866 253.121C267.626 254.238 266.556 255.065 265.776 255.584C265.396 255.853 265.076 256.032 264.876 256.162C264.666 256.291 264.556 256.351 264.546 256.341C264.536 256.331 264.646 256.252 264.836 256.112C265.036 255.962 265.336 255.773 265.706 255.484C266.456 254.936 267.506 254.088 268.716 252.952C269.936 251.825 271.296 250.39 272.766 248.745C274.235 247.11 275.795 245.266 277.535 243.402C279.275 241.548 281.065 239.883 282.824 238.557C284.594 237.231 286.334 236.224 287.884 235.586C289.434 234.948 290.754 234.609 291.684 234.48C292.143 234.39 292.513 234.39 292.753 234.36C292.993 234.35 293.123 234.34 293.123 234.35Z" fill="#263238"/>
<path d="M294.493 230.273C294.503 230.333 293.583 230.452 292.143 230.851C290.704 231.24 288.764 231.968 286.804 233.124C284.854 234.29 283.284 235.646 282.255 236.723C281.215 237.789 280.675 238.537 280.625 238.507C280.605 238.497 280.735 238.298 280.975 237.959C281.215 237.61 281.595 237.131 282.095 236.573C283.094 235.447 284.664 234.041 286.644 232.865C288.634 231.689 290.614 230.991 292.084 230.642C292.813 230.472 293.413 230.363 293.833 230.313C294.253 230.273 294.483 230.253 294.493 230.273Z" fill="#263238"/>
<g opacity="0.3">
<g opacity="0.3">
<path opacity="0.3" d="M182.205 219.716C185.395 220.583 189.234 215.998 192.134 213.137C193.644 211.642 195.214 210.057 195.764 208.013C196.223 206.328 195.924 204.504 195.264 202.879C194.604 201.254 194.134 200.207 193.144 198.762C193.414 201.234 194.024 205.022 193.184 208.133C192.484 210.724 190.844 212.788 189.094 214.742C187.244 216.805 185.065 218.978 182.205 219.716Z" fill="black"/>
</g>
</g>
<path d="M195.854 217.095C195.794 217.075 196.163 216.048 196.463 214.323C196.623 213.466 196.723 212.419 196.753 211.263C196.763 210.107 196.703 208.84 196.503 207.515C196.283 206.199 195.954 204.963 195.584 203.876C195.194 202.79 194.774 201.832 194.364 201.055C193.544 199.5 192.874 198.643 192.924 198.603C192.944 198.593 193.114 198.802 193.414 199.191C193.564 199.39 193.744 199.629 193.934 199.928C194.124 200.228 194.354 200.557 194.554 200.945C194.994 201.713 195.444 202.67 195.854 203.776C196.243 204.883 196.593 206.129 196.803 207.465C197.003 208.801 197.063 210.097 197.033 211.263C196.983 212.429 196.853 213.486 196.673 214.353C196.603 214.792 196.483 215.171 196.393 215.52C196.313 215.858 196.213 216.148 196.133 216.377C195.974 216.845 195.874 217.105 195.854 217.095Z" fill="#263238"/>
<path d="M284.014 191.096C284.094 191.106 283.074 199.33 281.735 209.459C280.385 219.587 279.235 227.791 279.145 227.781C279.065 227.771 280.085 219.547 281.425 209.419C282.774 199.29 283.934 191.086 284.014 191.096Z" fill="#263238"/>
<path d="M193.604 204.404C193.624 204.404 193.614 204.703 193.584 205.252C193.584 205.531 193.534 205.86 193.464 206.239C193.434 206.438 193.394 206.637 193.364 206.857C193.314 207.076 193.254 207.295 193.194 207.534C192.974 208.491 192.544 209.588 192.004 210.764C191.424 211.921 190.704 213.167 189.784 214.353C188.854 215.529 187.854 216.566 186.834 217.384C185.795 218.171 184.805 218.809 183.875 219.158C183.645 219.248 183.435 219.347 183.225 219.427C183.015 219.487 182.815 219.537 182.615 219.597C182.425 219.646 182.255 219.696 182.085 219.736C181.925 219.776 181.765 219.776 181.635 219.796C181.085 219.856 180.785 219.886 180.785 219.866C180.765 219.786 182.015 219.756 183.785 218.959C184.675 218.59 185.645 217.942 186.654 217.154C187.644 216.337 188.624 215.32 189.534 214.164C190.434 212.997 191.154 211.771 191.744 210.635C192.284 209.478 192.734 208.412 192.974 207.475C193.524 205.62 193.534 204.404 193.604 204.404Z" fill="#263238"/>
<g opacity="0.3">
<g opacity="0.3">
<path opacity="0.3" d="M282.075 273.199C284.634 271.962 285.214 268.653 285.474 265.832C286.234 257.568 287.004 249.294 287.764 241.03C288.124 237.142 288.294 232.706 285.544 229.924C283.034 227.382 279.045 227.233 275.465 227.243C253.388 227.303 233.89 227.951 211.812 228.01L212.932 266.51L282.075 273.199Z" fill="black"/>
</g>
</g>
<path d="M202.313 233.992L204.663 278.642C204.753 280.366 206.192 281.712 207.942 281.712L279.285 281.832C281.035 281.832 282.485 280.476 282.564 278.751L285.284 234.859C285.374 233.035 284.074 230.612 282.225 230.573L205.652 230.582C203.753 230.543 202.213 232.108 202.313 233.992Z" fill="#E0E0E0"/>
<path d="M202.313 233.992C202.313 233.992 202.303 233.932 202.303 233.822C202.293 233.713 202.303 233.543 202.333 233.324C202.393 232.895 202.583 232.217 203.183 231.579C203.483 231.27 203.873 230.961 204.373 230.772C204.873 230.562 205.473 230.513 206.092 230.532C207.352 230.532 208.802 230.523 210.432 230.523C216.961 230.513 226.41 230.493 238.079 230.473C249.748 230.463 263.646 230.453 279.075 230.433C280.035 230.433 281.015 230.433 281.985 230.433C282.474 230.413 283.024 230.532 283.454 230.812C283.894 231.081 284.254 231.46 284.544 231.878C285.114 232.716 285.444 233.722 285.444 234.759C285.384 235.756 285.324 236.753 285.264 237.76C285.014 241.777 284.764 245.884 284.504 250.061C283.984 258.415 283.454 267.068 282.904 275.93L282.804 277.585C282.754 278.143 282.764 278.671 282.665 279.26C282.455 280.406 281.595 281.383 280.515 281.782C279.985 281.991 279.375 282.021 278.835 282.001H277.195C276.105 282.001 275.015 282.001 273.935 281.991C269.596 281.981 265.326 281.971 261.127 281.971C252.728 281.951 244.628 281.931 236.909 281.921C229.19 281.901 221.861 281.881 215.002 281.871C213.282 281.871 211.602 281.861 209.942 281.861C209.532 281.861 209.112 281.861 208.702 281.861C208.292 281.851 207.882 281.881 207.462 281.821C206.622 281.712 205.852 281.273 205.323 280.645C204.783 280.017 204.523 279.18 204.523 278.402C204.483 277.625 204.443 276.857 204.403 276.099C204.323 274.574 204.253 273.089 204.173 271.643C203.583 260.03 203.103 250.629 202.773 244.12C202.613 240.87 202.493 238.358 202.413 236.633C202.373 235.786 202.343 235.128 202.323 234.689C202.313 234.211 202.313 233.992 202.313 233.992C202.313 233.992 202.333 234.211 202.363 234.65C202.393 235.098 202.433 235.746 202.483 236.593C202.583 238.308 202.723 240.83 202.903 244.07C203.253 250.57 203.773 259.97 204.403 271.584C204.483 273.039 204.563 274.524 204.643 276.04C204.683 276.797 204.723 277.565 204.763 278.342C204.763 279.11 205.003 279.858 205.513 280.446C206.002 281.034 206.722 281.433 207.502 281.532C207.882 281.582 208.302 281.562 208.712 281.562C209.122 281.562 209.532 281.562 209.952 281.562C211.612 281.562 213.292 281.562 215.012 281.562C221.871 281.572 229.21 281.582 236.919 281.582C244.638 281.592 252.738 281.602 261.137 281.612C265.336 281.622 269.606 281.622 273.945 281.632C275.025 281.632 276.115 281.632 277.205 281.642H278.845C279.405 281.662 279.915 281.632 280.415 281.443C281.395 281.084 282.185 280.197 282.375 279.15C282.465 278.641 282.465 278.063 282.505 277.525L282.605 275.87C283.154 267.008 283.694 258.365 284.214 250.001C284.474 245.824 284.734 241.717 284.984 237.7C285.044 236.693 285.104 235.696 285.164 234.709C285.174 233.752 284.854 232.785 284.324 231.998C283.794 231.21 282.954 230.612 281.995 230.682C281.015 230.682 280.045 230.682 279.085 230.682C263.656 230.672 249.758 230.662 238.089 230.652C226.42 230.632 216.981 230.612 210.442 230.602C208.812 230.592 207.362 230.592 206.102 230.592C205.473 230.572 204.903 230.612 204.403 230.812C203.913 230.991 203.523 231.29 203.223 231.589C202.633 232.207 202.433 232.865 202.363 233.294C202.303 233.762 202.333 233.992 202.313 233.992Z" fill="#263238"/>
<path d="M248.538 255.773C248.538 258.086 246.658 259.96 244.338 259.96C242.019 259.96 240.139 258.086 240.139 255.773C240.139 253.461 242.019 251.586 244.338 251.586C246.658 251.576 248.538 253.451 248.538 255.773Z" fill="white"/>
<path d="M248.538 255.773C248.508 255.773 248.518 255.404 248.348 254.766C248.178 254.148 247.758 253.231 246.808 252.533C246.338 252.194 245.758 251.905 245.088 251.786C244.418 251.676 243.669 251.696 242.949 251.975C242.239 252.234 241.549 252.723 241.069 253.391C240.569 254.049 240.289 254.906 240.279 255.773C240.289 256.65 240.569 257.498 241.069 258.156C241.549 258.824 242.239 259.312 242.949 259.571C243.659 259.84 244.418 259.87 245.088 259.761C245.758 259.651 246.348 259.352 246.808 259.013C247.748 258.315 248.178 257.398 248.348 256.78C248.518 256.142 248.508 255.763 248.538 255.773C248.548 255.773 248.558 255.863 248.558 256.042C248.558 256.222 248.538 256.481 248.468 256.81C248.328 257.458 247.918 258.425 246.948 259.192C246.468 259.561 245.848 259.88 245.138 260.02C244.428 260.149 243.629 260.13 242.859 259.85C242.089 259.581 241.359 259.063 240.829 258.345C240.289 257.637 239.989 256.72 239.979 255.783C239.989 254.846 240.289 253.929 240.829 253.221C241.349 252.503 242.089 251.985 242.859 251.716C243.629 251.427 244.428 251.417 245.138 251.546C245.848 251.676 246.468 251.995 246.948 252.374C247.918 253.131 248.328 254.108 248.468 254.756C248.538 255.085 248.568 255.345 248.558 255.524C248.558 255.674 248.548 255.773 248.538 255.773Z" fill="#263238"/>
<path d="M204.723 238.936C204.813 238.936 205.163 246.432 205.513 255.693C205.863 264.954 206.073 272.461 205.993 272.461C205.903 272.461 205.553 264.964 205.203 255.703C204.843 246.442 204.633 238.936 204.723 238.936Z" fill="#263238"/>
<path d="M183.275 180.669C182.855 180.32 184.685 173.302 184.685 173.302C184.685 173.302 179.845 165.427 179.715 162.885C179.585 160.343 181.625 155.139 181.625 155.139L195.514 151.58C195.514 151.58 199.973 159.834 200.863 162.755C201.753 165.676 199.333 175.585 199.333 175.585L196.983 180.669C196.983 180.669 189.884 186.261 183.275 180.669Z" fill="#D68981"/>
<path d="M179.745 164.41C179.745 164.41 179.145 163.373 178.285 161.34C177.405 159.266 176.326 157.223 178.285 156.056C179.435 155.368 180.375 155.727 180.375 155.727C180.375 155.727 180.075 153.983 181.125 153.325C182.175 152.667 183.185 153.145 183.185 153.145C183.185 153.145 182.855 150.673 184.365 149.626C186.255 148.311 188.214 149.517 188.214 149.517C188.214 149.517 187.024 138.711 186.914 138.142C186.534 136.039 187.314 134.185 189.414 134.703C190.184 134.893 190.604 135.7 191.514 139.219C192.414 142.738 193.864 148.739 193.864 148.739C193.864 148.739 196.303 152.966 197.453 155.259C198.603 157.552 200.883 162.765 201.073 164.151C201.563 167.72 199.463 172.455 199.463 172.455L184.705 173.312C184.685 173.302 180.305 165.437 179.745 164.41Z" fill="#D68981"/>
<path d="M180.665 156.196C180.705 156.176 181.135 156.784 181.805 157.781C182.155 158.31 182.545 158.908 182.975 159.556C183.195 159.895 183.425 160.244 183.605 160.662C183.785 161.071 183.895 161.57 183.775 162.068C183.675 162.557 183.325 163.025 182.845 163.155C182.365 163.305 181.895 163.165 181.525 162.995C181.145 162.826 180.825 162.597 180.535 162.387C180.245 162.178 179.975 161.979 179.735 161.789C179.255 161.42 178.885 161.101 178.635 160.872C178.385 160.643 178.255 160.503 178.275 160.493C178.305 160.453 178.885 160.922 179.875 161.62C180.375 161.949 180.945 162.417 181.645 162.736C181.995 162.886 182.395 162.995 182.755 162.866C183.125 162.756 183.385 162.407 183.475 161.998C183.575 161.59 183.485 161.161 183.325 160.782C183.165 160.403 182.935 160.054 182.725 159.715C182.315 159.057 181.945 158.449 181.615 157.911C180.995 156.864 180.625 156.216 180.665 156.196Z" fill="#D68981"/>
<path d="M192.764 157.482C192.684 157.482 192.614 156.426 192.914 155.169C193.214 153.913 193.764 153.006 193.834 153.046C193.914 153.086 193.504 154.023 193.214 155.249C192.924 156.456 192.854 157.482 192.764 157.482Z" fill="#D68981"/>
<path d="M198.613 160.632C197.293 159.296 195.514 158.459 193.674 158.06C191.834 157.661 189.924 157.671 188.054 157.84C186.555 157.98 184.835 158.359 184.155 159.705C183.455 161.081 184.295 162.865 185.635 163.653C186.964 164.451 188.614 164.48 190.154 164.341C191.704 164.201 193.254 163.912 194.794 164.151" fill="#D68981"/>
<path d="M194.794 164.161C194.794 164.191 194.374 164.121 193.634 164.131C192.884 164.131 191.814 164.271 190.474 164.431C189.804 164.5 189.064 164.57 188.254 164.52C187.454 164.47 186.584 164.331 185.765 163.902C184.945 163.483 184.245 162.716 183.915 161.759C183.745 161.28 183.705 160.752 183.815 160.223C183.935 159.705 184.225 159.216 184.625 158.867C185.445 158.139 186.504 157.91 187.464 157.771C188.434 157.651 189.374 157.601 190.264 157.601C192.054 157.591 193.674 157.86 194.954 158.309C196.243 158.758 197.183 159.346 197.773 159.824C198.073 160.064 198.283 160.263 198.423 160.403C198.563 160.552 198.623 160.632 198.613 160.632C198.593 160.652 198.303 160.353 197.703 159.914C197.103 159.475 196.163 158.917 194.894 158.508C193.624 158.09 192.044 157.86 190.274 157.88C189.394 157.89 188.454 157.95 187.514 158.06C186.584 158.199 185.575 158.439 184.845 159.087C184.475 159.406 184.235 159.834 184.125 160.283C184.035 160.742 184.065 161.22 184.215 161.649C184.505 162.526 185.155 163.244 185.905 163.633C186.664 164.042 187.494 164.201 188.274 164.251C189.054 164.301 189.784 164.251 190.454 164.191C191.784 164.062 192.884 163.952 193.644 163.992C194.024 164.002 194.314 164.042 194.514 164.072C194.694 164.121 194.794 164.151 194.794 164.161Z" fill="#D68981"/>
<path d="M180.775 156.365C182.325 158.718 183.695 161.3 185.005 163.792C185.385 164.52 185.785 165.287 186.484 165.716C187.044 166.065 188.434 165.437 189.054 165.227L184.795 155.558" fill="#D68981"/>
<path d="M184.795 155.548C184.815 155.538 184.945 155.797 185.175 156.266C185.415 156.794 185.735 157.472 186.115 158.289C186.904 160.014 187.984 162.426 189.194 165.158L189.264 165.307L189.104 165.367C188.644 165.527 188.154 165.736 187.614 165.875C187.404 165.925 187.184 165.965 186.964 165.975C186.854 165.975 186.734 165.975 186.614 165.935C186.494 165.905 186.374 165.836 186.294 165.776C185.935 165.527 185.665 165.198 185.435 164.859C184.995 164.171 184.685 163.483 184.345 162.845C183.675 161.559 183.065 160.403 182.525 159.446C181.995 158.489 181.545 157.721 181.235 157.193C180.925 156.664 180.755 156.375 180.765 156.355C180.785 156.345 180.985 156.615 181.335 157.123C181.675 157.631 182.155 158.379 182.715 159.336C183.275 160.283 183.905 161.429 184.595 162.705C184.945 163.333 185.275 164.041 185.685 164.679C185.895 164.998 186.154 165.297 186.464 165.507C186.734 165.726 187.144 165.646 187.534 165.556C188.034 165.427 188.514 165.228 188.994 165.058L188.904 165.267C187.704 162.536 186.654 160.104 185.915 158.359C185.565 157.522 185.275 156.834 185.055 156.296C184.875 155.827 184.775 155.558 184.795 155.548Z" fill="#D68981"/>
<path d="M183.645 152.677C185.015 156.106 186.384 159.525 187.754 162.955C188.044 163.682 188.344 164.42 188.864 165.018C189.374 165.606 190.154 166.035 190.934 165.915C192.004 165.756 192.704 164.619 192.764 163.543C192.814 162.466 192.394 161.429 191.994 160.423C190.764 157.302 189.774 154.082 189.044 150.803" fill="#D68981"/>
<path d="M189.034 150.803C189.044 150.803 189.084 150.912 189.134 151.112C189.194 151.351 189.284 151.65 189.374 152.019C189.584 152.806 189.894 153.943 190.334 155.338C190.764 156.734 191.324 158.379 192.034 160.173C192.374 161.07 192.824 162.018 192.894 163.114C192.934 163.652 192.834 164.241 192.584 164.749C192.334 165.257 191.924 165.736 191.344 165.955C190.774 166.184 190.124 166.085 189.614 165.816C189.104 165.546 188.694 165.128 188.404 164.679C187.824 163.752 187.534 162.775 187.164 161.888C186.464 160.104 185.825 158.479 185.285 157.113C184.775 155.777 184.355 154.681 184.045 153.883C183.915 153.524 183.805 153.235 183.725 152.996C183.655 152.796 183.625 152.687 183.635 152.677C183.645 152.677 183.695 152.777 183.785 152.966C183.885 153.195 184.005 153.484 184.165 153.833C184.495 154.631 184.945 155.707 185.495 157.033C186.055 158.399 186.704 160.004 187.434 161.788C187.814 162.675 188.114 163.662 188.664 164.52C188.944 164.948 189.304 165.317 189.764 165.556C190.214 165.796 190.764 165.875 191.234 165.676C191.714 165.487 192.084 165.078 192.304 164.619C192.534 164.151 192.624 163.642 192.584 163.144C192.524 162.127 192.104 161.19 191.764 160.293C191.064 158.489 190.524 156.824 190.114 155.418C189.704 154.013 189.424 152.856 189.254 152.059C189.164 151.66 189.104 151.351 189.064 151.132C189.044 150.922 189.024 150.813 189.034 150.803Z" fill="#D68981"/>
<path d="M183.975 176.781C183.975 176.781 174.556 204.444 174.186 205.81C173.816 207.166 176.046 217.045 180.135 219.397C184.225 221.74 192.154 211.99 193.144 208.402C194.134 204.823 193.144 198.772 193.144 198.772L199.493 174.937" fill="#D68981"/>
<path d="M193.144 172.476C193.144 172.506 192.794 172.516 192.254 172.357C191.724 172.207 191.014 171.858 190.384 171.28C189.754 170.701 189.344 170.023 189.144 169.514C188.944 168.996 188.914 168.647 188.954 168.647C189.044 168.607 189.374 169.963 190.594 171.06C191.794 172.177 193.174 172.387 193.144 172.476Z" fill="#744A45"/>
</svg>
