<svg width="371" height="363" fill="none" xmlns="http://www.w3.org/2000/svg"><path d="M359.806.544H11.683C5.683.544.813 5.4.813 11.38v245.151c0 5.981 4.87 10.836 10.87 10.836h133.606s8.499 26.198-17.848 39.755h124.937s-29.747-10.168-22.098-39.755h129.536c6 0 10.869-4.855 10.869-10.836V11.381c-.01-5.992-4.879-10.837-10.879-10.837z" fill="#560000"/><path d="M364.686 222.508H6.803V14.7c0-5.343 4.34-9.67 9.7-9.67h338.484c5.359 0 9.699 4.327 9.699 9.67v207.808z" fill="#fff"/><path d="M364.686 23.104H6.803v-8.942c0-5.045 4.1-9.122 9.15-9.122h341.214c4.149 0 7.519 3.35 7.519 7.497v10.567z" fill="#EBEBEB"/><path d="M18.202 16.953c1.386 0 2.51-1.12 2.51-2.502a2.506 2.506 0 00-2.51-2.502 2.506 2.506 0 00-2.51 2.502 2.506 2.506 0 002.51 2.502zm7.499 0c1.386 0 2.51-1.12 2.51-2.502a2.506 2.506 0 00-2.51-2.502 2.506 2.506 0 00-2.51 2.502 2.506 2.506 0 002.51 2.502zm7.119 0c1.386 0 2.51-1.12 2.51-2.502a2.506 2.506 0 00-2.51-2.502 2.506 2.506 0 00-2.51 2.502 2.506 2.506 0 002.51 2.502z" fill="#E0E0E0"/><path d="M297.573 267.396c0 .12-49.535.21-110.639.21-61.113 0-110.648-.09-110.648-.21 0-.119 49.525-.209 110.648-.209 61.094 0 110.639.09 110.639.209z" fill="#263238"/><path d="M363.866 52.352H6.923v79.44h356.943v-79.44zM67.207 31.427H15.692v13.438h51.515V31.427zm281.501 0h-46.156v13.438h46.156V31.427zm-55.755 0h-46.155v13.438h46.155V31.427zM131.42 154.172H24.301v8.563H131.42v-8.563zm63.564 17.894H24.301v3.362h170.683v-3.362zm42.915-140.639h-46.155v13.438h46.155V31.427zm-55.954 0H135.79v13.438h46.155V31.427zm13.039 148.375H24.301v3.361h170.683v-3.361zm0 6.918H24.301v3.361h170.683v-3.361z" fill="#F5F5F5"/><path d="M148.178 100.122l8.67-8.643 15.118 13.737 26.647-26.537 8.059 8.643-35.946 34.572-22.548-21.772z" fill="#EFDCCC"/><path d="M231.25 121.255c-2.36.16-4.69-1.674-5.08-4.007-.39-2.323 1.2-4.815 3.48-5.443-1.39-1.565-1.64-4.027-.59-5.832 1.05-1.804 3.32-2.821 5.369-2.392.18-2.054 1.51-3.968 3.37-4.865 1.86-.897 4.19-.747 5.91.389 2.369-1.844 6.049-1.734 8.319.23 2.019-.27 4.159.896 5.009 2.741.85 1.844.36 4.226-1.16 5.582" fill="#263238"/><path d="M230.52 121.904c1.35-10.557 10.609-18.303 21.268-17.804l1.06.05c11.388 1.196 16.738 11.514 15.218 22.828l-3.43 37.841-.9 8.922-25.887-3.05.49-9.66s-10.899-2.213-10.519-13.168c.18-5.284 1.44-16.15 2.7-25.959z" fill="#D68981"/><path d="M238.249 161.011s6.989.748 14.579-3.529c0 0-3.75 7.717-14.659 6.221l.08-2.692z" fill="#BF7B74"/><path d="M232.94 131.993c-.07.828.579 1.566 1.439 1.646.86.089 1.61-.509 1.68-1.337.07-.828-.58-1.566-1.44-1.646-.86-.09-1.619.509-1.679 1.337zm-.31-4.625c.18.209 1.41-.609 3.099-.529 1.69.06 2.88.987 3.08.788.09-.09-.09-.469-.61-.878-.51-.419-1.4-.838-2.45-.878-1.05-.04-1.949.299-2.479.669-.54.369-.73.728-.64.828zm15.668 5.392c-.07.828.58 1.567 1.44 1.646.859.09 1.609-.508 1.679-1.336.07-.828-.58-1.566-1.44-1.646-.849-.09-1.609.509-1.679 1.336zm.9-4.306c.18.21 1.42-.608 3.1-.529 1.689.06 2.879.978 3.079.788.09-.089-.08-.468-.61-.877-.51-.419-1.399-.838-2.449-.878-1.05-.04-1.95.299-2.48.668-.54.369-.73.728-.64.828zm-6.709 12.181c.01-.1-1.03-.329-2.72-.618-.43-.06-.83-.17-.89-.469-.09-.319.12-.767.35-1.256.45-1.017.93-2.093 1.43-3.21 1.99-4.575 3.45-8.343 3.26-8.423-.19-.08-1.95 3.569-3.93 8.144-.48 1.127-.94 2.203-1.37 3.23-.19.479-.49 1.017-.3 1.675.1.329.41.578.68.658.27.099.51.109.73.139 1.69.17 2.75.23 2.76.13z" fill="#263238"/><path d="M231.81 116.929s3.219-6.719 6.609-8.164c4.1-1.745 5.63 2.721 9.499 1.834 3.88-.887 7.789-2.572 11.559.558 4.129 3.43 2.02 5.593 2.05 10.468.15 19.738 3.489 25.47 4.959 16.249.16-1.007 3.03-1.685 3.65-5.962.8-5.542 1.34-12.291.27-16.298-.89-3.38-2.69-5.772-5.99-8.464-5.199-4.257-12.598-4.685-17.658-4.416-5.039.279-14.998 5.592-14.948 14.195z" fill="#263238"/><path d="M265.806 137.545c.15-1.685 1.67-2.951 3.35-2.712 2.04.289 4.259 1.555 3.929 5.762-.589 7.476-7.989 5.343-7.989 5.124.01-.14.43-5.054.71-8.174z" fill="#D68981"/><path d="M266.956 143.038c.03-.02.12.1.34.22.21.119.57.209.97.099.809-.229 1.579-1.425 1.719-2.771a4.351 4.351 0 00-.22-1.895c-.19-.568-.51-.977-.9-1.076a.665.665 0 00-.799.299c-.12.199-.08.349-.12.359-.02.02-.15-.14-.07-.439.04-.15.14-.319.33-.449a.966.966 0 01.739-.129c.57.089 1.05.658 1.27 1.266.25.618.37 1.356.29 2.114-.17 1.505-1.05 2.851-2.159 3.08-.54.1-.97-.099-1.18-.289-.22-.209-.24-.379-.21-.389z" fill="#AD716B"/><path d="M266.336 123.04c-1.01.618-2.07 1.256-3.249 1.316-1.18.06-2.49-.678-2.64-1.844-.06-.529.09-1.127-.23-1.546-.39-.498-1.15-.388-1.78-.348-2.19.129-4.36-1.516-4.809-3.659-.6.808-1.89.708-2.71.13-.82-.579-1.32-1.496-1.94-2.273-.62-.788-1.52-1.496-2.52-1.406-.56.05-1.09.359-1.65.279-.979-.129-1.409-1.306-1.509-2.292-.1-.987-.17-2.124-.98-2.692-.75-.528-1.77-.289-2.68-.199-.91.089-2.08-.18-2.27-1.067-.1-.469.12-.947.4-1.346 1.25-1.784 3.84-2.472 5.82-1.565.849-2.442 3.259-4.257 5.849-4.406 2.59-.15 5.189 1.376 6.319 3.698 1.65-1.365 3.99-1.854 6.05-1.286 2.069.569 3.809 2.193 4.519 4.217 1.85-.389 3.9.409 4.98 1.944 1.09 1.545 1.15 3.738.15 5.333 1.31.828 2.409 2.223 2.359 3.768-.04 1.546-1.629 3.021-3.109 2.542.55 1.237-.02 2.851-1.22 3.47-1.2.618-2.85.149-3.54-1.017" fill="#263238"/><path d="M242.939 106.711c-.01 0-.01.05 0 .14.01.089 0 .229.03.398.05.349.17.868.48 1.466.31.588.809 1.286 1.579 1.844.76.568 1.82 1.027 3.03 1.017l-.12-.17c-.26.628-.24 1.396.05 2.074.27.688.72 1.296 1.2 1.904.25.289.45.628.8.897.34.259.75.419 1.17.498.84.15 1.81-.069 2.459-.747l-.279-.09a5.619 5.619 0 002.209 3.997c.69.549 1.56.908 2.43.918.87.03 1.69-.19 2.45-.419l-.2-.1c.36.947.94 1.775 1.67 2.393.71.618 1.679 1.007 2.579.827 1.79-.289 3.03-1.705 3.33-3.08l-.17.07c.86.518 1.8.608 2.56.498a4.21 4.21 0 001.84-.718c.45-.319.72-.648.88-.877.149-.239.219-.379.209-.379-.04-.03-.28.558-1.159 1.147-.44.279-1.04.558-1.79.638a3.79 3.79 0 01-2.42-.509l-.14-.09-.04.16c-.3 1.276-1.49 2.602-3.15 2.851-.82.15-1.669-.199-2.339-.778a5.667 5.667 0 01-1.57-2.272l-.05-.14-.14.04c-.75.229-1.54.429-2.35.399-.8-.02-1.58-.339-2.24-.858-1.23-.917-1.96-2.342-2.09-3.768l-.03-.359-.249.26c-.55.588-1.41.797-2.17.657a2.396 2.396 0 01-1.04-.428c-.29-.22-.51-.548-.75-.838-.48-.588-.91-1.186-1.17-1.824-.28-.628-.3-1.306-.08-1.874l.07-.179h-.19a4.848 4.848 0 01-2.91-.927c-.76-.529-1.249-1.187-1.579-1.755-.61-1.136-.55-1.924-.61-1.914z" fill="#455A64"/><path d="M240.569 146.149c-.03.07.39.329 1.15.499.76.169 1.86.189 3.009-.14 1.15-.339 2.07-.968 2.61-1.516.55-.549.75-.998.69-1.038-.14-.129-1.34 1.337-3.48 1.945-2.119.649-3.929.07-3.979.25z" fill="#263238"/><path d="M215.831 268.643l66.494.907s18.598-7.756 23.707-7.965c5.11-.21 15.248.438 19.938 7.965 4.849 7.775 5.529 21.502-9.419 31.481-14.549 9.709-81.082 18.691-90.211 17.864l-16.808-22.499s-.18-18.443 0-19.32c.18-.877 2.99-8.782 2.99-8.782l3.309.349z" fill="#F4A32D"/><path d="M252.738 298.459l39.695 14.704-18.088 49.335c-4.619-2.014-4.749-30.993-4.749-30.993l-25.827-8.373 8.969-24.673z" fill="#91322D"/><path d="M292.443 313.163l-4.009-1.485-15.878 47.949s.15 2.542 1.799 2.861l18.088-49.325z" fill="#263238"/><path d="M230.83 297.432l-35.576 16.449 20.297 44.231c4.12-2.193 2.12-28.959 2.12-28.959l23.228-9.61-10.069-22.111z" fill="#91322D"/><path d="M195.264 313.882l3.589-1.665 18.158 43.114s.04 2.363-1.45 2.772l-20.297-44.221z" fill="#263238"/><path d="M212.522 268.294s-28.717-10.687-39.286-9.311c-5.91.778-15.149 5.274-15.859 12.82-.699 7.556 1.14 17.654 11.359 22.569 10.219 4.915 50.995 23.157 60.684 25.968 9.689 2.812 33.846 9.391 33.846 9.391l9.18-26.068s-50.065-17.286-52.705-19.21c-2.64-1.934-9.339-4.566-9.339-4.566l2.12-11.593z" fill="#F4A32D"/><path d="M312.331 271.843s-.07-.01-.2-.05c-.15-.04-.34-.1-.58-.179a40.947 40.947 0 00-2.229-.599c-.98-.229-2.18-.488-3.6-.628-1.42-.139-3.05-.149-4.829.01-1.78.16-3.73.479-5.75 1.097-1 .309-2.03.678-3.03 1.176-1.009.489-2.059.997-3.129 1.525a222.315 222.315 0 01-14.199 6.151c-10.229 4.087-20.048 6.031-27.057 7.616a821.71 821.71 0 00-8.309 1.874c-.96.23-1.72.409-2.25.529-.25.06-.44.099-.59.129-.13.03-.2.04-.2.04 0-.01.06-.03.2-.07.15-.039.34-.089.58-.159.51-.14 1.26-.349 2.24-.588 1.95-.499 4.779-1.167 8.289-1.974 6.989-1.645 16.788-3.609 26.987-7.686 5.1-2.014 9.899-4.097 14.189-6.121 1.07-.518 2.11-1.017 3.13-1.505a19.471 19.471 0 013.079-1.176c2.04-.608 4-.917 5.8-1.067 1.799-.14 3.439-.12 4.869.04 1.43.159 2.63.429 3.61.678.98.249 1.72.488 2.219.658.24.089.42.149.57.199.13.05.19.07.19.08zm-1.509-3.778c-.01.05-.87-.11-2.28-.259-1.41-.15-3.36-.27-5.51-.16-2.149.11-4.079.429-5.469.718-1.38.29-2.23.539-2.24.489-.01-.02.2-.1.57-.229.38-.13.93-.3 1.62-.469a28.894 28.894 0 0111.049-.569c.7.1 1.27.21 1.66.299.39.1.61.16.6.18zm-110.379 7.806c-.03.04-.83-.569-2.2-1.426a30.673 30.673 0 00-5.679-2.722 30.232 30.232 0 00-6.14-1.446c-1.609-.199-2.609-.219-2.609-.269 0-.02.25-.03.71-.04.46-.01 1.12.02 1.929.09 1.62.14 3.86.539 6.22 1.366a26.674 26.674 0 015.699 2.822c.68.448 1.21.837 1.56 1.136.33.299.52.469.51.489z" fill="#455A64"/><path d="M214.852 314.758s.08.03.22.09c.15.059.369.159.649.269.58.229 1.41.628 2.54 1.056 2.24.888 5.54 2.094 9.779 3.49 8.479 2.761 20.678 6.28 35.266 9.948l-.169.09c2.719-7.526 5.719-15.83 8.879-24.563l.09.19a5778.77 5778.77 0 00-10.989-4.496c-24.228-9.939-46.005-18.881-60.824-24.962l-.02-.01-.02-.02c-2.48-2.612-4.749-4.914-6.889-6.769-2.14-1.854-4.1-3.289-5.78-4.336-1.669-1.067-3.039-1.735-3.959-2.203-.46-.219-.82-.379-1.06-.499-.24-.109-.36-.179-.36-.179s.13.05.37.15c.25.109.61.269 1.08.468.93.449 2.32 1.107 3.999 2.163 1.69 1.037 3.67 2.463 5.82 4.307 2.15 1.854 4.449 4.147 6.929 6.749l-.04-.02c14.829 6.061 36.616 14.963 60.864 24.862 3.769 1.545 7.469 3.06 10.989 4.505l.14.06-.05.14c-3.17 8.732-6.18 17.036-8.9 24.553l-.04.119-.119-.03c-14.589-3.688-26.778-7.247-35.247-10.058-4.229-1.416-7.529-2.652-9.759-3.559-1.12-.438-1.95-.857-2.52-1.096-.28-.13-.489-.22-.639-.289-.16-.08-.23-.12-.23-.12z" fill="#455A64"/><path d="M285.814 177.07s8.269 4.745 9.939 10.328c1.02 3.389 8.729 46.723 9.949 55.266 1.23 8.623-1.35 14.873-5.009 17.705-3.66 2.831-14.739 6.609-14.739 6.609l-15.588 5.034-4.47-11.334 14.839-21.254-1.44-14.315 6.519-48.039z" fill="#EFDCCC"/><path d="M269.566 169.584l-6.209-3.539s-5.66 6.599-13.369 5.792c-7.719-.808-12.289-6.699-12.289-6.699l-23.007 4.675c-1.54.309-4.36 1.286-7.05 5.114-2.999 4.277-17.238 23.257-17.238 23.257h-9.969a7.4 7.4 0 00-6.549 3.938c-1.7 3.229-3.75 7.556-3.55 9.34.34 3.031-.25 11.335 3.82 13.937 1.29.827 5.909 3.289 9.499 3.12 5.289-.249 11.439-2.991 14.978-5.463 3-2.094 9.969-9.311 12.649-12.132v.04l1.72 60.181 60.333-1.715 12.499-92.36c-.02 0-15.658-7.486-16.268-7.486z" fill="#EFDCCC"/><path d="M211.052 185.703c.09 0 .24 7.457.35 16.658.11 9.201.13 16.667.04 16.667s-.24-7.456-.35-16.657c-.1-9.201-.12-16.668-.04-16.668zm82.071 48.647c0 .03-.51.08-1.419.259-.91.17-2.22.529-3.74 1.187s-3.23 1.665-4.97 2.99c-1.739 1.326-3.509 2.981-5.239 4.835s-3.3 3.699-4.78 5.323c-1.479 1.635-2.869 3.061-4.109 4.177-1.24 1.117-2.31 1.944-3.09 2.463-.38.269-.7.448-.9.578-.21.129-.32.189-.33.179-.01-.01.1-.089.29-.229.2-.15.5-.339.87-.628.75-.548 1.8-1.396 3.01-2.532 1.22-1.127 2.58-2.562 4.05-4.207 1.469-1.635 3.029-3.479 4.769-5.343 1.74-1.854 3.53-3.519 5.289-4.845 1.77-1.326 3.51-2.333 5.06-2.971 1.55-.638 2.87-.977 3.8-1.106.459-.09.829-.09 1.069-.12.24-.01.37-.02.37-.01zm1.37-4.077c.01.06-.91.179-2.35.578-1.439.389-3.379 1.117-5.339 2.273-1.95 1.166-3.52 2.522-4.549 3.599-1.04 1.066-1.58 1.814-1.63 1.784-.02-.01.11-.209.35-.548.24-.349.62-.828 1.12-1.386.999-1.126 2.569-2.532 4.549-3.708 1.99-1.176 3.97-1.874 5.44-2.223.729-.17 1.329-.279 1.749-.329.42-.04.65-.06.66-.04z" fill="#263238"/><path opacity=".3" d="M182.205 219.716c3.19.867 7.029-3.718 9.929-6.579 1.51-1.495 3.08-3.08 3.63-5.124.459-1.685.16-3.509-.5-5.134-.66-1.625-1.13-2.672-2.12-4.117.27 2.472.88 6.26.04 9.371-.7 2.591-2.34 4.655-4.09 6.609-1.85 2.063-4.029 4.236-6.889 4.974z" fill="#000"/><path d="M195.854 217.095c-.06-.02.309-1.047.609-2.772.16-.857.26-1.904.29-3.06.01-1.156-.05-2.423-.25-3.748a23.309 23.309 0 00-.919-3.639 22.256 22.256 0 00-1.22-2.821c-.82-1.555-1.49-2.412-1.44-2.452.02-.01.19.199.49.588.15.199.33.438.52.737.19.3.42.629.62 1.017.44.768.89 1.725 1.3 2.831.389 1.107.739 2.353.949 3.689.2 1.336.26 2.632.23 3.798a19.643 19.643 0 01-.36 3.09c-.07.439-.19.818-.28 1.167a8.39 8.39 0 01-.26.857c-.159.468-.259.728-.279.718zm88.16-25.999c.08.01-.94 8.234-2.279 18.363-1.35 10.128-2.5 18.332-2.59 18.322-.08-.01.94-8.234 2.28-18.362 1.349-10.129 2.509-18.333 2.589-18.323zm-90.41 13.308c.02 0 .01.299-.02.848 0 .279-.05.608-.12.987-.03.199-.07.398-.1.618-.05.219-.11.438-.17.677-.22.957-.65 2.054-1.19 3.23-.58 1.157-1.3 2.403-2.22 3.589-.93 1.176-1.93 2.213-2.95 3.031-1.039.787-2.029 1.425-2.959 1.774-.23.09-.44.189-.65.269-.21.06-.41.11-.61.17-.19.049-.36.099-.53.139-.16.04-.32.04-.45.06-.55.06-.85.09-.85.07-.02-.08 1.23-.11 3-.907.89-.369 1.86-1.017 2.869-1.805.99-.817 1.97-1.834 2.88-2.99.9-1.167 1.62-2.393 2.21-3.529.54-1.157.99-2.223 1.23-3.16.55-1.855.56-3.071.63-3.071z" fill="#263238"/><path opacity=".3" d="M282.075 273.199c2.559-1.237 3.139-4.546 3.399-7.367.76-8.264 1.53-16.538 2.29-24.802.36-3.888.53-8.324-2.22-11.106-2.51-2.542-6.499-2.691-10.079-2.681-22.077.06-41.575.708-63.653.767l1.12 38.5 69.143 6.689z" fill="#000"/><path d="M202.313 233.992l2.35 44.65c.09 1.724 1.529 3.07 3.279 3.07l71.343.12c1.75 0 3.2-1.356 3.279-3.081l2.72-43.892c.09-1.824-1.21-4.247-3.059-4.286l-76.573.009c-1.899-.039-3.439 1.526-3.339 3.41z" fill="#E0E0E0"/><path d="M202.313 233.992s-.01-.06-.01-.17a3.18 3.18 0 01.88-2.243c.3-.309.69-.618 1.19-.807.5-.21 1.1-.259 1.719-.24 1.26 0 2.71-.009 4.34-.009 6.529-.01 15.978-.03 27.647-.05 11.669-.01 25.567-.02 40.996-.04h2.91c.489-.02 1.039.099 1.469.379.44.269.8.648 1.09 1.066.57.838.9 1.844.9 2.881l-.18 3.001c-.25 4.017-.5 8.124-.76 12.301-.52 8.354-1.05 17.007-1.6 25.869l-.1 1.655c-.05.558-.04 1.086-.139 1.675-.21 1.146-1.07 2.123-2.15 2.522-.53.209-1.14.239-1.68.219h-1.64c-1.09 0-2.18 0-3.26-.01-4.339-.01-8.609-.02-12.808-.02-8.399-.02-16.499-.04-24.218-.05-7.719-.02-15.048-.04-21.907-.05-1.72 0-3.4-.01-5.06-.01h-1.24c-.41-.01-.82.02-1.24-.04a3.398 3.398 0 01-2.139-1.176c-.54-.628-.8-1.465-.8-2.243l-.12-2.303c-.08-1.525-.15-3.01-.23-4.456-.59-11.613-1.07-21.014-1.4-27.523a2744.257 2744.257 0 01-.45-9.431c-.01-.478-.01-.697-.01-.697s.02.219.05.658c.03.448.07 1.096.12 1.943.1 1.715.24 4.237.42 7.477.35 6.5.87 15.9 1.5 27.514a2023.088 2023.088 0 01.36 6.758c0 .768.24 1.516.75 2.104a3.117 3.117 0 001.989 1.086c.38.05.8.03 1.21.03h6.3c6.859.01 14.198.02 21.907.02l24.218.03c4.199.01 8.469.01 12.808.02 1.08 0 2.17 0 3.26.01h1.64c.56.02 1.07-.01 1.57-.199.98-.359 1.77-1.246 1.96-2.293.09-.509.09-1.087.13-1.625l.1-1.655c.549-8.862 1.089-17.505 1.609-25.869.26-4.177.52-8.284.77-12.301l.18-2.991c.01-.957-.31-1.924-.84-2.711-.53-.788-1.37-1.386-2.329-1.316h-2.91c-15.429-.01-29.327-.02-40.996-.03-11.669-.02-21.108-.04-27.647-.05-1.63-.01-3.08-.01-4.34-.01-.629-.02-1.199.02-1.699.22-.49.179-.88.478-1.18.777a3.2 3.2 0 00-.86 1.705c-.06.468-.03.698-.05.698z" fill="#263238"/><path d="M248.538 255.773a4.193 4.193 0 01-4.2 4.187 4.193 4.193 0 01-4.199-4.187 4.193 4.193 0 014.199-4.187 4.18 4.18 0 014.2 4.187z" fill="#fff"/><path d="M248.538 255.773c-.03 0-.02-.369-.19-1.007a4.145 4.145 0 00-1.54-2.233 4.211 4.211 0 00-1.72-.747c-.67-.11-1.419-.09-2.139.189-.71.259-1.4.748-1.88 1.416-.5.658-.78 1.515-.79 2.382.01.877.29 1.725.79 2.383a4.054 4.054 0 001.88 1.415c.71.269 1.469.299 2.139.19a4.04 4.04 0 001.72-.748 4.202 4.202 0 001.54-2.233c.17-.638.16-1.017.19-1.007.01 0 .02.09.02.269 0 .18-.02.439-.09.768a4.223 4.223 0 01-1.52 2.382c-.48.369-1.1.688-1.81.828a4.32 4.32 0 01-4.309-1.675c-.54-.708-.84-1.625-.85-2.562.01-.937.31-1.854.85-2.562a4.271 4.271 0 012.03-1.505c.77-.289 1.569-.299 2.279-.17.71.13 1.33.449 1.81.828a4.192 4.192 0 011.52 2.382c.07.329.1.589.09.768 0 .15-.01.249-.02.249zm-43.815-16.837c.09 0 .44 7.496.79 16.757.35 9.261.56 16.768.48 16.768-.09 0-.44-7.497-.79-16.758-.36-9.261-.57-16.767-.48-16.767z" fill="#263238"/><path d="M183.275 180.669c-.42-.349 1.41-7.367 1.41-7.367s-4.84-7.875-4.97-10.417c-.13-2.542 1.91-7.746 1.91-7.746l13.889-3.559s4.459 8.254 5.349 11.175c.89 2.921-1.53 12.83-1.53 12.83l-2.35 5.084s-7.099 5.592-13.708 0z" fill="#D68981"/><path d="M179.745 164.41s-.6-1.037-1.46-3.07c-.88-2.074-1.959-4.117 0-5.284 1.15-.688 2.09-.329 2.09-.329s-.3-1.744.75-2.402c1.05-.658 2.06-.18 2.06-.18s-.33-2.472 1.18-3.519c1.89-1.315 3.849-.109 3.849-.109s-1.19-10.806-1.3-11.375c-.38-2.103.4-3.957 2.5-3.439.77.19 1.19.997 2.1 4.516.9 3.519 2.35 9.52 2.35 9.52s2.439 4.227 3.589 6.52c1.15 2.293 3.43 7.506 3.62 8.892.49 3.569-1.61 8.304-1.61 8.304l-14.758.857c-.02-.01-4.4-7.875-4.96-8.902z" fill="#D68981"/><path d="M180.665 156.196c.04-.02.47.588 1.14 1.585.35.529.74 1.127 1.17 1.775.22.339.45.688.63 1.106.18.409.29.908.17 1.406-.1.489-.45.957-.93 1.087-.48.15-.95.01-1.32-.16-.38-.169-.7-.398-.99-.608-.29-.209-.56-.408-.8-.598-.48-.369-.85-.688-1.1-.917-.25-.229-.38-.369-.36-.379.03-.04.61.429 1.6 1.127.5.329 1.07.797 1.77 1.116.35.15.75.259 1.11.13.37-.11.63-.459.72-.868.1-.408.01-.837-.15-1.216s-.39-.728-.6-1.067c-.41-.658-.78-1.266-1.11-1.804-.62-1.047-.99-1.695-.95-1.715zm12.099 1.286c-.08 0-.15-1.056.15-2.313.3-1.256.85-2.163.92-2.123.08.04-.33.977-.62 2.203-.29 1.207-.36 2.233-.45 2.233zm5.849 3.15c-1.32-1.336-3.099-2.173-4.939-2.572-1.84-.399-3.75-.389-5.62-.22-1.499.14-3.219.519-3.899 1.865-.7 1.376.14 3.16 1.48 3.948 1.329.798 2.979.827 4.519.688 1.55-.14 3.1-.429 4.64-.19" fill="#D68981"/><path d="M194.794 164.161c0 .03-.42-.04-1.16-.03-.75 0-1.82.14-3.16.3-.67.069-1.41.139-2.22.089-.8-.05-1.67-.189-2.489-.618a3.832 3.832 0 01-1.85-2.143 2.846 2.846 0 01-.1-1.536c.12-.518.41-1.007.81-1.356.82-.728 1.879-.957 2.839-1.096.97-.12 1.91-.17 2.8-.17 1.79-.01 3.41.259 4.69.708 1.289.449 2.229 1.037 2.819 1.515.3.24.51.439.65.579.14.149.2.229.19.229-.02.02-.31-.279-.91-.718a9.948 9.948 0 00-2.809-1.406c-1.27-.418-2.85-.648-4.62-.628-.88.01-1.82.07-2.76.18-.93.139-1.939.379-2.669 1.027-.37.319-.61.747-.72 1.196-.09.459-.06.937.09 1.366a3.52 3.52 0 001.69 1.984c.759.409 1.589.568 2.369.618.78.05 1.51 0 2.18-.06 1.33-.129 2.43-.239 3.19-.199.38.01.67.05.87.08.18.049.28.079.28.089z" fill="#D68981"/><path d="M180.775 156.365c1.55 2.353 2.92 4.935 4.23 7.427.38.728.78 1.495 1.479 1.924.56.349 1.95-.279 2.57-.489l-4.259-9.669" fill="#D68981"/><path d="M184.795 155.548c.02-.01.15.249.38.718.24.528.56 1.206.94 2.023a673.197 673.197 0 013.079 6.869l.07.149-.16.06c-.46.16-.95.369-1.49.508-.21.05-.43.09-.65.1-.11 0-.23 0-.35-.04a.96.96 0 01-.32-.159c-.359-.249-.629-.578-.859-.917-.44-.688-.75-1.376-1.09-2.014-.67-1.286-1.28-2.442-1.82-3.399a99.05 99.05 0 00-1.29-2.253c-.31-.529-.48-.818-.47-.838.02-.01.22.26.57.768.34.508.82 1.256 1.38 2.213.56.947 1.19 2.093 1.88 3.369.35.628.68 1.336 1.09 1.974.21.319.469.618.779.828.27.219.68.139 1.07.049.5-.129.98-.328 1.46-.498l-.09.209c-1.2-2.731-2.25-5.163-2.989-6.908-.35-.837-.64-1.525-.86-2.063-.18-.469-.28-.738-.26-.748z" fill="#D68981"/><path d="M183.645 152.677c1.37 3.429 2.739 6.848 4.109 10.278.29.727.59 1.465 1.11 2.063.51.588 1.29 1.017 2.07.897 1.07-.159 1.77-1.296 1.83-2.372.05-1.077-.37-2.114-.77-3.12a64.462 64.462 0 01-2.95-9.62" fill="#D68981"/><path d="M189.034 150.803c.01 0 .05.109.1.309.06.239.15.538.24.907.21.787.52 1.924.96 3.319.43 1.396.99 3.041 1.7 4.835.34.897.79 1.845.86 2.941.04.538-.06 1.127-.31 1.635s-.66.987-1.24 1.206c-.57.229-1.22.13-1.73-.139-.51-.27-.92-.688-1.21-1.137-.58-.927-.87-1.904-1.24-2.791-.7-1.784-1.339-3.409-1.879-4.775-.51-1.336-.93-2.432-1.24-3.23-.13-.359-.24-.648-.32-.887-.07-.2-.1-.309-.09-.319.01 0 .06.1.15.289.1.229.22.518.38.867.33.798.78 1.874 1.33 3.2.56 1.366 1.209 2.971 1.939 4.755.38.887.68 1.874 1.23 2.732.28.428.64.797 1.1 1.036.45.24 1 .319 1.47.12.48-.189.85-.598 1.07-1.057.23-.468.32-.977.28-1.475-.06-1.017-.48-1.954-.82-2.851a59.771 59.771 0 01-1.65-4.875 48.102 48.102 0 01-1.05-4.286c-.02-.21-.04-.319-.03-.329zm-5.059 25.978s-9.419 27.663-9.789 29.029c-.37 1.356 1.86 11.235 5.949 13.587 4.09 2.343 12.019-7.407 13.009-10.995.99-3.579 0-9.63 0-9.63l6.349-23.835" fill="#D68981"/><path d="M193.144 172.476c0 .03-.35.04-.89-.119-.53-.15-1.24-.499-1.87-1.077a4.984 4.984 0 01-1.24-1.766c-.2-.518-.23-.867-.19-.867.09-.04.42 1.316 1.64 2.413 1.2 1.117 2.58 1.327 2.55 1.416z" fill="#744A45"/></svg>