<svg width="76" height="77" fill="none" xmlns="http://www.w3.org/2000/svg"><path fill-rule="evenodd" clip-rule="evenodd" d="M38 76.874c-20.987 0-38-17.013-38-38 0-20.986 17.013-38 38-38s38 17.014 38 38c0 20.987-17.013 38-38 38zm.53-40.132c3.11 0 18.24-8.507 18.24-8.507l.024-1.52a3.042 3.042 0 00-3.045-3.04h-30.44a3.042 3.042 0 00-3.043 3.04v1.354s15.295 8.673 18.263 8.673zm-18.24-3.947s15.27 8.127 18.24 8.127c3.254 0 18.24-8.127 18.24-8.127l.024 18.24a3.042 3.042 0 01-3.045 3.04h-30.44a3.043 3.043 0 01-3.043-3.04l.025-18.24z" fill="#FD848D"/></svg>