<svg width="76" height="77" viewBox="0 0 76 77" fill="none" xmlns="http://www.w3.org/2000/svg">
<path d="M-0.000183105 0.874512H75.9998V76.8745H-0.000183105V0.874512Z" fill="white"/>
<path fill-rule="evenodd" clip-rule="evenodd" d="M37.9998 0.874512C17.013 0.874512 -0.000183105 17.8877 -0.000183105 38.8745C-0.000183105 59.8613 17.013 76.8745 37.9998 76.8745C58.9866 76.8745 75.9998 59.8613 75.9998 38.8745C75.9998 17.8877 58.9866 0.874512 37.9998 0.874512ZM41.9606 40.5437V61.2177H33.4067V40.5445H29.1332V33.4201H33.4067V29.1427C33.4067 23.3306 35.8198 19.8745 42.6757 19.8745H48.3834V26.9997H44.8157C42.1469 26.9997 41.9703 27.9953 41.9703 29.8535L41.9606 33.4193H48.4238L47.6675 40.5437H41.9606Z" fill="#FD848D"/>
</svg>
