<svg width="41" height="42" fill="none" xmlns="http://www.w3.org/2000/svg"><path fill-rule="evenodd" clip-rule="evenodd" d="M20.5.642C31.822.642 41 9.814 41 21.127c0 11.314-9.178 20.486-20.5 20.486S0 32.44 0 21.127 9.178.642 20.5.642zm5.462 17.89c-.1-.81-.349-1.446-.791-2.009-.574-.725-1.308-1.159-2.394-1.416-.708-.172-.994-.152-1.25.082-.239.219-.285.657-.103.942.128.206.276.28.687.36.548.101.926.232 1.27.429.731.421 1.072 1.08 1.108 2.149.017.502.06.656.236.834a.754.754 0 001.148-.128c.09-.146.104-.21.113-.55a5.396 5.396 0 00-.024-.694zm.01-4.967c1.737 1.404 2.707 3.399 2.851 5.879.061.977-.02 1.295-.364 1.476a.736.736 0 01-.906-.14c-.16-.165-.222-.39-.22-.788.008-1.1-.246-2.33-.659-3.183a6.15 6.15 0 00-2.144-2.456c-.814-.542-1.89-.909-2.934-1-.678-.059-.92-.174-1.05-.498-.08-.194-.059-.53.036-.68a.92.92 0 01.43-.332c.151-.044 1.026.033 1.5.127 1.297.264 2.48.806 3.46 1.595zm6.018 15.429a2.722 2.722 0 00-.242-.486c-.51-.77-3.25-2.911-4.617-3.612-.78-.4-1.36-.534-1.788-.409-.461.13-.704.345-1.477 1.304-.311.385-.63.745-.716.802-.21.146-.623.263-.914.263-.676-.004-1.902-.441-2.845-1.016-.732-.446-1.67-1.243-2.39-2.033-.85-.927-1.429-1.745-1.886-2.668-.59-1.187-.74-1.912-.494-2.442a1.97 1.97 0 01.178-.32 25.4 25.4 0 01.838-.692c.825-.656.959-.806 1.113-1.255.194-.571.141-1.155-.158-1.742-.23-.445-.834-1.417-1.27-2.044-.58-.826-2.02-2.592-2.307-2.83-.518-.422-1.181-.495-1.914-.211-.772.3-2.22 1.466-2.84 2.28-.558.736-.773 1.259-.805 1.947-.028.567.02.802.32 1.527 2.342 5.684 5.838 10.224 10.64 13.827 2.509 1.883 5.11 3.317 7.809 4.296 1.574.571 2.258.6 3.063.13.34-.202 1.181-1.065 1.65-1.692.777-1.045 1.065-1.527 1.146-1.912.056-.263.012-.72-.094-1.012zm-1.034-12.817a11.29 11.29 0 01.781 3.836 16.7 16.7 0 01-.014 1.13c-.037.659-.073.79-.263.964-.305.286-.9.218-1.126-.127-.118-.185-.134-.32-.111-1.091.065-2.279-.396-4.063-1.507-5.846-1.328-2.14-3.313-3.582-5.895-4.288a14.668 14.668 0 00-2.077-.405c-.562-.073-.685-.105-.824-.19-.42-.268-.425-.947-.007-1.22.216-.144.375-.15 1.078-.06 2.06.257 3.9.87 5.41 1.794 1.084.664 1.767 1.26 2.646 2.304.93 1.114 1.422 1.937 1.909 3.2z" fill="#fff"/></svg>