<svg width="45" height="45" fill="none" xmlns="http://www.w3.org/2000/svg"><path fill-rule="evenodd" clip-rule="evenodd" d="M0 22.5C0 34.926 10.074 45 22.5 45S45 34.926 45 22.5 34.926 0 22.5 0 0 10.074 0 22.5zm18.375 10.313l.383-5.736 10.433-9.415c.458-.407-.1-.605-.708-.236l-12.876 8.123-5.562-1.736c-1.2-.368-1.21-1.193.27-1.786l21.673-8.357c.99-.45 1.945.237 1.567 1.752l-3.69 17.393c-.258 1.236-1.005 1.532-2.04.961l-5.622-4.154L19.5 32.25a5.883 5.883 0 01-.025.025c-.303.294-.553.538-1.1.538z" fill="#424242"/></svg>