<svg width="35" height="35" fill="none" xmlns="http://www.w3.org/2000/svg"><path d="M17.5 35C7.85 35 0 27.15 0 17.5S7.85 0 17.5 0 35 7.85 35 17.5 27.15 35 17.5 35zm0-33.833C8.493 1.167 1.167 8.493 1.167 17.5c0 9.007 7.326 16.333 16.333 16.333 9.007 0 16.333-7.326 16.333-16.333 0-9.007-7.326-16.333-16.333-16.333z" fill="#fff"/><path d="M26.413 22.998l-5.555-1.927-.377-3.015c-.251.359-.61.637-1.078.783l.342 2.736c.026.22.177.407.387.478l5.897 2.05C27.08 24.467 28 25.766 28 26.88v-.008a.584.584 0 001.167.002c-.004-1.609-1.237-3.345-2.754-3.876zM6.417 27.454a.584.584 0 01-.584-.583v.008c0-1.61 1.236-3.35 2.753-3.88l5.555-1.915.014-.327a.59.59 0 01.652-.506c.319.04.546.331.507.652l-.06.687a.582.582 0 01-.388.479L8.969 24.1C7.921 24.468 7 25.767 7 26.879v-.008a.583.583 0 01-.583.583z" fill="#fff"/><path d="M17.5 19.879c-3.242 0-4.89-2.152-4.901-7.547-.002-1.37.143-2.757 1.431-4.048.82-.822 1.987-1.239 3.47-1.239s2.65.417 3.47 1.24c1.289 1.29 1.435 2.678 1.432 4.048-.011 5.394-1.66 7.546-4.902 7.546zm0-11.667c-1.177 0-2.042.294-2.645.897-.737.739-1.094 1.4-1.09 3.221.009 4.688 1.23 6.383 3.734 6.383s3.725-1.695 3.734-6.383c.004-1.82-.353-2.482-1.09-3.22-.601-.604-1.466-.898-2.643-.898z" fill="#fff"/></svg>