<svg width="45" height="45" viewBox="0 0 45 45" fill="none" xmlns="http://www.w3.org/2000/svg">
<path fill-rule="evenodd" clip-rule="evenodd" d="M0 22.5C0 34.9264 10.0736 45 22.5 45C34.9264 45 45 34.9264 45 22.5C45 10.0736 34.9264 0 22.5 0C10.0736 0 0 10.0736 0 22.5ZM22.5259 35.9999C22.5259 35.9999 16.4859 26.9668 14.3478 21.9447C13.8039 20.7741 13.5 19.4672 13.5 18.0887C13.5 13.0691 17.5294 8.99994 22.5 8.99994C27.4706 8.99994 31.5 13.0691 31.5 18.0887C31.5 19.1933 31.3049 20.2519 30.9475 21.2312H30.9571C29.5244 25.0414 22.5259 35.9999 22.5259 35.9999Z" fill="#424242"/>
<path d="M22.5 23.2501C25.3995 23.2501 27.75 20.8996 27.75 18.0001C27.75 15.1006 25.3995 12.7501 22.5 12.7501C19.6005 12.7501 17.25 15.1006 17.25 18.0001C17.25 20.8996 19.6005 23.2501 22.5 23.2501Z" fill="#424242"/>
</svg>
