<svg width="45" height="46" fill="none" xmlns="http://www.w3.org/2000/svg"><path fill-rule="evenodd" clip-rule="evenodd" d="M22.5.753C10.074.753 0 10.826 0 23.253c0 12.426 10.074 22.5 22.5 22.5S45 35.679 45 23.253C45 10.826 34.926.753 22.5.753zm-4.947 10.572c1.28-.058 1.69-.072 4.948-.072h-.004c3.26 0 3.668.014 4.948.072 1.277.059 2.15.261 2.915.558a5.86 5.86 0 012.125 1.384 5.889 5.889 0 011.385 2.125c.295.763.498 1.636.558 2.913.057 1.28.072 1.689.072 4.948 0 3.26-.015 3.667-.072 4.947-.06 1.277-.263 2.15-.558 2.913a5.89 5.89 0 01-1.385 2.125 5.87 5.87 0 01-2.124 1.385c-.764.297-1.637.5-2.914.558-1.28.058-1.688.072-4.947.072-3.26 0-3.668-.014-4.948-.072-1.277-.059-2.15-.261-2.913-.558a5.876 5.876 0 01-2.125-1.385 5.879 5.879 0 01-1.384-2.126c-.296-.763-.499-1.635-.558-2.912-.057-1.28-.072-1.688-.072-4.947 0-3.259.015-3.668.072-4.948.058-1.277.26-2.15.558-2.913a5.89 5.89 0 011.385-2.125 5.876 5.876 0 012.125-1.384c.763-.297 1.636-.5 2.913-.558z" fill="#424242"/><path fill-rule="evenodd" clip-rule="evenodd" d="M21.425 13.415H22.5c3.204 0 3.584.012 4.85.07 1.17.053 1.804.248 2.227.413.56.217.96.477 1.38.897.42.42.68.82.897 1.38.165.423.36 1.058.414 2.228.057 1.265.07 1.645.07 4.847 0 3.203-.013 3.583-.07 4.848-.054 1.17-.25 1.805-.414 2.227a3.71 3.71 0 01-.898 1.379c-.42.42-.819.68-1.379.897-.422.165-1.058.36-2.228.414-1.265.057-1.645.07-4.849.07s-3.584-.013-4.849-.07c-1.17-.054-1.805-.25-2.228-.414a3.716 3.716 0 01-1.38-.897 3.72 3.72 0 01-.898-1.38c-.164-.422-.36-1.057-.413-2.227-.058-1.265-.07-1.645-.07-4.85 0-3.204.012-3.582.07-4.847.053-1.17.249-1.805.413-2.228.217-.56.478-.96.898-1.38.42-.42.82-.68 1.38-.898.423-.165 1.058-.36 2.228-.414 1.107-.05 1.536-.065 3.773-.068v.003zm7.482 1.993a1.44 1.44 0 100 2.88 1.44 1.44 0 000-2.88zm-12.569 7.845a6.163 6.163 0 1112.326 0 6.163 6.163 0 01-12.326 0z" fill="#424242"/><path d="M22.501 19.253a4 4 0 110 8 4 4 0 010-8z" fill="#424242"/></svg>