<svg width="41" height="42" fill="none" xmlns="http://www.w3.org/2000/svg"><path fill-rule="evenodd" clip-rule="evenodd" d="M20.5 41.613C9.178 41.613 0 32.44 0 21.127S9.178.642 20.5.642 41 9.814 41 21.127c0 11.314-9.178 20.486-20.5 20.486zm.286-21.635c1.678 0 9.84-4.587 9.84-4.587l.013-.819a1.64 1.64 0 00-1.643-1.639H12.575a1.64 1.64 0 00-1.642 1.64v.73s8.251 4.675 9.853 4.675zm-9.84-2.128s8.238 4.381 9.84 4.381c1.755 0 9.84-4.381 9.84-4.381l.013 9.833a1.64 1.64 0 01-1.643 1.639H12.575a1.64 1.64 0 01-1.642-1.64l.014-9.832z" fill="#fff"/></svg>