<svg width="45" height="45" fill="none" xmlns="http://www.w3.org/2000/svg"><path fill-rule="evenodd" clip-rule="evenodd" d="M22.5 45C10.074 45 0 34.926 0 22.5S10.074 0 22.5 0 45 10.074 45 22.5 34.926 45 22.5 45zm.314-23.763c1.842 0 10.8-5.037 10.8-5.037l.014-.9a1.8 1.8 0 00-1.803-1.8H13.802c-.995 0-1.802.806-1.802 1.8v.802s9.056 5.135 10.814 5.135zm-10.8-2.337s9.042 4.812 10.8 4.812c1.927 0 10.8-4.812 10.8-4.812l.014 10.8a1.8 1.8 0 01-1.803 1.8H13.802A1.802 1.802 0 0112 29.7l.015-10.8z" fill="#424242"/></svg>