<svg width="45" height="45" fill="none" xmlns="http://www.w3.org/2000/svg"><path fill-rule="evenodd" clip-rule="evenodd" d="M22.5 0C34.926 0 45 10.074 45 22.5S34.926 45 22.5 45 0 34.926 0 22.5 10.074 0 22.5 0zm5.994 19.648c-.109-.889-.382-1.587-.867-2.205-.63-.796-1.436-1.273-2.628-1.556-.777-.188-1.091-.167-1.372.09-.262.24-.313.723-.113 1.035.14.226.303.308.755.396.6.11 1.016.254 1.394.47.802.463 1.175 1.188 1.215 2.361.019.55.066.72.259.916a.827.827 0 001.26-.14c.099-.161.114-.231.124-.605a5.942 5.942 0 00-.027-.762zm.011-5.454c1.907 1.542 2.972 3.733 3.13 6.457.067 1.073-.021 1.422-.4 1.621a.808.808 0 01-.994-.154c-.175-.18-.243-.427-.24-.865.007-1.209-.271-2.56-.724-3.496a6.753 6.753 0 00-2.354-2.697c-.893-.596-2.075-.999-3.22-1.099-.744-.065-1.01-.19-1.152-.547-.088-.213-.065-.582.039-.747a1.01 1.01 0 01.473-.365c.165-.048 1.125.036 1.646.14 1.423.29 2.722.885 3.796 1.752zm6.606 16.946a2.99 2.99 0 00-.266-.534c-.56-.845-3.566-3.197-5.067-3.967-.857-.44-1.492-.587-1.963-.449-.506.143-.772.378-1.62 1.432-.342.423-.693.819-.787.88-.23.161-.683.29-1.003.29-.742-.005-2.087-.485-3.122-1.116-.804-.49-1.834-1.366-2.624-2.233-.933-1.018-1.568-1.917-2.07-2.93-.648-1.304-.812-2.1-.541-2.683.066-.146.155-.302.195-.35.04-.045.457-.388.92-.761.905-.72 1.052-.885 1.22-1.379.214-.627.156-1.267-.173-1.912-.253-.49-.915-1.557-1.394-2.246-.635-.908-2.216-2.847-2.531-3.109-.569-.463-1.297-.543-2.1-.231-.849.329-2.439 1.61-3.118 2.504-.613.809-.848 1.383-.884 2.139-.03.622.022.88.351 1.676 2.571 6.244 6.408 11.23 11.679 15.188 2.753 2.068 5.608 3.643 8.57 4.719 1.728.627 2.478.658 3.362.142.373-.222 1.297-1.17 1.812-1.859.852-1.147 1.168-1.676 1.256-2.099.063-.289.014-.792-.102-1.112zm-1.135-14.077c.541 1.409.8 2.673.857 4.213.01.305.005.863-.014 1.24-.042.724-.08.868-.29 1.06-.334.314-.988.24-1.235-.14-.13-.203-.148-.352-.123-1.198.072-2.503-.434-4.462-1.653-6.421-1.457-2.351-3.637-3.935-6.47-4.71-.724-.197-1.333-.317-2.28-.444-.617-.081-.752-.115-.904-.209-.46-.295-.467-1.04-.008-1.34.237-.158.411-.165 1.183-.066 2.262.283 4.28.955 5.939 1.97 1.188.73 1.938 1.384 2.903 2.531 1.02 1.224 1.561 2.128 2.095 3.514z" fill="#424242"/></svg>