<svg width="35" height="33" fill="none" xmlns="http://www.w3.org/2000/svg"><path d="M5.469 26.4c.87 0 1.705-.348 2.32-.966A3.31 3.31 0 008.75 23.1v-8.8a3.31 3.31 0 00-.938-2.31A3.273 3.273 0 005.534 11a9.919 9.919 0 013.219-6.277 9.812 9.812 0 016.56-2.523h4.374c2.421.001 4.756.9 6.56 2.523A9.919 9.919 0 0129.466 11a3.273 3.273 0 00-2.278.99 3.31 3.31 0 00-.938 2.31v8.8a3.31 3.31 0 00.89 2.266 3.274 3.274 0 002.194 1.034 3.299 3.299 0 01-1.195 1.592 3.269 3.269 0 01-1.889.608h-4.572a3.296 3.296 0 00-1.433-1.746 3.266 3.266 0 00-4.17.719 3.311 3.311 0 000 4.254 3.266 3.266 0 004.169.72 3.296 3.296 0 001.434-1.747h4.572a5.451 5.451 0 003.608-1.389 5.51 5.51 0 001.795-3.44 5.476 5.476 0 002.435-2.027A5.529 5.529 0 0035 20.9v-4.4a5.523 5.523 0 00-.891-3.017 5.477 5.477 0 00-2.39-2.032 12.13 12.13 0 00-3.744-8.14A11.994 11.994 0 0019.687 0h-4.375a11.994 11.994 0 00-8.287 3.312 12.13 12.13 0 00-3.744 8.139 5.477 5.477 0 00-2.39 2.032A5.523 5.523 0 000 16.5v4.4c0 1.459.576 2.858 1.602 3.89a5.453 5.453 0 003.867 1.61zm13.125 4.4a1.09 1.09 0 01-1.01-.68 1.106 1.106 0 01.236-1.198 1.091 1.091 0 011.867.778c0 .292-.115.572-.32.778a1.09 1.09 0 01-.773.322zm14.218-14.3v4.4a3.31 3.31 0 01-.96 2.334 3.272 3.272 0 01-2.32.966 1.09 1.09 0 01-.774-.322 1.103 1.103 0 01-.32-.778v-8.8c0-.292.115-.572.32-.778a1.09 1.09 0 01.773-.322c.87 0 1.705.348 2.32.967a3.31 3.31 0 01.962 2.333zm-30.624 0c0-.875.345-1.715.96-2.333a3.272 3.272 0 012.32-.967 1.093 1.093 0 011.094 1.1v8.8c0 .292-.115.572-.32.778a1.09 1.09 0 01-.773.322c-.87 0-1.705-.348-2.32-.966a3.31 3.31 0 01-.961-2.334v-4.4z" fill="#fff"/></svg>