<svg width="21" height="21" fill="none" xmlns="http://www.w3.org/2000/svg"><path fill-rule="evenodd" clip-rule="evenodd" d="M10.155.095c-5.522 0-10 4.47-10 9.982 0 5.513 4.478 9.983 10 9.983 5.523 0 10-4.47 10-9.983 0-5.513-4.477-9.982-10-9.982zM7.15 5.086a.09.09 0 00.077.02c.121-.01.225.02.293.13l.035.059c.14.225.28.45.412.681.096.167.187.337.279.507.067.124.134.249.203.372.027.05.06.098.094.145.019.027.038.053.055.08.043.068.084.138.123.206l.007.01c.086.162.082.325-.046.455a8.832 8.832 0 01-.423.396l-.152.138-.189.17c-.1.088-.2.177-.296.27-.123.118-.154.266-.072.421l.023.043c.12.224.24.448.371.667.519.863 1.18 1.597 2.018 2.162.322.219.658.42.997.611.319.18.443.15.691-.126.131-.146.26-.292.388-.439l.295-.334a1.62 1.62 0 01.186-.17.36.36 0 01.423-.047l.029.013a.588.588 0 01.095.052c.266.19.553.343.84.495.142.076.284.151.423.231.144.082.285.169.425.254.08.05.16.098.241.146.12.07.168.174.16.315-.023.398-.09.79-.32 1.126-.098.14-.236.261-.374.36a3.52 3.52 0 01-1.272.537c-.415.093-.83.06-1.227-.065-.769-.236-1.526-.507-2.223-.918A9.767 9.767 0 018 12.73c-.675-.64-1.277-1.339-1.764-2.134-.317-.517-.544-1.073-.749-1.64-.125-.342-.247-.682-.302-1.044-.063-.41-.02-.806.112-1.195.119-.352.267-.688.49-.988a1.24 1.24 0 01.679-.48c.16-.043.321-.08.482-.116l.203-.046z" fill="#fff"/></svg>