<svg width="52" height="46" fill="none" xmlns="http://www.w3.org/2000/svg"><path fill-rule="evenodd" clip-rule="evenodd" d="M38.188 28.563V3.25c0-.746.296-1.46.823-1.99A2.818 2.818 0 0141 .438v.938-.938c.746 0 1.46.297 1.99.824.526.528.822 1.243.822 1.989v25.313h2.813a4.687 4.687 0 014.688 4.687V37a4.687 4.687 0 01-4.688 4.688h-.938v.937a2.814 2.814 0 01-2.812 2.813h-3.75a2.814 2.814 0 01-2.813-2.813v-.938H15.689v.938a2.814 2.814 0 01-2.813 2.813h-3.75a2.814 2.814 0 01-2.813-2.813v-.938h-.937A4.687 4.687 0 01.687 37v-3.75a4.687 4.687 0 014.688-4.688h2.813V3.25c0-.746.296-1.46.823-1.99A2.817 2.817 0 0111 .438v.938-.938c.746 0 1.46.297 1.99.824.526.528.822 1.243.822 1.989v25.313h24.376zm5.624 13.125h-5.624v.937c0 .517.42.938.937.938h3.75c.517 0 .938-.42.938-.938v-.938zm-30 0H8.189v.937c0 .517.42.938.937.938h3.75c.518 0 .938-.42.938-.938v-.938zm32.813-11.25H5.375a2.814 2.814 0 00-2.813 2.812V37a2.814 2.814 0 002.813 2.813h41.25A2.814 2.814 0 0049.438 37v-3.75a2.814 2.814 0 00-2.813-2.813zM41 32.313a2.814 2.814 0 000 5.624 2.814 2.814 0 000-5.624zm-7.5 0a2.814 2.814 0 000 5.624 2.814 2.814 0 000-5.624zM9.125 37.937h15a.938.938 0 000-1.874h-15a.938.938 0 000 1.874zM41 34.188a.938.938 0 110 1.876.938.938 0 010-1.876zm-7.5 0a.938.938 0 110 1.876.938.938 0 010-1.876zm-24.375 0h15a.938.938 0 000-1.874h-15a.938.938 0 000 1.874zm2.813-5.624V3.25c0-.25-.1-.487-.274-.664a.944.944 0 00-1.328 0 .944.944 0 00-.274.664v25.313h1.876zm30 0V3.25c0-.25-.1-.487-.274-.664a.944.944 0 00-1.328 0 .944.944 0 00-.273.664v25.313h1.874zm-20.543-4.257A8.381 8.381 0 0126 22.937c1.699 0 3.281.503 4.605 1.37a.938.938 0 001.026-1.57A10.245 10.245 0 0026 21.063c-2.078 0-4.012.614-5.63 1.674a.938.938 0 001.025 1.57zm-1.584-4.505A13.04 13.04 0 0126 18.25c2.239 0 4.346.56 6.19 1.55a.938.938 0 00.886-1.651A14.903 14.903 0 0026 16.375c-2.56 0-4.969.641-7.076 1.774a.937.937 0 10.887 1.652zm-1.536-4.478A17.717 17.717 0 0126 13.563c2.767 0 5.387.631 7.725 1.76a.937.937 0 00.816-1.69A19.596 19.596 0 0026 11.689c-3.06 0-5.957.699-8.54 1.946a.939.939 0 00.815 1.69z" fill="#F99"/></svg>