<svg width="25" height="35" viewBox="0 0 25 35" fill="none" xmlns="http://www.w3.org/2000/svg">
<path d="M24.7033 10.5153C24.7024 10.2115 24.6459 9.91101 24.5372 9.63207C24.4285 9.35312 24.27 9.10147 24.071 8.89233C23.9913 8.80801 23.9056 8.73082 23.8148 8.66148C23.8173 8.65888 23.8198 8.65649 23.8222 8.65388L24.3889 8.03728C24.6891 7.70978 24.8908 7.28769 24.9666 6.82855C25.0424 6.3694 24.9885 5.89554 24.8123 5.47156C24.6362 5.04757 24.3463 4.69408 23.9822 4.45927C23.618 4.22447 23.1974 4.11976 22.7777 4.15944V3.14072C22.7768 2.30804 22.4779 1.50974 21.9464 0.92094C21.4149 0.332144 20.6944 0.000944078 19.9428 0L11.6404 0C10.8888 0.000944621 10.1682 0.332145 9.63675 0.92094C9.10529 1.50974 8.80634 2.30804 8.80549 3.14072V8.29397C8.71089 8.28369 8.61547 8.27754 8.51918 8.27754C8.35036 8.27762 8.18584 8.33654 8.04891 8.44595C7.91198 8.55536 7.80959 8.70971 7.75622 8.88716L5.50772 16.3598C5.40741 16.6935 5.3563 17.0429 5.35635 17.3945V20.0961C5.35543 20.5866 5.21045 21.0635 4.9433 21.4548L4.48748 22.1202C4.22209 21.9446 3.91132 21.8725 3.60464 21.9152C3.29796 21.9579 3.01298 22.113 2.79506 22.3559L1.4373 23.8782C1.37761 23.9195 1.32748 23.9757 1.2909 24.0424L0.133589 25.34C0.0908753 25.3878 0.057094 25.4446 0.0341741 25.5069C0.0112542 25.5693 -0.000355314 25.636 8.28354e-06 25.7034C0.000371881 25.7707 0.0127015 25.8373 0.0362932 25.8993C0.0598849 25.9614 0.0942767 26.0177 0.137505 26.065C0.180733 26.1123 0.231951 26.1497 0.288235 26.1751C0.344518 26.2005 0.404765 26.2134 0.465535 26.213C0.526306 26.2126 0.586409 26.1989 0.642415 26.1728C0.69842 26.1467 0.74923 26.1086 0.791944 26.0607L1.69502 25.0481L8.65962 32.7641L7.43177 34.1244C7.38873 34.172 7.35457 34.2285 7.33125 34.2907C7.30793 34.353 7.29592 34.4197 7.29588 34.487C7.29585 34.5544 7.3078 34.6211 7.33106 34.6834C7.35432 34.7456 7.38842 34.8022 7.43142 34.8498C7.47442 34.8975 7.52548 34.9353 7.58167 34.961C7.63785 34.9868 7.69808 35 7.75889 35C7.8197 35 7.87991 34.9866 7.93608 34.9608C7.99224 34.935 8.04326 34.8971 8.08621 34.8494L9.64114 33.1268L11.0811 31.5315C11.2996 31.2899 11.4389 30.9744 11.4771 30.635C11.5152 30.2957 11.45 29.9519 11.2917 29.6583L11.7264 29.1767C11.9839 28.8909 12.3267 28.719 12.6905 28.6931L13.9898 28.5981C15.2905 28.5003 16.5477 28.0394 17.6443 27.2585C18.741 26.4775 19.6415 25.4018 20.2619 24.1316C20.8947 24.0511 21.4847 23.7372 21.937 23.2404C22.3894 22.7436 22.6778 22.0928 22.756 21.3925C22.9916 21.2806 23.2062 21.121 23.3889 20.9218L23.9556 20.3052C24.1512 20.0925 24.3061 19.8383 24.4113 19.5579C24.5165 19.2775 24.5697 18.9766 24.5678 18.6729C24.566 18.3693 24.509 18.0692 24.4004 17.7904C24.2918 17.5116 24.1338 17.2598 23.9356 17.05C23.8112 16.9181 23.6725 16.8039 23.5226 16.71L23.9556 16.2388C24.1511 16.0261 24.3061 15.7719 24.4113 15.4915C24.5165 15.2111 24.5697 14.9102 24.5678 14.6065C24.566 14.3029 24.509 14.0027 24.4004 13.724C24.2918 13.4452 24.1338 13.1934 23.9356 12.9836C23.8308 12.8727 23.7159 12.7743 23.5926 12.6899L24.0911 12.1475C24.2874 11.9354 24.4428 11.6814 24.5481 11.4009C24.6533 11.1203 24.7061 10.8191 24.7033 10.5153ZM22.171 5.53511C22.3829 5.30465 22.6688 5.17689 22.9658 5.17992C23.2627 5.18295 23.5465 5.31652 23.7545 5.55127C23.9626 5.78602 24.078 6.10271 24.0754 6.43172C24.0728 6.76072 23.9523 7.07509 23.7405 7.30569L23.1737 7.92229C23.0074 8.10385 22.7939 8.22313 22.5633 8.26336C22.5075 8.26623 22.4519 8.27191 22.3965 8.27987C22.1053 8.28185 21.8249 8.15774 21.6152 7.934C21.5067 7.81913 21.4201 7.68132 21.3607 7.52867C21.3012 7.37602 21.2701 7.21169 21.269 7.04544C21.268 6.87919 21.2972 6.7144 21.3547 6.56087C21.4123 6.40734 21.4972 6.2682 21.6042 6.15171L22.171 5.53511ZM9.73102 3.14072C9.73159 2.5799 9.93294 2.04222 10.2909 1.64565C10.6488 1.24909 11.1342 1.02602 11.6404 1.02538H19.9428C20.449 1.02601 20.9343 1.24908 21.2923 1.64565C21.6502 2.04222 21.8516 2.5799 21.8521 3.14072V3.71159H9.73102V3.14072ZM9.73102 4.73697H21.5867C21.5651 4.75866 21.5435 4.78064 21.5225 4.80353L20.9558 5.42012C20.7602 5.63288 20.6053 5.887 20.5001 6.1674C20.3949 6.4478 20.3417 6.74876 20.3435 7.0524C20.3454 7.35604 20.4023 7.65617 20.5109 7.93496C20.6195 8.21375 20.7776 8.46551 20.9757 8.6753C21.0555 8.75961 21.1412 8.83682 21.2319 8.90615C21.2295 8.90876 21.227 8.91116 21.2246 8.91379L20.6579 9.53042C20.4623 9.74318 20.3073 9.99731 20.2022 10.2777C20.097 10.5581 20.0438 10.8591 20.0456 11.1627C20.0475 11.4664 20.1044 11.7665 20.213 12.0453C20.3216 12.3241 20.4797 12.5758 20.6779 12.7856C20.7827 12.8965 20.8976 12.995 21.0209 13.0794L20.5224 13.6217C20.3269 13.8344 20.1719 14.0886 20.0668 14.369C19.9616 14.6494 19.9083 14.9503 19.9102 15.254C19.9121 15.5576 19.969 15.8577 20.0776 16.1365C20.1862 16.4153 20.3443 16.6671 20.5424 16.8769C20.6668 17.0087 20.8056 17.123 20.9555 17.2169L20.5224 17.6881C20.2043 18.0318 19.9969 18.482 19.9324 18.9691H12.051C11.9193 18.5279 11.7468 18.1028 11.5363 17.7007L10.8338 16.3579C10.6858 16.0753 10.639 15.7414 10.7025 15.4224L11.3467 12.1747C11.4883 11.4601 11.4053 10.7132 11.1115 10.0579C10.8177 9.40264 10.3306 8.8782 9.73102 8.57147V4.73697ZM10.4266 30.8064L9.31406 32.0391L2.34554 24.3187L3.45149 23.0787C3.49445 23.0311 3.54547 22.9934 3.60161 22.9676C3.65775 22.9418 3.71792 22.9286 3.77869 22.9286C3.83946 22.9286 3.89964 22.9418 3.95578 22.9676C4.01192 22.9934 4.06293 23.0311 4.1059 23.0787L10.4266 30.0814C10.4696 30.129 10.5037 30.1855 10.527 30.2477C10.5502 30.3099 10.5622 30.3766 10.5622 30.4439C10.5622 30.5112 10.5502 30.5779 10.527 30.6401C10.5037 30.7023 10.4696 30.7588 10.4266 30.8064ZM13.929 27.5749L12.6301 27.6699C12.042 27.7119 11.4879 27.99 11.0716 28.452L10.6682 28.8989L5.17482 22.8129L5.68047 22.0747C6.06948 21.505 6.28058 20.8105 6.28188 20.0961V17.3945C6.28185 17.153 6.31696 16.9129 6.38585 16.6837L8.6061 9.30502C8.74591 9.31169 8.88469 9.33481 9.02009 9.37398C9.08541 9.4201 9.16018 9.44717 9.23747 9.4527C9.67419 9.64266 10.0355 9.99893 10.2564 10.4575C10.4773 10.9161 10.5434 11.4469 10.4427 11.9546L9.79862 15.202C9.68513 15.7714 9.76871 16.3673 10.0328 16.8717L10.7356 18.2149C10.9598 18.6436 11.1326 19.1027 11.2498 19.5809C11.2535 19.6012 11.2582 19.6213 11.264 19.6409C11.4854 20.5849 11.4827 21.5763 11.2563 22.5188L10.6886 24.8964C10.6572 25.0278 10.6742 25.1677 10.736 25.2852C10.7977 25.4028 10.899 25.4883 11.0176 25.5231C11.1363 25.5579 11.2625 25.539 11.3686 25.4706C11.4747 25.4023 11.552 25.29 11.5833 25.1586L11.8237 24.152H19.1767C18.6023 25.1352 17.8289 25.9564 16.918 26.5506C16.0071 27.1448 14.9837 27.4955 13.929 27.5749ZM19.9428 23.1266H12.0685L12.151 22.7809C12.3693 21.8723 12.4125 20.9229 12.2778 19.9945H20.0059C20.13 20.4213 20.3649 20.7982 20.6814 21.0778C20.9978 21.3575 21.3817 21.5275 21.7849 21.5667C21.6744 22.0143 21.4343 22.4094 21.1015 22.6912C20.7688 22.973 20.3617 23.126 19.9428 23.1266ZM23.6423 18.6799C23.6439 18.8462 23.615 19.0112 23.5574 19.1648C23.4997 19.3184 23.4146 19.4575 23.3071 19.5736L22.7404 20.1902C22.6007 20.3425 22.4273 20.4515 22.2377 20.5063C22.2147 20.5105 22.192 20.5167 22.1698 20.5247C21.9938 20.5628 21.8122 20.5534 21.6402 20.4972C21.4682 20.4411 21.311 20.3398 21.1819 20.202C21.0734 20.0871 20.9868 19.9493 20.9274 19.7966C20.8679 19.644 20.8367 19.4796 20.8357 19.3134C20.8347 19.1471 20.8638 18.9823 20.9214 18.8288C20.979 18.6753 21.0638 18.5361 21.1709 18.4196L21.7376 17.803C21.8783 17.6497 22.0532 17.5402 22.2444 17.4858C22.2965 17.4775 22.3483 17.4664 22.3998 17.4536C22.5557 17.4349 22.7134 17.4526 22.8627 17.5056C23.012 17.5586 23.1497 17.6457 23.2667 17.7612C23.3838 17.8767 23.4777 18.0182 23.5424 18.1764C23.6071 18.3347 23.6412 18.5062 23.6423 18.6799ZM23.6423 14.6135C23.6439 14.7799 23.615 14.9448 23.5573 15.0984C23.4997 15.252 23.4146 15.3911 23.3071 15.5072L22.7404 16.1239C22.5992 16.2777 22.4237 16.3874 22.2318 16.4416C22.1791 16.45 22.1267 16.4611 22.0746 16.4741C21.8432 16.5012 21.61 16.4479 21.4073 16.3216C21.2045 16.1953 21.0423 16.0023 20.943 15.7692C20.8437 15.5362 20.8123 15.2747 20.8531 15.021C20.8939 14.7673 21.005 14.5339 21.1709 14.3533L21.7376 13.7367C21.8904 13.5697 22.0833 13.4549 22.2933 13.406C22.3419 13.4006 22.3903 13.3929 22.4385 13.3836C22.5917 13.3711 22.7454 13.3936 22.8904 13.4496C23.0353 13.5056 23.1684 13.594 23.2812 13.7093C23.3941 13.8246 23.4844 13.9644 23.5465 14.1199C23.6086 14.2754 23.6412 14.4434 23.6423 14.6135ZM23.4426 11.416L22.8758 12.0326C22.7232 12.1993 22.5306 12.314 22.3209 12.3631C22.272 12.3684 22.2233 12.3763 22.1748 12.3856C22.0182 12.3988 21.8609 12.3753 21.7132 12.3164C21.5654 12.2576 21.4305 12.1649 21.3173 12.0443C21.2088 11.9295 21.1223 11.7916 21.0628 11.6389C21.0033 11.4863 20.9722 11.322 20.9711 11.1557C20.9701 10.9895 20.9993 10.8247 21.0568 10.6712C21.1144 10.5176 21.1993 10.3785 21.3064 10.262L21.8731 9.64537C22.0387 9.46449 22.2512 9.34537 22.4809 9.30463C22.5364 9.30185 22.5918 9.29611 22.647 9.28829C22.6506 9.28826 22.6542 9.28773 22.6578 9.28773C22.8802 9.28801 23.0976 9.36161 23.2822 9.49916C23.4669 9.63672 23.6104 9.83201 23.6945 10.0602C23.7787 10.2884 23.7996 10.5391 23.7548 10.7805C23.7099 11.022 23.6012 11.2432 23.4426 11.416Z" fill="white"/>
</svg>
