<svg width="60" height="60" fill="none" xmlns="http://www.w3.org/2000/svg"><path fill-rule="evenodd" clip-rule="evenodd" d="M5.016 6.563c-.63 0-1.141.51-1.141 1.14v36.522c0 .63.511 1.142 1.141 1.142h17.788l-4.565 4.565h-4.092a1.141 1.141 0 100 2.283h9.13a1.141 1.141 0 000-2.283h-1.81l4.566-4.565h8.184l4.566 4.565h-1.81a1.141 1.141 0 100 2.283h9.13a1.141 1.141 0 000-2.283h-4.092l-4.565-4.565h17.788c.63 0 1.141-.511 1.141-1.142V7.704c0-.63-.511-1.141-1.141-1.141H5.016zm1.142 36.521V8.845h47.934v34.24H6.158zm23.967-11.413a1.141 1.141 0 100-2.282 1.141 1.141 0 000 2.282zm0-4.565c-.87 0-1.66.322-2.265.856a1.141 1.141 0 11-1.51-1.712 5.689 5.689 0 013.775-1.427c1.447 0 2.77.54 3.775 1.427a1.141 1.141 0 11-1.51 1.712 3.407 3.407 0 00-2.265-.856zm-5.739-3.678a9.088 9.088 0 015.739-2.029c2.175 0 4.17.76 5.739 2.029a1.141 1.141 0 001.436-1.774 11.37 11.37 0 00-7.175-2.537c-2.717 0-5.215.95-7.175 2.537a1.141 1.141 0 001.436 1.774z" fill="#FF9494"/></svg>