<svg width="41" height="42" fill="none" xmlns="http://www.w3.org/2000/svg"><path fill-rule="evenodd" clip-rule="evenodd" d="M0 21.127c0 11.314 9.178 20.486 20.5 20.486S41 32.44 41 21.127 31.822.642 20.5.642 0 9.814 0 21.127zM20.524 33.42s-5.504-8.225-7.452-12.797a8.306 8.306 0 01-.772-3.51c0-4.571 3.671-8.276 8.2-8.276s8.2 3.705 8.2 8.275c0 1.006-.178 1.97-.503 2.861h.008c-1.305 3.47-7.681 13.447-7.681 13.447z" fill="#fff"/><path d="M20.5 21.81a4.782 4.782 0 004.783-4.78c0-2.64-2.141-4.78-4.783-4.78a4.782 4.782 0 00-4.783 4.78c0 2.64 2.141 4.78 4.783 4.78z" fill="#fff"/></svg>