<svg width="60" height="60" fill="none" xmlns="http://www.w3.org/2000/svg"><path d="M32.682 3.627a2.682 2.682 0 11-5.364 0 2.682 2.682 0 015.364 0zm0 52.746a2.682 2.682 0 11-5.364 0 2.682 2.682 0 015.364 0zM16.668 7.088a2.682 2.682 0 11-4.34 3.152 2.682 2.682 0 014.34-3.152zM47.67 49.76a2.682 2.682 0 11-4.34 3.152 2.682 2.682 0 014.34-3.152zM5.747 19.3a2.682 2.682 0 11-1.658 5.1 2.682 2.682 0 011.658-5.1zM55.91 35.6a2.682 2.682 0 11-1.658 5.1 2.682 2.682 0 011.658-5.1zm-51.822 0a2.682 2.682 0 111.657 5.1 2.682 2.682 0 01-1.657-5.1zm50.164-16.3a2.682 2.682 0 111.657 5.1 2.682 2.682 0 01-1.657-5.1zM12.33 49.76a2.682 2.682 0 114.339 3.153 2.682 2.682 0 01-4.34-3.153zM43.332 7.088a2.682 2.682 0 114.339 3.152 2.682 2.682 0 01-4.339-3.152z" fill="#FF9494"/><path d="M47.074 29.994c0 9.44-7.64 17.08-17.069 17.08-9.428 0-17.08-7.64-17.08-17.08 0-9.428 7.652-17.068 17.08-17.068 9.429 0 17.069 7.64 17.069 17.069z" fill="#fff"/><path d="M32.93 21.922v2.2a2.93 2.93 0 11-5.86 0v-2.2a2.93 2.93 0 115.86 0zm4.8 15.481c-5.153 2.443-10.306 2.443-15.46 0 0-4.271 3.463-7.734 7.726-7.734a7.734 7.734 0 017.734 7.734z" fill="#FFD7D7"/><path d="M56.2 34.708c-1.587-.516-3.266.14-4.138 1.474l-4.685-1.522c.4-1.49.634-3.05.634-4.666 0-1.612-.233-3.167-.632-4.655l4.679-1.52a3.608 3.608 0 004.142 1.473 3.618 3.618 0 10-2.236-6.884c-1.588.516-2.561 2.034-2.481 3.626L46.8 23.556a18.071 18.071 0 00-5.477-7.547l2.887-3.974a3.592 3.592 0 004.218-1.244 3.618 3.618 0 00-.8-5.055 3.617 3.617 0 00-5.055.8 3.58 3.58 0 00.123 4.393l-2.892 3.98a17.875 17.875 0 00-8.868-2.873V7.107c1.54-.416 2.682-1.81 2.682-3.48a3.623 3.623 0 00-3.62-3.619 3.623 3.623 0 00-3.618 3.62c0 1.669 1.142 3.063 2.682 3.48v4.929a17.894 17.894 0 00-8.867 2.875l-2.894-3.983a3.579 3.579 0 00.124-4.392 3.618 3.618 0 10-5.855 4.254 3.593 3.593 0 004.218 1.245l2.889 3.976a18.071 18.071 0 00-5.478 7.544l-4.683-1.522c.08-1.592-.893-3.11-2.48-3.625A3.618 3.618 0 103.8 25.293a3.608 3.608 0 004.142-1.474l4.68 1.52a17.907 17.907 0 00-.633 4.656c0 1.616.233 3.175.634 4.666l-4.685 1.522a3.615 3.615 0 00-4.139-1.475 3.624 3.624 0 00-2.323 4.56 3.624 3.624 0 004.56 2.324c1.587-.516 2.56-2.033 2.481-3.626l4.685-1.522a18.082 18.082 0 005.477 7.543l-2.893 3.982a3.579 3.579 0 00-4.216 1.24 3.618 3.618 0 105.856 4.254 3.58 3.58 0 00-.124-4.392l2.895-3.984a17.886 17.886 0 008.866 2.877v4.929c-1.54.416-2.682 1.81-2.682 3.48A3.623 3.623 0 0030 59.992a3.623 3.623 0 003.619-3.62c0-1.668-1.142-3.063-2.682-3.479v-4.929a17.867 17.867 0 008.867-2.875l2.893 3.982a3.58 3.58 0 00-.123 4.392 3.618 3.618 0 105.855-4.254 3.579 3.579 0 00-4.215-1.24l-2.892-3.98a18.08 18.08 0 005.476-7.545l4.684 1.522c-.08 1.592.894 3.11 2.482 3.626a3.624 3.624 0 004.56-2.324 3.623 3.623 0 00-2.323-4.56zM54.544 20.19a1.745 1.745 0 111.078 3.32 1.745 1.745 0 01-1.078-3.32zM44.091 7.64a1.743 1.743 0 11.386 2.436 1.743 1.743 0 01-.386-2.436zM13.087 9.69a1.743 1.743 0 112.822-2.05c.544.747.427 1.82-.372 2.408-.717.527-1.81.524-2.45-.358zM4.38 23.51a1.744 1.744 0 111.078-3.318c1.07.348 1.35 1.333 1.098 2.156-.259.845-1.077 1.52-2.176 1.162zm1.078 16.3a1.746 1.746 0 01-2.198-1.12 1.746 1.746 0 011.12-2.198c1.084-.353 1.894.3 2.164 1.13.269.83-.003 1.836-1.086 2.188zm10.451 12.55a1.743 1.743 0 11-2.822-2.05c.665-.916 1.7-.858 2.406-.343.705.514 1.078 1.484.416 2.393zm31.004-2.05a1.743 1.743 0 11-2.822 2.05 1.743 1.743 0 112.822-2.05zM28.255 3.627c0-.962.783-1.744 1.745-1.744.962 0 1.745.782 1.745 1.744 0 1.132-.873 1.706-1.745 1.71-.872.004-1.745-.561-1.745-1.71zm3.49 52.746c0 .962-.783 1.744-1.745 1.744a1.747 1.747 0 01-1.745-1.744 1.746 1.746 0 013.489 0zm-1.74-10.236c-8.9 0-16.142-7.242-16.142-16.143 0-8.894 7.242-16.13 16.143-16.13 8.894 0 16.13 7.236 16.13 16.13 0 8.902-7.236 16.143-16.13 16.143zm26.736-7.448a1.746 1.746 0 01-2.198 1.12 1.746 1.746 0 01-1.12-2.198 1.746 1.746 0 012.198-1.12 1.746 1.746 0 011.12 2.198z" fill="#F99"/><path d="M30 27.989a3.87 3.87 0 003.867-3.867v-2.2A3.87 3.87 0 0030 18.055a3.87 3.87 0 00-3.867 3.867v2.2A3.87 3.87 0 0030 27.99zm-1.992-6.067c0-1.098.894-1.992 1.992-1.992 1.098 0 1.992.894 1.992 1.992v2.2A1.995 1.995 0 0130 26.114a1.995 1.995 0 01-1.992-1.992v-2.2zm1.987 6.81c-4.776 0-8.662 3.89-8.662 8.672 0 .362.209.692.536.847 5.343 2.531 10.812 2.582 16.262 0a.938.938 0 00.536-.847c0-4.782-3.89-8.672-8.672-8.672zm-6.762 8.08c.3-3.472 3.218-6.206 6.762-6.206 3.55 0 6.471 2.734 6.772 6.207-4.548 1.995-8.987 1.995-13.534 0z" fill="#F99"/></svg>