<svg width="24" height="22" fill="none" xmlns="http://www.w3.org/2000/svg"><path d="M3.75 17.6c.597 0 1.169-.232 1.591-.644.422-.413.659-.973.659-1.556V9.533c0-.576-.23-1.129-.643-1.54a2.275 2.275 0 00-1.562-.66 6.553 6.553 0 012.207-4.185A6.838 6.838 0 0110.5 1.467h3c1.66 0 3.261.6 4.498 1.681a6.552 6.552 0 012.207 4.185 2.275 2.275 0 00-1.562.66A2.175 2.175 0 0018 9.533V15.4a2.174 2.174 0 00.61 1.51c.394.41.932.656 1.505.69a2.206 2.206 0 01-.82 1.061 2.285 2.285 0 01-1.295.406h-3.135a2.212 2.212 0 00-.983-1.165 2.293 2.293 0 00-1.519-.27 2.262 2.262 0 00-1.34.75 2.17 2.17 0 00-.53 1.418c0 .519.188 1.021.53 1.418a2.26 2.26 0 001.34.75 2.293 2.293 0 001.52-.27c.457-.263.805-.675.982-1.165H18a3.799 3.799 0 002.474-.925 3.642 3.642 0 001.231-2.294c.68-.28 1.261-.75 1.67-1.352A3.61 3.61 0 0024 13.933V11a3.608 3.608 0 00-.611-2.011 3.73 3.73 0 00-1.639-1.355 7.992 7.992 0 00-2.567-5.426A8.352 8.352 0 0013.5 0h-3a8.352 8.352 0 00-5.683 2.208A7.992 7.992 0 002.25 7.634 3.73 3.73 0 00.611 8.989 3.608 3.608 0 000 11v2.933c0 .973.395 1.905 1.098 2.593A3.794 3.794 0 003.75 17.6zm9 2.933a.762.762 0 01-.417-.123.737.737 0 01-.276-.33.718.718 0 01.163-.798.755.755 0 01.817-.16c.137.056.254.15.337.27a.722.722 0 01-.094.927.758.758 0 01-.53.214zM22.5 11v2.933c0 .584-.237 1.143-.659 1.556a2.277 2.277 0 01-1.591.644.758.758 0 01-.53-.214.725.725 0 01-.22-.519V9.533c0-.194.079-.38.22-.518a.759.759 0 01.53-.215c.597 0 1.169.232 1.591.644.422.413.659.972.659 1.556zm-21 0c0-.584.237-1.143.659-1.556A2.276 2.276 0 013.75 8.8c.199 0 .39.077.53.215.141.137.22.324.22.518V15.4a.725.725 0 01-.22.518.758.758 0 01-.53.215 2.277 2.277 0 01-1.591-.644 2.176 2.176 0 01-.659-1.556V11z" fill="#000"/></svg>