<svg width="60" height="60" fill="none" xmlns="http://www.w3.org/2000/svg"><path d="M10.313 46.875H7.5a3.75 3.75 0 01-3.75-3.75v-7.5a3.75 3.75 0 013.75-3.75h2.813a.938.938 0 01.937.938v13.124a.938.938 0 01-.938.938zM7.5 33.75a1.875 1.875 0 00-1.875 1.875v7.5A1.875 1.875 0 007.5 45h1.875V33.75H7.5z" fill="#F99"/><path d="M13.125 49.688a3.75 3.75 0 01-3.75-3.75V32.812a3.75 3.75 0 117.5 0v13.126a3.75 3.75 0 01-3.75 3.75zm0-18.75a1.875 1.875 0 00-1.875 1.875v13.124a1.875 1.875 0 103.75 0V32.813a1.875 1.875 0 00-1.875-1.876zM52.5 46.874h-2.813a.938.938 0 01-.937-.938V32.813a.938.938 0 01.938-.938H52.5a3.75 3.75 0 013.75 3.75v7.5a3.75 3.75 0 01-3.75 3.75zM50.625 45H52.5a1.875 1.875 0 001.875-1.875v-7.5A1.875 1.875 0 0052.5 33.75h-1.875V45z" fill="#F99"/><path d="M46.875 49.688a3.75 3.75 0 01-3.75-3.75V32.812a3.75 3.75 0 117.5 0v13.126a3.75 3.75 0 01-3.75 3.75zm0-18.75A1.875 1.875 0 0045 32.813v13.124a1.875 1.875 0 103.75 0V32.813a1.875 1.875 0 00-1.875-1.876zm-15 25.312h-3.75a2.812 2.812 0 110-5.625h3.75a2.812 2.812 0 110 5.625zm-3.75-3.75a.938.938 0 000 1.875h3.75a.938.938 0 000-1.875h-3.75z" fill="#F99"/><path d="M46.875 54.375H33.75a.938.938 0 010-1.875h13.125a4.687 4.687 0 004.688-4.688v-1.874a.938.938 0 011.874 0v1.874a6.563 6.563 0 01-6.562 6.563zm4.688-20.625a.938.938 0 01-.938-.938V26.25a19.99 19.99 0 00-.178-2.69.946.946 0 011.875-.244c.124.973.184 1.953.178 2.934v6.563a.937.937 0 01-.938.937zm-43.126 0a.938.938 0 01-.937-.938V26.25c0-.981.066-1.962.197-2.934a.945.945 0 111.875.243c-.126.892-.192 1.79-.197 2.691v6.563a.937.937 0 01-.938.937z" fill="#F99"/><path d="M51.375 24.375a7.501 7.501 0 01-6.788-4.547 15.938 15.938 0 00-29.24.169 7.06 7.06 0 01-6.45 4.378h-.272a.939.939 0 01-.938-1.06 22.5 22.5 0 0144.607 0 .937.937 0 01-.938 1.06h.019zM30 5.625a20.625 20.625 0 00-20.269 16.8 5.258 5.258 0 003.89-3.169A17.813 17.813 0 0142.6 13.631a17.97 17.97 0 013.75 5.419 5.709 5.709 0 003.956 3.31 20.728 20.728 0 00-5.681-10.707A20.465 20.465 0 0030 5.625z" fill="#F99"/><path d="M28.125 30h-4.688a.937.937 0 01-.937-.938v-.937a.937.937 0 01.272-.666l4.106-4.106a1.05 1.05 0 00-.74-1.79h-.713a1.05 1.05 0 00-1.05 1.05v.825a.938.938 0 01-1.875 0v-.825a2.924 2.924 0 012.925-2.925h.712a2.925 2.925 0 012.925 2.925 2.897 2.897 0 01-.853 2.071l-3.45 3.441h3.366a.938.938 0 010 1.875zm8.438-3.75h-1.876a3.75 3.75 0 01-3.75-3.75v-1.875a.938.938 0 011.875 0V22.5a1.875 1.875 0 001.876 1.875h.937v-3.75a.938.938 0 011.875 0v4.688a.938.938 0 01-.938.937z" fill="#F99"/><path d="M36.563 30a.938.938 0 01-.938-.938v-3.75a.938.938 0 011.875 0v3.75a.938.938 0 01-.938.938z" fill="#F99"/></svg>