<svg width="30" height="30" fill="none" xmlns="http://www.w3.org/2000/svg"><path fill-rule="evenodd" clip-rule="evenodd" d="M15 0C6.716 0 0 6.716 0 15c0 8.284 6.716 15 15 15 8.284 0 15-6.716 15-15 0-8.284-6.716-15-15-15zm-4.508 7.5c.045.035.08.035.115.03.182-.015.338.03.44.197l.053.086c.209.339.418.678.617 1.025.144.25.281.505.419.76.1.188.201.375.305.56.04.076.09.147.14.218.029.04.057.08.083.121.064.102.125.206.185.308l.01.017c.128.243.122.488-.07.682-.2.206-.417.401-.633.596l-.228.206-.284.256c-.15.133-.3.267-.444.405-.184.178-.232.4-.108.634l.035.065c.18.336.36.672.556 1.002.778 1.296 1.771 2.399 3.026 3.248.484.33.988.63 1.496.918.479.271.666.225 1.038-.19.196-.218.388-.438.581-.658l.442-.503c.083-.093.183-.176.279-.256a.539.539 0 01.635-.07l.043.02c.05.023.1.047.143.078.399.285.83.515 1.26.744.212.113.425.227.634.347.216.124.428.253.639.382l.36.22c.18.105.252.26.24.473-.034.598-.133 1.186-.481 1.691-.145.21-.352.393-.56.542-.577.404-1.222.653-1.907.806a3.53 3.53 0 01-1.842-.098c-1.152-.355-2.288-.762-3.333-1.379a14.649 14.649 0 01-2.612-1.997c-1.011-.963-1.915-2.013-2.645-3.208-.476-.776-.815-1.612-1.123-2.465-.187-.514-.37-1.024-.453-1.569A3.741 3.741 0 017.71 9.95c.178-.528.4-1.033.735-1.485.263-.35.592-.607 1.018-.722.24-.064.482-.118.724-.173.101-.023.203-.045.304-.069z" fill="#FD848D"/></svg>