<svg width="41" height="42" fill="none" xmlns="http://www.w3.org/2000/svg"><path fill-rule="evenodd" clip-rule="evenodd" d="M20.5.684C9.178.684 0 9.856 0 21.17c0 11.313 9.178 20.485 20.5 20.485S41 32.483 41 21.17C41 9.856 31.822.684 20.5.684zm-4.507 9.626c1.166-.053 1.539-.066 4.508-.066h-.003c2.97 0 3.341.013 4.507.066 1.164.053 1.96.237 2.656.508a5.34 5.34 0 011.936 1.26 5.36 5.36 0 011.262 1.935c.27.695.454 1.489.508 2.652.053 1.165.066 1.538.066 4.505 0 2.967-.013 3.338-.066 4.504-.054 1.163-.239 1.957-.508 2.652a5.36 5.36 0 01-1.262 1.935 5.349 5.349 0 01-1.935 1.26c-.696.27-1.491.455-2.655.508-1.166.053-1.538.066-4.507.066-2.97 0-3.342-.013-4.508-.066-1.164-.053-1.959-.237-2.654-.507a5.352 5.352 0 01-1.936-1.261 5.352 5.352 0 01-1.261-1.936c-.27-.694-.455-1.488-.508-2.651-.053-1.166-.066-1.537-.066-4.504 0-2.968.013-3.34.065-4.506.053-1.162.237-1.956.508-2.651a5.364 5.364 0 011.262-1.935 5.356 5.356 0 011.937-1.26c.695-.27 1.49-.455 2.654-.508z" fill="#fff"/><path fill-rule="evenodd" clip-rule="evenodd" d="M19.52 12.213h.981c2.92 0 3.265.01 4.418.063 1.066.049 1.645.226 2.03.376.51.198.874.435 1.256.817.383.383.62.747.819 1.257.15.384.328.962.376 2.028.053 1.151.064 1.497.064 4.413 0 2.916-.011 3.262-.064 4.414-.049 1.065-.227 1.643-.376 2.028-.198.51-.436.873-.819 1.255a3.374 3.374 0 01-1.256.817c-.385.15-.964.328-2.03.376-1.152.053-1.499.064-4.418.064-2.92 0-3.265-.011-4.418-.064-1.066-.049-1.645-.227-2.03-.376a3.387 3.387 0 01-1.258-.817 3.387 3.387 0 01-.818-1.256c-.15-.385-.328-.963-.376-2.028-.053-1.152-.063-1.498-.063-4.416 0-2.917.01-3.261.063-4.413.048-1.065.227-1.644.376-2.029.198-.51.436-.874.818-1.256a3.4 3.4 0 011.258-.818c.385-.15.964-.327 2.03-.376 1.009-.046 1.4-.06 3.437-.062v.003zm6.817 1.814a1.311 1.311 0 10-.001 2.624 1.311 1.311 0 00.001-2.624zm-11.45 7.143a5.613 5.613 0 015.614-5.611c3.1 0 5.614 2.512 5.614 5.61a5.611 5.611 0 01-5.614 5.61 5.612 5.612 0 01-5.615-5.61z" fill="#fff"/><path d="M20.501 17.528a3.643 3.643 0 013.644 3.642 3.643 3.643 0 01-3.644 3.642 3.643 3.643 0 110-7.284z" fill="#fff"/></svg>