<svg width="37" height="37" fill="none" xmlns="http://www.w3.org/2000/svg"><path d="M.75 18.5c0 9.788 7.962 17.75 17.75 17.75s17.75-7.962 17.75-17.75S28.288.75 18.5.75.75 8.712.75 18.5zm1.667 0C2.417 9.631 9.63 2.417 18.5 2.417c8.869 0 16.083 7.214 16.083 16.083 0 8.869-7.214 16.083-16.083 16.083-8.869 0-16.083-7.214-16.083-16.083z" fill="#fff" stroke="#fff" stroke-width=".5"/><path d="M7.9 27.87c.002-.579.242-1.198.61-1.717.37-.522.877-.954 1.426-1.146h0l5.897-2.033h0a.481.481 0 00.322-.394l.06-.686v-.003h0a.484.484 0 00-.42-.54.49.49 0 00-.54.415l-.014.322-.003.068-.064.022-5.555 1.915s0 0 0 0c-.736.257-1.408.81-1.897 1.5-.489.688-.789 1.506-.789 2.286l.967-.008zm0 0h0a.483.483 0 11-.967 0m.967 0h-.967m0 0h-.1c.005-1.606 1.238-3.342 2.753-3.872l-2.653 3.873zm20.513-3.966h0l-5.497-1.907-.369-2.953-.032-.258-.149.213c-.239.34-.58.606-1.026.745l-.08.025.01.083.342 2.735s0 0 0 0a.679.679 0 00.455.561s0 0 0 0l5.897 2.049c.5.174.977.575 1.33 1.072.353.497.573 1.08.573 1.61h0a.684.684 0 001.367-.005v0c-.002-.829-.32-1.685-.828-2.4-.508-.715-1.211-1.297-1.993-1.57zm-17.893 0h0c-.782.274-1.486.856-1.994 1.573-.506.713-.824 1.567-.826 2.394h0v.008h0a.684.684 0 001.367 0h0c0-.53.22-1.113.573-1.61.352-.498.83-.898 1.33-1.074 0 0 0 0 0 0l5.895-2.032a.681.681 0 00.456-.56h0v-.004l.06-.686a.684.684 0 00-.594-.761h-.001a.69.69 0 00-.763.593h0v.008l-.012.259-5.491 1.892z" fill="#fff" stroke="#fff" stroke-width=".2"/><path d="M13.499 13.332h0c.005 2.704.42 4.615 1.256 5.853.841 1.245 2.099 1.794 3.745 1.794s2.904-.549 3.745-1.794c.836-1.237 1.252-3.148 1.257-5.852v0c.003-1.379-.144-2.8-1.46-4.118-.845-.847-2.04-1.27-3.542-1.27-1.502 0-2.697.423-3.54 1.269-1.317 1.319-1.463 2.74-1.461 4.118zm7.573-3.152h0c.363.364.626.702.8 1.169.175.469.263 1.076.261 1.981-.004 2.34-.312 3.912-.917 4.897-.3.49-.675.835-1.123 1.059-.45.223-.98.327-1.594.327-.615 0-1.145-.104-1.594-.327-.449-.224-.823-.568-1.124-1.059-.604-.985-.912-2.557-.917-4.897-.001-.905.087-1.512.262-1.981.174-.467.437-.805.8-1.17.578-.577 1.413-.867 2.574-.867 1.161 0 1.996.29 2.572.868z" fill="#fff" stroke="#fff" stroke-width=".2"/></svg>