<svg width="41" height="42" fill="none" xmlns="http://www.w3.org/2000/svg"><path fill-rule="evenodd" clip-rule="evenodd" d="M0 21.17c0 11.314 9.178 20.486 20.5 20.486S41 32.484 41 21.17C41 9.857 31.822.685 20.5.685S0 9.857 0 21.17zm16.742 9.39l.348-5.222 9.506-8.573c.417-.37-.091-.55-.645-.215L14.22 23.946l-5.068-1.58c-1.094-.335-1.102-1.086.246-1.627l19.746-7.608c.902-.41 1.773.216 1.429 1.595L27.21 30.562c-.235 1.125-.916 1.394-1.858.875l-5.123-3.782-2.462 2.392a4.708 4.708 0 01-.023.023c-.276.268-.504.49-1.002.49z" fill="#fff"/></svg>