<svg width="76" height="77" fill="none" xmlns="http://www.w3.org/2000/svg"><path fill-rule="evenodd" clip-rule="evenodd" d="M38 .875c-20.987 0-38 17.013-38 38 0 20.986 17.013 38 38 38s38-17.014 38-38c0-20.987-17.013-38-38-38zM29.645 18.73c2.161-.098 2.852-.122 8.354-.122 5.502 0 6.19.024 8.352.122 2.158.1 3.631.44 4.923.942a9.904 9.904 0 013.59 2.337 9.941 9.941 0 012.339 3.59c.498 1.289.84 2.761.941 4.919.097 2.162.123 2.853.123 8.357s-.026 6.193-.123 8.355c-.101 2.157-.443 3.63-.941 4.919-.52 1.332-1.212 2.463-2.34 3.59a9.917 9.917 0 01-3.587 2.339c-1.29.5-2.764.842-4.922.941-2.162.099-2.85.123-8.355.123-5.504 0-6.194-.025-8.356-.123-2.157-.099-3.63-.44-4.92-.941a9.925 9.925 0 01-3.588-2.34 9.93 9.93 0 01-2.338-3.59c-.5-1.288-.842-2.761-.941-4.919-.098-2.161-.123-2.85-.123-8.354s.026-6.196.122-8.357c.097-2.157.44-3.63.942-4.92.52-1.332 1.212-2.463 2.339-3.59a9.923 9.923 0 013.59-2.336c1.289-.501 2.761-.843 4.919-.942zm8.354-.122h.003-.007H38z" fill="#FD848D"/><path fill-rule="evenodd" clip-rule="evenodd" d="M36.184 22.26h1.818c5.411 0 6.052.02 8.19.117 1.975.09 3.048.42 3.762.698.946.367 1.62.806 2.33 1.515a6.307 6.307 0 011.516 2.331c.277.714.608 1.786.698 3.762.097 2.137.118 2.778.118 8.187 0 5.409-.021 6.05-.118 8.187-.09 1.976-.42 3.049-.698 3.762a6.266 6.266 0 01-1.517 2.328 6.263 6.263 0 01-2.329 1.516c-.714.279-1.787.608-3.763.699-2.136.097-2.778.118-8.19.118-5.411 0-6.052-.021-8.189-.118-1.976-.092-3.048-.422-3.763-.7-.946-.367-1.622-.806-2.33-1.515a6.26 6.26 0 01-1.517-2.33c-.278-.713-.608-1.785-.698-3.761-.098-2.137-.117-2.779-.117-8.19 0-5.413.02-6.051.117-8.188.09-1.976.42-3.048.698-3.763.367-.945.807-1.621 1.516-2.33.71-.71 1.385-1.149 2.33-1.517.715-.279 1.788-.608 3.764-.699 1.87-.084 2.594-.11 6.372-.114v.005zm12.636 3.365a2.432 2.432 0 100 4.865 2.432 2.432 0 000-4.865zm-21.226 13.25c0-5.748 4.66-10.408 10.407-10.408 5.748 0 10.407 4.66 10.407 10.408 0 5.748-4.659 10.406-10.406 10.406-5.748 0-10.408-4.658-10.408-10.406z" fill="#FD848D"/><path d="M38.002 32.12a6.756 6.756 0 110 13.51 6.756 6.756 0 010-13.51z" fill="#FD848D"/></svg>