<svg width="469" height="245" fill="none" xmlns="http://www.w3.org/2000/svg"><path d="M4.828 90.382c2.114 0 3.828-1.677 3.828-3.747 0-2.069-1.714-3.747-3.828-3.747S1 84.566 1 86.635c0 2.07 1.714 3.747 3.828 3.747zm10.462 0c2.114 0 3.828-1.677 3.828-3.747 0-2.069-1.714-3.747-3.828-3.747s-3.829 1.678-3.829 3.747c0 2.07 1.714 3.747 3.829 3.747zm10.461 0c2.114 0 3.828-1.677 3.828-3.747 0-2.069-1.713-3.747-3.828-3.747-2.114 0-3.828 1.678-3.828 3.747 0 2.07 1.714 3.747 3.828 3.747zm10.462 0c2.114 0 3.828-1.677 3.828-3.747 0-2.069-1.714-3.747-3.828-3.747s-3.828 1.678-3.828 3.747c0 2.07 1.714 3.747 3.828 3.747zm10.462 0c2.114 0 3.828-1.677 3.828-3.747 0-2.069-1.714-3.747-3.828-3.747s-3.828 1.678-3.828 3.747c0 2.07 1.713 3.747 3.828 3.747zm10.461 0c2.115 0 3.828-1.677 3.828-3.747 0-2.069-1.713-3.747-3.828-3.747-2.114 0-3.828 1.678-3.828 3.747 0 2.07 1.714 3.747 3.828 3.747zm10.462 0c2.114 0 3.828-1.677 3.828-3.747 0-2.069-1.714-3.747-3.828-3.747s-3.828 1.678-3.828 3.747c0 2.07 1.714 3.747 3.828 3.747zm10.462 0c2.114 0 3.828-1.677 3.828-3.747 0-2.069-1.714-3.747-3.828-3.747-2.115 0-3.829 1.678-3.829 3.747 0 2.07 1.714 3.747 3.829 3.747zm10.461 0c2.115 0 3.829-1.677 3.829-3.747 0-2.069-1.714-3.747-3.829-3.747-2.114 0-3.828 1.678-3.828 3.747 0 2.07 1.714 3.747 3.828 3.747zm10.462 0c2.114 0 3.828-1.677 3.828-3.747 0-2.069-1.714-3.747-3.828-3.747s-3.828 1.678-3.828 3.747c0 2.07 1.714 3.747 3.828 3.747zm10.462 0c2.114 0 3.828-1.677 3.828-3.747 0-2.069-1.714-3.747-3.828-3.747-2.115 0-3.829 1.678-3.829 3.747 0 2.07 1.714 3.747 3.829 3.747zm10.461 0c2.115 0 3.828-1.677 3.828-3.747 0-2.069-1.713-3.747-3.828-3.747-2.114 0-3.828 1.678-3.828 3.747 0 2.07 1.714 3.747 3.828 3.747zM4.828 100.622c2.114 0 3.828-1.678 3.828-3.747 0-2.07-1.714-3.747-3.828-3.747S1 94.805 1 96.875s1.714 3.747 3.828 3.747zm0 10.238c2.114 0 3.828-1.677 3.828-3.746 0-2.07-1.714-3.747-3.828-3.747S1 105.044 1 107.114c0 2.069 1.714 3.746 3.828 3.746zm0 10.242c2.114 0 3.828-1.678 3.828-3.747s-1.714-3.747-3.828-3.747S1 115.286 1 117.355s1.714 3.747 3.828 3.747zm10.462-20.48c2.114 0 3.828-1.678 3.828-3.747 0-2.07-1.714-3.747-3.828-3.747s-3.829 1.677-3.829 3.747 1.714 3.747 3.829 3.747zm0 10.238c2.114 0 3.828-1.677 3.828-3.746 0-2.07-1.714-3.747-3.828-3.747s-3.829 1.677-3.829 3.747c0 2.069 1.714 3.746 3.829 3.746zm0 10.242c2.114 0 3.828-1.678 3.828-3.747s-1.714-3.747-3.828-3.747-3.829 1.678-3.829 3.747 1.714 3.747 3.829 3.747zm10.461-20.48c2.114 0 3.828-1.678 3.828-3.747 0-2.07-1.713-3.747-3.828-3.747-2.114 0-3.828 1.677-3.828 3.747s1.714 3.747 3.828 3.747zm0 10.238c2.114 0 3.828-1.677 3.828-3.746 0-2.07-1.713-3.747-3.828-3.747-2.114 0-3.828 1.677-3.828 3.747 0 2.069 1.714 3.746 3.828 3.746zm0 10.242c2.114 0 3.828-1.678 3.828-3.747s-1.713-3.747-3.828-3.747c-2.114 0-3.828 1.678-3.828 3.747s1.714 3.747 3.828 3.747zm10.462-20.48c2.114 0 3.828-1.678 3.828-3.747 0-2.07-1.714-3.747-3.828-3.747s-3.828 1.677-3.828 3.747 1.714 3.747 3.828 3.747zm0 10.238c2.114 0 3.828-1.677 3.828-3.746 0-2.07-1.714-3.747-3.828-3.747s-3.828 1.677-3.828 3.747c0 2.069 1.714 3.746 3.828 3.746zm0 10.242c2.114 0 3.828-1.678 3.828-3.747s-1.714-3.747-3.828-3.747-3.828 1.678-3.828 3.747 1.714 3.747 3.828 3.747zm10.462-20.48c2.114 0 3.828-1.678 3.828-3.747 0-2.07-1.714-3.747-3.828-3.747s-3.828 1.677-3.828 3.747 1.713 3.747 3.828 3.747zm0 10.238c2.114 0 3.828-1.677 3.828-3.746 0-2.07-1.714-3.747-3.828-3.747s-3.828 1.677-3.828 3.747c0 2.069 1.713 3.746 3.828 3.746zm0 10.242c2.114 0 3.828-1.678 3.828-3.747s-1.714-3.747-3.828-3.747-3.828 1.678-3.828 3.747 1.713 3.747 3.828 3.747zm10.461-20.48c2.115 0 3.828-1.678 3.828-3.747 0-2.07-1.713-3.747-3.828-3.747-2.114 0-3.828 1.677-3.828 3.747s1.714 3.747 3.828 3.747zm0 10.238c2.115 0 3.828-1.677 3.828-3.746 0-2.07-1.713-3.747-3.828-3.747-2.114 0-3.828 1.677-3.828 3.747 0 2.069 1.714 3.746 3.828 3.746zm0 10.242c2.115 0 3.828-1.678 3.828-3.747s-1.713-3.747-3.828-3.747c-2.114 0-3.828 1.678-3.828 3.747s1.714 3.747 3.828 3.747zm10.462-20.48c2.114 0 3.828-1.678 3.828-3.747 0-2.07-1.714-3.747-3.828-3.747s-3.828 1.677-3.828 3.747 1.714 3.747 3.828 3.747zm0 10.238c2.114 0 3.828-1.677 3.828-3.746 0-2.07-1.714-3.747-3.828-3.747s-3.828 1.677-3.828 3.747c0 2.069 1.714 3.746 3.828 3.746zm0 10.242c2.114 0 3.828-1.678 3.828-3.747s-1.714-3.747-3.828-3.747-3.828 1.678-3.828 3.747 1.714 3.747 3.828 3.747zm10.462-20.48c2.114 0 3.828-1.678 3.828-3.747 0-2.07-1.714-3.747-3.828-3.747-2.115 0-3.829 1.677-3.829 3.747s1.714 3.747 3.829 3.747zm0 10.238c2.114 0 3.828-1.677 3.828-3.746 0-2.07-1.714-3.747-3.828-3.747-2.115 0-3.829 1.677-3.829 3.747 0 2.069 1.714 3.746 3.829 3.746zm0 10.242c2.114 0 3.828-1.678 3.828-3.747s-1.714-3.747-3.828-3.747c-2.115 0-3.829 1.678-3.829 3.747s1.714 3.747 3.829 3.747zm10.461-20.48c2.115 0 3.829-1.678 3.829-3.747 0-2.07-1.714-3.747-3.829-3.747-2.114 0-3.828 1.677-3.828 3.747s1.714 3.747 3.828 3.747zm0 10.238c2.115 0 3.829-1.677 3.829-3.746 0-2.07-1.714-3.747-3.829-3.747-2.114 0-3.828 1.677-3.828 3.747 0 2.069 1.714 3.746 3.828 3.746zm0 10.242c2.115 0 3.829-1.678 3.829-3.747s-1.714-3.747-3.829-3.747c-2.114 0-3.828 1.678-3.828 3.747s1.714 3.747 3.828 3.747zm10.462-20.48c2.114 0 3.828-1.678 3.828-3.747 0-2.07-1.714-3.747-3.828-3.747s-3.828 1.677-3.828 3.747 1.714 3.747 3.828 3.747zm0 10.238c2.114 0 3.828-1.677 3.828-3.746 0-2.07-1.714-3.747-3.828-3.747s-3.828 1.677-3.828 3.747c0 2.069 1.714 3.746 3.828 3.746zm0 10.242c2.114 0 3.828-1.678 3.828-3.747s-1.714-3.747-3.828-3.747-3.828 1.678-3.828 3.747 1.714 3.747 3.828 3.747zm10.462-20.48c2.114 0 3.828-1.678 3.828-3.747 0-2.07-1.714-3.747-3.828-3.747-2.115 0-3.829 1.677-3.829 3.747s1.714 3.747 3.829 3.747zm0 10.238c2.114 0 3.828-1.677 3.828-3.746 0-2.07-1.714-3.747-3.828-3.747-2.115 0-3.829 1.677-3.829 3.747 0 2.069 1.714 3.746 3.829 3.746zm0 10.242c2.114 0 3.828-1.678 3.828-3.747s-1.714-3.747-3.828-3.747c-2.115 0-3.829 1.678-3.829 3.747s1.714 3.747 3.829 3.747zm10.461-20.48c2.115 0 3.828-1.678 3.828-3.747 0-2.07-1.713-3.747-3.828-3.747-2.114 0-3.828 1.677-3.828 3.747s1.714 3.747 3.828 3.747zm0 10.238c2.115 0 3.828-1.677 3.828-3.746 0-2.07-1.713-3.747-3.828-3.747-2.114 0-3.828 1.677-3.828 3.747 0 2.069 1.714 3.746 3.828 3.746zm0 10.242c2.115 0 3.828-1.678 3.828-3.747s-1.713-3.747-3.828-3.747c-2.114 0-3.828 1.678-3.828 3.747s1.714 3.747 3.828 3.747zM46.675 131.34c2.114 0 3.828-1.678 3.828-3.747 0-2.07-1.714-3.747-3.828-3.747s-3.828 1.677-3.828 3.747c0 2.069 1.713 3.747 3.828 3.747zm0 10.239c2.114 0 3.828-1.678 3.828-3.747s-1.714-3.747-3.828-3.747-3.828 1.678-3.828 3.747 1.713 3.747 3.828 3.747zm0 10.239c2.114 0 3.828-1.678 3.828-3.747 0-2.07-1.714-3.747-3.828-3.747s-3.828 1.677-3.828 3.747c0 2.069 1.713 3.747 3.828 3.747zm0 10.241c2.114 0 3.828-1.677 3.828-3.747 0-2.069-1.714-3.747-3.828-3.747s-3.828 1.678-3.828 3.747c0 2.07 1.713 3.747 3.828 3.747zm0 10.239c2.114 0 3.828-1.678 3.828-3.747s-1.714-3.747-3.828-3.747-3.828 1.678-3.828 3.747 1.713 3.747 3.828 3.747zm0 10.239c2.114 0 3.828-1.677 3.828-3.746 0-2.07-1.714-3.747-3.828-3.747s-3.828 1.677-3.828 3.747c0 2.069 1.713 3.746 3.828 3.746zm0 10.238c2.114 0 3.828-1.677 3.828-3.747 0-2.069-1.714-3.747-3.828-3.747s-3.828 1.678-3.828 3.747c0 2.07 1.713 3.747 3.828 3.747zm0 10.24c2.114 0 3.828-1.677 3.828-3.746 0-2.07-1.714-3.747-3.828-3.747s-3.828 1.677-3.828 3.747c0 2.069 1.713 3.746 3.828 3.746zm0 10.239c2.114 0 3.828-1.677 3.828-3.746 0-2.07-1.714-3.747-3.828-3.747s-3.828 1.677-3.828 3.747c0 2.069 1.713 3.746 3.828 3.746zm0 10.241c2.114 0 3.828-1.678 3.828-3.747s-1.714-3.747-3.828-3.747-3.828 1.678-3.828 3.747 1.713 3.747 3.828 3.747zm0 10.24c2.114 0 3.828-1.677 3.828-3.746 0-2.07-1.714-3.747-3.828-3.747s-3.828 1.677-3.828 3.747c0 2.069 1.713 3.746 3.828 3.746zm0 10.238c2.114 0 3.828-1.678 3.828-3.747s-1.714-3.747-3.828-3.747-3.828 1.678-3.828 3.747 1.713 3.747 3.828 3.747zM57.136 131.34c2.115 0 3.828-1.678 3.828-3.747 0-2.07-1.713-3.747-3.828-3.747-2.114 0-3.828 1.677-3.828 3.747 0 2.069 1.714 3.747 3.828 3.747zm0 10.239c2.115 0 3.828-1.678 3.828-3.747s-1.713-3.747-3.828-3.747c-2.114 0-3.828 1.678-3.828 3.747s1.714 3.747 3.828 3.747zm0 10.239c2.115 0 3.828-1.678 3.828-3.747 0-2.07-1.713-3.747-3.828-3.747-2.114 0-3.828 1.677-3.828 3.747 0 2.069 1.714 3.747 3.828 3.747zm0 10.241c2.115 0 3.828-1.677 3.828-3.747 0-2.069-1.713-3.747-3.828-3.747-2.114 0-3.828 1.678-3.828 3.747 0 2.07 1.714 3.747 3.828 3.747zm0 10.239c2.115 0 3.828-1.678 3.828-3.747s-1.713-3.747-3.828-3.747c-2.114 0-3.828 1.678-3.828 3.747s1.714 3.747 3.828 3.747zm0 10.239c2.115 0 3.828-1.677 3.828-3.746 0-2.07-1.713-3.747-3.828-3.747-2.114 0-3.828 1.677-3.828 3.747 0 2.069 1.714 3.746 3.828 3.746zm0 10.238c2.115 0 3.828-1.677 3.828-3.747 0-2.069-1.713-3.747-3.828-3.747-2.114 0-3.828 1.678-3.828 3.747 0 2.07 1.714 3.747 3.828 3.747zm0 10.24c2.115 0 3.828-1.677 3.828-3.746 0-2.07-1.713-3.747-3.828-3.747-2.114 0-3.828 1.677-3.828 3.747 0 2.069 1.714 3.746 3.828 3.746zm0 10.239c2.115 0 3.828-1.677 3.828-3.746 0-2.07-1.713-3.747-3.828-3.747-2.114 0-3.828 1.677-3.828 3.747 0 2.069 1.714 3.746 3.828 3.746zm0 10.241c2.115 0 3.828-1.678 3.828-3.747s-1.713-3.747-3.828-3.747c-2.114 0-3.828 1.678-3.828 3.747s1.714 3.747 3.828 3.747zm0 10.24c2.115 0 3.828-1.677 3.828-3.746 0-2.07-1.713-3.747-3.828-3.747-2.114 0-3.828 1.677-3.828 3.747 0 2.069 1.714 3.746 3.828 3.746zm0 10.238c2.115 0 3.828-1.678 3.828-3.747s-1.713-3.747-3.828-3.747c-2.114 0-3.828 1.678-3.828 3.747s1.714 3.747 3.828 3.747zM67.598 131.34c2.114 0 3.828-1.678 3.828-3.747 0-2.07-1.714-3.747-3.828-3.747s-3.828 1.677-3.828 3.747c0 2.069 1.714 3.747 3.828 3.747zm0 10.239c2.114 0 3.828-1.678 3.828-3.747s-1.714-3.747-3.828-3.747-3.828 1.678-3.828 3.747 1.714 3.747 3.828 3.747zm0 10.239c2.114 0 3.828-1.678 3.828-3.747 0-2.07-1.714-3.747-3.828-3.747s-3.828 1.677-3.828 3.747c0 2.069 1.714 3.747 3.828 3.747zm0 10.241c2.114 0 3.828-1.677 3.828-3.747 0-2.069-1.714-3.747-3.828-3.747s-3.828 1.678-3.828 3.747c0 2.07 1.714 3.747 3.828 3.747zm0 10.239c2.114 0 3.828-1.678 3.828-3.747s-1.714-3.747-3.828-3.747-3.828 1.678-3.828 3.747 1.714 3.747 3.828 3.747zm0 10.239c2.114 0 3.828-1.677 3.828-3.746 0-2.07-1.714-3.747-3.828-3.747s-3.828 1.677-3.828 3.747c0 2.069 1.714 3.746 3.828 3.746zm0 10.238c2.114 0 3.828-1.677 3.828-3.747 0-2.069-1.714-3.747-3.828-3.747s-3.828 1.678-3.828 3.747c0 2.07 1.714 3.747 3.828 3.747zm0 10.24c2.114 0 3.828-1.677 3.828-3.746 0-2.07-1.714-3.747-3.828-3.747s-3.828 1.677-3.828 3.747c0 2.069 1.714 3.746 3.828 3.746zm0 10.239c2.114 0 3.828-1.677 3.828-3.746 0-2.07-1.714-3.747-3.828-3.747s-3.828 1.677-3.828 3.747c0 2.069 1.714 3.746 3.828 3.746zm0 10.241c2.114 0 3.828-1.678 3.828-3.747s-1.714-3.747-3.828-3.747-3.828 1.678-3.828 3.747 1.714 3.747 3.828 3.747zm0 10.24c2.114 0 3.828-1.677 3.828-3.746 0-2.07-1.714-3.747-3.828-3.747s-3.828 1.677-3.828 3.747c0 2.069 1.714 3.746 3.828 3.746zm0 10.238c2.114 0 3.828-1.678 3.828-3.747s-1.714-3.747-3.828-3.747-3.828 1.678-3.828 3.747 1.714 3.747 3.828 3.747zM78.06 131.34c2.114 0 3.828-1.678 3.828-3.747 0-2.07-1.714-3.747-3.828-3.747-2.115 0-3.829 1.677-3.829 3.747 0 2.069 1.714 3.747 3.829 3.747zm0 10.239c2.114 0 3.828-1.678 3.828-3.747s-1.714-3.747-3.828-3.747c-2.115 0-3.829 1.678-3.829 3.747s1.714 3.747 3.829 3.747zm0 10.239c2.114 0 3.828-1.678 3.828-3.747 0-2.07-1.714-3.747-3.828-3.747-2.115 0-3.829 1.677-3.829 3.747 0 2.069 1.714 3.747 3.829 3.747zm0 10.241c2.114 0 3.828-1.677 3.828-3.747 0-2.069-1.714-3.747-3.828-3.747-2.115 0-3.829 1.678-3.829 3.747 0 2.07 1.714 3.747 3.829 3.747zm0 10.239c2.114 0 3.828-1.678 3.828-3.747s-1.714-3.747-3.828-3.747c-2.115 0-3.829 1.678-3.829 3.747s1.714 3.747 3.829 3.747zm0 10.239c2.114 0 3.828-1.677 3.828-3.746 0-2.07-1.714-3.747-3.828-3.747-2.115 0-3.829 1.677-3.829 3.747 0 2.069 1.714 3.746 3.829 3.746zm0 10.238c2.114 0 3.828-1.677 3.828-3.747 0-2.069-1.714-3.747-3.828-3.747-2.115 0-3.829 1.678-3.829 3.747 0 2.07 1.714 3.747 3.829 3.747zm0 10.24c2.114 0 3.828-1.677 3.828-3.746 0-2.07-1.714-3.747-3.828-3.747-2.115 0-3.829 1.677-3.829 3.747 0 2.069 1.714 3.746 3.829 3.746zm0 10.239c2.114 0 3.828-1.677 3.828-3.746 0-2.07-1.714-3.747-3.828-3.747-2.115 0-3.829 1.677-3.829 3.747 0 2.069 1.714 3.746 3.829 3.746zm0 10.241c2.114 0 3.828-1.678 3.828-3.747s-1.714-3.747-3.828-3.747c-2.115 0-3.829 1.678-3.829 3.747s1.714 3.747 3.829 3.747zm0 10.24c2.114 0 3.828-1.677 3.828-3.746 0-2.07-1.714-3.747-3.828-3.747-2.115 0-3.829 1.677-3.829 3.747 0 2.069 1.714 3.746 3.829 3.746zm0 10.238c2.114 0 3.828-1.678 3.828-3.747s-1.714-3.747-3.828-3.747c-2.115 0-3.829 1.678-3.829 3.747s1.714 3.747 3.829 3.747z" fill="#000" stroke="#000" stroke-width="1.173"/><path d="M147.481 90.382c2.115 0 3.829-1.677 3.829-3.747 0-2.069-1.714-3.747-3.829-3.747-2.114 0-3.828 1.678-3.828 3.747 0 2.07 1.714 3.747 3.828 3.747zm10.461 0c2.115 0 3.829-1.677 3.829-3.747 0-2.069-1.714-3.747-3.829-3.747-2.114 0-3.828 1.678-3.828 3.747 0 2.07 1.714 3.747 3.828 3.747zm10.462 0c2.115 0 3.829-1.677 3.829-3.747 0-2.069-1.714-3.747-3.829-3.747-2.114 0-3.828 1.678-3.828 3.747 0 2.07 1.714 3.747 3.828 3.747zm10.462 0c2.115 0 3.829-1.677 3.829-3.747 0-2.069-1.714-3.747-3.829-3.747-2.114 0-3.828 1.678-3.828 3.747 0 2.07 1.714 3.747 3.828 3.747zm-31.385 10.24c2.115 0 3.829-1.678 3.829-3.747 0-2.07-1.714-3.747-3.829-3.747-2.114 0-3.828 1.677-3.828 3.747s1.714 3.747 3.828 3.747zm0 10.238c2.115 0 3.829-1.677 3.829-3.746 0-2.07-1.714-3.747-3.829-3.747-2.114 0-3.828 1.677-3.828 3.747 0 2.069 1.714 3.746 3.828 3.746zm0 10.242c2.115 0 3.829-1.678 3.829-3.747s-1.714-3.747-3.829-3.747c-2.114 0-3.828 1.678-3.828 3.747s1.714 3.747 3.828 3.747zm41.848 10.238c2.114 0 3.828-1.678 3.828-3.747 0-2.07-1.714-3.747-3.828-3.747-2.115 0-3.829 1.677-3.829 3.747 0 2.069 1.714 3.747 3.829 3.747zm-31.387-30.718c2.115 0 3.829-1.678 3.829-3.747 0-2.07-1.714-3.747-3.829-3.747-2.114 0-3.828 1.677-3.828 3.747s1.714 3.747 3.828 3.747zm0 10.238c2.115 0 3.829-1.677 3.829-3.746 0-2.07-1.714-3.747-3.829-3.747-2.114 0-3.828 1.677-3.828 3.747 0 2.069 1.714 3.746 3.828 3.746zm0 10.242c2.115 0 3.829-1.678 3.829-3.747s-1.714-3.747-3.829-3.747c-2.114 0-3.828 1.678-3.828 3.747s1.714 3.747 3.828 3.747zm0 10.238c2.115 0 3.829-1.678 3.829-3.747 0-2.07-1.714-3.747-3.829-3.747-2.114 0-3.828 1.677-3.828 3.747 0 2.069 1.714 3.747 3.828 3.747zm10.462-30.718c2.115 0 3.829-1.678 3.829-3.747 0-2.07-1.714-3.747-3.829-3.747-2.114 0-3.828 1.677-3.828 3.747s1.714 3.747 3.828 3.747zm0 10.238c2.115 0 3.829-1.677 3.829-3.746 0-2.07-1.714-3.747-3.829-3.747-2.114 0-3.828 1.677-3.828 3.747 0 2.069 1.714 3.746 3.828 3.746zm0 10.242c2.115 0 3.829-1.678 3.829-3.747s-1.714-3.747-3.829-3.747c-2.114 0-3.828 1.678-3.828 3.747s1.714 3.747 3.828 3.747zm0 10.238c2.115 0 3.829-1.678 3.829-3.747 0-2.07-1.714-3.747-3.829-3.747-2.114 0-3.828 1.677-3.828 3.747 0 2.069 1.714 3.747 3.828 3.747zm10.462-30.718c2.115 0 3.829-1.678 3.829-3.747 0-2.07-1.714-3.747-3.829-3.747-2.114 0-3.828 1.677-3.828 3.747s1.714 3.747 3.828 3.747zm0 10.238c2.115 0 3.829-1.677 3.829-3.746 0-2.07-1.714-3.747-3.829-3.747-2.114 0-3.828 1.677-3.828 3.747 0 2.069 1.714 3.746 3.828 3.746zm0 10.242c2.115 0 3.829-1.678 3.829-3.747s-1.714-3.747-3.829-3.747c-2.114 0-3.828 1.678-3.828 3.747s1.714 3.747 3.828 3.747zm0 10.238c2.115 0 3.829-1.678 3.829-3.747 0-2.07-1.714-3.747-3.829-3.747-2.114 0-3.828 1.677-3.828 3.747 0 2.069 1.714 3.747 3.828 3.747zm10.463 112.633c2.114 0 3.828-1.678 3.828-3.747s-1.714-3.747-3.828-3.747c-2.115 0-3.829 1.678-3.829 3.747s1.714 3.747 3.829 3.747zm10.462 0c2.114 0 3.828-1.678 3.828-3.747s-1.714-3.747-3.828-3.747c-2.115 0-3.829 1.678-3.829 3.747s1.714 3.747 3.829 3.747zm10.46 0c2.114 0 3.828-1.678 3.828-3.747s-1.714-3.747-3.828-3.747-3.828 1.678-3.828 3.747 1.714 3.747 3.828 3.747zm10.462 0c2.114 0 3.828-1.678 3.828-3.747s-1.714-3.747-3.828-3.747c-2.115 0-3.828 1.678-3.828 3.747s1.713 3.747 3.828 3.747zm-31.384-10.238c2.114 0 3.828-1.677 3.828-3.746 0-2.07-1.714-3.747-3.828-3.747-2.115 0-3.829 1.677-3.829 3.747 0 2.069 1.714 3.746 3.829 3.746zm10.462 0c2.114 0 3.828-1.677 3.828-3.746 0-2.07-1.714-3.747-3.828-3.747-2.115 0-3.829 1.677-3.829 3.747 0 2.069 1.714 3.746 3.829 3.746zm10.46 0c2.114 0 3.828-1.677 3.828-3.746 0-2.07-1.714-3.747-3.828-3.747s-3.828 1.677-3.828 3.747c0 2.069 1.714 3.746 3.828 3.746zm10.462 0c2.114 0 3.828-1.677 3.828-3.746 0-2.07-1.714-3.747-3.828-3.747-2.115 0-3.828 1.677-3.828 3.747 0 2.069 1.713 3.746 3.828 3.746z" fill="red" stroke="red" stroke-width="1.173"/><path d="M290.134 90.382c2.114 0 3.828-1.677 3.828-3.747 0-2.069-1.714-3.747-3.828-3.747s-3.828 1.678-3.828 3.747c0 2.07 1.714 3.747 3.828 3.747zm10.462 0c2.114 0 3.828-1.677 3.828-3.747 0-2.069-1.714-3.747-3.828-3.747s-3.828 1.678-3.828 3.747c0 2.07 1.714 3.747 3.828 3.747zm10.462 0c2.114 0 3.828-1.677 3.828-3.747 0-2.069-1.714-3.747-3.828-3.747s-3.828 1.678-3.828 3.747c0 2.07 1.714 3.747 3.828 3.747zm10.462 0c2.114 0 3.828-1.677 3.828-3.747 0-2.069-1.714-3.747-3.828-3.747s-3.828 1.678-3.828 3.747c0 2.07 1.714 3.747 3.828 3.747zm-31.386 10.24c2.114 0 3.828-1.678 3.828-3.747 0-2.07-1.714-3.747-3.828-3.747s-3.828 1.677-3.828 3.747 1.714 3.747 3.828 3.747zm0 10.238c2.114 0 3.828-1.677 3.828-3.746 0-2.07-1.714-3.747-3.828-3.747s-3.828 1.677-3.828 3.747c0 2.069 1.714 3.746 3.828 3.746zm0 10.242c2.114 0 3.828-1.678 3.828-3.747s-1.714-3.747-3.828-3.747-3.828 1.678-3.828 3.747 1.714 3.747 3.828 3.747zm0 10.238c2.114 0 3.828-1.678 3.828-3.747 0-2.07-1.714-3.747-3.828-3.747s-3.828 1.677-3.828 3.747c0 2.069 1.714 3.747 3.828 3.747zm0 10.239c2.114 0 3.828-1.678 3.828-3.747s-1.714-3.747-3.828-3.747-3.828 1.678-3.828 3.747 1.714 3.747 3.828 3.747zm0 10.239c2.114 0 3.828-1.678 3.828-3.747s-1.714-3.747-3.828-3.747-3.828 1.678-3.828 3.747 1.714 3.747 3.828 3.747zm0 10.241c2.114 0 3.828-1.678 3.828-3.747s-1.714-3.747-3.828-3.747-3.828 1.678-3.828 3.747 1.714 3.747 3.828 3.747zm0 10.239c2.114 0 3.828-1.678 3.828-3.747s-1.714-3.747-3.828-3.747-3.828 1.678-3.828 3.747 1.714 3.747 3.828 3.747zm0 10.239c2.114 0 3.828-1.677 3.828-3.747 0-2.069-1.714-3.746-3.828-3.746s-3.828 1.677-3.828 3.746c0 2.07 1.714 3.747 3.828 3.747zm0 10.238c2.114 0 3.828-1.677 3.828-3.747 0-2.069-1.714-3.747-3.828-3.747s-3.828 1.678-3.828 3.747c0 2.07 1.714 3.747 3.828 3.747zm0 10.24c2.114 0 3.828-1.677 3.828-3.746 0-2.07-1.714-3.747-3.828-3.747s-3.828 1.677-3.828 3.747c0 2.069 1.714 3.746 3.828 3.746zm0 10.24c2.114 0 3.828-1.677 3.828-3.747 0-2.069-1.714-3.747-3.828-3.747s-3.828 1.678-3.828 3.747c0 2.07 1.714 3.747 3.828 3.747zm0 10.24c2.114 0 3.828-1.678 3.828-3.747s-1.714-3.747-3.828-3.747-3.828 1.678-3.828 3.747 1.714 3.747 3.828 3.747zm0 10.24c2.114 0 3.828-1.677 3.828-3.746 0-2.07-1.714-3.747-3.828-3.747s-3.828 1.677-3.828 3.747c0 2.069 1.714 3.746 3.828 3.746zm0 10.238c2.114 0 3.828-1.678 3.828-3.747s-1.714-3.747-3.828-3.747-3.828 1.678-3.828 3.747 1.714 3.747 3.828 3.747zm10.462-143.351c2.114 0 3.828-1.678 3.828-3.747 0-2.07-1.714-3.747-3.828-3.747s-3.828 1.677-3.828 3.747 1.714 3.747 3.828 3.747zm0 10.238c2.114 0 3.828-1.677 3.828-3.746 0-2.07-1.714-3.747-3.828-3.747s-3.828 1.677-3.828 3.747c0 2.069 1.714 3.746 3.828 3.746zm0 10.242c2.114 0 3.828-1.678 3.828-3.747s-1.714-3.747-3.828-3.747-3.828 1.678-3.828 3.747 1.714 3.747 3.828 3.747zm0 10.238c2.114 0 3.828-1.678 3.828-3.747 0-2.07-1.714-3.747-3.828-3.747s-3.828 1.677-3.828 3.747c0 2.069 1.714 3.747 3.828 3.747zm0 10.239c2.114 0 3.828-1.678 3.828-3.747s-1.714-3.747-3.828-3.747-3.828 1.678-3.828 3.747 1.714 3.747 3.828 3.747zm0 10.239c2.114 0 3.828-1.678 3.828-3.747s-1.714-3.747-3.828-3.747-3.828 1.678-3.828 3.747 1.714 3.747 3.828 3.747zm0 10.241c2.114 0 3.828-1.678 3.828-3.747s-1.714-3.747-3.828-3.747-3.828 1.678-3.828 3.747 1.714 3.747 3.828 3.747zm0 10.239c2.114 0 3.828-1.678 3.828-3.747s-1.714-3.747-3.828-3.747-3.828 1.678-3.828 3.747 1.714 3.747 3.828 3.747zm0 10.239c2.114 0 3.828-1.677 3.828-3.747 0-2.069-1.714-3.746-3.828-3.746s-3.828 1.677-3.828 3.746c0 2.07 1.714 3.747 3.828 3.747zm0 10.238c2.114 0 3.828-1.677 3.828-3.747 0-2.069-1.714-3.747-3.828-3.747s-3.828 1.678-3.828 3.747c0 2.07 1.714 3.747 3.828 3.747zm0 10.24c2.114 0 3.828-1.677 3.828-3.746 0-2.07-1.714-3.747-3.828-3.747s-3.828 1.677-3.828 3.747c0 2.069 1.714 3.746 3.828 3.746zm0 10.24c2.114 0 3.828-1.677 3.828-3.747 0-2.069-1.714-3.747-3.828-3.747s-3.828 1.678-3.828 3.747c0 2.07 1.714 3.747 3.828 3.747zm0 10.24c2.114 0 3.828-1.678 3.828-3.747s-1.714-3.747-3.828-3.747-3.828 1.678-3.828 3.747 1.714 3.747 3.828 3.747zm0 10.24c2.114 0 3.828-1.677 3.828-3.746 0-2.07-1.714-3.747-3.828-3.747s-3.828 1.677-3.828 3.747c0 2.069 1.714 3.746 3.828 3.746zm0 10.238c2.114 0 3.828-1.678 3.828-3.747s-1.714-3.747-3.828-3.747-3.828 1.678-3.828 3.747 1.714 3.747 3.828 3.747zm10.462-143.351c2.114 0 3.828-1.678 3.828-3.747 0-2.07-1.714-3.747-3.828-3.747s-3.828 1.677-3.828 3.747 1.714 3.747 3.828 3.747zm0 10.238c2.114 0 3.828-1.677 3.828-3.746 0-2.07-1.714-3.747-3.828-3.747s-3.828 1.677-3.828 3.747c0 2.069 1.714 3.746 3.828 3.746zm0 10.242c2.114 0 3.828-1.678 3.828-3.747s-1.714-3.747-3.828-3.747-3.828 1.678-3.828 3.747 1.714 3.747 3.828 3.747zm0 10.238c2.114 0 3.828-1.678 3.828-3.747 0-2.07-1.714-3.747-3.828-3.747s-3.828 1.677-3.828 3.747c0 2.069 1.714 3.747 3.828 3.747zm0 10.239c2.114 0 3.828-1.678 3.828-3.747s-1.714-3.747-3.828-3.747-3.828 1.678-3.828 3.747 1.714 3.747 3.828 3.747zm0 10.239c2.114 0 3.828-1.678 3.828-3.747s-1.714-3.747-3.828-3.747-3.828 1.678-3.828 3.747 1.714 3.747 3.828 3.747zm0 10.241c2.114 0 3.828-1.678 3.828-3.747s-1.714-3.747-3.828-3.747-3.828 1.678-3.828 3.747 1.714 3.747 3.828 3.747zm0 10.239c2.114 0 3.828-1.678 3.828-3.747s-1.714-3.747-3.828-3.747-3.828 1.678-3.828 3.747 1.714 3.747 3.828 3.747zm0 10.239c2.114 0 3.828-1.677 3.828-3.747 0-2.069-1.714-3.746-3.828-3.746s-3.828 1.677-3.828 3.746c0 2.07 1.714 3.747 3.828 3.747zm0 10.238c2.114 0 3.828-1.677 3.828-3.747 0-2.069-1.714-3.747-3.828-3.747s-3.828 1.678-3.828 3.747c0 2.07 1.714 3.747 3.828 3.747zm0 10.24c2.114 0 3.828-1.677 3.828-3.746 0-2.07-1.714-3.747-3.828-3.747s-3.828 1.677-3.828 3.747c0 2.069 1.714 3.746 3.828 3.746zm0 10.24c2.114 0 3.828-1.677 3.828-3.747 0-2.069-1.714-3.747-3.828-3.747s-3.828 1.678-3.828 3.747c0 2.07 1.714 3.747 3.828 3.747zm0 10.24c2.114 0 3.828-1.678 3.828-3.747s-1.714-3.747-3.828-3.747-3.828 1.678-3.828 3.747 1.714 3.747 3.828 3.747zm0 10.24c2.114 0 3.828-1.677 3.828-3.746 0-2.07-1.714-3.747-3.828-3.747s-3.828 1.677-3.828 3.747c0 2.069 1.714 3.746 3.828 3.746zm0 10.238c2.114 0 3.828-1.678 3.828-3.747s-1.714-3.747-3.828-3.747-3.828 1.678-3.828 3.747 1.714 3.747 3.828 3.747zm10.462-143.351c2.114 0 3.828-1.678 3.828-3.747 0-2.07-1.714-3.747-3.828-3.747s-3.828 1.677-3.828 3.747 1.714 3.747 3.828 3.747zm0 10.238c2.114 0 3.828-1.677 3.828-3.746 0-2.07-1.714-3.747-3.828-3.747s-3.828 1.677-3.828 3.747c0 2.069 1.714 3.746 3.828 3.746zm0 10.242c2.114 0 3.828-1.678 3.828-3.747s-1.714-3.747-3.828-3.747-3.828 1.678-3.828 3.747 1.714 3.747 3.828 3.747zm0 10.238c2.114 0 3.828-1.678 3.828-3.747 0-2.07-1.714-3.747-3.828-3.747s-3.828 1.677-3.828 3.747c0 2.069 1.714 3.747 3.828 3.747zm0 10.239c2.114 0 3.828-1.678 3.828-3.747s-1.714-3.747-3.828-3.747-3.828 1.678-3.828 3.747 1.714 3.747 3.828 3.747zm0 10.239c2.114 0 3.828-1.678 3.828-3.747s-1.714-3.747-3.828-3.747-3.828 1.678-3.828 3.747 1.714 3.747 3.828 3.747zm0 10.241c2.114 0 3.828-1.678 3.828-3.747s-1.714-3.747-3.828-3.747-3.828 1.678-3.828 3.747 1.714 3.747 3.828 3.747zm0 10.239c2.114 0 3.828-1.678 3.828-3.747s-1.714-3.747-3.828-3.747-3.828 1.678-3.828 3.747 1.714 3.747 3.828 3.747zm0 10.239c2.114 0 3.828-1.677 3.828-3.747 0-2.069-1.714-3.746-3.828-3.746s-3.828 1.677-3.828 3.746c0 2.07 1.714 3.747 3.828 3.747zm0 10.238c2.114 0 3.828-1.677 3.828-3.747 0-2.069-1.714-3.747-3.828-3.747s-3.828 1.678-3.828 3.747c0 2.07 1.714 3.747 3.828 3.747zm0 10.24c2.114 0 3.828-1.677 3.828-3.746 0-2.07-1.714-3.747-3.828-3.747s-3.828 1.677-3.828 3.747c0 2.069 1.714 3.746 3.828 3.746zm0 10.24c2.114 0 3.828-1.677 3.828-3.747 0-2.069-1.714-3.747-3.828-3.747s-3.828 1.678-3.828 3.747c0 2.07 1.714 3.747 3.828 3.747zm0 10.24c2.114 0 3.828-1.678 3.828-3.747s-1.714-3.747-3.828-3.747-3.828 1.678-3.828 3.747 1.714 3.747 3.828 3.747zm0 10.24c2.114 0 3.828-1.677 3.828-3.746 0-2.07-1.714-3.747-3.828-3.747s-3.828 1.677-3.828 3.747c0 2.069 1.714 3.746 3.828 3.746zm0 10.238c2.114 0 3.828-1.678 3.828-3.747s-1.714-3.747-3.828-3.747-3.828 1.678-3.828 3.747 1.714 3.747 3.828 3.747zm27.575-153.591c2.114 0 3.828-1.677 3.828-3.747 0-2.069-1.714-3.747-3.828-3.747s-3.828 1.678-3.828 3.747c0 2.07 1.714 3.747 3.828 3.747zm10.46 0c2.115 0 3.829-1.677 3.829-3.747 0-2.069-1.714-3.747-3.829-3.747-2.114 0-3.828 1.678-3.828 3.747 0 2.07 1.714 3.747 3.828 3.747zm10.462 0c2.115 0 3.829-1.677 3.829-3.747 0-2.069-1.714-3.747-3.829-3.747-2.114 0-3.828 1.678-3.828 3.747 0 2.07 1.714 3.747 3.828 3.747zm10.462 0c2.115 0 3.829-1.677 3.829-3.747 0-2.069-1.714-3.747-3.829-3.747-2.114 0-3.828 1.678-3.828 3.747 0 2.07 1.714 3.747 3.828 3.747zm-31.384 10.24c2.114 0 3.828-1.678 3.828-3.747 0-2.07-1.714-3.747-3.828-3.747s-3.828 1.677-3.828 3.747 1.714 3.747 3.828 3.747zm0 10.238c2.114 0 3.828-1.677 3.828-3.746 0-2.07-1.714-3.747-3.828-3.747s-3.828 1.677-3.828 3.747c0 2.069 1.714 3.746 3.828 3.746zm0 10.242c2.114 0 3.828-1.678 3.828-3.747s-1.714-3.747-3.828-3.747-3.828 1.678-3.828 3.747 1.714 3.747 3.828 3.747zm0 10.238c2.114 0 3.828-1.678 3.828-3.747 0-2.07-1.714-3.747-3.828-3.747s-3.828 1.677-3.828 3.747c0 2.069 1.714 3.747 3.828 3.747zm0 10.239c2.114 0 3.828-1.678 3.828-3.747s-1.714-3.747-3.828-3.747-3.828 1.678-3.828 3.747 1.714 3.747 3.828 3.747zm0 10.239c2.114 0 3.828-1.678 3.828-3.747 0-2.07-1.714-3.747-3.828-3.747s-3.828 1.677-3.828 3.747c0 2.069 1.714 3.747 3.828 3.747zm0 10.241c2.114 0 3.828-1.677 3.828-3.747 0-2.069-1.714-3.747-3.828-3.747s-3.828 1.678-3.828 3.747c0 2.07 1.714 3.747 3.828 3.747zm0 10.239c2.114 0 3.828-1.678 3.828-3.747s-1.714-3.747-3.828-3.747-3.828 1.678-3.828 3.747 1.714 3.747 3.828 3.747zm0 10.239c2.114 0 3.828-1.677 3.828-3.746 0-2.07-1.714-3.747-3.828-3.747s-3.828 1.677-3.828 3.747c0 2.069 1.714 3.746 3.828 3.746zm0 10.238c2.114 0 3.828-1.677 3.828-3.747 0-2.069-1.714-3.747-3.828-3.747s-3.828 1.678-3.828 3.747c0 2.07 1.714 3.747 3.828 3.747zm0 10.24c2.114 0 3.828-1.677 3.828-3.746 0-2.07-1.714-3.747-3.828-3.747s-3.828 1.677-3.828 3.747c0 2.069 1.714 3.746 3.828 3.746zm0 10.239c2.114 0 3.828-1.677 3.828-3.746 0-2.07-1.714-3.747-3.828-3.747s-3.828 1.677-3.828 3.747c0 2.069 1.714 3.746 3.828 3.746zm0 10.241c2.114 0 3.828-1.678 3.828-3.747s-1.714-3.747-3.828-3.747-3.828 1.678-3.828 3.747 1.714 3.747 3.828 3.747zm0 10.24c2.114 0 3.828-1.677 3.828-3.746 0-2.07-1.714-3.747-3.828-3.747s-3.828 1.677-3.828 3.747c0 2.069 1.714 3.746 3.828 3.746zm0 10.238c2.114 0 3.828-1.678 3.828-3.747s-1.714-3.747-3.828-3.747-3.828 1.678-3.828 3.747 1.714 3.747 3.828 3.747zm10.46-143.351c2.115 0 3.829-1.678 3.829-3.747 0-2.07-1.714-3.747-3.829-3.747-2.114 0-3.828 1.677-3.828 3.747s1.714 3.747 3.828 3.747zm0 10.238c2.115 0 3.829-1.677 3.829-3.746 0-2.07-1.714-3.747-3.829-3.747-2.114 0-3.828 1.677-3.828 3.747 0 2.069 1.714 3.746 3.828 3.746zm0 10.242c2.115 0 3.829-1.678 3.829-3.747s-1.714-3.747-3.829-3.747c-2.114 0-3.828 1.678-3.828 3.747s1.714 3.747 3.828 3.747zm0 10.238c2.115 0 3.829-1.678 3.829-3.747 0-2.07-1.714-3.747-3.829-3.747-2.114 0-3.828 1.677-3.828 3.747 0 2.069 1.714 3.747 3.828 3.747zm0 10.239c2.115 0 3.829-1.678 3.829-3.747s-1.714-3.747-3.829-3.747c-2.114 0-3.828 1.678-3.828 3.747s1.714 3.747 3.828 3.747zm0 10.239c2.115 0 3.829-1.678 3.829-3.747 0-2.07-1.714-3.747-3.829-3.747-2.114 0-3.828 1.677-3.828 3.747 0 2.069 1.714 3.747 3.828 3.747zm0 10.241c2.115 0 3.829-1.677 3.829-3.747 0-2.069-1.714-3.747-3.829-3.747-2.114 0-3.828 1.678-3.828 3.747 0 2.07 1.714 3.747 3.828 3.747zm0 10.239c2.115 0 3.829-1.678 3.829-3.747s-1.714-3.747-3.829-3.747c-2.114 0-3.828 1.678-3.828 3.747s1.714 3.747 3.828 3.747zm0 10.239c2.115 0 3.829-1.677 3.829-3.746 0-2.07-1.714-3.747-3.829-3.747-2.114 0-3.828 1.677-3.828 3.747 0 2.069 1.714 3.746 3.828 3.746zm0 10.238c2.115 0 3.829-1.677 3.829-3.747 0-2.069-1.714-3.747-3.829-3.747-2.114 0-3.828 1.678-3.828 3.747 0 2.07 1.714 3.747 3.828 3.747zm0 10.24c2.115 0 3.829-1.677 3.829-3.746 0-2.07-1.714-3.747-3.829-3.747-2.114 0-3.828 1.677-3.828 3.747 0 2.069 1.714 3.746 3.828 3.746zm0 10.239c2.115 0 3.829-1.677 3.829-3.746 0-2.07-1.714-3.747-3.829-3.747-2.114 0-3.828 1.677-3.828 3.747 0 2.069 1.714 3.746 3.828 3.746zm0 10.241c2.115 0 3.829-1.678 3.829-3.747s-1.714-3.747-3.829-3.747c-2.114 0-3.828 1.678-3.828 3.747s1.714 3.747 3.828 3.747zm0 10.24c2.115 0 3.829-1.677 3.829-3.746 0-2.07-1.714-3.747-3.829-3.747-2.114 0-3.828 1.677-3.828 3.747 0 2.069 1.714 3.746 3.828 3.746zm0 10.238c2.115 0 3.829-1.678 3.829-3.747s-1.714-3.747-3.829-3.747c-2.114 0-3.828 1.678-3.828 3.747s1.714 3.747 3.828 3.747zm10.462-143.351c2.115 0 3.829-1.678 3.829-3.747 0-2.07-1.714-3.747-3.829-3.747-2.114 0-3.828 1.677-3.828 3.747s1.714 3.747 3.828 3.747zm0 10.238c2.115 0 3.829-1.677 3.829-3.746 0-2.07-1.714-3.747-3.829-3.747-2.114 0-3.828 1.677-3.828 3.747 0 2.069 1.714 3.746 3.828 3.746zm0 10.242c2.115 0 3.829-1.678 3.829-3.747s-1.714-3.747-3.829-3.747c-2.114 0-3.828 1.678-3.828 3.747s1.714 3.747 3.828 3.747zm0 10.238c2.115 0 3.829-1.678 3.829-3.747 0-2.07-1.714-3.747-3.829-3.747-2.114 0-3.828 1.677-3.828 3.747 0 2.069 1.714 3.747 3.828 3.747zm0 10.239c2.115 0 3.829-1.678 3.829-3.747s-1.714-3.747-3.829-3.747c-2.114 0-3.828 1.678-3.828 3.747s1.714 3.747 3.828 3.747zm0 10.239c2.115 0 3.829-1.678 3.829-3.747 0-2.07-1.714-3.747-3.829-3.747-2.114 0-3.828 1.677-3.828 3.747 0 2.069 1.714 3.747 3.828 3.747zm0 10.241c2.115 0 3.829-1.677 3.829-3.747 0-2.069-1.714-3.747-3.829-3.747-2.114 0-3.828 1.678-3.828 3.747 0 2.07 1.714 3.747 3.828 3.747zm0 10.239c2.115 0 3.829-1.678 3.829-3.747s-1.714-3.747-3.829-3.747c-2.114 0-3.828 1.678-3.828 3.747s1.714 3.747 3.828 3.747zm0 10.239c2.115 0 3.829-1.677 3.829-3.746 0-2.07-1.714-3.747-3.829-3.747-2.114 0-3.828 1.677-3.828 3.747 0 2.069 1.714 3.746 3.828 3.746zm0 10.238c2.115 0 3.829-1.677 3.829-3.747 0-2.069-1.714-3.747-3.829-3.747-2.114 0-3.828 1.678-3.828 3.747 0 2.07 1.714 3.747 3.828 3.747zm0 10.24c2.115 0 3.829-1.677 3.829-3.746 0-2.07-1.714-3.747-3.829-3.747-2.114 0-3.828 1.677-3.828 3.747 0 2.069 1.714 3.746 3.828 3.746zm0 10.239c2.115 0 3.829-1.677 3.829-3.746 0-2.07-1.714-3.747-3.829-3.747-2.114 0-3.828 1.677-3.828 3.747 0 2.069 1.714 3.746 3.828 3.746zm0 10.241c2.115 0 3.829-1.678 3.829-3.747s-1.714-3.747-3.829-3.747c-2.114 0-3.828 1.678-3.828 3.747s1.714 3.747 3.828 3.747zm0 10.24c2.115 0 3.829-1.677 3.829-3.746 0-2.07-1.714-3.747-3.829-3.747-2.114 0-3.828 1.677-3.828 3.747 0 2.069 1.714 3.746 3.828 3.746zm0 10.238c2.115 0 3.829-1.678 3.829-3.747s-1.714-3.747-3.829-3.747c-2.114 0-3.828 1.678-3.828 3.747s1.714 3.747 3.828 3.747zm10.462-143.351c2.115 0 3.829-1.678 3.829-3.747 0-2.07-1.714-3.747-3.829-3.747-2.114 0-3.828 1.677-3.828 3.747s1.714 3.747 3.828 3.747zm0 10.238c2.115 0 3.829-1.677 3.829-3.746 0-2.07-1.714-3.747-3.829-3.747-2.114 0-3.828 1.677-3.828 3.747 0 2.069 1.714 3.746 3.828 3.746zm0 10.242c2.115 0 3.829-1.678 3.829-3.747s-1.714-3.747-3.829-3.747c-2.114 0-3.828 1.678-3.828 3.747s1.714 3.747 3.828 3.747zm0 10.238c2.115 0 3.829-1.678 3.829-3.747 0-2.07-1.714-3.747-3.829-3.747-2.114 0-3.828 1.677-3.828 3.747 0 2.069 1.714 3.747 3.828 3.747zm0 10.239c2.115 0 3.829-1.678 3.829-3.747s-1.714-3.747-3.829-3.747c-2.114 0-3.828 1.678-3.828 3.747s1.714 3.747 3.828 3.747zm0 10.239c2.115 0 3.829-1.678 3.829-3.747 0-2.07-1.714-3.747-3.829-3.747-2.114 0-3.828 1.677-3.828 3.747 0 2.069 1.714 3.747 3.828 3.747zm0 10.241c2.115 0 3.829-1.677 3.829-3.747 0-2.069-1.714-3.747-3.829-3.747-2.114 0-3.828 1.678-3.828 3.747 0 2.07 1.714 3.747 3.828 3.747zm0 10.239c2.115 0 3.829-1.678 3.829-3.747s-1.714-3.747-3.829-3.747c-2.114 0-3.828 1.678-3.828 3.747s1.714 3.747 3.828 3.747zm0 10.239c2.115 0 3.829-1.677 3.829-3.746 0-2.07-1.714-3.747-3.829-3.747-2.114 0-3.828 1.677-3.828 3.747 0 2.069 1.714 3.746 3.828 3.746zm0 10.238c2.115 0 3.829-1.677 3.829-3.747 0-2.069-1.714-3.747-3.829-3.747-2.114 0-3.828 1.678-3.828 3.747 0 2.07 1.714 3.747 3.828 3.747zm0 10.24c2.115 0 3.829-1.677 3.829-3.746 0-2.07-1.714-3.747-3.829-3.747-2.114 0-3.828 1.677-3.828 3.747 0 2.069 1.714 3.746 3.828 3.746zm0 10.239c2.115 0 3.829-1.677 3.829-3.746 0-2.07-1.714-3.747-3.829-3.747-2.114 0-3.828 1.677-3.828 3.747 0 2.069 1.714 3.746 3.828 3.746zm0 10.241c2.115 0 3.829-1.678 3.829-3.747s-1.714-3.747-3.829-3.747c-2.114 0-3.828 1.678-3.828 3.747s1.714 3.747 3.828 3.747zm0 10.24c2.115 0 3.829-1.677 3.829-3.746 0-2.07-1.714-3.747-3.829-3.747-2.114 0-3.828 1.677-3.828 3.747 0 2.069 1.714 3.746 3.828 3.746zm0 10.238c2.115 0 3.829-1.678 3.829-3.747s-1.714-3.747-3.829-3.747c-2.114 0-3.828 1.678-3.828 3.747s1.714 3.747 3.828 3.747zm52.309-153.591c2.114 0 3.828-1.677 3.828-3.747 0-2.069-1.714-3.747-3.828-3.747s-3.828 1.678-3.828 3.747c0 2.07 1.714 3.747 3.828 3.747zm10.462 0c2.114 0 3.828-1.677 3.828-3.747 0-2.069-1.714-3.747-3.828-3.747s-3.828 1.678-3.828 3.747c0 2.07 1.714 3.747 3.828 3.747zm10.462 0c2.114 0 3.828-1.677 3.828-3.747 0-2.069-1.714-3.747-3.828-3.747s-3.828 1.678-3.828 3.747c0 2.07 1.714 3.747 3.828 3.747zm10.46 0c2.114 0 3.828-1.677 3.828-3.747 0-2.069-1.714-3.747-3.828-3.747s-3.828 1.678-3.828 3.747c0 2.07 1.714 3.747 3.828 3.747zm-31.384 10.24c2.114 0 3.828-1.678 3.828-3.747 0-2.07-1.714-3.747-3.828-3.747s-3.828 1.677-3.828 3.747 1.714 3.747 3.828 3.747zm0 10.238c2.114 0 3.828-1.677 3.828-3.746 0-2.07-1.714-3.747-3.828-3.747s-3.828 1.677-3.828 3.747c0 2.069 1.714 3.746 3.828 3.746zm0 10.242c2.114 0 3.828-1.678 3.828-3.747s-1.714-3.747-3.828-3.747-3.828 1.678-3.828 3.747 1.714 3.747 3.828 3.747zm0 10.238c2.114 0 3.828-1.678 3.828-3.747 0-2.07-1.714-3.747-3.828-3.747s-3.828 1.677-3.828 3.747c0 2.069 1.714 3.747 3.828 3.747zm0 10.239c2.114 0 3.828-1.678 3.828-3.747s-1.714-3.747-3.828-3.747-3.828 1.678-3.828 3.747 1.714 3.747 3.828 3.747zm0 10.239c2.114 0 3.828-1.678 3.828-3.747 0-2.07-1.714-3.747-3.828-3.747s-3.828 1.677-3.828 3.747c0 2.069 1.714 3.747 3.828 3.747zm0 10.241c2.114 0 3.828-1.677 3.828-3.747 0-2.069-1.714-3.747-3.828-3.747s-3.828 1.678-3.828 3.747c0 2.07 1.714 3.747 3.828 3.747zm0 10.239c2.114 0 3.828-1.678 3.828-3.747s-1.714-3.747-3.828-3.747-3.828 1.678-3.828 3.747 1.714 3.747 3.828 3.747zm0 10.239c2.114 0 3.828-1.677 3.828-3.746 0-2.07-1.714-3.747-3.828-3.747s-3.828 1.677-3.828 3.747c0 2.069 1.714 3.746 3.828 3.746zm0 10.238c2.114 0 3.828-1.677 3.828-3.747 0-2.069-1.714-3.747-3.828-3.747s-3.828 1.678-3.828 3.747c0 2.07 1.714 3.747 3.828 3.747zm0 10.24c2.114 0 3.828-1.677 3.828-3.746 0-2.07-1.714-3.747-3.828-3.747s-3.828 1.677-3.828 3.747c0 2.069 1.714 3.746 3.828 3.746zm0 10.239c2.114 0 3.828-1.677 3.828-3.746 0-2.07-1.714-3.747-3.828-3.747s-3.828 1.677-3.828 3.747c0 2.069 1.714 3.746 3.828 3.746zm0 10.241c2.114 0 3.828-1.678 3.828-3.747s-1.714-3.747-3.828-3.747-3.828 1.678-3.828 3.747 1.714 3.747 3.828 3.747zm0 10.24c2.114 0 3.828-1.677 3.828-3.746 0-2.07-1.714-3.747-3.828-3.747s-3.828 1.677-3.828 3.747c0 2.069 1.714 3.746 3.828 3.746zm0 10.238c2.114 0 3.828-1.678 3.828-3.747s-1.714-3.747-3.828-3.747-3.828 1.678-3.828 3.747 1.714 3.747 3.828 3.747zm10.462-143.351c2.114 0 3.828-1.678 3.828-3.747 0-2.07-1.714-3.747-3.828-3.747s-3.828 1.677-3.828 3.747 1.714 3.747 3.828 3.747zm0 10.238c2.114 0 3.828-1.677 3.828-3.746 0-2.07-1.714-3.747-3.828-3.747s-3.828 1.677-3.828 3.747c0 2.069 1.714 3.746 3.828 3.746zm0 10.242c2.114 0 3.828-1.678 3.828-3.747s-1.714-3.747-3.828-3.747-3.828 1.678-3.828 3.747 1.714 3.747 3.828 3.747zm0 10.238c2.114 0 3.828-1.678 3.828-3.747 0-2.07-1.714-3.747-3.828-3.747s-3.828 1.677-3.828 3.747c0 2.069 1.714 3.747 3.828 3.747zm0 10.239c2.114 0 3.828-1.678 3.828-3.747s-1.714-3.747-3.828-3.747-3.828 1.678-3.828 3.747 1.714 3.747 3.828 3.747zm0 10.239c2.114 0 3.828-1.678 3.828-3.747 0-2.07-1.714-3.747-3.828-3.747s-3.828 1.677-3.828 3.747c0 2.069 1.714 3.747 3.828 3.747zm0 10.241c2.114 0 3.828-1.677 3.828-3.747 0-2.069-1.714-3.747-3.828-3.747s-3.828 1.678-3.828 3.747c0 2.07 1.714 3.747 3.828 3.747zm0 10.239c2.114 0 3.828-1.678 3.828-3.747s-1.714-3.747-3.828-3.747-3.828 1.678-3.828 3.747 1.714 3.747 3.828 3.747zm0 10.239c2.114 0 3.828-1.677 3.828-3.746 0-2.07-1.714-3.747-3.828-3.747s-3.828 1.677-3.828 3.747c0 2.069 1.714 3.746 3.828 3.746zm0 10.238c2.114 0 3.828-1.677 3.828-3.747 0-2.069-1.714-3.747-3.828-3.747s-3.828 1.678-3.828 3.747c0 2.07 1.714 3.747 3.828 3.747zm0 10.24c2.114 0 3.828-1.677 3.828-3.746 0-2.07-1.714-3.747-3.828-3.747s-3.828 1.677-3.828 3.747c0 2.069 1.714 3.746 3.828 3.746zm0 10.239c2.114 0 3.828-1.677 3.828-3.746 0-2.07-1.714-3.747-3.828-3.747s-3.828 1.677-3.828 3.747c0 2.069 1.714 3.746 3.828 3.746zm0 10.241c2.114 0 3.828-1.678 3.828-3.747s-1.714-3.747-3.828-3.747-3.828 1.678-3.828 3.747 1.714 3.747 3.828 3.747zm0 10.24c2.114 0 3.828-1.677 3.828-3.746 0-2.07-1.714-3.747-3.828-3.747s-3.828 1.677-3.828 3.747c0 2.069 1.714 3.746 3.828 3.746zm0 10.238c2.114 0 3.828-1.678 3.828-3.747s-1.714-3.747-3.828-3.747-3.828 1.678-3.828 3.747 1.714 3.747 3.828 3.747zm10.462-143.351c2.114 0 3.828-1.678 3.828-3.747 0-2.07-1.714-3.747-3.828-3.747s-3.828 1.677-3.828 3.747 1.714 3.747 3.828 3.747zm0 10.238c2.114 0 3.828-1.677 3.828-3.746 0-2.07-1.714-3.747-3.828-3.747s-3.828 1.677-3.828 3.747c0 2.069 1.714 3.746 3.828 3.746zm0 10.242c2.114 0 3.828-1.678 3.828-3.747s-1.714-3.747-3.828-3.747-3.828 1.678-3.828 3.747 1.714 3.747 3.828 3.747zm0 10.238c2.114 0 3.828-1.678 3.828-3.747 0-2.07-1.714-3.747-3.828-3.747s-3.828 1.677-3.828 3.747c0 2.069 1.714 3.747 3.828 3.747zm0 10.239c2.114 0 3.828-1.678 3.828-3.747s-1.714-3.747-3.828-3.747-3.828 1.678-3.828 3.747 1.714 3.747 3.828 3.747zm0 10.239c2.114 0 3.828-1.678 3.828-3.747 0-2.07-1.714-3.747-3.828-3.747s-3.828 1.677-3.828 3.747c0 2.069 1.714 3.747 3.828 3.747zm0 10.241c2.114 0 3.828-1.677 3.828-3.747 0-2.069-1.714-3.747-3.828-3.747s-3.828 1.678-3.828 3.747c0 2.07 1.714 3.747 3.828 3.747zm0 10.239c2.114 0 3.828-1.678 3.828-3.747s-1.714-3.747-3.828-3.747-3.828 1.678-3.828 3.747 1.714 3.747 3.828 3.747zm0 10.239c2.114 0 3.828-1.677 3.828-3.746 0-2.07-1.714-3.747-3.828-3.747s-3.828 1.677-3.828 3.747c0 2.069 1.714 3.746 3.828 3.746zm0 10.238c2.114 0 3.828-1.677 3.828-3.747 0-2.069-1.714-3.747-3.828-3.747s-3.828 1.678-3.828 3.747c0 2.07 1.714 3.747 3.828 3.747zm0 10.24c2.114 0 3.828-1.677 3.828-3.746 0-2.07-1.714-3.747-3.828-3.747s-3.828 1.677-3.828 3.747c0 2.069 1.714 3.746 3.828 3.746zm0 10.239c2.114 0 3.828-1.677 3.828-3.746 0-2.07-1.714-3.747-3.828-3.747s-3.828 1.677-3.828 3.747c0 2.069 1.714 3.746 3.828 3.746zm0 10.241c2.114 0 3.828-1.678 3.828-3.747s-1.714-3.747-3.828-3.747-3.828 1.678-3.828 3.747 1.714 3.747 3.828 3.747zm0 10.24c2.114 0 3.828-1.677 3.828-3.746 0-2.07-1.714-3.747-3.828-3.747s-3.828 1.677-3.828 3.747c0 2.069 1.714 3.746 3.828 3.746zm0 10.238c2.114 0 3.828-1.678 3.828-3.747s-1.714-3.747-3.828-3.747-3.828 1.678-3.828 3.747 1.714 3.747 3.828 3.747zm10.46-143.351c2.114 0 3.828-1.678 3.828-3.747 0-2.07-1.714-3.747-3.828-3.747s-3.828 1.677-3.828 3.747 1.714 3.747 3.828 3.747zm0 10.238c2.114 0 3.828-1.677 3.828-3.746 0-2.07-1.714-3.747-3.828-3.747s-3.828 1.677-3.828 3.747c0 2.069 1.714 3.746 3.828 3.746zm0 10.242c2.114 0 3.828-1.678 3.828-3.747s-1.714-3.747-3.828-3.747-3.828 1.678-3.828 3.747 1.714 3.747 3.828 3.747zm0 10.238c2.114 0 3.828-1.678 3.828-3.747 0-2.07-1.714-3.747-3.828-3.747s-3.828 1.677-3.828 3.747c0 2.069 1.714 3.747 3.828 3.747zm0 10.239c2.114 0 3.828-1.678 3.828-3.747s-1.714-3.747-3.828-3.747-3.828 1.678-3.828 3.747 1.714 3.747 3.828 3.747zm0 10.239c2.114 0 3.828-1.678 3.828-3.747 0-2.07-1.714-3.747-3.828-3.747s-3.828 1.677-3.828 3.747c0 2.069 1.714 3.747 3.828 3.747zm0 10.241c2.114 0 3.828-1.677 3.828-3.747 0-2.069-1.714-3.747-3.828-3.747s-3.828 1.678-3.828 3.747c0 2.07 1.714 3.747 3.828 3.747zm0 10.239c2.114 0 3.828-1.678 3.828-3.747s-1.714-3.747-3.828-3.747-3.828 1.678-3.828 3.747 1.714 3.747 3.828 3.747zm0 10.239c2.114 0 3.828-1.677 3.828-3.746 0-2.07-1.714-3.747-3.828-3.747s-3.828 1.677-3.828 3.747c0 2.069 1.714 3.746 3.828 3.746zm0 10.238c2.114 0 3.828-1.677 3.828-3.747 0-2.069-1.714-3.747-3.828-3.747s-3.828 1.678-3.828 3.747c0 2.07 1.714 3.747 3.828 3.747zm0 10.24c2.114 0 3.828-1.677 3.828-3.746 0-2.07-1.714-3.747-3.828-3.747s-3.828 1.677-3.828 3.747c0 2.069 1.714 3.746 3.828 3.746zm0 10.239c2.114 0 3.828-1.677 3.828-3.746 0-2.07-1.714-3.747-3.828-3.747s-3.828 1.677-3.828 3.747c0 2.069 1.714 3.746 3.828 3.746zm0 10.241c2.114 0 3.828-1.678 3.828-3.747s-1.714-3.747-3.828-3.747-3.828 1.678-3.828 3.747 1.714 3.747 3.828 3.747zm0 10.24c2.114 0 3.828-1.677 3.828-3.746 0-2.07-1.714-3.747-3.828-3.747s-3.828 1.677-3.828 3.747c0 2.069 1.714 3.746 3.828 3.746zm0 10.238c2.114 0 3.828-1.678 3.828-3.747s-1.714-3.747-3.828-3.747-3.828 1.678-3.828 3.747 1.714 3.747 3.828 3.747z" fill="#000" stroke="#000" stroke-width="1.173"/><path d="M189.329 223.495c2.114 0 3.828-1.678 3.828-3.747s-1.714-3.747-3.828-3.747c-2.115 0-3.829 1.678-3.829 3.747s1.714 3.747 3.829 3.747zm10.462 0c2.114 0 3.828-1.678 3.828-3.747s-1.714-3.747-3.828-3.747c-2.115 0-3.829 1.678-3.829 3.747s1.714 3.747 3.829 3.747zm10.46 0c2.114 0 3.828-1.678 3.828-3.747s-1.714-3.747-3.828-3.747-3.828 1.678-3.828 3.747 1.714 3.747 3.828 3.747zm10.462 0c2.114 0 3.828-1.678 3.828-3.747s-1.714-3.747-3.828-3.747c-2.115 0-3.828 1.678-3.828 3.747s1.713 3.747 3.828 3.747zm-41.847-10.241c2.115 0 3.829-1.677 3.829-3.746 0-2.07-1.714-3.747-3.829-3.747-2.114 0-3.828 1.677-3.828 3.747 0 2.069 1.714 3.746 3.828 3.746zm10.463 0c2.114 0 3.828-1.677 3.828-3.746 0-2.07-1.714-3.747-3.828-3.747-2.115 0-3.829 1.677-3.829 3.747 0 2.069 1.714 3.746 3.829 3.746zm10.462 0c2.114 0 3.828-1.677 3.828-3.746 0-2.07-1.714-3.747-3.828-3.747-2.115 0-3.829 1.677-3.829 3.747 0 2.069 1.714 3.746 3.829 3.746zm10.46 0c2.114 0 3.828-1.677 3.828-3.746 0-2.07-1.714-3.747-3.828-3.747s-3.828 1.677-3.828 3.747c0 2.069 1.714 3.746 3.828 3.746zm-31.385-10.239c2.115 0 3.829-1.677 3.829-3.746 0-2.07-1.714-3.747-3.829-3.747-2.114 0-3.828 1.677-3.828 3.747 0 2.069 1.714 3.746 3.828 3.746zm0-10.24c2.115 0 3.829-1.677 3.829-3.747 0-2.069-1.714-3.747-3.829-3.747-2.114 0-3.828 1.678-3.828 3.747 0 2.07 1.714 3.747 3.828 3.747zm10.463 10.24c2.114 0 3.828-1.677 3.828-3.746 0-2.07-1.714-3.747-3.828-3.747-2.115 0-3.829 1.677-3.829 3.747 0 2.069 1.714 3.746 3.829 3.746zm0-10.24c2.114 0 3.828-1.677 3.828-3.747 0-2.069-1.714-3.747-3.828-3.747-2.115 0-3.829 1.678-3.829 3.747 0 2.07 1.714 3.747 3.829 3.747zm10.462 10.24c2.114 0 3.828-1.677 3.828-3.746 0-2.07-1.714-3.747-3.828-3.747-2.115 0-3.829 1.677-3.829 3.747 0 2.069 1.714 3.746 3.829 3.746zm0-10.24c2.114 0 3.828-1.677 3.828-3.747 0-2.069-1.714-3.747-3.828-3.747-2.115 0-3.829 1.678-3.829 3.747 0 2.07 1.714 3.747 3.829 3.747zm10.46 10.24c2.114 0 3.828-1.677 3.828-3.746 0-2.07-1.714-3.747-3.828-3.747s-3.828 1.677-3.828 3.747c0 2.069 1.714 3.746 3.828 3.746zm0-10.24c2.114 0 3.828-1.677 3.828-3.747 0-2.069-1.714-3.747-3.828-3.747s-3.828 1.678-3.828 3.747c0 2.07 1.714 3.747 3.828 3.747zm-41.847-10.238c2.115 0 3.829-1.677 3.829-3.746 0-2.07-1.714-3.747-3.829-3.747-2.114 0-3.828 1.677-3.828 3.747 0 2.069 1.714 3.746 3.828 3.746zm10.462 0c2.115 0 3.829-1.677 3.829-3.746 0-2.07-1.714-3.747-3.829-3.747-2.114 0-3.828 1.677-3.828 3.747 0 2.069 1.714 3.746 3.828 3.746zm10.463 0c2.114 0 3.828-1.677 3.828-3.746 0-2.07-1.714-3.747-3.828-3.747-2.115 0-3.829 1.677-3.829 3.747 0 2.069 1.714 3.746 3.829 3.746zm10.462 0c2.114 0 3.828-1.677 3.828-3.746 0-2.07-1.714-3.747-3.828-3.747-2.115 0-3.829 1.677-3.829 3.747 0 2.069 1.714 3.746 3.829 3.746zm-31.387-10.239c2.115 0 3.829-1.678 3.829-3.747s-1.714-3.747-3.829-3.747c-2.114 0-3.828 1.678-3.828 3.747s1.714 3.747 3.828 3.747zm0-10.239c2.115 0 3.829-1.677 3.829-3.747 0-2.069-1.714-3.747-3.829-3.747-2.114 0-3.828 1.678-3.828 3.747 0 2.07 1.714 3.747 3.828 3.747zm10.462 10.239c2.115 0 3.829-1.678 3.829-3.747s-1.714-3.747-3.829-3.747c-2.114 0-3.828 1.678-3.828 3.747s1.714 3.747 3.828 3.747zm0-10.239c2.115 0 3.829-1.677 3.829-3.747 0-2.069-1.714-3.747-3.829-3.747-2.114 0-3.828 1.678-3.828 3.747 0 2.07 1.714 3.747 3.828 3.747zm10.463 10.239c2.114 0 3.828-1.678 3.828-3.747s-1.714-3.747-3.828-3.747c-2.115 0-3.829 1.678-3.829 3.747s1.714 3.747 3.829 3.747zm0-10.239c2.114 0 3.828-1.677 3.828-3.747 0-2.069-1.714-3.747-3.828-3.747-2.115 0-3.829 1.678-3.829 3.747 0 2.07 1.714 3.747 3.829 3.747zm10.462 10.239c2.114 0 3.828-1.678 3.828-3.747s-1.714-3.747-3.828-3.747c-2.115 0-3.829 1.678-3.829 3.747s1.714 3.747 3.829 3.747zm0-10.239c2.114 0 3.828-1.677 3.828-3.747 0-2.069-1.714-3.747-3.828-3.747-2.115 0-3.829 1.678-3.829 3.747 0 2.07 1.714 3.747 3.829 3.747zm-41.849-10.241c2.115 0 3.829-1.678 3.829-3.747 0-2.07-1.714-3.747-3.829-3.747-2.114 0-3.828 1.677-3.828 3.747 0 2.069 1.714 3.747 3.828 3.747zm10.462 0c2.115 0 3.829-1.678 3.829-3.747 0-2.07-1.714-3.747-3.829-3.747-2.114 0-3.828 1.677-3.828 3.747 0 2.069 1.714 3.747 3.828 3.747zm10.462 0c2.115 0 3.829-1.678 3.829-3.747 0-2.07-1.714-3.747-3.829-3.747-2.114 0-3.828 1.677-3.828 3.747 0 2.069 1.714 3.747 3.828 3.747zm10.463 0c2.114 0 3.828-1.678 3.828-3.747 0-2.07-1.714-3.747-3.828-3.747-2.115 0-3.829 1.677-3.829 3.747 0 2.069 1.714 3.747 3.829 3.747zm-31.387-10.239c2.115 0 3.829-1.678 3.829-3.747s-1.714-3.747-3.829-3.747c-2.114 0-3.828 1.678-3.828 3.747s1.714 3.747 3.828 3.747zm10.462 0c2.115 0 3.829-1.678 3.829-3.747s-1.714-3.747-3.829-3.747c-2.114 0-3.828 1.678-3.828 3.747s1.714 3.747 3.828 3.747zm10.462 0c2.115 0 3.829-1.678 3.829-3.747s-1.714-3.747-3.829-3.747c-2.114 0-3.828 1.678-3.828 3.747s1.714 3.747 3.828 3.747zm10.463 0c2.114 0 3.828-1.678 3.828-3.747s-1.714-3.747-3.828-3.747c-2.115 0-3.829 1.678-3.829 3.747s1.714 3.747 3.829 3.747zm83.692-51.197c2.114 0 3.828-1.677 3.828-3.747 0-2.069-1.714-3.747-3.828-3.747s-3.828 1.678-3.828 3.747c0 2.07 1.714 3.747 3.828 3.747zm-10.462 0c2.114 0 3.828-1.677 3.828-3.747 0-2.069-1.714-3.747-3.828-3.747s-3.828 1.678-3.828 3.747c0 2.07 1.714 3.747 3.828 3.747zm-10.462 0c2.114 0 3.828-1.677 3.828-3.747 0-2.069-1.714-3.747-3.828-3.747s-3.828 1.678-3.828 3.747c0 2.07 1.714 3.747 3.828 3.747zm-10.46 0c2.114 0 3.828-1.677 3.828-3.747 0-2.069-1.714-3.747-3.828-3.747s-3.828 1.678-3.828 3.747c0 2.07 1.714 3.747 3.828 3.747zm20.922 10.24c2.114 0 3.828-1.678 3.828-3.747 0-2.07-1.714-3.747-3.828-3.747s-3.828 1.677-3.828 3.747 1.714 3.747 3.828 3.747zm0 10.238c2.114 0 3.828-1.677 3.828-3.746 0-2.07-1.714-3.747-3.828-3.747s-3.828 1.677-3.828 3.747c0 2.069 1.714 3.746 3.828 3.746zm0 10.242c2.114 0 3.828-1.678 3.828-3.747s-1.714-3.747-3.828-3.747-3.828 1.678-3.828 3.747 1.714 3.747 3.828 3.747zm-41.846 10.238c2.114 0 3.828-1.678 3.828-3.747 0-2.07-1.714-3.747-3.828-3.747-2.115 0-3.828 1.677-3.828 3.747 0 2.069 1.713 3.747 3.828 3.747zm31.384-30.718c2.114 0 3.828-1.678 3.828-3.747 0-2.07-1.714-3.747-3.828-3.747s-3.828 1.677-3.828 3.747 1.714 3.747 3.828 3.747zm0 10.238c2.114 0 3.828-1.677 3.828-3.746 0-2.07-1.714-3.747-3.828-3.747s-3.828 1.677-3.828 3.747c0 2.069 1.714 3.746 3.828 3.746zm0 10.242c2.114 0 3.828-1.678 3.828-3.747s-1.714-3.747-3.828-3.747-3.828 1.678-3.828 3.747 1.714 3.747 3.828 3.747zm0 10.238c2.114 0 3.828-1.678 3.828-3.747 0-2.07-1.714-3.747-3.828-3.747s-3.828 1.677-3.828 3.747c0 2.069 1.714 3.747 3.828 3.747zm-10.46-30.718c2.114 0 3.828-1.678 3.828-3.747 0-2.07-1.714-3.747-3.828-3.747s-3.828 1.677-3.828 3.747 1.714 3.747 3.828 3.747zm0 10.238c2.114 0 3.828-1.677 3.828-3.746 0-2.07-1.714-3.747-3.828-3.747s-3.828 1.677-3.828 3.747c0 2.069 1.714 3.746 3.828 3.746zm0 10.242c2.114 0 3.828-1.678 3.828-3.747s-1.714-3.747-3.828-3.747-3.828 1.678-3.828 3.747 1.714 3.747 3.828 3.747zm0 10.238c2.114 0 3.828-1.678 3.828-3.747 0-2.07-1.714-3.747-3.828-3.747s-3.828 1.677-3.828 3.747c0 2.069 1.714 3.747 3.828 3.747zm-10.462-30.718c2.114 0 3.828-1.678 3.828-3.747 0-2.07-1.714-3.747-3.828-3.747s-3.828 1.677-3.828 3.747 1.714 3.747 3.828 3.747zm0 10.238c2.114 0 3.828-1.677 3.828-3.746 0-2.07-1.714-3.747-3.828-3.747s-3.828 1.677-3.828 3.747c0 2.069 1.714 3.746 3.828 3.746zm0 10.242c2.114 0 3.828-1.678 3.828-3.747s-1.714-3.747-3.828-3.747-3.828 1.678-3.828 3.747 1.714 3.747 3.828 3.747zm0 10.238c2.114 0 3.828-1.678 3.828-3.747 0-2.07-1.714-3.747-3.828-3.747s-3.828 1.677-3.828 3.747c0 2.069 1.714 3.747 3.828 3.747zm-10.462 112.633c2.114 0 3.828-1.678 3.828-3.747s-1.714-3.747-3.828-3.747c-2.115 0-3.828 1.678-3.828 3.747s1.713 3.747 3.828 3.747zm-10.462 0c2.114 0 3.828-1.678 3.828-3.747s-1.714-3.747-3.828-3.747-3.828 1.678-3.828 3.747 1.714 3.747 3.828 3.747zm-10.462 0c2.114 0 3.828-1.678 3.828-3.747s-1.714-3.747-3.828-3.747c-2.115 0-3.829 1.678-3.829 3.747s1.714 3.747 3.829 3.747zm-10.46 0c2.114 0 3.828-1.678 3.828-3.747s-1.714-3.747-3.828-3.747c-2.115 0-3.829 1.678-3.829 3.747s1.714 3.747 3.829 3.747zm31.384-10.238c2.114 0 3.828-1.677 3.828-3.746 0-2.07-1.714-3.747-3.828-3.747-2.115 0-3.828 1.677-3.828 3.747 0 2.069 1.713 3.746 3.828 3.746zm-10.462 0c2.114 0 3.828-1.677 3.828-3.746 0-2.07-1.714-3.747-3.828-3.747s-3.828 1.677-3.828 3.747c0 2.069 1.714 3.746 3.828 3.746zm-10.462 0c2.114 0 3.828-1.677 3.828-3.746 0-2.07-1.714-3.747-3.828-3.747-2.115 0-3.829 1.677-3.829 3.747 0 2.069 1.714 3.746 3.829 3.746zm-10.46 0c2.114 0 3.828-1.677 3.828-3.746 0-2.07-1.714-3.747-3.828-3.747-2.115 0-3.829 1.677-3.829 3.747 0 2.069 1.714 3.746 3.829 3.746z" fill="red" stroke="red" stroke-width="1.173"/><path d="M220.713 223.495c2.114 0 3.828-1.678 3.828-3.747s-1.714-3.747-3.828-3.747c-2.115 0-3.828 1.678-3.828 3.747s1.713 3.747 3.828 3.747zm-10.462 0c2.114 0 3.828-1.678 3.828-3.747s-1.714-3.747-3.828-3.747-3.828 1.678-3.828 3.747 1.714 3.747 3.828 3.747zm-10.462 0c2.114 0 3.828-1.678 3.828-3.747s-1.714-3.747-3.828-3.747c-2.115 0-3.829 1.678-3.829 3.747s1.714 3.747 3.829 3.747zm-10.46 0c2.114 0 3.828-1.678 3.828-3.747s-1.714-3.747-3.828-3.747c-2.115 0-3.829 1.678-3.829 3.747s1.714 3.747 3.829 3.747zm41.846-10.241c2.114 0 3.828-1.677 3.828-3.746 0-2.07-1.714-3.747-3.828-3.747s-3.828 1.677-3.828 3.747c0 2.069 1.714 3.746 3.828 3.746zm-10.462 0c2.114 0 3.828-1.677 3.828-3.746 0-2.07-1.714-3.747-3.828-3.747-2.115 0-3.828 1.677-3.828 3.747 0 2.069 1.713 3.746 3.828 3.746zm-10.462 0c2.114 0 3.828-1.677 3.828-3.746 0-2.07-1.714-3.747-3.828-3.747s-3.828 1.677-3.828 3.747c0 2.069 1.714 3.746 3.828 3.746zm-10.462 0c2.114 0 3.828-1.677 3.828-3.746 0-2.07-1.714-3.747-3.828-3.747-2.115 0-3.829 1.677-3.829 3.747 0 2.069 1.714 3.746 3.829 3.746zm31.386-10.239c2.114 0 3.828-1.677 3.828-3.746 0-2.07-1.714-3.747-3.828-3.747s-3.828 1.677-3.828 3.747c0 2.069 1.714 3.746 3.828 3.746zm0-10.24c2.114 0 3.828-1.677 3.828-3.747 0-2.069-1.714-3.747-3.828-3.747s-3.828 1.678-3.828 3.747c0 2.07 1.714 3.747 3.828 3.747zm-10.462 10.24c2.114 0 3.828-1.677 3.828-3.746 0-2.07-1.714-3.747-3.828-3.747-2.115 0-3.828 1.677-3.828 3.747 0 2.069 1.713 3.746 3.828 3.746zm0-10.24c2.114 0 3.828-1.677 3.828-3.747 0-2.069-1.714-3.747-3.828-3.747-2.115 0-3.828 1.678-3.828 3.747 0 2.07 1.713 3.747 3.828 3.747zm-10.462 10.24c2.114 0 3.828-1.677 3.828-3.746 0-2.07-1.714-3.747-3.828-3.747s-3.828 1.677-3.828 3.747c0 2.069 1.714 3.746 3.828 3.746zm0-10.24c2.114 0 3.828-1.677 3.828-3.747 0-2.069-1.714-3.747-3.828-3.747s-3.828 1.678-3.828 3.747c0 2.07 1.714 3.747 3.828 3.747zm-10.462 10.24c2.114 0 3.828-1.677 3.828-3.746 0-2.07-1.714-3.747-3.828-3.747-2.115 0-3.829 1.677-3.829 3.747 0 2.069 1.714 3.746 3.829 3.746zm0-10.24c2.114 0 3.828-1.677 3.828-3.747 0-2.069-1.714-3.747-3.828-3.747-2.115 0-3.829 1.678-3.829 3.747 0 2.07 1.714 3.747 3.829 3.747zm41.848-10.238c2.114 0 3.828-1.677 3.828-3.746 0-2.07-1.714-3.747-3.828-3.747s-3.828 1.677-3.828 3.747c0 2.069 1.714 3.746 3.828 3.746zm-10.462 0c2.114 0 3.828-1.677 3.828-3.746 0-2.07-1.714-3.747-3.828-3.747s-3.828 1.677-3.828 3.747c0 2.069 1.714 3.746 3.828 3.746zm-10.462 0c2.114 0 3.828-1.677 3.828-3.746 0-2.07-1.714-3.747-3.828-3.747-2.115 0-3.828 1.677-3.828 3.747 0 2.069 1.713 3.746 3.828 3.746zm-10.462 0c2.114 0 3.828-1.677 3.828-3.746 0-2.07-1.714-3.747-3.828-3.747s-3.828 1.677-3.828 3.747c0 2.069 1.714 3.746 3.828 3.746zm31.386-10.239c2.114 0 3.828-1.678 3.828-3.747s-1.714-3.747-3.828-3.747-3.828 1.678-3.828 3.747 1.714 3.747 3.828 3.747zm0-10.239c2.114 0 3.828-1.677 3.828-3.747 0-2.069-1.714-3.747-3.828-3.747s-3.828 1.678-3.828 3.747c0 2.07 1.714 3.747 3.828 3.747zm-10.462 10.239c2.114 0 3.828-1.678 3.828-3.747s-1.714-3.747-3.828-3.747-3.828 1.678-3.828 3.747 1.714 3.747 3.828 3.747zm0-10.239c2.114 0 3.828-1.677 3.828-3.747 0-2.069-1.714-3.747-3.828-3.747s-3.828 1.678-3.828 3.747c0 2.07 1.714 3.747 3.828 3.747zm-10.462 10.239c2.114 0 3.828-1.678 3.828-3.747s-1.714-3.747-3.828-3.747c-2.115 0-3.828 1.678-3.828 3.747s1.713 3.747 3.828 3.747zm0-10.239c2.114 0 3.828-1.677 3.828-3.747 0-2.069-1.714-3.747-3.828-3.747-2.115 0-3.828 1.678-3.828 3.747 0 2.07 1.713 3.747 3.828 3.747zm-10.462 10.239c2.114 0 3.828-1.678 3.828-3.747s-1.714-3.747-3.828-3.747-3.828 1.678-3.828 3.747 1.714 3.747 3.828 3.747zm0-10.239c2.114 0 3.828-1.677 3.828-3.747 0-2.069-1.714-3.747-3.828-3.747s-3.828 1.678-3.828 3.747c0 2.07 1.714 3.747 3.828 3.747zm41.846-10.241c2.114 0 3.828-1.678 3.828-3.747 0-2.07-1.714-3.747-3.828-3.747s-3.828 1.677-3.828 3.747c0 2.069 1.714 3.747 3.828 3.747zm-10.46 0c2.114 0 3.828-1.678 3.828-3.747 0-2.07-1.714-3.747-3.828-3.747s-3.828 1.677-3.828 3.747c0 2.069 1.714 3.747 3.828 3.747zm-10.462 0c2.114 0 3.828-1.678 3.828-3.747 0-2.07-1.714-3.747-3.828-3.747s-3.828 1.677-3.828 3.747c0 2.069 1.714 3.747 3.828 3.747zm-10.462 0c2.114 0 3.828-1.678 3.828-3.747 0-2.07-1.714-3.747-3.828-3.747-2.115 0-3.828 1.677-3.828 3.747 0 2.069 1.713 3.747 3.828 3.747zm31.384-10.239c2.114 0 3.828-1.678 3.828-3.747s-1.714-3.747-3.828-3.747-3.828 1.678-3.828 3.747 1.714 3.747 3.828 3.747zm-10.46 0c2.114 0 3.828-1.678 3.828-3.747s-1.714-3.747-3.828-3.747-3.828 1.678-3.828 3.747 1.714 3.747 3.828 3.747zm-10.462 0c2.114 0 3.828-1.678 3.828-3.747s-1.714-3.747-3.828-3.747-3.828 1.678-3.828 3.747 1.714 3.747 3.828 3.747zm-10.462 0c2.114 0 3.828-1.678 3.828-3.747s-1.714-3.747-3.828-3.747c-2.115 0-3.828 1.678-3.828 3.747s1.713 3.747 3.828 3.747z" fill="red" stroke="red" stroke-width="1.173"/><path d="M370.017 90.382c2.115 0 3.829-1.677 3.829-3.747 0-2.069-1.714-3.747-3.829-3.747-2.114 0-3.828 1.678-3.828 3.747 0 2.07 1.714 3.747 3.828 3.747zm10.462 0c2.115 0 3.829-1.677 3.829-3.747 0-2.069-1.714-3.747-3.829-3.747-2.114 0-3.828 1.678-3.828 3.747 0 2.07 1.714 3.747 3.828 3.747zm-10.462 10.24c2.115 0 3.829-1.678 3.829-3.747 0-2.07-1.714-3.747-3.829-3.747-2.114 0-3.828 1.677-3.828 3.747s1.714 3.747 3.828 3.747zm0 10.238c2.115 0 3.829-1.677 3.829-3.746 0-2.07-1.714-3.747-3.829-3.747-2.114 0-3.828 1.677-3.828 3.747 0 2.069 1.714 3.746 3.828 3.746zm0 10.242c2.115 0 3.829-1.678 3.829-3.747s-1.714-3.747-3.829-3.747c-2.114 0-3.828 1.678-3.828 3.747s1.714 3.747 3.828 3.747zm10.462-20.48c2.115 0 3.829-1.678 3.829-3.747 0-2.07-1.714-3.747-3.829-3.747-2.114 0-3.828 1.677-3.828 3.747s1.714 3.747 3.828 3.747zm0 10.238c2.115 0 3.829-1.677 3.829-3.746 0-2.07-1.714-3.747-3.829-3.747-2.114 0-3.828 1.677-3.828 3.747 0 2.069 1.714 3.746 3.828 3.746zm0 10.242c2.115 0 3.829-1.678 3.829-3.747s-1.714-3.747-3.829-3.747c-2.114 0-3.828 1.678-3.828 3.747s1.714 3.747 3.828 3.747zm0 10.238c2.115 0 3.829-1.678 3.829-3.747 0-2.07-1.714-3.747-3.829-3.747-2.114 0-3.828 1.677-3.828 3.747 0 2.069 1.714 3.747 3.828 3.747zm10.462 0c2.115 0 3.829-1.678 3.829-3.747 0-2.07-1.714-3.747-3.829-3.747-2.114 0-3.828 1.677-3.828 3.747 0 2.069 1.714 3.747 3.828 3.747zm41.847 112.633c2.114 0 3.828-1.678 3.828-3.747s-1.714-3.747-3.828-3.747-3.828 1.678-3.828 3.747 1.714 3.747 3.828 3.747zm10.462 0c2.114 0 3.828-1.678 3.828-3.747s-1.714-3.747-3.828-3.747-3.828 1.678-3.828 3.747 1.714 3.747 3.828 3.747zm-10.462-10.238c2.114 0 3.828-1.677 3.828-3.746 0-2.07-1.714-3.747-3.828-3.747s-3.828 1.677-3.828 3.747c0 2.069 1.714 3.746 3.828 3.746zm10.462 0c2.114 0 3.828-1.677 3.828-3.746 0-2.07-1.714-3.747-3.828-3.747s-3.828 1.677-3.828 3.747c0 2.069 1.714 3.746 3.828 3.746zm-10.462-10.24c2.114 0 3.828-1.678 3.828-3.747s-1.714-3.747-3.828-3.747-3.828 1.678-3.828 3.747 1.714 3.747 3.828 3.747zm10.462 0c2.114 0 3.828-1.678 3.828-3.747s-1.714-3.747-3.828-3.747-3.828 1.678-3.828 3.747 1.714 3.747 3.828 3.747zm-20.924-10.24c2.114 0 3.828-1.677 3.828-3.747 0-2.069-1.714-3.747-3.828-3.747-2.115 0-3.829 1.678-3.829 3.747 0 2.07 1.714 3.747 3.829 3.747zm10.462 0c2.114 0 3.828-1.677 3.828-3.747 0-2.069-1.714-3.747-3.828-3.747s-3.828 1.678-3.828 3.747c0 2.07 1.714 3.747 3.828 3.747zm-31.384-20.48c2.114 0 3.828-1.677 3.828-3.747 0-2.069-1.714-3.747-3.828-3.747-2.115 0-3.829 1.678-3.829 3.747 0 2.07 1.714 3.747 3.829 3.747zm10.46 10.24c2.114 0 3.828-1.677 3.828-3.746 0-2.07-1.714-3.747-3.828-3.747s-3.828 1.677-3.828 3.747c0 2.069 1.714 3.746 3.828 3.746zm0-10.24c2.114 0 3.828-1.677 3.828-3.747 0-2.069-1.714-3.747-3.828-3.747s-3.828 1.678-3.828 3.747c0 2.07 1.714 3.747 3.828 3.747zm10.462 10.24c2.114 0 3.828-1.677 3.828-3.746 0-2.07-1.714-3.747-3.828-3.747-2.115 0-3.829 1.677-3.829 3.747 0 2.069 1.714 3.746 3.829 3.746zm0-10.24c2.114 0 3.828-1.677 3.828-3.747 0-2.069-1.714-3.747-3.828-3.747-2.115 0-3.829 1.678-3.829 3.747 0 2.07 1.714 3.747 3.829 3.747zm10.462 10.24c2.114 0 3.828-1.677 3.828-3.746 0-2.07-1.714-3.747-3.828-3.747s-3.828 1.677-3.828 3.747c0 2.069 1.714 3.746 3.828 3.746zm0-10.24c2.114 0 3.828-1.677 3.828-3.747 0-2.069-1.714-3.747-3.828-3.747s-3.828 1.678-3.828 3.747c0 2.07 1.714 3.747 3.828 3.747zm-41.847-10.238c2.115 0 3.829-1.677 3.829-3.747 0-2.069-1.714-3.746-3.829-3.746-2.114 0-3.828 1.677-3.828 3.746 0 2.07 1.714 3.747 3.828 3.747zm10.463 0c2.114 0 3.828-1.677 3.828-3.747 0-2.069-1.714-3.746-3.828-3.746-2.115 0-3.829 1.677-3.829 3.746 0 2.07 1.714 3.747 3.829 3.747zm10.46 0c2.114 0 3.828-1.677 3.828-3.747 0-2.069-1.714-3.746-3.828-3.746s-3.828 1.677-3.828 3.746c0 2.07 1.714 3.747 3.828 3.747zm10.462 0c2.114 0 3.828-1.677 3.828-3.747 0-2.069-1.714-3.746-3.828-3.746-2.115 0-3.829 1.677-3.829 3.746 0 2.07 1.714 3.747 3.829 3.747zm-31.385-10.239c2.115 0 3.829-1.678 3.829-3.747s-1.714-3.747-3.829-3.747c-2.114 0-3.828 1.678-3.828 3.747s1.714 3.747 3.828 3.747zm0-10.239c2.115 0 3.829-1.678 3.829-3.747s-1.714-3.747-3.829-3.747c-2.114 0-3.828 1.678-3.828 3.747s1.714 3.747 3.828 3.747zm10.463 10.239c2.114 0 3.828-1.678 3.828-3.747s-1.714-3.747-3.828-3.747c-2.115 0-3.829 1.678-3.829 3.747s1.714 3.747 3.829 3.747zm0-10.239c2.114 0 3.828-1.678 3.828-3.747s-1.714-3.747-3.828-3.747c-2.115 0-3.829 1.678-3.829 3.747s1.714 3.747 3.829 3.747zm10.46 10.239c2.114 0 3.828-1.678 3.828-3.747s-1.714-3.747-3.828-3.747-3.828 1.678-3.828 3.747 1.714 3.747 3.828 3.747zm0-10.239c2.114 0 3.828-1.678 3.828-3.747s-1.714-3.747-3.828-3.747-3.828 1.678-3.828 3.747 1.714 3.747 3.828 3.747zm10.462 10.239c2.114 0 3.828-1.678 3.828-3.747s-1.714-3.747-3.828-3.747c-2.115 0-3.829 1.678-3.829 3.747s1.714 3.747 3.829 3.747zm0-10.239c2.114 0 3.828-1.678 3.828-3.747s-1.714-3.747-3.828-3.747c-2.115 0-3.829 1.678-3.829 3.747s1.714 3.747 3.829 3.747zm-41.847-10.241c2.115 0 3.829-1.678 3.829-3.747s-1.714-3.747-3.829-3.747c-2.114 0-3.828 1.678-3.828 3.747s1.714 3.747 3.828 3.747zm10.462 0c2.115 0 3.829-1.678 3.829-3.747s-1.714-3.747-3.829-3.747c-2.114 0-3.828 1.678-3.828 3.747s1.714 3.747 3.828 3.747zm10.463 0c2.114 0 3.828-1.678 3.828-3.747s-1.714-3.747-3.828-3.747c-2.115 0-3.829 1.678-3.829 3.747s1.714 3.747 3.829 3.747zm10.46 0c2.114 0 3.828-1.678 3.828-3.747s-1.714-3.747-3.828-3.747-3.828 1.678-3.828 3.747 1.714 3.747 3.828 3.747zm-31.385-10.239c2.115 0 3.829-1.678 3.829-3.747s-1.714-3.747-3.829-3.747c-2.114 0-3.828 1.678-3.828 3.747s1.714 3.747 3.828 3.747zm10.462 0c2.115 0 3.829-1.678 3.829-3.747s-1.714-3.747-3.829-3.747c-2.114 0-3.828 1.678-3.828 3.747s1.714 3.747 3.828 3.747zm10.463 0c2.114 0 3.828-1.678 3.828-3.747s-1.714-3.747-3.828-3.747c-2.115 0-3.829 1.678-3.829 3.747s1.714 3.747 3.829 3.747z" fill="#000" stroke="#000" stroke-width="1.173"/><path d="M273.021 80.142c2.114 0 3.828-1.677 3.828-3.747 0-2.069-1.714-3.746-3.828-3.746s-3.828 1.677-3.828 3.746c0 2.07 1.714 3.747 3.828 3.747zm0-10.239c2.114 0 3.828-1.677 3.828-3.747s-1.714-3.747-3.828-3.747-3.828 1.678-3.828 3.747c0 2.07 1.714 3.747 3.828 3.747zm-10.462 10.239c2.114 0 3.828-1.677 3.828-3.747 0-2.069-1.714-3.746-3.828-3.746s-3.828 1.677-3.828 3.746c0 2.07 1.714 3.747 3.828 3.747zm0-10.239c2.114 0 3.828-1.677 3.828-3.747s-1.714-3.747-3.828-3.747-3.828 1.678-3.828 3.747c0 2.07 1.714 3.747 3.828 3.747zm-10.462 10.239c2.114 0 3.828-1.677 3.828-3.747 0-2.069-1.714-3.746-3.828-3.746s-3.828 1.677-3.828 3.746c0 2.07 1.714 3.747 3.828 3.747zm0-10.239c2.114 0 3.828-1.677 3.828-3.747s-1.714-3.747-3.828-3.747-3.828 1.678-3.828 3.747c0 2.07 1.714 3.747 3.828 3.747zm-10.46 10.239c2.114 0 3.828-1.677 3.828-3.747 0-2.069-1.714-3.746-3.828-3.746s-3.828 1.677-3.828 3.746c0 2.07 1.714 3.747 3.828 3.747zm0-10.239c2.114 0 3.828-1.677 3.828-3.747s-1.714-3.747-3.828-3.747-3.828 1.678-3.828 3.747c0 2.07 1.714 3.747 3.828 3.747zm41.846-10.239c2.114 0 3.828-1.678 3.828-3.747 0-2.07-1.714-3.747-3.828-3.747s-3.828 1.678-3.828 3.747c0 2.07 1.714 3.747 3.828 3.747zm-10.462 0c2.114 0 3.828-1.678 3.828-3.747 0-2.07-1.714-3.747-3.828-3.747s-3.828 1.678-3.828 3.747c0 2.07 1.714 3.747 3.828 3.747zm-10.462 0c2.114 0 3.828-1.678 3.828-3.747 0-2.07-1.714-3.747-3.828-3.747s-3.828 1.678-3.828 3.747c0 2.07 1.714 3.747 3.828 3.747zm-10.462 0c2.114 0 3.828-1.678 3.828-3.747 0-2.07-1.714-3.747-3.828-3.747s-3.828 1.678-3.828 3.747c0 2.07 1.714 3.747 3.828 3.747zm31.386-10.238c2.114 0 3.828-1.678 3.828-3.747 0-2.07-1.714-3.747-3.828-3.747s-3.828 1.677-3.828 3.747 1.714 3.747 3.828 3.747zm0-10.241c2.114 0 3.828-1.678 3.828-3.747 0-2.07-1.714-3.747-3.828-3.747s-3.828 1.678-3.828 3.747c0 2.07 1.714 3.747 3.828 3.747zm-10.462 10.241c2.114 0 3.828-1.678 3.828-3.747 0-2.07-1.714-3.747-3.828-3.747s-3.828 1.677-3.828 3.747 1.714 3.747 3.828 3.747zm0-10.241c2.114 0 3.828-1.678 3.828-3.747 0-2.07-1.714-3.747-3.828-3.747s-3.828 1.678-3.828 3.747c0 2.07 1.714 3.747 3.828 3.747zm-10.462 10.241c2.114 0 3.828-1.678 3.828-3.747 0-2.07-1.714-3.747-3.828-3.747s-3.828 1.677-3.828 3.747 1.714 3.747 3.828 3.747zm0-10.241c2.114 0 3.828-1.678 3.828-3.747 0-2.07-1.714-3.747-3.828-3.747s-3.828 1.678-3.828 3.747c0 2.07 1.714 3.747 3.828 3.747zm-10.462 10.241c2.114 0 3.828-1.678 3.828-3.747 0-2.07-1.714-3.747-3.828-3.747s-3.828 1.677-3.828 3.747 1.714 3.747 3.828 3.747zm41.846-20.479c2.114 0 3.828-1.678 3.828-3.747 0-2.07-1.714-3.747-3.828-3.747s-3.828 1.677-3.828 3.747c0 2.069 1.714 3.747 3.828 3.747zm-10.46 0c2.114 0 3.828-1.678 3.828-3.747 0-2.07-1.714-3.747-3.828-3.747s-3.828 1.677-3.828 3.747c0 2.069 1.714 3.747 3.828 3.747zm-10.462 0c2.114 0 3.828-1.678 3.828-3.747 0-2.07-1.714-3.747-3.828-3.747s-3.828 1.677-3.828 3.747c0 2.069 1.714 3.747 3.828 3.747zm20.922-10.24c2.114 0 3.828-1.678 3.828-3.747 0-2.07-1.714-3.747-3.828-3.747s-3.828 1.678-3.828 3.747c0 2.07 1.714 3.747 3.828 3.747zm0-10.241c2.114 0 3.828-1.677 3.828-3.746 0-2.07-1.714-3.747-3.828-3.747s-3.828 1.677-3.828 3.747c0 2.069 1.714 3.746 3.828 3.746zm-10.46 10.241c2.114 0 3.828-1.678 3.828-3.747 0-2.07-1.714-3.747-3.828-3.747s-3.828 1.678-3.828 3.747c0 2.07 1.714 3.747 3.828 3.747z" fill="red" stroke="red" stroke-width="1.173"/></svg>