<svg width="112" height="62" fill="none" xmlns="http://www.w3.org/2000/svg"><path d="M1.743 23.076c.503 0 .91-.414.91-.925a.918.918 0 00-.91-.925.918.918 0 00-.91.925c0 .511.408.925.91.925zm2.487 0c.502 0 .91-.414.91-.925a.918.918 0 00-.91-.925.918.918 0 00-.91.925c0 .511.407.925.91.925zm2.487 0c.502 0 .91-.414.91-.925a.918.918 0 00-.91-.925.918.918 0 00-.91.925c0 .511.407.925.91.925zm2.486 0c.503 0 .91-.414.91-.925a.918.918 0 00-.91-.925.918.918 0 00-.91.925c0 .511.408.925.91.925zm2.487 0c.502 0 .91-.414.91-.925a.918.918 0 00-.91-.925.918.918 0 00-.91.925c0 .511.407.925.91.925zm2.486 0c.503 0 .91-.414.91-.925a.918.918 0 00-.91-.925.918.918 0 00-.91.925c0 .511.408.925.91.925zm2.487 0c.503 0 .91-.414.91-.925a.918.918 0 00-.91-.925.918.918 0 00-.91.925c0 .511.407.925.91.925zm2.487 0c.502 0 .91-.414.91-.925a.918.918 0 00-.91-.925.918.918 0 00-.91.925c0 .511.407.925.91.925zm2.486 0c.503 0 .91-.414.91-.925a.918.918 0 00-.91-.925.918.918 0 00-.91.925c0 .511.408.925.91.925zm2.487 0c.502 0 .91-.414.91-.925a.918.918 0 00-.91-.925.918.918 0 00-.91.925c0 .511.407.925.91.925zm2.487 0c.502 0 .91-.414.91-.925a.918.918 0 00-.91-.925.918.918 0 00-.91.925c0 .511.407.925.91.925zm2.486 0c.503 0 .91-.414.91-.925a.918.918 0 00-.91-.925.918.918 0 00-.91.925c0 .511.407.925.91.925zM1.743 25.604c.503 0 .91-.414.91-.925a.918.918 0 00-.91-.925.918.918 0 00-.91.925c0 .511.408.925.91.925zm0 2.529c.503 0 .91-.414.91-.925a.918.918 0 00-.91-.925.918.918 0 00-.91.925c0 .51.408.925.91.925zm0 2.529c.503 0 .91-.415.91-.926a.918.918 0 00-.91-.925.918.918 0 00-.91.925c0 .511.408.926.91.926zm2.487-5.058c.502 0 .91-.414.91-.925a.918.918 0 00-.91-.925.918.918 0 00-.91.925c0 .511.407.925.91.925zm0 2.529c.502 0 .91-.414.91-.925a.918.918 0 00-.91-.925.918.918 0 00-.91.925c0 .51.407.925.91.925zm0 2.529c.502 0 .91-.415.91-.926a.918.918 0 00-.91-.925.918.918 0 00-.91.925c0 .511.407.926.91.926zm2.487-5.058c.502 0 .91-.414.91-.925a.918.918 0 00-.91-.925.918.918 0 00-.91.925c0 .511.407.925.91.925zm0 2.529c.502 0 .91-.414.91-.925a.918.918 0 00-.91-.925.918.918 0 00-.91.925c0 .51.407.925.91.925zm0 2.529c.502 0 .91-.415.91-.926a.918.918 0 00-.91-.925.918.918 0 00-.91.925c0 .511.407.926.91.926zm2.486-5.058c.503 0 .91-.414.91-.925a.918.918 0 00-.91-.925.918.918 0 00-.91.925c0 .511.408.925.91.925zm0 2.529c.503 0 .91-.414.91-.925a.918.918 0 00-.91-.925.918.918 0 00-.91.925c0 .51.408.925.91.925zm0 2.529c.503 0 .91-.415.91-.926a.918.918 0 00-.91-.925.918.918 0 00-.91.925c0 .511.408.926.91.926zm2.487-5.058c.502 0 .91-.414.91-.925a.918.918 0 00-.91-.925.918.918 0 00-.91.925c0 .511.407.925.91.925zm0 2.529c.502 0 .91-.414.91-.925a.918.918 0 00-.91-.925.918.918 0 00-.91.925c0 .51.407.925.91.925zm0 2.529c.502 0 .91-.415.91-.926a.918.918 0 00-.91-.925.918.918 0 00-.91.925c0 .511.407.926.91.926zm2.486-5.058c.503 0 .91-.414.91-.925a.918.918 0 00-.91-.925.918.918 0 00-.91.925c0 .511.408.925.91.925zm0 2.529c.503 0 .91-.414.91-.925a.918.918 0 00-.91-.925.918.918 0 00-.91.925c0 .51.408.925.91.925zm0 2.529c.503 0 .91-.415.91-.926a.918.918 0 00-.91-.925.918.918 0 00-.91.925c0 .511.408.926.91.926zm2.487-5.058c.503 0 .91-.414.91-.925a.918.918 0 00-.91-.925.918.918 0 00-.91.925c0 .511.407.925.91.925zm0 2.529c.503 0 .91-.414.91-.925a.918.918 0 00-.91-.925.918.918 0 00-.91.925c0 .51.407.925.91.925zm0 2.529c.503 0 .91-.415.91-.926a.918.918 0 00-.91-.925.918.918 0 00-.91.925c0 .511.407.926.91.926zm2.487-5.058c.502 0 .91-.414.91-.925a.918.918 0 00-.91-.925.918.918 0 00-.91.925c0 .511.407.925.91.925zm0 2.529c.502 0 .91-.414.91-.925a.918.918 0 00-.91-.925.918.918 0 00-.91.925c0 .51.407.925.91.925zm0 2.529c.502 0 .91-.415.91-.926a.918.918 0 00-.91-.925.918.918 0 00-.91.925c0 .511.407.926.91.926zm2.486-5.058c.503 0 .91-.414.91-.925a.918.918 0 00-.91-.925.918.918 0 00-.91.925c0 .511.408.925.91.925zm0 2.529c.503 0 .91-.414.91-.925a.918.918 0 00-.91-.925.918.918 0 00-.91.925c0 .51.408.925.91.925zm0 2.529c.503 0 .91-.415.91-.926a.918.918 0 00-.91-.925.918.918 0 00-.91.925c0 .511.408.926.91.926zm2.487-5.058c.502 0 .91-.414.91-.925a.918.918 0 00-.91-.925.918.918 0 00-.91.925c0 .511.407.925.91.925zm0 2.529c.502 0 .91-.414.91-.925a.918.918 0 00-.91-.925.918.918 0 00-.91.925c0 .51.407.925.91.925zm0 2.529c.502 0 .91-.415.91-.926a.918.918 0 00-.91-.925.918.918 0 00-.91.925c0 .511.407.926.91.926zm2.487-5.058c.502 0 .91-.414.91-.925a.918.918 0 00-.91-.925.918.918 0 00-.91.925c0 .511.407.925.91.925zm0 2.529c.502 0 .91-.414.91-.925a.918.918 0 00-.91-.925.918.918 0 00-.91.925c0 .51.407.925.91.925zm0 2.529c.502 0 .91-.415.91-.926a.918.918 0 00-.91-.925.918.918 0 00-.91.925c0 .511.407.926.91.926zm2.486-5.058c.503 0 .91-.414.91-.925a.918.918 0 00-.91-.925.918.918 0 00-.91.925c0 .511.407.925.91.925zm0 2.529c.503 0 .91-.414.91-.925a.918.918 0 00-.91-.925.918.918 0 00-.91.925c0 .51.407.925.91.925zm0 2.529c.503 0 .91-.415.91-.926a.918.918 0 00-.91-.925.918.918 0 00-.91.925c0 .511.407.926.91.926zM11.69 33.19c.502 0 .91-.415.91-.926a.918.918 0 00-.91-.925.918.918 0 00-.91.925c0 .511.407.925.91.925zm0 2.528c.502 0 .91-.415.91-.926a.918.918 0 00-.91-.925.918.918 0 00-.91.925c0 .511.407.925.91.925zm0 2.528c.502 0 .91-.414.91-.925a.918.918 0 00-.91-.925.918.918 0 00-.91.925c0 .51.407.925.91.925zm0 2.528c.502 0 .91-.414.91-.925a.918.918 0 00-.91-.925.918.918 0 00-.91.925c0 .511.407.925.91.925zm0 2.528c.502 0 .91-.414.91-.925a.918.918 0 00-.91-.925.918.918 0 00-.91.925c0 .511.407.925.91.925zm0 2.528c.502 0 .91-.414.91-.925a.918.918 0 00-.91-.925.918.918 0 00-.91.925c0 .511.407.925.91.925zm0 2.529c.502 0 .91-.415.91-.926a.918.918 0 00-.91-.925.918.918 0 00-.91.925c0 .511.407.926.91.926zm0 2.528c.502 0 .91-.414.91-.925a.918.918 0 00-.91-.925.918.918 0 00-.91.925c0 .51.407.925.91.925zm0 2.528c.502 0 .91-.414.91-.925a.918.918 0 00-.91-.925.918.918 0 00-.91.925c0 .51.407.925.91.925zm0 2.529c.502 0 .91-.415.91-.926a.918.918 0 00-.91-.925.918.918 0 00-.91.925c0 .511.407.925.91.925zm0 2.528c.502 0 .91-.414.91-.925a.918.918 0 00-.91-.925.918.918 0 00-.91.925c0 .51.407.925.91.925zm0 2.528c.502 0 .91-.414.91-.925a.918.918 0 00-.91-.925.918.918 0 00-.91.925c0 .51.407.925.91.925zm2.486-27.81c.503 0 .91-.415.91-.926a.918.918 0 00-.91-.925.918.918 0 00-.91.925c0 .511.408.925.91.925zm0 2.528c.503 0 .91-.415.91-.926a.918.918 0 00-.91-.925.918.918 0 00-.91.925c0 .511.408.925.91.925zm0 2.528c.503 0 .91-.414.91-.925a.918.918 0 00-.91-.925.918.918 0 00-.91.925c0 .51.408.925.91.925zm0 2.528c.503 0 .91-.414.91-.925a.918.918 0 00-.91-.925.918.918 0 00-.91.925c0 .511.408.925.91.925zm0 2.528c.503 0 .91-.414.91-.925a.918.918 0 00-.91-.925.918.918 0 00-.91.925c0 .511.408.925.91.925zm0 2.528c.503 0 .91-.414.91-.925a.918.918 0 00-.91-.925.918.918 0 00-.91.925c0 .511.408.925.91.925zm0 2.529c.503 0 .91-.415.91-.926a.918.918 0 00-.91-.925.918.918 0 00-.91.925c0 .511.408.926.91.926zm0 2.528c.503 0 .91-.414.91-.925a.918.918 0 00-.91-.925.918.918 0 00-.91.925c0 .51.408.925.91.925zm0 2.528c.503 0 .91-.414.91-.925a.918.918 0 00-.91-.925.918.918 0 00-.91.925c0 .51.408.925.91.925zm0 2.529c.503 0 .91-.415.91-.926a.918.918 0 00-.91-.925.918.918 0 00-.91.925c0 .511.408.925.91.925zm0 2.528c.503 0 .91-.414.91-.925a.918.918 0 00-.91-.925.918.918 0 00-.91.925c0 .51.408.925.91.925zm0 2.528c.503 0 .91-.414.91-.925a.918.918 0 00-.91-.925.918.918 0 00-.91.925c0 .51.408.925.91.925zm2.487-27.81c.503 0 .91-.415.91-.926a.918.918 0 00-.91-.925.918.918 0 00-.91.925c0 .511.407.925.91.925zm0 2.528c.503 0 .91-.415.91-.926a.918.918 0 00-.91-.925.918.918 0 00-.91.925c0 .511.407.925.91.925zm0 2.528c.503 0 .91-.414.91-.925a.918.918 0 00-.91-.925.918.918 0 00-.91.925c0 .51.407.925.91.925zm0 2.528c.503 0 .91-.414.91-.925a.918.918 0 00-.91-.925.918.918 0 00-.91.925c0 .511.407.925.91.925zm0 2.528c.503 0 .91-.414.91-.925a.918.918 0 00-.91-.925.918.918 0 00-.91.925c0 .511.407.925.91.925zm0 2.528c.503 0 .91-.414.91-.925a.918.918 0 00-.91-.925.918.918 0 00-.91.925c0 .511.407.925.91.925zm0 2.529c.503 0 .91-.415.91-.926a.918.918 0 00-.91-.925.918.918 0 00-.91.925c0 .511.407.926.91.926zm0 2.528c.503 0 .91-.414.91-.925a.918.918 0 00-.91-.925.918.918 0 00-.91.925c0 .51.407.925.91.925zm0 2.528c.503 0 .91-.414.91-.925a.918.918 0 00-.91-.925.918.918 0 00-.91.925c0 .51.407.925.91.925zm0 2.529c.503 0 .91-.415.91-.926a.918.918 0 00-.91-.925.918.918 0 00-.91.925c0 .511.407.925.91.925zm0 2.528c.503 0 .91-.414.91-.925a.918.918 0 00-.91-.925.918.918 0 00-.91.925c0 .51.407.925.91.925zm0 2.528c.503 0 .91-.414.91-.925a.918.918 0 00-.91-.925.918.918 0 00-.91.925c0 .51.407.925.91.925zm2.487-27.81c.502 0 .91-.415.91-.926a.918.918 0 00-.91-.925.918.918 0 00-.91.925c0 .511.407.925.91.925zm0 2.528c.502 0 .91-.415.91-.926a.918.918 0 00-.91-.925.918.918 0 00-.91.925c0 .511.407.925.91.925zm0 2.528c.502 0 .91-.414.91-.925a.918.918 0 00-.91-.925.918.918 0 00-.91.925c0 .51.407.925.91.925zm0 2.528c.502 0 .91-.414.91-.925a.918.918 0 00-.91-.925.918.918 0 00-.91.925c0 .511.407.925.91.925zm0 2.528c.502 0 .91-.414.91-.925a.918.918 0 00-.91-.925.918.918 0 00-.91.925c0 .511.407.925.91.925zm0 2.528c.502 0 .91-.414.91-.925a.918.918 0 00-.91-.925.918.918 0 00-.91.925c0 .511.407.925.91.925zm0 2.529c.502 0 .91-.415.91-.926a.918.918 0 00-.91-.925.918.918 0 00-.91.925c0 .511.407.926.91.926zm0 2.528c.502 0 .91-.414.91-.925a.918.918 0 00-.91-.925.918.918 0 00-.91.925c0 .51.407.925.91.925zm0 2.528c.502 0 .91-.414.91-.925a.918.918 0 00-.91-.925.918.918 0 00-.91.925c0 .51.407.925.91.925zm0 2.529c.502 0 .91-.415.91-.926a.918.918 0 00-.91-.925.918.918 0 00-.91.925c0 .511.407.925.91.925zm0 2.528c.502 0 .91-.414.91-.925a.918.918 0 00-.91-.925.918.918 0 00-.91.925c0 .51.407.925.91.925zm0 2.528c.502 0 .91-.414.91-.925a.918.918 0 00-.91-.925.918.918 0 00-.91.925c0 .51.407.925.91.925z" fill="#000" stroke="#000" stroke-width=".326"/><path d="M35.65 23.076c.503 0 .91-.414.91-.925a.918.918 0 00-.91-.925.918.918 0 00-.91.925c0 .511.408.925.91.925zm2.487 0c.502 0 .91-.414.91-.925a.918.918 0 00-.91-.925.918.918 0 00-.91.925c0 .511.407.925.91.925zm2.486 0c.503 0 .91-.414.91-.925a.918.918 0 00-.91-.925.918.918 0 00-.91.925c0 .511.408.925.91.925zm2.487 0c.503 0 .91-.414.91-.925a.918.918 0 00-.91-.925.918.918 0 00-.91.925c0 .511.408.925.91.925zm-7.46 2.528c.503 0 .91-.414.91-.925a.918.918 0 00-.91-.925.918.918 0 00-.91.925c0 .511.408.925.91.925zm0 2.529c.503 0 .91-.414.91-.925a.918.918 0 00-.91-.925.918.918 0 00-.91.925c0 .51.408.925.91.925zm0 2.529c.503 0 .91-.415.91-.926a.918.918 0 00-.91-.925.918.918 0 00-.91.925c0 .511.408.926.91.926zm9.947 2.528c.502 0 .91-.415.91-.926a.918.918 0 00-.91-.925.918.918 0 00-.91.925c0 .511.407.925.91.925zm-7.46-7.586c.502 0 .91-.414.91-.925a.918.918 0 00-.91-.925.918.918 0 00-.91.925c0 .511.407.925.91.925zm0 2.529c.502 0 .91-.414.91-.925a.918.918 0 00-.91-.925.918.918 0 00-.91.925c0 .51.407.925.91.925zm0 2.529c.502 0 .91-.415.91-.926a.918.918 0 00-.91-.925.918.918 0 00-.91.925c0 .511.407.926.91.926zm0 2.528c.502 0 .91-.415.91-.926a.918.918 0 00-.91-.925.918.918 0 00-.91.925c0 .511.407.925.91.925zm2.486-7.586c.503 0 .91-.414.91-.925a.918.918 0 00-.91-.925.918.918 0 00-.91.925c0 .511.408.925.91.925zm0 2.529c.503 0 .91-.414.91-.925a.918.918 0 00-.91-.925.918.918 0 00-.91.925c0 .51.408.925.91.925zm0 2.529c.503 0 .91-.415.91-.926a.918.918 0 00-.91-.925.918.918 0 00-.91.925c0 .511.408.926.91.926zm0 2.528c.503 0 .91-.415.91-.926a.918.918 0 00-.91-.925.918.918 0 00-.91.925c0 .511.408.925.91.925zm2.487-7.586c.503 0 .91-.414.91-.925a.918.918 0 00-.91-.925.918.918 0 00-.91.925c0 .511.408.925.91.925zm0 2.529c.503 0 .91-.414.91-.925a.918.918 0 00-.91-.925.918.918 0 00-.91.925c0 .51.408.925.91.925zm0 2.529c.503 0 .91-.415.91-.926a.918.918 0 00-.91-.925.918.918 0 00-.91.925c0 .511.408.926.91.926zm0 2.528c.503 0 .91-.415.91-.926a.918.918 0 00-.91-.925.918.918 0 00-.91.925c0 .511.408.925.91.925zM45.597 61c.502 0 .91-.414.91-.925a.918.918 0 00-.91-.925.918.918 0 00-.91.925c0 .51.407.925.91.925zm2.487 0c.502 0 .91-.414.91-.925a.918.918 0 00-.91-.925.918.918 0 00-.91.925c0 .51.407.925.91.925zm2.486 0c.502 0 .91-.414.91-.925a.918.918 0 00-.91-.925.918.918 0 00-.91.925c0 .51.407.925.91.925zm2.486 0c.503 0 .91-.414.91-.925a.918.918 0 00-.91-.925.918.918 0 00-.91.925c0 .51.408.925.91.925zm-7.459-2.528c.502 0 .91-.414.91-.925a.918.918 0 00-.91-.925.918.918 0 00-.91.925c0 .51.407.925.91.925zm2.487 0c.502 0 .91-.414.91-.925a.918.918 0 00-.91-.925.918.918 0 00-.91.925c0 .51.407.925.91.925zm2.486 0c.502 0 .91-.414.91-.925a.918.918 0 00-.91-.925.918.918 0 00-.91.925c0 .51.407.925.91.925zm2.486 0c.503 0 .91-.414.91-.925a.918.918 0 00-.91-.925.918.918 0 00-.91.925c0 .51.408.925.91.925z" fill="red" stroke="red" stroke-width=".326"/><path d="M69.557 23.076c.502 0 .91-.414.91-.925a.918.918 0 00-.91-.925.918.918 0 00-.91.925c0 .511.407.925.91.925zm2.487 0c.502 0 .91-.414.91-.925a.918.918 0 00-.91-.925.918.918 0 00-.91.925c0 .511.407.925.91.925zm2.486 0c.503 0 .91-.414.91-.925a.918.918 0 00-.91-.925.918.918 0 00-.91.925c0 .511.408.925.91.925zm2.487 0c.503 0 .91-.414.91-.925a.918.918 0 00-.91-.925.918.918 0 00-.91.925c0 .511.408.925.91.925zm-7.46 2.528c.502 0 .91-.414.91-.925a.918.918 0 00-.91-.925.918.918 0 00-.91.925c0 .511.407.925.91.925zm0 2.529c.502 0 .91-.414.91-.925a.918.918 0 00-.91-.925.918.918 0 00-.91.925c0 .51.407.925.91.925zm0 2.529c.502 0 .91-.415.91-.926a.918.918 0 00-.91-.925.918.918 0 00-.91.925c0 .511.407.926.91.926zm0 2.528c.502 0 .91-.415.91-.926a.918.918 0 00-.91-.925.918.918 0 00-.91.925c0 .511.407.925.91.925zm0 2.528c.502 0 .91-.415.91-.926a.918.918 0 00-.91-.925.918.918 0 00-.91.925c0 .511.407.925.91.925zm0 2.528c.502 0 .91-.414.91-.925a.918.918 0 00-.91-.925.918.918 0 00-.91.925c0 .51.407.925.91.925zm0 2.528c.502 0 .91-.414.91-.925a.918.918 0 00-.91-.925.918.918 0 00-.91.925c0 .511.407.925.91.925zm0 2.528c.502 0 .91-.414.91-.925a.918.918 0 00-.91-.925.918.918 0 00-.91.925c0 .511.407.925.91.925zm0 2.528c.502 0 .91-.414.91-.925a.918.918 0 00-.91-.925.918.918 0 00-.91.925c0 .511.407.925.91.925zm0 2.529c.502 0 .91-.415.91-.926a.918.918 0 00-.91-.925.918.918 0 00-.91.925c0 .511.407.926.91.926zm0 2.528c.502 0 .91-.414.91-.925a.918.918 0 00-.91-.925.918.918 0 00-.91.925c0 .51.407.925.91.925zm0 2.528c.502 0 .91-.414.91-.925a.918.918 0 00-.91-.925.918.918 0 00-.91.925c0 .511.407.925.91.925zm0 2.529c.502 0 .91-.415.91-.926a.918.918 0 00-.91-.925.918.918 0 00-.91.925c0 .511.407.925.91.925zm0 2.528c.502 0 .91-.414.91-.925a.918.918 0 00-.91-.925.918.918 0 00-.91.925c0 .51.407.925.91.925zm0 2.528c.502 0 .91-.414.91-.925a.918.918 0 00-.91-.925.918.918 0 00-.91.925c0 .51.407.925.91.925zm2.487-35.396c.502 0 .91-.414.91-.925a.918.918 0 00-.91-.925.918.918 0 00-.91.925c0 .511.407.925.91.925zm0 2.529c.502 0 .91-.414.91-.925a.918.918 0 00-.91-.925.918.918 0 00-.91.925c0 .51.407.925.91.925zm0 2.529c.502 0 .91-.415.91-.926a.918.918 0 00-.91-.925.918.918 0 00-.91.925c0 .511.407.926.91.926zm0 2.528c.502 0 .91-.415.91-.926a.918.918 0 00-.91-.925.918.918 0 00-.91.925c0 .511.407.925.91.925zm0 2.528c.502 0 .91-.415.91-.926a.918.918 0 00-.91-.925.918.918 0 00-.91.925c0 .511.407.925.91.925zm0 2.528c.502 0 .91-.414.91-.925a.918.918 0 00-.91-.925.918.918 0 00-.91.925c0 .51.407.925.91.925zm0 2.528c.502 0 .91-.414.91-.925a.918.918 0 00-.91-.925.918.918 0 00-.91.925c0 .511.407.925.91.925zm0 2.528c.502 0 .91-.414.91-.925a.918.918 0 00-.91-.925.918.918 0 00-.91.925c0 .511.407.925.91.925zm0 2.528c.502 0 .91-.414.91-.925a.918.918 0 00-.91-.925.918.918 0 00-.91.925c0 .511.407.925.91.925zm0 2.529c.502 0 .91-.415.91-.926a.918.918 0 00-.91-.925.918.918 0 00-.91.925c0 .511.407.926.91.926zm0 2.528c.502 0 .91-.414.91-.925a.918.918 0 00-.91-.925.918.918 0 00-.91.925c0 .51.407.925.91.925zm0 2.528c.502 0 .91-.414.91-.925a.918.918 0 00-.91-.925.918.918 0 00-.91.925c0 .511.407.925.91.925zm0 2.529c.502 0 .91-.415.91-.926a.918.918 0 00-.91-.925.918.918 0 00-.91.925c0 .511.407.925.91.925zm0 2.528c.502 0 .91-.414.91-.925a.918.918 0 00-.91-.925.918.918 0 00-.91.925c0 .51.407.925.91.925zm0 2.528c.502 0 .91-.414.91-.925a.918.918 0 00-.91-.925.918.918 0 00-.91.925c0 .51.407.925.91.925zm2.486-35.396c.503 0 .91-.414.91-.925a.918.918 0 00-.91-.925.918.918 0 00-.91.925c0 .511.408.925.91.925zm0 2.529c.503 0 .91-.414.91-.925a.918.918 0 00-.91-.925.918.918 0 00-.91.925c0 .51.408.925.91.925zm0 2.529c.503 0 .91-.415.91-.926a.918.918 0 00-.91-.925.918.918 0 00-.91.925c0 .511.408.926.91.926zm0 2.528c.503 0 .91-.415.91-.926a.918.918 0 00-.91-.925.918.918 0 00-.91.925c0 .511.408.925.91.925zm0 2.528c.503 0 .91-.415.91-.926a.918.918 0 00-.91-.925.918.918 0 00-.91.925c0 .511.408.925.91.925zm0 2.528c.503 0 .91-.414.91-.925a.918.918 0 00-.91-.925.918.918 0 00-.91.925c0 .51.408.925.91.925zm0 2.528c.503 0 .91-.414.91-.925a.918.918 0 00-.91-.925.918.918 0 00-.91.925c0 .511.408.925.91.925zm0 2.528c.503 0 .91-.414.91-.925a.918.918 0 00-.91-.925.918.918 0 00-.91.925c0 .511.408.925.91.925zm0 2.528c.503 0 .91-.414.91-.925a.918.918 0 00-.91-.925.918.918 0 00-.91.925c0 .511.408.925.91.925zm0 2.529c.503 0 .91-.415.91-.926a.918.918 0 00-.91-.925.918.918 0 00-.91.925c0 .511.408.926.91.926zm0 2.528c.503 0 .91-.414.91-.925a.918.918 0 00-.91-.925.918.918 0 00-.91.925c0 .51.408.925.91.925zm0 2.528c.503 0 .91-.414.91-.925a.918.918 0 00-.91-.925.918.918 0 00-.91.925c0 .511.408.925.91.925zm0 2.529c.503 0 .91-.415.91-.926a.918.918 0 00-.91-.925.918.918 0 00-.91.925c0 .511.408.925.91.925zm0 2.528c.503 0 .91-.414.91-.925a.918.918 0 00-.91-.925.918.918 0 00-.91.925c0 .51.408.925.91.925zm0 2.528c.503 0 .91-.414.91-.925a.918.918 0 00-.91-.925.918.918 0 00-.91.925c0 .51.408.925.91.925zm2.487-35.396c.503 0 .91-.414.91-.925a.918.918 0 00-.91-.925.918.918 0 00-.91.925c0 .511.408.925.91.925zm0 2.529c.503 0 .91-.414.91-.925a.918.918 0 00-.91-.925.918.918 0 00-.91.925c0 .51.408.925.91.925zm0 2.529c.503 0 .91-.415.91-.926a.918.918 0 00-.91-.925.918.918 0 00-.91.925c0 .511.408.926.91.926zm0 2.528c.503 0 .91-.415.91-.926a.918.918 0 00-.91-.925.918.918 0 00-.91.925c0 .511.408.925.91.925zm0 2.528c.503 0 .91-.415.91-.926a.918.918 0 00-.91-.925.918.918 0 00-.91.925c0 .511.408.925.91.925zm0 2.528c.503 0 .91-.414.91-.925a.918.918 0 00-.91-.925.918.918 0 00-.91.925c0 .51.408.925.91.925zm0 2.528c.503 0 .91-.414.91-.925a.918.918 0 00-.91-.925.918.918 0 00-.91.925c0 .511.408.925.91.925zm0 2.528c.503 0 .91-.414.91-.925a.918.918 0 00-.91-.925.918.918 0 00-.91.925c0 .511.408.925.91.925zm0 2.528c.503 0 .91-.414.91-.925a.918.918 0 00-.91-.925.918.918 0 00-.91.925c0 .511.408.925.91.925zm0 2.529c.503 0 .91-.415.91-.926a.918.918 0 00-.91-.925.918.918 0 00-.91.925c0 .511.408.926.91.926zm0 2.528c.503 0 .91-.414.91-.925a.918.918 0 00-.91-.925.918.918 0 00-.91.925c0 .51.408.925.91.925zm0 2.528c.503 0 .91-.414.91-.925a.918.918 0 00-.91-.925.918.918 0 00-.91.925c0 .511.408.925.91.925zm0 2.529c.503 0 .91-.415.91-.926a.918.918 0 00-.91-.925.918.918 0 00-.91.925c0 .511.408.925.91.925zm0 2.528c.503 0 .91-.414.91-.925a.918.918 0 00-.91-.925.918.918 0 00-.91.925c0 .51.408.925.91.925zm0 2.528c.503 0 .91-.414.91-.925a.918.918 0 00-.91-.925.918.918 0 00-.91.925c0 .51.408.925.91.925zm6.554-37.924c.503 0 .91-.414.91-.925a.918.918 0 00-.91-.925.918.918 0 00-.91.925c0 .511.408.925.91.925zm2.487 0c.502 0 .91-.414.91-.925a.918.918 0 00-.91-.925.918.918 0 00-.91.925c0 .511.407.925.91.925zm2.486 0c.503 0 .91-.414.91-.925a.918.918 0 00-.91-.925.918.918 0 00-.91.925c0 .511.408.925.91.925zm2.486 0c.504 0 .91-.414.91-.925a.918.918 0 00-.91-.925.918.918 0 00-.909.925c0 .511.407.925.91.925zm-7.459 2.528c.503 0 .91-.414.91-.925a.918.918 0 00-.91-.925.918.918 0 00-.91.925c0 .511.408.925.91.925zm0 2.529c.503 0 .91-.414.91-.925a.918.918 0 00-.91-.925.918.918 0 00-.91.925c0 .51.408.925.91.925zm0 2.529c.503 0 .91-.415.91-.926a.918.918 0 00-.91-.925.918.918 0 00-.91.925c0 .511.408.926.91.926zm0 2.528c.503 0 .91-.415.91-.926a.918.918 0 00-.91-.925.918.918 0 00-.91.925c0 .511.408.925.91.925zm0 2.528c.503 0 .91-.415.91-.926a.918.918 0 00-.91-.925.918.918 0 00-.91.925c0 .511.408.925.91.925zm0 2.528c.503 0 .91-.414.91-.925a.918.918 0 00-.91-.925.918.918 0 00-.91.925c0 .51.408.925.91.925zm0 2.528c.503 0 .91-.414.91-.925a.918.918 0 00-.91-.925.918.918 0 00-.91.925c0 .511.408.925.91.925zm0 2.528c.503 0 .91-.414.91-.925a.918.918 0 00-.91-.925.918.918 0 00-.91.925c0 .511.408.925.91.925zm0 2.528c.503 0 .91-.414.91-.925a.918.918 0 00-.91-.925.918.918 0 00-.91.925c0 .511.408.925.91.925zm0 2.529c.503 0 .91-.415.91-.926a.918.918 0 00-.91-.925.918.918 0 00-.91.925c0 .511.408.926.91.926zm0 2.528c.503 0 .91-.414.91-.925a.918.918 0 00-.91-.925.918.918 0 00-.91.925c0 .51.408.925.91.925zm0 2.528c.503 0 .91-.414.91-.925a.918.918 0 00-.91-.925.918.918 0 00-.91.925c0 .51.408.925.91.925zm0 2.529c.503 0 .91-.415.91-.926a.918.918 0 00-.91-.925.918.918 0 00-.91.925c0 .511.408.925.91.925zm0 2.528c.503 0 .91-.414.91-.925a.918.918 0 00-.91-.925.918.918 0 00-.91.925c0 .51.408.925.91.925zm0 2.528c.503 0 .91-.414.91-.925a.918.918 0 00-.91-.925.918.918 0 00-.91.925c0 .51.408.925.91.925zm2.487-35.396c.502 0 .91-.414.91-.925a.918.918 0 00-.91-.925.918.918 0 00-.91.925c0 .511.407.925.91.925zm0 2.529c.502 0 .91-.414.91-.925a.918.918 0 00-.91-.925.918.918 0 00-.91.925c0 .51.407.925.91.925zm0 2.529c.502 0 .91-.415.91-.926a.918.918 0 00-.91-.925.918.918 0 00-.91.925c0 .511.407.926.91.926zm0 2.528c.502 0 .91-.415.91-.926a.918.918 0 00-.91-.925.918.918 0 00-.91.925c0 .511.407.925.91.925zm0 2.528c.502 0 .91-.415.91-.926a.918.918 0 00-.91-.925.918.918 0 00-.91.925c0 .511.407.925.91.925zm0 2.528c.502 0 .91-.414.91-.925a.918.918 0 00-.91-.925.918.918 0 00-.91.925c0 .51.407.925.91.925zm0 2.528c.502 0 .91-.414.91-.925a.918.918 0 00-.91-.925.918.918 0 00-.91.925c0 .511.407.925.91.925zm0 2.528c.502 0 .91-.414.91-.925a.918.918 0 00-.91-.925.918.918 0 00-.91.925c0 .511.407.925.91.925zm0 2.528c.502 0 .91-.414.91-.925a.918.918 0 00-.91-.925.918.918 0 00-.91.925c0 .511.407.925.91.925zm0 2.529c.502 0 .91-.415.91-.926a.918.918 0 00-.91-.925.918.918 0 00-.91.925c0 .511.407.926.91.926zm0 2.528c.502 0 .91-.414.91-.925a.918.918 0 00-.91-.925.918.918 0 00-.91.925c0 .51.407.925.91.925zm0 2.528c.502 0 .91-.414.91-.925a.918.918 0 00-.91-.925.918.918 0 00-.91.925c0 .51.407.925.91.925zm0 2.529c.502 0 .91-.415.91-.926a.918.918 0 00-.91-.925.918.918 0 00-.91.925c0 .511.407.925.91.925zm0 2.528c.502 0 .91-.414.91-.925a.918.918 0 00-.91-.925.918.918 0 00-.91.925c0 .51.407.925.91.925zm0 2.528c.502 0 .91-.414.91-.925a.918.918 0 00-.91-.925.918.918 0 00-.91.925c0 .51.407.925.91.925zm2.486-35.396c.503 0 .91-.414.91-.925a.918.918 0 00-.91-.925.918.918 0 00-.91.925c0 .511.408.925.91.925zm0 2.529c.503 0 .91-.414.91-.925a.918.918 0 00-.91-.925.918.918 0 00-.91.925c0 .51.408.925.91.925zm0 2.529c.503 0 .91-.415.91-.926a.918.918 0 00-.91-.925.918.918 0 00-.91.925c0 .511.408.926.91.926zm0 2.528c.503 0 .91-.415.91-.926a.918.918 0 00-.91-.925.918.918 0 00-.91.925c0 .511.408.925.91.925zm0 2.528c.503 0 .91-.415.91-.926a.918.918 0 00-.91-.925.918.918 0 00-.91.925c0 .511.408.925.91.925zm0 2.528c.503 0 .91-.414.91-.925a.918.918 0 00-.91-.925.918.918 0 00-.91.925c0 .51.408.925.91.925zm0 2.528c.503 0 .91-.414.91-.925a.918.918 0 00-.91-.925.918.918 0 00-.91.925c0 .511.408.925.91.925zm0 2.528c.503 0 .91-.414.91-.925a.918.918 0 00-.91-.925.918.918 0 00-.91.925c0 .511.408.925.91.925zm0 2.528c.503 0 .91-.414.91-.925a.918.918 0 00-.91-.925.918.918 0 00-.91.925c0 .511.408.925.91.925zm0 2.529c.503 0 .91-.415.91-.926a.918.918 0 00-.91-.925.918.918 0 00-.91.925c0 .511.408.926.91.926zm0 2.528c.503 0 .91-.414.91-.925a.918.918 0 00-.91-.925.918.918 0 00-.91.925c0 .51.408.925.91.925zm0 2.528c.503 0 .91-.414.91-.925a.918.918 0 00-.91-.925.918.918 0 00-.91.925c0 .51.408.925.91.925zm0 2.529c.503 0 .91-.415.91-.926a.918.918 0 00-.91-.925.918.918 0 00-.91.925c0 .511.408.925.91.925zm0 2.528c.503 0 .91-.414.91-.925a.918.918 0 00-.91-.925.918.918 0 00-.91.925c0 .51.408.925.91.925zm0 2.528c.503 0 .91-.414.91-.925a.918.918 0 00-.91-.925.918.918 0 00-.91.925c0 .51.408.925.91.925zm2.486-35.396c.504 0 .91-.414.91-.925a.918.918 0 00-.91-.925.918.918 0 00-.909.925c0 .511.407.925.91.925zm0 2.529c.504 0 .91-.414.91-.925a.918.918 0 00-.91-.925.918.918 0 00-.909.925c0 .51.407.925.91.925zm0 2.529c.504 0 .91-.415.91-.926a.918.918 0 00-.91-.925.918.918 0 00-.909.925c0 .511.407.926.91.926zm0 2.528c.504 0 .91-.415.91-.926a.918.918 0 00-.91-.925.918.918 0 00-.909.925c0 .511.407.925.91.925zm0 2.528c.504 0 .91-.415.91-.926a.918.918 0 00-.91-.925.918.918 0 00-.909.925c0 .511.407.925.91.925zm0 2.528c.504 0 .91-.414.91-.925a.918.918 0 00-.91-.925.918.918 0 00-.909.925c0 .51.407.925.91.925zm0 2.528c.504 0 .91-.414.91-.925a.918.918 0 00-.91-.925.918.918 0 00-.909.925c0 .511.407.925.91.925zm0 2.528c.504 0 .91-.414.91-.925a.918.918 0 00-.91-.925.918.918 0 00-.909.925c0 .511.407.925.91.925zm0 2.528c.504 0 .91-.414.91-.925a.918.918 0 00-.91-.925.918.918 0 00-.909.925c0 .511.407.925.91.925zm0 2.529c.504 0 .91-.415.91-.926a.918.918 0 00-.91-.925.918.918 0 00-.909.925c0 .511.407.926.91.926zm0 2.528c.504 0 .91-.414.91-.925a.918.918 0 00-.91-.925.918.918 0 00-.909.925c0 .51.407.925.91.925zm0 2.528c.504 0 .91-.414.91-.925a.918.918 0 00-.91-.925.918.918 0 00-.909.925c0 .51.407.925.91.925zm0 2.529c.504 0 .91-.415.91-.926a.918.918 0 00-.91-.925.918.918 0 00-.909.925c0 .511.407.925.91.925zm0 2.528c.504 0 .91-.414.91-.925a.918.918 0 00-.91-.925.918.918 0 00-.909.925c0 .51.407.925.91.925zm0 2.528c.504 0 .91-.414.91-.925a.918.918 0 00-.91-.925.918.918 0 00-.909.925c0 .51.407.925.91.925zm12.434-37.924c.503 0 .91-.414.91-.925a.917.917 0 00-.91-.925.917.917 0 00-.91.925c0 .511.407.925.91.925zm2.487 0c.502 0 .91-.414.91-.925a.918.918 0 00-.91-.925.917.917 0 00-.91.925c0 .511.407.925.91.925zm2.486 0c.503 0 .91-.414.91-.925a.917.917 0 00-.91-.925.918.918 0 00-.91.925c0 .511.408.925.91.925zm2.487 0c.502 0 .91-.414.91-.925a.918.918 0 00-.91-.925.917.917 0 00-.91.925c0 .511.407.925.91.925zm-7.46 2.528c.503 0 .91-.414.91-.925a.917.917 0 00-.91-.925.917.917 0 00-.91.925c0 .511.407.925.91.925zm0 2.529c.503 0 .91-.414.91-.925a.917.917 0 00-.91-.925.917.917 0 00-.91.925c0 .51.407.925.91.925zm0 2.529c.503 0 .91-.415.91-.926a.917.917 0 00-.91-.925.917.917 0 00-.91.925c0 .511.407.926.91.926zm0 2.528c.503 0 .91-.415.91-.926a.917.917 0 00-.91-.925.917.917 0 00-.91.925c0 .511.407.925.91.925zm0 2.528c.503 0 .91-.415.91-.926a.917.917 0 00-.91-.925.917.917 0 00-.91.925c0 .511.407.925.91.925zm0 2.528c.503 0 .91-.414.91-.925a.917.917 0 00-.91-.925.917.917 0 00-.91.925c0 .51.407.925.91.925zm0 2.528c.503 0 .91-.414.91-.925a.917.917 0 00-.91-.925.917.917 0 00-.91.925c0 .511.407.925.91.925zm0 2.528c.503 0 .91-.414.91-.925a.917.917 0 00-.91-.925.917.917 0 00-.91.925c0 .511.407.925.91.925zm0 2.528c.503 0 .91-.414.91-.925a.917.917 0 00-.91-.925.917.917 0 00-.91.925c0 .511.407.925.91.925zm0 2.529c.503 0 .91-.415.91-.926a.917.917 0 00-.91-.925.917.917 0 00-.91.925c0 .511.407.926.91.926zm0 2.528c.503 0 .91-.414.91-.925a.917.917 0 00-.91-.925.917.917 0 00-.91.925c0 .51.407.925.91.925zm0 2.528c.503 0 .91-.414.91-.925a.917.917 0 00-.91-.925.917.917 0 00-.91.925c0 .51.407.925.91.925zm0 2.529c.503 0 .91-.415.91-.926a.917.917 0 00-.91-.925.917.917 0 00-.91.925c0 .511.407.925.91.925zm0 2.528c.503 0 .91-.414.91-.925a.917.917 0 00-.91-.925.917.917 0 00-.91.925c0 .51.407.925.91.925zm0 2.528c.503 0 .91-.414.91-.925a.917.917 0 00-.91-.925.917.917 0 00-.91.925c0 .51.407.925.91.925zm2.487-35.396c.502 0 .91-.414.91-.925a.918.918 0 00-.91-.925.917.917 0 00-.91.925c0 .511.407.925.91.925zm0 2.529c.502 0 .91-.414.91-.925a.918.918 0 00-.91-.925.917.917 0 00-.91.925c0 .51.407.925.91.925zm0 2.529c.502 0 .91-.415.91-.926a.918.918 0 00-.91-.925.917.917 0 00-.91.925c0 .511.407.926.91.926zm0 2.528c.502 0 .91-.415.91-.926a.918.918 0 00-.91-.925.917.917 0 00-.91.925c0 .511.407.925.91.925zm0 2.528c.502 0 .91-.415.91-.926a.918.918 0 00-.91-.925.917.917 0 00-.91.925c0 .511.407.925.91.925zm0 2.528c.502 0 .91-.414.91-.925a.918.918 0 00-.91-.925.917.917 0 00-.91.925c0 .51.407.925.91.925zm0 2.528c.502 0 .91-.414.91-.925a.918.918 0 00-.91-.925.917.917 0 00-.91.925c0 .511.407.925.91.925zm0 2.528c.502 0 .91-.414.91-.925a.918.918 0 00-.91-.925.917.917 0 00-.91.925c0 .511.407.925.91.925zm0 2.528c.502 0 .91-.414.91-.925a.918.918 0 00-.91-.925.917.917 0 00-.91.925c0 .511.407.925.91.925zm0 2.529c.502 0 .91-.415.91-.926a.918.918 0 00-.91-.925.917.917 0 00-.91.925c0 .511.407.926.91.926zm0 2.528c.502 0 .91-.414.91-.925a.918.918 0 00-.91-.925.917.917 0 00-.91.925c0 .51.407.925.91.925zm0 2.528c.502 0 .91-.414.91-.925a.918.918 0 00-.91-.925.917.917 0 00-.91.925c0 .51.407.925.91.925zm0 2.529c.502 0 .91-.415.91-.926a.918.918 0 00-.91-.925.917.917 0 00-.91.925c0 .511.407.925.91.925zm0 2.528c.502 0 .91-.414.91-.925a.918.918 0 00-.91-.925.917.917 0 00-.91.925c0 .51.407.925.91.925zm0 2.528c.502 0 .91-.414.91-.925a.918.918 0 00-.91-.925.917.917 0 00-.91.925c0 .51.407.925.91.925zm2.486-35.396c.503 0 .91-.414.91-.925a.917.917 0 00-.91-.925.918.918 0 00-.91.925c0 .511.408.925.91.925zm0 2.529c.503 0 .91-.414.91-.925a.917.917 0 00-.91-.925.918.918 0 00-.91.925c0 .51.408.925.91.925zm0 2.529c.503 0 .91-.415.91-.926a.917.917 0 00-.91-.925.918.918 0 00-.91.925c0 .511.408.926.91.926zm0 2.528c.503 0 .91-.415.91-.926a.917.917 0 00-.91-.925.918.918 0 00-.91.925c0 .511.408.925.91.925zm0 2.528c.503 0 .91-.415.91-.926a.917.917 0 00-.91-.925.918.918 0 00-.91.925c0 .511.408.925.91.925zm0 2.528c.503 0 .91-.414.91-.925a.917.917 0 00-.91-.925.918.918 0 00-.91.925c0 .51.408.925.91.925zm0 2.528c.503 0 .91-.414.91-.925a.917.917 0 00-.91-.925.918.918 0 00-.91.925c0 .511.408.925.91.925zm0 2.528c.503 0 .91-.414.91-.925a.917.917 0 00-.91-.925.918.918 0 00-.91.925c0 .511.408.925.91.925zm0 2.528c.503 0 .91-.414.91-.925a.917.917 0 00-.91-.925.918.918 0 00-.91.925c0 .511.408.925.91.925zm0 2.529c.503 0 .91-.415.91-.926a.917.917 0 00-.91-.925.918.918 0 00-.91.925c0 .511.408.926.91.926zm0 2.528c.503 0 .91-.414.91-.925a.917.917 0 00-.91-.925.918.918 0 00-.91.925c0 .51.408.925.91.925zm0 2.528c.503 0 .91-.414.91-.925a.917.917 0 00-.91-.925.918.918 0 00-.91.925c0 .51.408.925.91.925zm0 2.529c.503 0 .91-.415.91-.926a.917.917 0 00-.91-.925.918.918 0 00-.91.925c0 .511.408.925.91.925zm0 2.528c.503 0 .91-.414.91-.925a.917.917 0 00-.91-.925.918.918 0 00-.91.925c0 .51.408.925.91.925zm0 2.528c.503 0 .91-.414.91-.925a.917.917 0 00-.91-.925.918.918 0 00-.91.925c0 .51.408.925.91.925zm2.487-35.396c.502 0 .91-.414.91-.925a.918.918 0 00-.91-.925.917.917 0 00-.91.925c0 .511.407.925.91.925zm0 2.529c.502 0 .91-.414.91-.925a.918.918 0 00-.91-.925.917.917 0 00-.91.925c0 .51.407.925.91.925zm0 2.529c.502 0 .91-.415.91-.926a.918.918 0 00-.91-.925.917.917 0 00-.91.925c0 .511.407.926.91.926zm0 2.528c.502 0 .91-.415.91-.926a.918.918 0 00-.91-.925.917.917 0 00-.91.925c0 .511.407.925.91.925zm0 2.528c.502 0 .91-.415.91-.926a.918.918 0 00-.91-.925.917.917 0 00-.91.925c0 .511.407.925.91.925zm0 2.528c.502 0 .91-.414.91-.925a.918.918 0 00-.91-.925.917.917 0 00-.91.925c0 .51.407.925.91.925zm0 2.528c.502 0 .91-.414.91-.925a.918.918 0 00-.91-.925.917.917 0 00-.91.925c0 .511.407.925.91.925zm0 2.528c.502 0 .91-.414.91-.925a.918.918 0 00-.91-.925.917.917 0 00-.91.925c0 .511.407.925.91.925zm0 2.528c.502 0 .91-.414.91-.925a.918.918 0 00-.91-.925.917.917 0 00-.91.925c0 .511.407.925.91.925zm0 2.529c.502 0 .91-.415.91-.926a.918.918 0 00-.91-.925.917.917 0 00-.91.925c0 .511.407.926.91.926zm0 2.528c.502 0 .91-.414.91-.925a.918.918 0 00-.91-.925.917.917 0 00-.91.925c0 .51.407.925.91.925zm0 2.528c.502 0 .91-.414.91-.925a.918.918 0 00-.91-.925.917.917 0 00-.91.925c0 .51.407.925.91.925zm0 2.529c.502 0 .91-.415.91-.926a.918.918 0 00-.91-.925.917.917 0 00-.91.925c0 .511.407.925.91.925zm0 2.528c.502 0 .91-.414.91-.925a.918.918 0 00-.91-.925.917.917 0 00-.91.925c0 .51.407.925.91.925zm0 2.528c.502 0 .91-.414.91-.925a.918.918 0 00-.91-.925.917.917 0 00-.91.925c0 .51.407.925.91.925z" fill="#000" stroke="#000" stroke-width=".326"/><path d="M45.597 55.944c.502 0 .91-.415.91-.926a.918.918 0 00-.91-.925.918.918 0 00-.91.925c0 .511.407.925.91.925zm2.487 0c.502 0 .91-.415.91-.926a.918.918 0 00-.91-.925.918.918 0 00-.91.925c0 .511.407.925.91.925zm2.486 0c.502 0 .91-.415.91-.926a.918.918 0 00-.91-.925.918.918 0 00-.91.925c0 .511.407.925.91.925zm2.486 0c.503 0 .91-.415.91-.926a.918.918 0 00-.91-.925.918.918 0 00-.91.925c0 .511.408.925.91.925zm-9.946-2.529c.503 0 .91-.414.91-.925a.918.918 0 00-.91-.925.918.918 0 00-.91.925c0 .51.408.925.91.925zm2.487 0c.502 0 .91-.414.91-.925a.918.918 0 00-.91-.925.918.918 0 00-.91.925c0 .51.407.925.91.925zm2.487 0c.502 0 .91-.414.91-.925a.918.918 0 00-.91-.925.918.918 0 00-.91.925c0 .51.407.925.91.925zm2.486 0c.502 0 .91-.414.91-.925a.918.918 0 00-.91-.925.918.918 0 00-.91.925c0 .51.407.925.91.925zm-7.46-2.528c.503 0 .91-.414.91-.925a.918.918 0 00-.91-.925.918.918 0 00-.91.925c0 .51.408.925.91.925zm0-2.528c.503 0 .91-.415.91-.926a.918.918 0 00-.91-.925.918.918 0 00-.91.925c0 .511.408.926.91.926zm2.487 2.528c.502 0 .91-.414.91-.925a.918.918 0 00-.91-.925.918.918 0 00-.91.925c0 .51.407.925.91.925zm0-2.528c.502 0 .91-.415.91-.926a.918.918 0 00-.91-.925.918.918 0 00-.91.925c0 .511.407.926.91.926zm2.487 2.528c.502 0 .91-.414.91-.925a.918.918 0 00-.91-.925.918.918 0 00-.91.925c0 .51.407.925.91.925zm0-2.528c.502 0 .91-.415.91-.926a.918.918 0 00-.91-.925.918.918 0 00-.91.925c0 .511.407.926.91.926zm2.486 2.528c.502 0 .91-.414.91-.925a.918.918 0 00-.91-.925.918.918 0 00-.91.925c0 .51.407.925.91.925zm0-2.528c.502 0 .91-.415.91-.926a.918.918 0 00-.91-.925.918.918 0 00-.91.925c0 .511.407.926.91.926zm-9.947-2.529c.503 0 .91-.414.91-.925a.918.918 0 00-.91-.925.918.918 0 00-.91.925c0 .511.408.925.91.925zm2.487 0c.503 0 .91-.414.91-.925a.918.918 0 00-.91-.925.918.918 0 00-.91.925c0 .511.408.925.91.925zm2.487 0c.502 0 .91-.414.91-.925a.918.918 0 00-.91-.925.918.918 0 00-.91.925c0 .511.407.925.91.925zm2.487 0c.502 0 .91-.414.91-.925a.918.918 0 00-.91-.925.918.918 0 00-.91.925c0 .511.407.925.91.925zm-7.461-2.528c.503 0 .91-.414.91-.925a.918.918 0 00-.91-.925.918.918 0 00-.91.925c0 .511.408.925.91.925zm0-2.528c.503 0 .91-.414.91-.925a.918.918 0 00-.91-.925.918.918 0 00-.91.925c0 .511.408.925.91.925zm2.487 2.528c.503 0 .91-.414.91-.925a.918.918 0 00-.91-.925.918.918 0 00-.91.925c0 .511.408.925.91.925zm0-2.528c.503 0 .91-.414.91-.925a.918.918 0 00-.91-.925.918.918 0 00-.91.925c0 .511.408.925.91.925zm2.487 2.528c.502 0 .91-.414.91-.925a.918.918 0 00-.91-.925.918.918 0 00-.91.925c0 .511.407.925.91.925zm0-2.528c.502 0 .91-.414.91-.925a.918.918 0 00-.91-.925.918.918 0 00-.91.925c0 .511.407.925.91.925zm2.487 2.528c.502 0 .91-.414.91-.925a.918.918 0 00-.91-.925.918.918 0 00-.91.925c0 .511.407.925.91.925zm0-2.528c.502 0 .91-.414.91-.925a.918.918 0 00-.91-.925.918.918 0 00-.91.925c0 .511.407.925.91.925zm-9.947-2.528c.502 0 .91-.414.91-.925a.918.918 0 00-.91-.925.918.918 0 00-.91.925c0 .51.407.925.91.925zm2.486 0c.503 0 .91-.414.91-.925a.918.918 0 00-.91-.925.918.918 0 00-.91.925c0 .51.408.925.91.925zm2.487 0c.503 0 .91-.414.91-.925a.918.918 0 00-.91-.925.918.918 0 00-.91.925c0 .51.408.925.91.925zm2.487 0c.502 0 .91-.414.91-.925a.918.918 0 00-.91-.925.918.918 0 00-.91.925c0 .51.407.925.91.925zm-7.46-2.528c.502 0 .91-.415.91-.926a.918.918 0 00-.91-.925.918.918 0 00-.91.925c0 .511.407.925.91.925zm2.486 0c.503 0 .91-.415.91-.926a.918.918 0 00-.91-.925.918.918 0 00-.91.925c0 .511.408.925.91.925zm2.487 0c.503 0 .91-.415.91-.926a.918.918 0 00-.91-.925.918.918 0 00-.91.925c0 .511.408.925.91.925zm2.487 0c.502 0 .91-.415.91-.926a.918.918 0 00-.91-.925.918.918 0 00-.91.925c0 .511.407.925.91.925zM65.49 23.076c.502 0 .91-.414.91-.925a.918.918 0 00-.91-.925.918.918 0 00-.91.925c0 .511.407.925.91.925zm-2.487 0c.502 0 .91-.414.91-.925a.918.918 0 00-.91-.925.918.918 0 00-.91.925c0 .511.407.925.91.925zm-2.487 0c.503 0 .91-.414.91-.925a.918.918 0 00-.91-.925.918.918 0 00-.91.925c0 .511.408.925.91.925zm-2.486 0c.502 0 .91-.414.91-.925a.918.918 0 00-.91-.925.918.918 0 00-.91.925c0 .511.407.925.91.925zm4.973 2.528c.502 0 .91-.414.91-.925a.918.918 0 00-.91-.925.918.918 0 00-.91.925c0 .511.407.925.91.925zm0 2.529c.502 0 .91-.414.91-.925a.918.918 0 00-.91-.925.918.918 0 00-.91.925c0 .51.407.925.91.925zm0 2.529c.502 0 .91-.415.91-.926a.918.918 0 00-.91-.925.918.918 0 00-.91.925c0 .511.407.926.91.926zm-9.947 2.528c.503 0 .91-.415.91-.926a.918.918 0 00-.91-.925.918.918 0 00-.91.925c0 .511.408.925.91.925zm7.46-7.586c.503 0 .91-.414.91-.925a.918.918 0 00-.91-.925.918.918 0 00-.91.925c0 .511.408.925.91.925zm0 2.529c.503 0 .91-.414.91-.925a.918.918 0 00-.91-.925.918.918 0 00-.91.925c0 .51.408.925.91.925zm0 2.529c.503 0 .91-.415.91-.926a.918.918 0 00-.91-.925.918.918 0 00-.91.925c0 .511.408.926.91.926zm0 2.528c.503 0 .91-.415.91-.926a.918.918 0 00-.91-.925.918.918 0 00-.91.925c0 .511.408.925.91.925zm-2.486-7.586c.502 0 .91-.414.91-.925a.918.918 0 00-.91-.925.918.918 0 00-.91.925c0 .511.407.925.91.925zm0 2.529c.502 0 .91-.414.91-.925a.918.918 0 00-.91-.925.918.918 0 00-.91.925c0 .51.407.925.91.925zm0 2.529c.502 0 .91-.415.91-.926a.918.918 0 00-.91-.925.918.918 0 00-.91.925c0 .511.407.926.91.926zm0 2.528c.502 0 .91-.415.91-.926a.918.918 0 00-.91-.925.918.918 0 00-.91.925c0 .511.407.925.91.925zm-2.487-7.586c.503 0 .91-.414.91-.925a.918.918 0 00-.91-.925.918.918 0 00-.91.925c0 .511.408.925.91.925zm0 2.529c.503 0 .91-.414.91-.925a.918.918 0 00-.91-.925.918.918 0 00-.91.925c0 .51.408.925.91.925zm0 2.529c.503 0 .91-.415.91-.926a.918.918 0 00-.91-.925.918.918 0 00-.91.925c0 .511.408.926.91.926zm0 2.528c.503 0 .91-.415.91-.926a.918.918 0 00-.91-.925.918.918 0 00-.91.925c0 .511.408.925.91.925zM53.056 61c.503 0 .91-.414.91-.925a.918.918 0 00-.91-.925.918.918 0 00-.91.925c0 .51.408.925.91.925zm-2.486 0c.502 0 .91-.414.91-.925a.918.918 0 00-.91-.925.918.918 0 00-.91.925c0 .51.407.925.91.925zm-2.487 0c.503 0 .91-.414.91-.925a.918.918 0 00-.91-.925.918.918 0 00-.91.925c0 .51.407.925.91.925zm-2.486 0c.502 0 .91-.414.91-.925a.918.918 0 00-.91-.925.918.918 0 00-.91.925c0 .51.407.925.91.925zm7.459-2.528c.503 0 .91-.414.91-.925a.918.918 0 00-.91-.925.918.918 0 00-.91.925c0 .51.408.925.91.925zm-2.486 0c.502 0 .91-.414.91-.925a.918.918 0 00-.91-.925.918.918 0 00-.91.925c0 .51.407.925.91.925zm-2.487 0c.503 0 .91-.414.91-.925a.918.918 0 00-.91-.925.918.918 0 00-.91.925c0 .51.407.925.91.925zm-2.486 0c.502 0 .91-.414.91-.925a.918.918 0 00-.91-.925.918.918 0 00-.91.925c0 .51.407.925.91.925z" fill="red" stroke="red" stroke-width=".326"/><path d="M53.056 55.944c.503 0 .91-.415.91-.926a.918.918 0 00-.91-.925.918.918 0 00-.91.925c0 .511.408.925.91.925zm-2.486 0c.502 0 .91-.415.91-.926a.918.918 0 00-.91-.925.918.918 0 00-.91.925c0 .511.407.925.91.925zm-2.487 0c.503 0 .91-.415.91-.926a.918.918 0 00-.91-.925.918.918 0 00-.91.925c0 .511.407.925.91.925zm-2.486 0c.502 0 .91-.415.91-.926a.918.918 0 00-.91-.925.918.918 0 00-.91.925c0 .511.407.925.91.925zm9.946-2.529c.503 0 .91-.414.91-.925a.918.918 0 00-.91-.925.918.918 0 00-.91.925c0 .51.408.925.91.925zm-2.487 0c.503 0 .91-.414.91-.925a.918.918 0 00-.91-.925.918.918 0 00-.91.925c0 .51.408.925.91.925zm-2.486 0c.502 0 .91-.414.91-.925a.918.918 0 00-.91-.925.918.918 0 00-.91.925c0 .51.407.925.91.925zm-2.487 0c.503 0 .91-.414.91-.925a.918.918 0 00-.91-.925.918.918 0 00-.91.925c0 .51.407.925.91.925zm7.46-2.528c.503 0 .91-.414.91-.925a.918.918 0 00-.91-.925.918.918 0 00-.91.925c0 .51.408.925.91.925zm0-2.528c.503 0 .91-.415.91-.926a.918.918 0 00-.91-.925.918.918 0 00-.91.925c0 .511.408.926.91.926zm-2.487 2.528c.503 0 .91-.414.91-.925a.918.918 0 00-.91-.925.918.918 0 00-.91.925c0 .51.408.925.91.925zm0-2.528c.503 0 .91-.415.91-.926a.918.918 0 00-.91-.925.918.918 0 00-.91.925c0 .511.408.926.91.926zm-2.486 2.528c.502 0 .91-.414.91-.925a.918.918 0 00-.91-.925.918.918 0 00-.91.925c0 .51.407.925.91.925zm0-2.528c.502 0 .91-.415.91-.926a.918.918 0 00-.91-.925.918.918 0 00-.91.925c0 .511.407.926.91.926zm-2.487 2.528c.503 0 .91-.414.91-.925a.918.918 0 00-.91-.925.918.918 0 00-.91.925c0 .51.407.925.91.925zm0-2.528c.503 0 .91-.415.91-.926a.918.918 0 00-.91-.925.918.918 0 00-.91.925c0 .511.407.926.91.926zm9.947-2.529c.502 0 .91-.414.91-.925a.918.918 0 00-.91-.925.918.918 0 00-.91.925c0 .511.407.925.91.925zm-2.487 0c.503 0 .91-.414.91-.925a.918.918 0 00-.91-.925.918.918 0 00-.91.925c0 .511.408.925.91.925zm-2.487 0c.503 0 .91-.414.91-.925a.918.918 0 00-.91-.925.918.918 0 00-.91.925c0 .511.408.925.91.925zm-2.486 0c.502 0 .91-.414.91-.925a.918.918 0 00-.91-.925.918.918 0 00-.91.925c0 .511.407.925.91.925zm7.46-2.528c.502 0 .91-.414.91-.925a.918.918 0 00-.91-.925.918.918 0 00-.91.925c0 .511.407.925.91.925zm0-2.528c.502 0 .91-.414.91-.925a.918.918 0 00-.91-.925.918.918 0 00-.91.925c0 .511.407.925.91.925zm-2.487 2.528c.503 0 .91-.414.91-.925a.918.918 0 00-.91-.925.918.918 0 00-.91.925c0 .511.408.925.91.925zm0-2.528c.503 0 .91-.414.91-.925a.918.918 0 00-.91-.925.918.918 0 00-.91.925c0 .511.408.925.91.925zm-2.487 2.528c.503 0 .91-.414.91-.925a.918.918 0 00-.91-.925.918.918 0 00-.91.925c0 .511.408.925.91.925zm0-2.528c.503 0 .91-.414.91-.925a.918.918 0 00-.91-.925.918.918 0 00-.91.925c0 .511.408.925.91.925zm-2.486 2.528c.502 0 .91-.414.91-.925a.918.918 0 00-.91-.925.918.918 0 00-.91.925c0 .511.407.925.91.925zm0-2.528c.502 0 .91-.414.91-.925a.918.918 0 00-.91-.925.918.918 0 00-.91.925c0 .511.407.925.91.925zm9.946-2.528c.503 0 .91-.414.91-.925a.918.918 0 00-.91-.925.918.918 0 00-.91.925c0 .51.408.925.91.925zm-2.486 0c.502 0 .91-.414.91-.925a.918.918 0 00-.91-.925.918.918 0 00-.91.925c0 .51.407.925.91.925zm-2.487 0c.503 0 .91-.414.91-.925a.918.918 0 00-.91-.925.918.918 0 00-.91.925c0 .51.408.925.91.925zm-2.487 0c.503 0 .91-.414.91-.925a.918.918 0 00-.91-.925.918.918 0 00-.91.925c0 .51.408.925.91.925zm7.46-2.528c.503 0 .91-.415.91-.926a.918.918 0 00-.91-.925.918.918 0 00-.91.925c0 .511.408.925.91.925zm-2.486 0c.502 0 .91-.415.91-.926a.918.918 0 00-.91-.925.918.918 0 00-.91.925c0 .511.407.925.91.925zm-2.487 0c.503 0 .91-.415.91-.926a.918.918 0 00-.91-.925.918.918 0 00-.91.925c0 .511.408.925.91.925zm-2.487 0c.503 0 .91-.415.91-.926a.918.918 0 00-.91-.925.918.918 0 00-.91.925c0 .511.408.925.91.925z" fill="red" stroke="red" stroke-width=".326"/><path d="M88.544 23.076c.503 0 .91-.414.91-.925a.918.918 0 00-.91-.925.918.918 0 00-.91.925c0 .511.408.925.91.925zm2.486 0c.504 0 .91-.414.91-.925a.918.918 0 00-.91-.925.918.918 0 00-.909.925c0 .511.407.925.91.925zm-2.486 2.528c.503 0 .91-.414.91-.925a.918.918 0 00-.91-.925.918.918 0 00-.91.925c0 .511.408.925.91.925zm0 2.529c.503 0 .91-.414.91-.925a.918.918 0 00-.91-.925.918.918 0 00-.91.925c0 .51.408.925.91.925zm0 2.529c.503 0 .91-.415.91-.926a.918.918 0 00-.91-.925.918.918 0 00-.91.925c0 .511.408.926.91.926zm2.486-5.058c.504 0 .91-.414.91-.925a.918.918 0 00-.91-.925.918.918 0 00-.909.925c0 .511.407.925.91.925zm0 2.529c.504 0 .91-.414.91-.925a.918.918 0 00-.91-.925.918.918 0 00-.909.925c0 .51.407.925.91.925zm0 2.529c.504 0 .91-.415.91-.926a.918.918 0 00-.91-.925.918.918 0 00-.909.925c0 .511.407.926.91.926zm0 2.528c.504 0 .91-.415.91-.926a.918.918 0 00-.91-.925.918.918 0 00-.909.925c0 .511.407.925.91.925zm2.488 0c.502 0 .91-.415.91-.926a.918.918 0 00-.91-.925.918.918 0 00-.91.925c0 .511.407.925.91.925zM103.464 61c.503 0 .91-.414.91-.925a.917.917 0 00-.91-.925.917.917 0 00-.91.925c0 .51.407.925.91.925zm2.487 0c.502 0 .91-.414.91-.925a.918.918 0 00-.91-.925.917.917 0 00-.91.925c0 .51.407.925.91.925zm-2.487-2.528c.503 0 .91-.414.91-.925a.917.917 0 00-.91-.925.917.917 0 00-.91.925c0 .51.407.925.91.925zm2.487 0c.502 0 .91-.414.91-.925a.918.918 0 00-.91-.925.917.917 0 00-.91.925c0 .51.407.925.91.925zm-2.487-2.528c.503 0 .91-.415.91-.926a.917.917 0 00-.91-.925.917.917 0 00-.91.925c0 .511.407.925.91.925zm2.487 0c.502 0 .91-.415.91-.926a.918.918 0 00-.91-.925.917.917 0 00-.91.925c0 .511.407.925.91.925zm-4.974-2.529c.503 0 .91-.414.91-.925a.917.917 0 00-.91-.925.918.918 0 00-.91.925c0 .511.408.925.91.925zm2.487 0c.503 0 .91-.414.91-.925a.917.917 0 00-.91-.925.917.917 0 00-.91.925c0 .511.407.925.91.925zm-7.46-5.056c.503 0 .91-.415.91-.926a.918.918 0 00-.91-.925.918.918 0 00-.91.925c0 .511.408.926.91.926zm2.486 2.528c.503 0 .91-.414.91-.925a.918.918 0 00-.91-.925.918.918 0 00-.91.925c0 .51.408.925.91.925zm0-2.528c.503 0 .91-.415.91-.926a.918.918 0 00-.91-.925.918.918 0 00-.91.925c0 .511.408.926.91.926zm2.487 2.528c.503 0 .91-.414.91-.925a.917.917 0 00-.91-.925.918.918 0 00-.91.925c0 .51.408.925.91.925zm0-2.528c.503 0 .91-.415.91-.926a.917.917 0 00-.91-.925.918.918 0 00-.91.925c0 .511.408.926.91.926zm2.487 2.528c.503 0 .91-.414.91-.925a.917.917 0 00-.91-.925.917.917 0 00-.91.925c0 .51.407.925.91.925zm0-2.528c.503 0 .91-.415.91-.926a.917.917 0 00-.91-.925.917.917 0 00-.91.925c0 .511.407.926.91.926zm-9.946-2.529c.502 0 .91-.414.91-.925a.918.918 0 00-.91-.925.918.918 0 00-.91.925c0 .511.407.925.91.925zm2.486 0c.503 0 .91-.414.91-.925a.918.918 0 00-.91-.925.918.918 0 00-.91.925c0 .511.408.925.91.925zm2.486 0c.503 0 .91-.414.91-.925a.918.918 0 00-.91-.925.918.918 0 00-.91.925c0 .511.408.925.91.925zm2.487 0c.503 0 .91-.414.91-.925a.917.917 0 00-.91-.925.918.918 0 00-.91.925c0 .511.408.925.91.925zm-7.459-2.528c.502 0 .91-.414.91-.925a.918.918 0 00-.91-.925.918.918 0 00-.91.925c0 .511.407.925.91.925zm0-2.528c.502 0 .91-.414.91-.925a.918.918 0 00-.91-.925.918.918 0 00-.91.925c0 .511.407.925.91.925zm2.486 2.528c.503 0 .91-.414.91-.925a.918.918 0 00-.91-.925.918.918 0 00-.91.925c0 .511.408.925.91.925zm0-2.528c.503 0 .91-.414.91-.925a.918.918 0 00-.91-.925.918.918 0 00-.91.925c0 .511.408.925.91.925zm2.486 2.528c.503 0 .91-.414.91-.925a.918.918 0 00-.91-.925.918.918 0 00-.91.925c0 .511.408.925.91.925zm0-2.528c.503 0 .91-.414.91-.925a.918.918 0 00-.91-.925.918.918 0 00-.91.925c0 .511.408.925.91.925zm2.487 2.528c.503 0 .91-.414.91-.925a.917.917 0 00-.91-.925.918.918 0 00-.91.925c0 .511.408.925.91.925zm0-2.528c.503 0 .91-.414.91-.925a.917.917 0 00-.91-.925.918.918 0 00-.91.925c0 .511.408.925.91.925zm-9.947-2.528c.504 0 .91-.414.91-.925a.918.918 0 00-.91-.925.918.918 0 00-.909.925c0 .51.407.925.91.925zm2.488 0c.502 0 .91-.414.91-.925a.918.918 0 00-.91-.925.918.918 0 00-.91.925c0 .51.407.925.91.925zm2.486 0c.503 0 .91-.414.91-.925a.918.918 0 00-.91-.925.918.918 0 00-.91.925c0 .51.408.925.91.925zm2.486 0c.503 0 .91-.414.91-.925a.918.918 0 00-.91-.925.918.918 0 00-.91.925c0 .51.408.925.91.925zm-7.46-2.528c.504 0 .91-.415.91-.926a.918.918 0 00-.91-.925.918.918 0 00-.909.925c0 .511.407.925.91.925zm2.488 0c.502 0 .91-.415.91-.926a.918.918 0 00-.91-.925.918.918 0 00-.91.925c0 .511.407.925.91.925zm2.486 0c.503 0 .91-.415.91-.926a.918.918 0 00-.91-.925.918.918 0 00-.91.925c0 .511.408.925.91.925z" fill="#000" stroke="#000" stroke-width=".326"/><path d="M65.49 20.548c.502 0 .91-.414.91-.925a.918.918 0 00-.91-.925.918.918 0 00-.91.925c0 .51.407.925.91.925zm0-2.528c.502 0 .91-.414.91-.925a.918.918 0 00-.91-.925.918.918 0 00-.91.925c0 .51.407.925.91.925zm-2.487 2.528c.502 0 .91-.414.91-.925a.918.918 0 00-.91-.925.918.918 0 00-.91.925c0 .51.407.925.91.925zm0-2.528c.502 0 .91-.414.91-.925a.918.918 0 00-.91-.925.918.918 0 00-.91.925c0 .51.407.925.91.925zm-2.487 2.528c.503 0 .91-.414.91-.925a.918.918 0 00-.91-.925.918.918 0 00-.91.925c0 .51.408.925.91.925zm0-2.528c.503 0 .91-.414.91-.925a.918.918 0 00-.91-.925.918.918 0 00-.91.925c0 .51.408.925.91.925zm-2.486 2.528c.502 0 .91-.414.91-.925a.918.918 0 00-.91-.925.918.918 0 00-.91.925c0 .51.407.925.91.925zm0-2.528c.502 0 .91-.414.91-.925a.918.918 0 00-.91-.925.918.918 0 00-.91.925c0 .51.407.925.91.925zm9.946-2.528c.503 0 .91-.415.91-.926a.918.918 0 00-.91-.925.918.918 0 00-.91.925c0 .511.408.926.91.926zm-2.486 0c.502 0 .91-.415.91-.926a.918.918 0 00-.91-.925.918.918 0 00-.91.925c0 .511.407.926.91.926zm-2.487 0c.502 0 .91-.415.91-.926a.918.918 0 00-.91-.925.918.918 0 00-.91.925c0 .511.407.926.91.926zm-2.487 0c.503 0 .91-.415.91-.926a.918.918 0 00-.91-.925.918.918 0 00-.91.925c0 .511.408.926.91.926zm7.46-2.528c.503 0 .91-.415.91-.926a.918.918 0 00-.91-.925.918.918 0 00-.91.925c0 .511.408.926.91.926zm0-2.529c.503 0 .91-.414.91-.925a.918.918 0 00-.91-.925.918.918 0 00-.91.925c0 .511.408.925.91.925zm-2.486 2.529c.502 0 .91-.415.91-.926a.918.918 0 00-.91-.925.918.918 0 00-.91.925c0 .511.407.926.91.926zm0-2.529c.502 0 .91-.414.91-.925a.918.918 0 00-.91-.925.918.918 0 00-.91.925c0 .511.407.925.91.925zm-2.487 2.529c.502 0 .91-.415.91-.926a.918.918 0 00-.91-.925.918.918 0 00-.91.925c0 .511.407.926.91.926zm0-2.529c.502 0 .91-.414.91-.925a.918.918 0 00-.91-.925.918.918 0 00-.91.925c0 .511.407.925.91.925zm-2.487 2.529c.503 0 .91-.415.91-.926a.918.918 0 00-.91-.925.918.918 0 00-.91.925c0 .511.408.926.91.926zm9.946-5.057c.503 0 .91-.414.91-.925a.918.918 0 00-.91-.925.918.918 0 00-.91.925c0 .511.408.925.91.925zm-2.486 0c.503 0 .91-.414.91-.925a.918.918 0 00-.91-.925.918.918 0 00-.91.925c0 .511.408.925.91.925zm-2.486 0c.502 0 .91-.414.91-.925a.918.918 0 00-.91-.925.918.918 0 00-.91.925c0 .511.407.925.91.925zm4.972-2.528c.503 0 .91-.414.91-.925a.918.918 0 00-.91-.925.918.918 0 00-.91.925c0 .51.408.925.91.925zm0-2.529c.503 0 .91-.414.91-.925a.918.918 0 00-.91-.925.918.918 0 00-.91.925c0 .511.408.925.91.925zm-2.486 2.529c.503 0 .91-.414.91-.925a.918.918 0 00-.91-.925.918.918 0 00-.91.925c0 .51.408.925.91.925z" fill="red" stroke="red" stroke-width=".326"/></svg>