<svg width="1200" height="630" fill="none" xmlns="http://www.w3.org/2000/svg"><path fill="url(#paint0_linear_1553_818)" d="M0 0h1200v630H0z"/><path d="M345.026 339.808l-26.832-3.456 1.227-.909-1.428 11.085-3.653-.47 3.121-24.229 3.653.471-1.428 11.085-.962-1.148 26.832 3.456-.53 4.115zm2.714-18.373l-21.857-5.075 2.356-10.145c.594-2.557 1.554-4.449 2.883-5.676 1.307-1.262 2.854-1.685 4.641-1.27 1.787.415 3.012 1.439 3.676 3.07.644 1.599.7 3.539.17 5.82l-.928-.867c.606-2.612 1.537-4.438 2.793-5.48 1.256-1.041 2.819-1.345 4.688-.911 1.897.441 3.216 1.5 3.956 3.179.72 1.645.741 3.924.064 6.839l-2.442 10.516zm-2.151-4.585l1.474-6.351c.383-1.65.423-2.945.12-3.884-.331-.946-1.06-1.55-2.187-1.812-1.155-.268-2.083-.078-2.784.571-.722.614-1.272 1.733-1.648 3.355l-1.532 6.598 6.557 1.523zm-9.403-2.184l1.379-5.938c.351-1.512.341-2.717-.03-3.614-.392-.932-1.097-1.516-2.114-1.752-1.045-.242-1.921-.026-2.629.65-.701.649-1.227 1.729-1.578 3.241l-1.379 5.939 6.351 1.474zm17.694-17.504l-21.43-6.649 1.204-3.881 21.431 6.648-1.205 3.882zm-24.953-9.869c-.234.755-.673 1.313-1.317 1.675a2.539 2.539 0 01-2.005.176c-.728-.226-1.259-.657-1.594-1.293-.326-.662-.372-1.371-.138-2.126.234-.755.669-1.299 1.305-1.634.617-.37 1.276-.447 1.977-.229.727.226 1.272.661 1.634 1.305.335.636.381 1.344.138 2.126zm28.308-1.151l-20.834-8.333 1.51-3.774 8.844 3.538 4.749-11.871-8.845-3.538 1.51-3.774 20.833 8.334-1.509 3.773-8.727-3.49-4.748 11.871 8.726 3.491-1.509 3.773zm6.589-39.131l-3.064-1.72 5.577-9.93 3.064 1.721-5.577 9.929zm26.791-24.301l-21.8-16.021 1.514-.201-6.619 9.007-2.968-2.181 14.466-19.685 2.968 2.181-6.619 9.007-.285-1.471 21.8 16.021-2.457 3.343zm17.659-21.422c-1.516 1.673-3.228 2.826-5.135 3.459-1.907.634-3.84.749-5.798.346-1.979-.423-3.784-1.373-5.415-2.851-1.652-1.497-2.775-3.2-3.369-5.11a10.723 10.723 0 01-.194-5.775c.443-1.96 1.423-3.776 2.939-5.449 1.497-1.653 3.199-2.796 5.106-3.429 1.906-.673 3.828-.798 5.767-.374 1.937.385 3.742 1.335 5.415 2.851 1.653 1.497 2.775 3.201 3.369 5.11.612 1.888.688 3.822.226 5.803-.444 1.96-1.414 3.766-2.911 5.419zm-2.635-2.388c.966-1.067 1.588-2.237 1.865-3.509a6.878 6.878 0 00-.219-3.856c-.464-1.296-1.281-2.474-2.452-3.536-1.192-1.08-2.435-1.768-3.729-2.064a6.866 6.866 0 00-3.858.16c-1.239.4-2.342 1.134-3.309 2.201-.966 1.066-1.588 2.236-1.865 3.508-.277 1.273-.204 2.558.219 3.856.403 1.279 1.2 2.459 2.393 3.539 1.171 1.061 2.433 1.748 3.788 2.061 1.333.294 2.619.241 3.858-.159 1.239-.401 2.342-1.135 3.309-2.201zm18.476-26.373a21.308 21.308 0 01-1.832 3.471 15.845 15.845 0 01-2.552 2.923c-2.014 1.812-4.034 2.775-6.058 2.888-2.004.094-3.893-.845-5.667-2.818l-4.871-5.413 3.022-2.718 4.7 5.224c1.076 1.196 2.236 1.747 3.48 1.653 1.265-.113 2.527-.736 3.786-1.869a13.563 13.563 0 002.172-2.523 18.64 18.64 0 001.725-3.147l2.095 2.329zm5.925 7.028l-15.008-16.681 3.021-2.718 15.008 16.68-3.021 2.719zm8.203-7.026l-13.236-18.119 3.282-2.398 5.619 7.692 10.324-7.542-5.619-7.692 3.282-2.397 13.236 18.119-3.282 2.397-5.544-7.589-10.325 7.542 5.545 7.589-3.282 2.398zm31.503-20.851c-1.958 1.124-3.942 1.695-5.951 1.71a11.034 11.034 0 01-5.622-1.457c-1.753-1.011-3.178-2.471-4.275-4.38-1.111-1.933-1.654-3.9-1.631-5.899.023-1.999.554-3.85 1.594-5.554 1.025-1.728 2.516-3.155 4.474-4.28 1.933-1.111 3.905-1.674 5.914-1.689 2.02-.054 3.887.42 5.601 1.42 1.725.963 3.15 2.423 4.275 4.38 1.11 1.934 1.654 3.9 1.631 5.899.001 1.985-.523 3.848-1.573 5.591-1.025 1.728-2.504 3.148-4.437 4.259zm-1.772-3.084c1.248-.717 2.2-1.638 2.855-2.764a6.876 6.876 0 00.979-3.736c-.042-1.375-.457-2.748-1.244-4.119-.802-1.395-1.772-2.432-2.911-3.112a6.867 6.867 0 00-3.721-1.036c-1.302-.001-2.577.358-3.825 1.075-1.248.717-2.2 1.638-2.856 2.763-.655 1.126-.981 2.371-.978 3.736-.011 1.341.384 2.709 1.186 4.104.787 1.37 1.777 2.413 2.969 3.128 1.178.69 2.418 1.036 3.72 1.036 1.303.001 2.578-.358 3.826-1.075zm17.823-5.396a2.845 2.845 0 01-2.179.163c-.755-.261-1.317-.773-1.686-1.535-.37-.761-.418-1.507-.144-2.236a2.85 2.85 0 011.477-1.611 2.656 2.656 0 012.103-.126c.742.236 1.298.735 1.668 1.497.369.761.423 1.519.162 2.274a2.653 2.653 0 01-1.401 1.574zm17.482-8.167l-9.59-28.041 12.057-4.124c3.045-1.041 5.645-1.244 7.801-.61 2.156.635 3.636 2.128 4.44 4.478.785 2.296.56 4.342-.675 6.137-1.245 1.768-3.216 3.113-5.913 4.036l.31-1.449c3.124-1.068 5.729-1.258 7.814-.569 2.103.653 3.56 2.168 4.373 4.544.822 2.404.585 4.588-.712 6.553-1.279 1.929-3.641 3.482-7.086 4.661l-12.819 4.384zm2.884-4.521l8.773-3c2.136-.731 3.606-1.666 4.409-2.806.821-1.176.953-2.578.396-4.207-.557-1.629-1.511-2.631-2.862-3.004-1.324-.382-3.054-.208-5.191.523l-8.772 3 3.247 9.494zm-4.289-12.538l7.812-2.672c1.949-.667 3.299-1.561 4.049-2.682.777-1.131.909-2.444.398-3.94-.521-1.522-1.435-2.492-2.741-2.91-1.28-.428-2.894-.308-4.844.359l-7.811 2.671 3.137 9.174zm41.754-4.118a21.323 21.323 0 01-3.306 2.115 15.768 15.768 0 01-3.662 1.284c-2.646.584-4.877.425-6.694-.475-1.789-.906-2.97-2.655-3.541-5.246l-1.567-7.111 3.969-.875 1.513 6.863c.346 1.571 1.083 2.623 2.212 3.154 1.156.526 2.562.606 4.215.242a13.621 13.621 0 003.134-1.124 18.574 18.574 0 003.052-1.887l.675 3.06zm1.688 9.035l-4.83-21.912 3.969-.875 4.83 21.912-3.969.875zm24.524-3.684l-.577-4.707-.318-.857-.984-8.026c-.209-1.709-.875-2.964-1.997-3.764-1.097-.833-2.64-1.127-4.629-.883a11.532 11.532 0 00-3.784 1.146c-1.209.575-2.203 1.279-2.983 2.114l-2.051-2.819c1.035-1.066 2.322-1.934 3.86-2.606a17.182 17.182 0 014.992-1.38c3.054-.374 5.498.08 7.333 1.362s2.939 3.45 3.314 6.504l1.648 13.447-3.824.469zm-7.281 1.148c-1.653.203-3.144.101-4.473-.305-1.302-.409-2.349-1.063-3.141-1.961-.796-.926-1.271-2.019-1.426-3.28-.148-1.205-.001-2.332.439-3.381.468-1.052 1.31-1.952 2.527-2.698 1.244-.75 2.973-1.26 5.186-1.532l7.06-.865.356 2.9-6.892.844c-2.017.248-3.335.75-3.953 1.509-.618.758-.868 1.613-.751 2.566.134 1.092.676 1.921 1.627 2.487.947.538 2.191.713 3.732.524 1.513-.186 2.788-.683 3.827-1.493 1.066-.813 1.772-1.895 2.118-3.245l1.139 2.675c-.371 1.382-1.181 2.548-2.429 3.497-1.252.921-2.901 1.507-4.946 1.758zm27.334-2.012c-2.285.06-4.344-.381-6.175-1.321-1.803-.941-3.236-2.259-4.296-3.953-1.061-1.695-1.621-3.657-1.679-5.886-.058-2.229.398-4.217 1.369-5.965a10.64 10.64 0 014.084-4.13c1.78-1.034 3.813-1.582 6.098-1.642 2.032-.053 3.848.31 5.45 1.086a8.397 8.397 0 013.817 3.458l-3.037 2.07c-.763-1.081-1.687-1.862-2.772-2.342a7.308 7.308 0 00-3.407-.715c-1.467.038-2.771.397-3.91 1.076a7.156 7.156 0 00-2.679 2.823c-.647 1.174-.95 2.566-.908 4.174.042 1.608.418 2.996 1.126 4.163.708 1.168 1.649 2.061 2.823 2.679 1.173.619 2.494.909 3.961.871a7.634 7.634 0 003.366-.851c1.058-.564 1.939-1.406 2.644-2.525l3.141 1.866c-.834 1.575-2.044 2.806-3.631 3.695-1.558.859-3.353 1.316-5.385 1.369zm13.362-.354l1.66-22.377 4.054.3-.705 9.501 12.75.946.705-9.5 4.053.3-1.66 22.378-4.053-.301.695-9.373-12.75-.946-.696 9.373-4.053-.301zm38.38 4.68c-2.22-.418-4.098-1.274-5.635-2.568a11.025 11.025 0 01-3.326-4.761c-.675-1.907-.81-3.943-.403-6.107.412-2.191 1.277-4.039 2.594-5.543a10.718 10.718 0 014.82-3.186c1.903-.647 3.964-.762 6.183-.345 2.191.412 4.055 1.265 5.592 2.56 1.57 1.271 2.682 2.844 3.335 4.719.685 1.852.819 3.888.402 6.107-.412 2.191-1.277 4.039-2.593 5.543-1.289 1.51-2.899 2.585-4.829 3.228-1.902.647-3.949.765-6.14.353zm.657-3.495c1.414.266 2.737.184 3.966-.245a6.872 6.872 0 003.171-2.204c.863-1.073 1.44-2.386 1.732-3.939.297-1.581.234-3-.19-4.258a6.875 6.875 0 00-2.154-3.205c-.99-.847-2.192-1.403-3.607-1.669-1.414-.266-2.736-.184-3.966.245-1.229.429-2.287 1.164-3.171 2.204-.88 1.012-1.468 2.308-1.766 3.889-.292 1.554-.217 2.989.224 4.307.447 1.291 1.165 2.359 2.154 3.206.99.846 2.192 1.403 3.607 1.669zm17.104 7.497a2.843 2.843 0 01-1.764-1.291c-.404-.688-.499-1.442-.285-2.262.213-.819.661-1.417 1.342-1.794a2.847 2.847 0 012.17-.265 2.65 2.65 0 011.681 1.269c.411.661.51 1.402.297 2.221-.214.819-.665 1.431-1.354 1.835a2.651 2.651 0 01-2.087.287zm18.902 5.521l9.956-27.913 3.948 1.408-9.957 27.913-3.947-1.408zm11.03 3.921l9.267-20.436 3.702 1.679-3.934 8.675 11.644 5.28 3.934-8.675 3.702 1.678-9.267 20.436-3.702-1.679 3.882-8.559-11.645-5.281-3.881 8.56-3.702-1.678zm36.535 19.004l-.253-.154-.362-.219a22.265 22.265 0 01-.217-.132c-3.905-2.434-6.43-5.154-7.578-8.161-1.133-3.03-.74-6.127 1.177-9.288 1.903-3.137 4.445-4.88 7.627-5.228 3.221-.357 6.829.66 10.826 3.051l.217.131a39.735 39.735 0 00.543.33c4.03 2.444 6.643 5.184 7.839 8.22 1.22 3.051.878 6.144-1.025 9.282-1.932 3.185-4.54 4.954-7.823 5.306-3.284.353-6.94-.694-10.971-3.138zm1.772-3.084c2.1 1.273 3.998 2.061 5.696 2.365 1.722.318 3.24.182 4.554-.407 1.315-.589 2.426-1.632 3.333-3.128.893-1.472 1.29-2.915 1.19-4.329-.1-1.414-.696-2.799-1.788-4.154-1.068-1.342-2.652-2.649-4.752-3.922l-.289-.176-.254-.153c-2.051-1.245-3.925-2.018-5.623-2.322-1.659-.313-3.126-.179-4.402.4-1.276.58-2.353 1.594-3.231 3.042-.893 1.472-1.309 2.92-1.248 4.343.085 1.438.643 2.832 1.672 4.183 1.054 1.365 2.587 2.675 4.599 3.928l.254.154.289.176zm-7.81 8.632l20.55-33.883 3.403 2.064-20.55 33.882-3.403-2.063zm30.133 11.077c-1.774-1.397-3.044-3.024-3.808-4.883a11.024 11.024 0 01-.746-5.76c.283-2.003 1.106-3.87 2.468-5.6 1.379-1.752 3-2.99 4.863-3.715a10.716 10.716 0 015.748-.594c1.986.306 3.866 1.157 5.64 2.553 1.753 1.379 3.011 2.998 3.775 4.857.804 1.853 1.061 3.762.773 5.726-.249 1.959-1.072 3.826-2.468 5.6-1.379 1.752-3 2.991-4.864 3.715-1.841.742-3.765.952-5.774.628-1.986-.306-3.855-1.148-5.607-2.527zm2.199-2.795c1.132.89 2.341 1.429 3.63 1.618a6.877 6.877 0 003.831-.487c1.261-.552 2.38-1.449 3.358-2.692.995-1.264 1.595-2.551 1.8-3.862a6.87 6.87 0 00-.427-3.838c-.485-1.209-1.294-2.258-2.425-3.148-1.131-.89-2.341-1.43-3.63-1.618-1.288-.188-2.565-.026-3.831.487-1.248.49-2.369 1.368-3.364 2.632-.978 1.242-1.576 2.549-1.794 3.922-.201 1.35-.058 2.63.427 3.838.486 1.208 1.294 2.258 2.425 3.148zm19.242 21.664c-1.334-1.301-2.261-2.796-2.781-4.486-.481-1.69-.464-3.467.051-5.33.536-1.843 1.69-3.674 3.463-5.493 1.773-1.819 3.564-3.029 5.373-3.631 1.829-.582 3.585-.644 5.267-.187 1.703.478 3.241 1.386 4.615 2.726 1.577 1.537 2.636 3.24 3.179 5.109.543 1.869.567 3.765.072 5.687-.474 1.903-1.51 3.672-3.105 5.309-1.596 1.637-3.349 2.727-5.258 3.271-1.909.543-3.805.567-5.688.072-1.882-.495-3.611-1.511-5.188-3.047zm-14.074-2.606l21.396-21.948 2.789 2.719-4.226 4.335-3.817 3.552-3.332 4.024-9.9 10.156-2.91-2.838zm16.314-.177c1.031 1.004 2.177 1.668 3.439 1.992a6.878 6.878 0 003.861-.079c1.332-.397 2.55-1.161 3.653-2.292 1.123-1.152 1.846-2.379 2.169-3.681a6.87 6.87 0 00-.02-3.861c-.355-1.253-1.048-2.382-2.079-3.387-1.01-.985-2.156-1.649-3.438-1.992-1.262-.323-2.549-.297-3.861.079-1.273.376-2.471 1.139-3.594 2.291-1.103 1.132-1.846 2.359-2.228 3.681-.343 1.322-.336 2.609.019 3.862.376 1.273 1.069 2.402 2.079 3.387zm9.281 14.053l17.473-14.077 2.629 3.264-6.867 17.928-1.063-1.319 19.139-2.697 2.391 2.967-17.474 14.078-2.31-2.869 13.912-11.208.129.766-17.322 2.321-1.116-1.385 6.158-16.65.637.52-13.979 11.262-2.337-2.901zm27.1 36.978l3.995-2.555.635-.657 6.812-4.357c1.45-.928 2.294-2.071 2.531-3.428.276-1.35-.125-2.868-1.205-4.557a11.559 11.559 0 00-2.669-2.916c-1.041-.842-2.107-1.434-3.196-1.775l1.655-3.069c1.409.473 2.748 1.258 4.019 2.354a17.217 17.217 0 013.402 3.905c1.658 2.592 2.305 4.993 1.942 7.201-.363 2.209-1.84 4.142-4.432 5.8l-11.413 7.299-2.076-3.245zm-4.183-6.069c-.897-1.403-1.45-2.792-1.659-4.166-.194-1.35-.057-2.577.411-3.68.491-1.118 1.271-2.019 2.341-2.703 1.022-.654 2.102-1.009 3.238-1.066 1.152-.033 2.327.338 3.526 1.112 1.214.798 2.422 2.137 3.623 4.015l3.832 5.992-2.461 1.574-3.741-5.849c-1.095-1.712-2.118-2.683-3.068-2.913-.951-.229-1.831-.085-2.639.432-.928.593-1.441 1.44-1.54 2.542-.076 1.087.305 2.285 1.141 3.592.821 1.284 1.822 2.219 3 2.806 1.195.609 2.475.779 3.843.507l-1.921 2.183c-1.406.263-2.807.037-4.203-.679-1.372-.73-2.613-1.964-3.723-3.699zm9.377 14.667l20.041-10.092 1.828 3.63-16.864 8.493 5.522 10.965 16.864-8.492 1.828 3.63-20.041 10.092-9.178-18.226zm4.394 20.303l4.84-2.437.268 1.003-2.152-4.273 3.177-1.6 3.427 6.807-7.827 3.941-1.733-3.441zm7.897 5.547l20.794-8.434 1.527 3.767-20.793 8.433-1.528-3.766zm25.559-8.174c-.297-.732-.311-1.442-.042-2.13.28-.662.76-1.13 1.44-1.406.706-.287 1.39-.29 2.052-.01.672.306 1.157.825 1.454 1.557.297.733.306 1.43.026 2.092-.243.677-.705 1.153-1.385 1.429-.706.287-1.403.295-2.091.026-.662-.28-1.146-.799-1.454-1.558zm-21.066 19.114l21.414-6.704 1.214 3.879-15.596 4.882 19.707 8.249 1.1 3.515-21.413 6.704-1.215-3.879 15.596-4.883-19.694-8.208-1.113-3.555zm27.338 2.443c-.615-1.966-.629-3.663-.04-5.089.624-1.408 1.834-2.408 3.63-3l.822 2.626c-1.015.348-1.717.937-2.108 1.769-.381.859-.399 1.841-.054 2.945.346 1.105.921 1.901 1.724 2.389.803.487 1.721.585 2.753.291l.848 2.707c-1.814.538-3.382.393-4.706-.434-1.297-.836-2.253-2.238-2.869-4.204zm-19.434 23.894l22.016-4.331.785 3.988-9.347 1.839 2.468 12.545 9.346-1.838.785 3.987-22.017 4.331-.784-3.988 9.222-1.814-2.468-12.545-9.222 1.814-.784-3.988zm5.598 37.476c-.188-2.25.136-4.288.974-6.114a11.036 11.036 0 013.703-4.475c1.659-1.158 3.586-1.83 5.779-2.014 2.222-.187 4.234.154 6.034 1.023a10.727 10.727 0 014.355 3.798c1.131 1.661 1.791 3.617 1.979 5.867.187 2.222-.139 4.246-.977 6.072-.808 1.853-2.028 3.343-3.661 4.471-1.602 1.154-3.529 1.826-5.779 2.015-2.222.186-4.233-.155-6.034-1.023-1.798-.841-3.264-2.106-4.397-3.795-1.13-1.661-1.789-3.603-1.976-5.825zm3.544-.297c.121 1.434.552 2.687 1.293 3.758a6.867 6.867 0 002.969 2.47c1.263.545 2.683.752 4.258.619 1.603-.134 2.954-.573 4.053-1.317a6.872 6.872 0 002.515-2.93c.553-1.179.769-2.486.649-3.921-.121-1.434-.552-2.687-1.293-3.757-.741-1.071-1.731-1.894-2.969-2.47-1.21-.578-2.616-.8-4.219-.666-1.575.132-2.939.587-4.092 1.363-1.125.774-1.963 1.751-2.516 2.93-.552 1.18-.768 2.487-.648 3.921zm-2.65 18.735c-.009-.79.252-1.47.782-2.04.558-.571 1.261-.861 2.108-.87.846-.009 1.541.266 2.083.824.542.559.818 1.234.826 2.024a2.65 2.65 0 01-.783 1.956c-.53.57-1.219.86-2.065.869-.847.009-1.556-.266-2.126-.824a2.651 2.651 0 01-.825-1.939zm27.03 44.149l-.492 4.205-29.434-3.445.492-4.205 29.434 3.445zm-27.456-20.349l.493-4.205 29.434 3.446-.492 4.205-29.435-3.446zm11.097 18.818l2.072-17.703 3.658.428-2.072 17.703-3.658-.428zm-18.336 23.665l4.615 1.09.914-.001 7.869 1.859c1.676.396 3.084.206 4.224-.569 1.161-.74 1.972-2.086 2.433-4.036.305-1.291.383-2.607.236-3.947-.12-1.333-.437-2.51-.95-3.53l3.356-.947c.641 1.34 1.009 2.848 1.106 4.524.118 1.71-.027 3.43-.436 5.161-.707 2.994-1.98 5.129-3.819 6.406-1.838 1.277-4.255 1.562-7.249.854l-13.185-3.114.886-3.75zm1.447-7.228c.382-1.62.995-2.984 1.836-4.09.835-1.079 1.811-1.834 2.928-2.266 1.144-.426 2.335-.493 3.571-.201 1.181.279 2.187.807 3.019 1.583.825.804 1.377 1.906 1.655 3.306.272 1.427.152 3.226-.361 5.396l-1.635 6.922-2.843-.672 1.596-6.757c.467-1.978.452-3.388-.045-4.23-.497-.843-1.212-1.374-2.146-1.595-1.071-.253-2.037-.031-2.897.664-.833.703-1.428 1.809-1.785 3.32-.351 1.483-.326 2.852.074 4.107.393 1.282 1.163 2.319 2.31 3.112l-2.905.14c-1.167-.827-1.98-1.99-2.438-3.49-.43-1.494-.408-3.243.066-5.249zm-7.313 32.365l16.033 5.582 3.202-9.196-4.009-1.62a62.083 62.083 0 01-3.781-1.63 22.121 22.121 0 01-3.203-1.743c-.957-.602-1.684-1.259-2.184-1.97a3.2 3.2 0 01-.571-2.351l2.002-3.562c-.314.817-.279 1.576.104 2.278.41.71 1.075 1.375 1.995 1.995.911.645 1.983 1.258 3.216 1.836a96.988 96.988 0 003.927 1.726l7.045 2.812-5.721 16.433-19.392-6.752 1.337-3.838zm-.495-20.211l8.277 2.882-8.687 24.949-8.276-2.882 1.253-3.598 4.918 1.712 6.166-17.712-4.917-1.713 1.266-3.638zm-5.509 30.114l20.573 8.958-1.623 3.726-20.573-8.958 1.623-3.726zm23.721 12.545c.315-.724.813-1.231 1.493-1.52.668-.263 1.339-.248 2.012.045.699.304 1.179.791 1.442 1.46.252.694.22 1.404-.095 2.128-.316.725-.808 1.218-1.477 1.481-.654.301-1.317.304-1.99.011-.698-.304-1.192-.796-1.481-1.476-.263-.669-.231-1.378.096-2.129zm-28.587-1.23l19.765 10.622-1.924 3.58-14.395-7.736 7.882 19.856-1.744 3.245-19.765-10.622 1.924-3.58 14.395 7.736-7.901-19.819 1.763-3.282zm17.368 21.254c.976-1.815 2.179-3.011 3.61-3.587 1.443-.539 3.004-.373 4.683.498l-1.303 2.424c-.958-.483-1.871-.573-2.738-.271-.881.328-1.596 1.001-2.143 2.021-.548 1.019-.716 1.987-.503 2.902.213.915.785 1.64 1.717 2.172l-1.343 2.499c-1.652-.92-2.645-2.143-2.979-3.668-.309-1.512.024-3.175.999-4.99zm-30.794 3.063l18.464 12.75-2.309 3.344-7.839-5.412-7.265 10.521 7.839 5.412-2.31 3.345-18.464-12.75 2.31-3.344 7.734 5.34 7.265-10.521-7.735-5.341 2.31-3.344zm-22.241 29.441c1.473-1.711 3.155-2.908 5.045-3.59a11.04 11.04 0 015.787-.493c1.989.372 3.818 1.276 5.487 2.712 1.69 1.454 2.856 3.128 3.498 5.021.642 1.894.756 3.816.342 5.769-.393 1.97-1.326 3.811-2.799 5.523-1.455 1.69-3.127 2.876-5.017 3.558-1.888.721-3.806.895-5.755.52-1.947-.334-3.776-1.238-5.487-2.711-1.69-1.455-2.856-3.129-3.498-5.022-.66-1.872-.785-3.804-.374-5.796.393-1.97 1.317-3.801 2.771-5.491zm2.696 2.32c-.939 1.091-1.531 2.276-1.775 3.555a6.871 6.871 0 00.318 3.849c.496 1.284 1.343 2.441 2.541 3.472 1.219 1.05 2.479 1.706 3.78 1.969a6.88 6.88 0 003.853-.258c1.229-.433 2.312-1.194 3.251-2.285.939-1.091 1.531-2.276 1.776-3.555.244-1.279.138-2.562-.318-3.849-.436-1.268-1.263-2.427-2.482-3.477-1.198-1.031-2.478-1.686-3.84-1.964-1.34-.26-2.624-.174-3.853.258-1.228.433-2.312 1.194-3.251 2.285z" fill="#000"/><path d="M412.124 288.795c1.726 0 3.124-1.422 3.124-3.176 0-1.754-1.398-3.176-3.124-3.176-1.725 0-3.124 1.422-3.124 3.176 0 1.754 1.399 3.176 3.124 3.176zm8.537 0c1.725 0 3.124-1.422 3.124-3.176 0-1.754-1.399-3.176-3.124-3.176s-3.124 1.422-3.124 3.176c0 1.754 1.399 3.176 3.124 3.176zm8.538 0c1.725 0 3.124-1.422 3.124-3.176 0-1.754-1.399-3.176-3.124-3.176s-3.124 1.422-3.124 3.176c0 1.754 1.399 3.176 3.124 3.176zm8.538 0c1.725 0 3.124-1.422 3.124-3.176 0-1.754-1.399-3.176-3.124-3.176s-3.124 1.422-3.124 3.176c0 1.754 1.399 3.176 3.124 3.176zm8.536 0c1.725 0 3.124-1.422 3.124-3.176 0-1.754-1.399-3.176-3.124-3.176s-3.124 1.422-3.124 3.176c0 1.754 1.399 3.176 3.124 3.176zm8.538 0c1.725 0 3.124-1.422 3.124-3.176 0-1.754-1.399-3.176-3.124-3.176s-3.124 1.422-3.124 3.176c0 1.754 1.399 3.176 3.124 3.176zm8.537 0c1.726 0 3.124-1.422 3.124-3.176 0-1.754-1.398-3.176-3.124-3.176-1.725 0-3.124 1.422-3.124 3.176 0 1.754 1.399 3.176 3.124 3.176zm8.538 0c1.726 0 3.124-1.422 3.124-3.176 0-1.754-1.398-3.176-3.124-3.176-1.725 0-3.124 1.422-3.124 3.176 0 1.754 1.399 3.176 3.124 3.176zm8.536 0c1.726 0 3.124-1.422 3.124-3.176 0-1.754-1.398-3.176-3.124-3.176-1.725 0-3.124 1.422-3.124 3.176 0 1.754 1.399 3.176 3.124 3.176zm8.538 0c1.726 0 3.124-1.422 3.124-3.176 0-1.754-1.398-3.176-3.124-3.176-1.725 0-3.124 1.422-3.124 3.176 0 1.754 1.399 3.176 3.124 3.176zm8.538 0c1.726 0 3.124-1.422 3.124-3.176 0-1.754-1.398-3.176-3.124-3.176-1.725 0-3.124 1.422-3.124 3.176 0 1.754 1.399 3.176 3.124 3.176zm8.537 0c1.725 0 3.124-1.422 3.124-3.176 0-1.754-1.399-3.176-3.124-3.176s-3.124 1.422-3.124 3.176c0 1.754 1.399 3.176 3.124 3.176zm-93.911 8.68c1.726 0 3.124-1.422 3.124-3.176 0-1.755-1.398-3.177-3.124-3.177-1.725 0-3.124 1.422-3.124 3.177 0 1.754 1.399 3.176 3.124 3.176zm0 8.681c1.726 0 3.124-1.422 3.124-3.176 0-1.754-1.398-3.176-3.124-3.176-1.725 0-3.124 1.422-3.124 3.176 0 1.754 1.399 3.176 3.124 3.176zm0 8.682c1.726 0 3.124-1.422 3.124-3.177 0-1.754-1.398-3.176-3.124-3.176-1.725 0-3.124 1.422-3.124 3.176 0 1.755 1.399 3.177 3.124 3.177zm8.537-17.363c1.725 0 3.124-1.422 3.124-3.176 0-1.755-1.399-3.177-3.124-3.177s-3.124 1.422-3.124 3.177c0 1.754 1.399 3.176 3.124 3.176zm0 8.681c1.725 0 3.124-1.422 3.124-3.176 0-1.754-1.399-3.176-3.124-3.176s-3.124 1.422-3.124 3.176c0 1.754 1.399 3.176 3.124 3.176zm0 8.682c1.725 0 3.124-1.422 3.124-3.177 0-1.754-1.399-3.176-3.124-3.176s-3.124 1.422-3.124 3.176c0 1.755 1.399 3.177 3.124 3.177zm8.538-17.363c1.725 0 3.124-1.422 3.124-3.176 0-1.755-1.399-3.177-3.124-3.177s-3.124 1.422-3.124 3.177c0 1.754 1.399 3.176 3.124 3.176zm0 8.681c1.725 0 3.124-1.422 3.124-3.176 0-1.754-1.399-3.176-3.124-3.176s-3.124 1.422-3.124 3.176c0 1.754 1.399 3.176 3.124 3.176zm0 8.682c1.725 0 3.124-1.422 3.124-3.177 0-1.754-1.399-3.176-3.124-3.176s-3.124 1.422-3.124 3.176c0 1.755 1.399 3.177 3.124 3.177zm8.538-17.363c1.725 0 3.124-1.422 3.124-3.176 0-1.755-1.399-3.177-3.124-3.177s-3.124 1.422-3.124 3.177c0 1.754 1.399 3.176 3.124 3.176zm0 8.681c1.725 0 3.124-1.422 3.124-3.176 0-1.754-1.399-3.176-3.124-3.176s-3.124 1.422-3.124 3.176c0 1.754 1.399 3.176 3.124 3.176zm0 8.682c1.725 0 3.124-1.422 3.124-3.177 0-1.754-1.399-3.176-3.124-3.176s-3.124 1.422-3.124 3.176c0 1.755 1.399 3.177 3.124 3.177zm8.536-17.363c1.725 0 3.124-1.422 3.124-3.176 0-1.755-1.399-3.177-3.124-3.177s-3.124 1.422-3.124 3.177c0 1.754 1.399 3.176 3.124 3.176zm0 8.681c1.725 0 3.124-1.422 3.124-3.176 0-1.754-1.399-3.176-3.124-3.176s-3.124 1.422-3.124 3.176c0 1.754 1.399 3.176 3.124 3.176zm0 8.682c1.725 0 3.124-1.422 3.124-3.177 0-1.754-1.399-3.176-3.124-3.176s-3.124 1.422-3.124 3.176c0 1.755 1.399 3.177 3.124 3.177zm8.538-17.363c1.725 0 3.124-1.422 3.124-3.176 0-1.755-1.399-3.177-3.124-3.177s-3.124 1.422-3.124 3.177c0 1.754 1.399 3.176 3.124 3.176zm0 8.681c1.725 0 3.124-1.422 3.124-3.176 0-1.754-1.399-3.176-3.124-3.176s-3.124 1.422-3.124 3.176c0 1.754 1.399 3.176 3.124 3.176zm0 8.682c1.725 0 3.124-1.422 3.124-3.177 0-1.754-1.399-3.176-3.124-3.176s-3.124 1.422-3.124 3.176c0 1.755 1.399 3.177 3.124 3.177zm8.537-17.363c1.726 0 3.124-1.422 3.124-3.176 0-1.755-1.398-3.177-3.124-3.177-1.725 0-3.124 1.422-3.124 3.177 0 1.754 1.399 3.176 3.124 3.176zm0 8.681c1.726 0 3.124-1.422 3.124-3.176 0-1.754-1.398-3.176-3.124-3.176-1.725 0-3.124 1.422-3.124 3.176 0 1.754 1.399 3.176 3.124 3.176zm0 8.682c1.726 0 3.124-1.422 3.124-3.177 0-1.754-1.398-3.176-3.124-3.176-1.725 0-3.124 1.422-3.124 3.176 0 1.755 1.399 3.177 3.124 3.177zm8.538-17.363c1.726 0 3.124-1.422 3.124-3.176 0-1.755-1.398-3.177-3.124-3.177-1.725 0-3.124 1.422-3.124 3.177 0 1.754 1.399 3.176 3.124 3.176zm0 8.681c1.726 0 3.124-1.422 3.124-3.176 0-1.754-1.398-3.176-3.124-3.176-1.725 0-3.124 1.422-3.124 3.176 0 1.754 1.399 3.176 3.124 3.176zm0 8.682c1.726 0 3.124-1.422 3.124-3.177 0-1.754-1.398-3.176-3.124-3.176-1.725 0-3.124 1.422-3.124 3.176 0 1.755 1.399 3.177 3.124 3.177zm8.536-17.363c1.726 0 3.124-1.422 3.124-3.176 0-1.755-1.398-3.177-3.124-3.177-1.725 0-3.124 1.422-3.124 3.177 0 1.754 1.399 3.176 3.124 3.176zm0 8.681c1.726 0 3.124-1.422 3.124-3.176 0-1.754-1.398-3.176-3.124-3.176-1.725 0-3.124 1.422-3.124 3.176 0 1.754 1.399 3.176 3.124 3.176zm0 8.682c1.726 0 3.124-1.422 3.124-3.177 0-1.754-1.398-3.176-3.124-3.176-1.725 0-3.124 1.422-3.124 3.176 0 1.755 1.399 3.177 3.124 3.177zm8.538-17.363c1.726 0 3.124-1.422 3.124-3.176 0-1.755-1.398-3.177-3.124-3.177-1.725 0-3.124 1.422-3.124 3.177 0 1.754 1.399 3.176 3.124 3.176zm0 8.681c1.726 0 3.124-1.422 3.124-3.176 0-1.754-1.398-3.176-3.124-3.176-1.725 0-3.124 1.422-3.124 3.176 0 1.754 1.399 3.176 3.124 3.176zm0 8.682c1.726 0 3.124-1.422 3.124-3.177 0-1.754-1.398-3.176-3.124-3.176-1.725 0-3.124 1.422-3.124 3.176 0 1.755 1.399 3.177 3.124 3.177zm8.538-17.363c1.726 0 3.124-1.422 3.124-3.176 0-1.755-1.398-3.177-3.124-3.177-1.725 0-3.124 1.422-3.124 3.177 0 1.754 1.399 3.176 3.124 3.176zm0 8.681c1.726 0 3.124-1.422 3.124-3.176 0-1.754-1.398-3.176-3.124-3.176-1.725 0-3.124 1.422-3.124 3.176 0 1.754 1.399 3.176 3.124 3.176zm0 8.682c1.726 0 3.124-1.422 3.124-3.177 0-1.754-1.398-3.176-3.124-3.176-1.725 0-3.124 1.422-3.124 3.176 0 1.755 1.399 3.177 3.124 3.177zm8.537-17.363c1.725 0 3.124-1.422 3.124-3.176 0-1.755-1.399-3.177-3.124-3.177s-3.124 1.422-3.124 3.177c0 1.754 1.399 3.176 3.124 3.176zm0 8.681c1.725 0 3.124-1.422 3.124-3.176 0-1.754-1.399-3.176-3.124-3.176s-3.124 1.422-3.124 3.176c0 1.754 1.399 3.176 3.124 3.176zm0 8.682c1.725 0 3.124-1.422 3.124-3.177 0-1.754-1.399-3.176-3.124-3.176s-3.124 1.422-3.124 3.176c0 1.755 1.399 3.177 3.124 3.177zm-59.762 8.679c1.725 0 3.124-1.422 3.124-3.177 0-1.754-1.399-3.176-3.124-3.176s-3.124 1.422-3.124 3.176c0 1.755 1.399 3.177 3.124 3.177zm0 8.679c1.725 0 3.124-1.422 3.124-3.176 0-1.754-1.399-3.176-3.124-3.176s-3.124 1.422-3.124 3.176c0 1.754 1.399 3.176 3.124 3.176zm0 8.682c1.725 0 3.124-1.423 3.124-3.177s-1.399-3.176-3.124-3.176-3.124 1.422-3.124 3.176c0 1.754 1.399 3.177 3.124 3.177zm0 8.681c1.725 0 3.124-1.422 3.124-3.177 0-1.754-1.399-3.176-3.124-3.176s-3.124 1.422-3.124 3.176c0 1.755 1.399 3.177 3.124 3.177zm0 8.679c1.725 0 3.124-1.422 3.124-3.176 0-1.754-1.399-3.177-3.124-3.177s-3.124 1.423-3.124 3.177 1.399 3.176 3.124 3.176zm0 8.679c1.725 0 3.124-1.422 3.124-3.176 0-1.754-1.399-3.176-3.124-3.176s-3.124 1.422-3.124 3.176c0 1.754 1.399 3.176 3.124 3.176zm0 8.681c1.725 0 3.124-1.423 3.124-3.177s-1.399-3.176-3.124-3.176-3.124 1.422-3.124 3.176c0 1.754 1.399 3.177 3.124 3.177zm0 8.681c1.725 0 3.124-1.422 3.124-3.176 0-1.755-1.399-3.177-3.124-3.177s-3.124 1.422-3.124 3.177c0 1.754 1.399 3.176 3.124 3.176zm0 8.679c1.725 0 3.124-1.422 3.124-3.176 0-1.754-1.399-3.177-3.124-3.177s-3.124 1.423-3.124 3.177 1.399 3.176 3.124 3.176zm0 8.681c1.725 0 3.124-1.422 3.124-3.176 0-1.754-1.399-3.176-3.124-3.176s-3.124 1.422-3.124 3.176c0 1.754 1.399 3.176 3.124 3.176zm0 8.682c1.725 0 3.124-1.422 3.124-3.177 0-1.754-1.399-3.176-3.124-3.176s-3.124 1.422-3.124 3.176c0 1.755 1.399 3.177 3.124 3.177zm0 8.679c1.725 0 3.124-1.422 3.124-3.176 0-1.755-1.399-3.177-3.124-3.177s-3.124 1.422-3.124 3.177c0 1.754 1.399 3.176 3.124 3.176zm8.538-95.483c1.725 0 3.124-1.422 3.124-3.177 0-1.754-1.399-3.176-3.124-3.176s-3.124 1.422-3.124 3.176c0 1.755 1.399 3.177 3.124 3.177zm0 8.679c1.725 0 3.124-1.422 3.124-3.176 0-1.754-1.399-3.176-3.124-3.176s-3.124 1.422-3.124 3.176c0 1.754 1.399 3.176 3.124 3.176zm0 8.682c1.725 0 3.124-1.423 3.124-3.177s-1.399-3.176-3.124-3.176-3.124 1.422-3.124 3.176c0 1.754 1.399 3.177 3.124 3.177zm0 8.681c1.725 0 3.124-1.422 3.124-3.177 0-1.754-1.399-3.176-3.124-3.176s-3.124 1.422-3.124 3.176c0 1.755 1.399 3.177 3.124 3.177zm0 8.679c1.725 0 3.124-1.422 3.124-3.176 0-1.754-1.399-3.177-3.124-3.177s-3.124 1.423-3.124 3.177 1.399 3.176 3.124 3.176zm0 8.679c1.725 0 3.124-1.422 3.124-3.176 0-1.754-1.399-3.176-3.124-3.176s-3.124 1.422-3.124 3.176c0 1.754 1.399 3.176 3.124 3.176zm0 8.681c1.725 0 3.124-1.423 3.124-3.177s-1.399-3.176-3.124-3.176-3.124 1.422-3.124 3.176c0 1.754 1.399 3.177 3.124 3.177zm0 8.681c1.725 0 3.124-1.422 3.124-3.176 0-1.755-1.399-3.177-3.124-3.177s-3.124 1.422-3.124 3.177c0 1.754 1.399 3.176 3.124 3.176zm0 8.679c1.725 0 3.124-1.422 3.124-3.176 0-1.754-1.399-3.177-3.124-3.177s-3.124 1.423-3.124 3.177 1.399 3.176 3.124 3.176zm0 8.681c1.725 0 3.124-1.422 3.124-3.176 0-1.754-1.399-3.176-3.124-3.176s-3.124 1.422-3.124 3.176c0 1.754 1.399 3.176 3.124 3.176zm0 8.682c1.725 0 3.124-1.422 3.124-3.177 0-1.754-1.399-3.176-3.124-3.176s-3.124 1.422-3.124 3.176c0 1.755 1.399 3.177 3.124 3.177zm0 8.679c1.725 0 3.124-1.422 3.124-3.176 0-1.755-1.399-3.177-3.124-3.177s-3.124 1.422-3.124 3.177c0 1.754 1.399 3.176 3.124 3.176zm8.537-95.483c1.726 0 3.124-1.422 3.124-3.177 0-1.754-1.398-3.176-3.124-3.176-1.725 0-3.124 1.422-3.124 3.176 0 1.755 1.399 3.177 3.124 3.177zm0 8.679c1.726 0 3.124-1.422 3.124-3.176 0-1.754-1.398-3.176-3.124-3.176-1.725 0-3.124 1.422-3.124 3.176 0 1.754 1.399 3.176 3.124 3.176zm0 8.682c1.726 0 3.124-1.423 3.124-3.177s-1.398-3.176-3.124-3.176c-1.725 0-3.124 1.422-3.124 3.176 0 1.754 1.399 3.177 3.124 3.177zm0 8.681c1.726 0 3.124-1.422 3.124-3.177 0-1.754-1.398-3.176-3.124-3.176-1.725 0-3.124 1.422-3.124 3.176 0 1.755 1.399 3.177 3.124 3.177zm0 8.679c1.726 0 3.124-1.422 3.124-3.176 0-1.754-1.398-3.177-3.124-3.177-1.725 0-3.124 1.423-3.124 3.177s1.399 3.176 3.124 3.176zm0 8.679c1.726 0 3.124-1.422 3.124-3.176 0-1.754-1.398-3.176-3.124-3.176-1.725 0-3.124 1.422-3.124 3.176 0 1.754 1.399 3.176 3.124 3.176zm0 8.681c1.726 0 3.124-1.423 3.124-3.177s-1.398-3.176-3.124-3.176c-1.725 0-3.124 1.422-3.124 3.176 0 1.754 1.399 3.177 3.124 3.177zm0 8.681c1.726 0 3.124-1.422 3.124-3.176 0-1.755-1.398-3.177-3.124-3.177-1.725 0-3.124 1.422-3.124 3.177 0 1.754 1.399 3.176 3.124 3.176zm0 8.679c1.726 0 3.124-1.422 3.124-3.176 0-1.754-1.398-3.177-3.124-3.177-1.725 0-3.124 1.423-3.124 3.177s1.399 3.176 3.124 3.176zm0 8.681c1.726 0 3.124-1.422 3.124-3.176 0-1.754-1.398-3.176-3.124-3.176-1.725 0-3.124 1.422-3.124 3.176 0 1.754 1.399 3.176 3.124 3.176zm0 8.682c1.726 0 3.124-1.422 3.124-3.177 0-1.754-1.398-3.176-3.124-3.176-1.725 0-3.124 1.422-3.124 3.176 0 1.755 1.399 3.177 3.124 3.177zm0 8.679c1.726 0 3.124-1.422 3.124-3.176 0-1.755-1.398-3.177-3.124-3.177-1.725 0-3.124 1.422-3.124 3.177 0 1.754 1.399 3.176 3.124 3.176zm8.538-95.483c1.726 0 3.124-1.422 3.124-3.177 0-1.754-1.398-3.176-3.124-3.176-1.725 0-3.124 1.422-3.124 3.176 0 1.755 1.399 3.177 3.124 3.177zm0 8.679c1.726 0 3.124-1.422 3.124-3.176 0-1.754-1.398-3.176-3.124-3.176-1.725 0-3.124 1.422-3.124 3.176 0 1.754 1.399 3.176 3.124 3.176zm0 8.682c1.726 0 3.124-1.423 3.124-3.177s-1.398-3.176-3.124-3.176c-1.725 0-3.124 1.422-3.124 3.176 0 1.754 1.399 3.177 3.124 3.177zm0 8.681c1.726 0 3.124-1.422 3.124-3.177 0-1.754-1.398-3.176-3.124-3.176-1.725 0-3.124 1.422-3.124 3.176 0 1.755 1.399 3.177 3.124 3.177zm0 8.679c1.726 0 3.124-1.422 3.124-3.176 0-1.754-1.398-3.177-3.124-3.177-1.725 0-3.124 1.423-3.124 3.177s1.399 3.176 3.124 3.176zm0 8.679c1.726 0 3.124-1.422 3.124-3.176 0-1.754-1.398-3.176-3.124-3.176-1.725 0-3.124 1.422-3.124 3.176 0 1.754 1.399 3.176 3.124 3.176zm0 8.681c1.726 0 3.124-1.423 3.124-3.177s-1.398-3.176-3.124-3.176c-1.725 0-3.124 1.422-3.124 3.176 0 1.754 1.399 3.177 3.124 3.177zm0 8.681c1.726 0 3.124-1.422 3.124-3.176 0-1.755-1.398-3.177-3.124-3.177-1.725 0-3.124 1.422-3.124 3.177 0 1.754 1.399 3.176 3.124 3.176zm0 8.679c1.726 0 3.124-1.422 3.124-3.176 0-1.754-1.398-3.177-3.124-3.177-1.725 0-3.124 1.423-3.124 3.177s1.399 3.176 3.124 3.176zm0 8.681c1.726 0 3.124-1.422 3.124-3.176 0-1.754-1.398-3.176-3.124-3.176-1.725 0-3.124 1.422-3.124 3.176 0 1.754 1.399 3.176 3.124 3.176zm0 8.682c1.726 0 3.124-1.422 3.124-3.177 0-1.754-1.398-3.176-3.124-3.176-1.725 0-3.124 1.422-3.124 3.176 0 1.755 1.399 3.177 3.124 3.177zm0 8.679c1.726 0 3.124-1.422 3.124-3.176 0-1.755-1.398-3.177-3.124-3.177-1.725 0-3.124 1.422-3.124 3.177 0 1.754 1.399 3.176 3.124 3.176z" fill="#000" stroke="#000" stroke-width=".326"/><path d="M528.538 288.795c1.725 0 3.124-1.422 3.124-3.176 0-1.754-1.399-3.176-3.124-3.176-1.726 0-3.124 1.422-3.124 3.176 0 1.754 1.398 3.176 3.124 3.176zm8.538 0c1.725 0 3.124-1.422 3.124-3.176 0-1.754-1.399-3.176-3.124-3.176-1.726 0-3.124 1.422-3.124 3.176 0 1.754 1.398 3.176 3.124 3.176zm8.536 0c1.726 0 3.124-1.422 3.124-3.176 0-1.754-1.398-3.176-3.124-3.176-1.725 0-3.124 1.422-3.124 3.176 0 1.754 1.399 3.176 3.124 3.176zm8.538 0c1.726 0 3.124-1.422 3.124-3.176 0-1.754-1.398-3.176-3.124-3.176-1.725 0-3.124 1.422-3.124 3.176 0 1.754 1.399 3.176 3.124 3.176zm-25.612 8.68c1.725 0 3.124-1.422 3.124-3.176 0-1.755-1.399-3.177-3.124-3.177-1.726 0-3.124 1.422-3.124 3.177 0 1.754 1.398 3.176 3.124 3.176zm0 8.681c1.725 0 3.124-1.422 3.124-3.176 0-1.754-1.399-3.176-3.124-3.176-1.726 0-3.124 1.422-3.124 3.176 0 1.754 1.398 3.176 3.124 3.176zm0 8.682c1.725 0 3.124-1.422 3.124-3.177 0-1.754-1.399-3.176-3.124-3.176-1.726 0-3.124 1.422-3.124 3.176 0 1.755 1.398 3.177 3.124 3.177zm34.15 8.679c1.726 0 3.124-1.422 3.124-3.177 0-1.754-1.398-3.176-3.124-3.176-1.725 0-3.124 1.422-3.124 3.176 0 1.755 1.399 3.177 3.124 3.177zm-25.612-26.042c1.725 0 3.124-1.422 3.124-3.176 0-1.755-1.399-3.177-3.124-3.177-1.726 0-3.124 1.422-3.124 3.177 0 1.754 1.398 3.176 3.124 3.176zm0 8.681c1.725 0 3.124-1.422 3.124-3.176 0-1.754-1.399-3.176-3.124-3.176-1.726 0-3.124 1.422-3.124 3.176 0 1.754 1.398 3.176 3.124 3.176zm0 8.682c1.725 0 3.124-1.422 3.124-3.177 0-1.754-1.399-3.176-3.124-3.176-1.726 0-3.124 1.422-3.124 3.176 0 1.755 1.398 3.177 3.124 3.177zm0 8.679c1.725 0 3.124-1.422 3.124-3.177 0-1.754-1.399-3.176-3.124-3.176-1.726 0-3.124 1.422-3.124 3.176 0 1.755 1.398 3.177 3.124 3.177zm8.536-26.042c1.726 0 3.124-1.422 3.124-3.176 0-1.755-1.398-3.177-3.124-3.177-1.725 0-3.124 1.422-3.124 3.177 0 1.754 1.399 3.176 3.124 3.176zm0 8.681c1.726 0 3.124-1.422 3.124-3.176 0-1.754-1.398-3.176-3.124-3.176-1.725 0-3.124 1.422-3.124 3.176 0 1.754 1.399 3.176 3.124 3.176zm0 8.682c1.726 0 3.124-1.422 3.124-3.177 0-1.754-1.398-3.176-3.124-3.176-1.725 0-3.124 1.422-3.124 3.176 0 1.755 1.399 3.177 3.124 3.177zm0 8.679c1.726 0 3.124-1.422 3.124-3.177 0-1.754-1.398-3.176-3.124-3.176-1.725 0-3.124 1.422-3.124 3.176 0 1.755 1.399 3.177 3.124 3.177zm8.538-26.042c1.726 0 3.124-1.422 3.124-3.176 0-1.755-1.398-3.177-3.124-3.177-1.725 0-3.124 1.422-3.124 3.177 0 1.754 1.399 3.176 3.124 3.176zm0 8.681c1.726 0 3.124-1.422 3.124-3.176 0-1.754-1.398-3.176-3.124-3.176-1.725 0-3.124 1.422-3.124 3.176 0 1.754 1.399 3.176 3.124 3.176zm0 8.682c1.726 0 3.124-1.422 3.124-3.177 0-1.754-1.398-3.176-3.124-3.176-1.725 0-3.124 1.422-3.124 3.176 0 1.755 1.399 3.177 3.124 3.177zm0 8.679c1.726 0 3.124-1.422 3.124-3.177 0-1.754-1.398-3.176-3.124-3.176-1.725 0-3.124 1.422-3.124 3.176 0 1.755 1.399 3.177 3.124 3.177zM562.688 419c1.726 0 3.124-1.422 3.124-3.176 0-1.755-1.398-3.177-3.124-3.177-1.725 0-3.124 1.422-3.124 3.177 0 1.754 1.399 3.176 3.124 3.176zm8.536 0c1.726 0 3.124-1.422 3.124-3.176 0-1.755-1.398-3.177-3.124-3.177-1.725 0-3.124 1.422-3.124 3.177 0 1.754 1.399 3.176 3.124 3.176zm8.537 0c1.725 0 3.124-1.422 3.124-3.176 0-1.755-1.399-3.177-3.124-3.177-1.726 0-3.124 1.422-3.124 3.177 0 1.754 1.398 3.176 3.124 3.176zm8.538 0c1.725 0 3.124-1.422 3.124-3.176 0-1.755-1.399-3.177-3.124-3.177s-3.124 1.422-3.124 3.177c0 1.754 1.399 3.176 3.124 3.176zm-25.611-8.679c1.726 0 3.124-1.422 3.124-3.177 0-1.754-1.398-3.176-3.124-3.176-1.725 0-3.124 1.422-3.124 3.176 0 1.755 1.399 3.177 3.124 3.177zm8.536 0c1.726 0 3.124-1.422 3.124-3.177 0-1.754-1.398-3.176-3.124-3.176-1.725 0-3.124 1.422-3.124 3.176 0 1.755 1.399 3.177 3.124 3.177zm8.537 0c1.725 0 3.124-1.422 3.124-3.177 0-1.754-1.399-3.176-3.124-3.176-1.726 0-3.124 1.422-3.124 3.176 0 1.755 1.398 3.177 3.124 3.177zm8.538 0c1.725 0 3.124-1.422 3.124-3.177 0-1.754-1.399-3.176-3.124-3.176s-3.124 1.422-3.124 3.176c0 1.755 1.399 3.177 3.124 3.177z" fill="red" stroke="red" stroke-width=".326"/><path d="M644.95 288.795c1.726 0 3.124-1.422 3.124-3.176 0-1.754-1.398-3.176-3.124-3.176-1.725 0-3.124 1.422-3.124 3.176 0 1.754 1.399 3.176 3.124 3.176zm8.538 0c1.726 0 3.124-1.422 3.124-3.176 0-1.754-1.398-3.176-3.124-3.176-1.725 0-3.124 1.422-3.124 3.176 0 1.754 1.399 3.176 3.124 3.176zm8.538 0c1.726 0 3.124-1.422 3.124-3.176 0-1.754-1.398-3.176-3.124-3.176-1.725 0-3.124 1.422-3.124 3.176 0 1.754 1.399 3.176 3.124 3.176zm8.537 0c1.725 0 3.124-1.422 3.124-3.176 0-1.754-1.399-3.176-3.124-3.176s-3.124 1.422-3.124 3.176c0 1.754 1.399 3.176 3.124 3.176zm-25.613 8.68c1.726 0 3.124-1.422 3.124-3.176 0-1.755-1.398-3.177-3.124-3.177-1.725 0-3.124 1.422-3.124 3.177 0 1.754 1.399 3.176 3.124 3.176zm0 8.681c1.726 0 3.124-1.422 3.124-3.176 0-1.754-1.398-3.176-3.124-3.176-1.725 0-3.124 1.422-3.124 3.176 0 1.754 1.399 3.176 3.124 3.176zm0 8.682c1.726 0 3.124-1.422 3.124-3.177 0-1.754-1.398-3.176-3.124-3.176-1.725 0-3.124 1.422-3.124 3.176 0 1.755 1.399 3.177 3.124 3.177zm0 8.679c1.726 0 3.124-1.422 3.124-3.177 0-1.754-1.398-3.176-3.124-3.176-1.725 0-3.124 1.422-3.124 3.176 0 1.755 1.399 3.177 3.124 3.177zm0 8.679c1.726 0 3.124-1.422 3.124-3.176 0-1.754-1.398-3.176-3.124-3.176-1.725 0-3.124 1.422-3.124 3.176 0 1.754 1.399 3.176 3.124 3.176zm0 8.682c1.726 0 3.124-1.423 3.124-3.177s-1.398-3.176-3.124-3.176c-1.725 0-3.124 1.422-3.124 3.176 0 1.754 1.399 3.177 3.124 3.177zm0 8.681c1.726 0 3.124-1.422 3.124-3.177 0-1.754-1.398-3.176-3.124-3.176-1.725 0-3.124 1.422-3.124 3.176 0 1.755 1.399 3.177 3.124 3.177zm0 8.679c1.726 0 3.124-1.422 3.124-3.176 0-1.754-1.398-3.177-3.124-3.177-1.725 0-3.124 1.423-3.124 3.177s1.399 3.176 3.124 3.176zm0 8.679c1.726 0 3.124-1.422 3.124-3.176 0-1.754-1.398-3.176-3.124-3.176-1.725 0-3.124 1.422-3.124 3.176 0 1.754 1.399 3.176 3.124 3.176zm0 8.681c1.726 0 3.124-1.423 3.124-3.177s-1.398-3.176-3.124-3.176c-1.725 0-3.124 1.422-3.124 3.176 0 1.754 1.399 3.177 3.124 3.177zm0 8.681c1.726 0 3.124-1.422 3.124-3.176 0-1.755-1.398-3.177-3.124-3.177-1.725 0-3.124 1.422-3.124 3.177 0 1.754 1.399 3.176 3.124 3.176zm0 8.679c1.726 0 3.124-1.422 3.124-3.176 0-1.754-1.398-3.176-3.124-3.176-1.725 0-3.124 1.422-3.124 3.176 0 1.754 1.399 3.176 3.124 3.176zm0 8.681c1.726 0 3.124-1.422 3.124-3.176 0-1.754-1.398-3.176-3.124-3.176-1.725 0-3.124 1.422-3.124 3.176 0 1.754 1.399 3.176 3.124 3.176zm0 8.682c1.726 0 3.124-1.422 3.124-3.177 0-1.754-1.398-3.176-3.124-3.176-1.725 0-3.124 1.422-3.124 3.176 0 1.755 1.399 3.177 3.124 3.177zm0 8.679c1.726 0 3.124-1.422 3.124-3.176 0-1.755-1.398-3.177-3.124-3.177-1.725 0-3.124 1.422-3.124 3.177 0 1.754 1.399 3.176 3.124 3.176zm8.538-121.525c1.726 0 3.124-1.422 3.124-3.176 0-1.755-1.398-3.177-3.124-3.177-1.725 0-3.124 1.422-3.124 3.177 0 1.754 1.399 3.176 3.124 3.176zm0 8.681c1.726 0 3.124-1.422 3.124-3.176 0-1.754-1.398-3.176-3.124-3.176-1.725 0-3.124 1.422-3.124 3.176 0 1.754 1.399 3.176 3.124 3.176zm0 8.682c1.726 0 3.124-1.422 3.124-3.177 0-1.754-1.398-3.176-3.124-3.176-1.725 0-3.124 1.422-3.124 3.176 0 1.755 1.399 3.177 3.124 3.177zm0 8.679c1.726 0 3.124-1.422 3.124-3.177 0-1.754-1.398-3.176-3.124-3.176-1.725 0-3.124 1.422-3.124 3.176 0 1.755 1.399 3.177 3.124 3.177zm0 8.679c1.726 0 3.124-1.422 3.124-3.176 0-1.754-1.398-3.176-3.124-3.176-1.725 0-3.124 1.422-3.124 3.176 0 1.754 1.399 3.176 3.124 3.176zm0 8.682c1.726 0 3.124-1.423 3.124-3.177s-1.398-3.176-3.124-3.176c-1.725 0-3.124 1.422-3.124 3.176 0 1.754 1.399 3.177 3.124 3.177zm0 8.681c1.726 0 3.124-1.422 3.124-3.177 0-1.754-1.398-3.176-3.124-3.176-1.725 0-3.124 1.422-3.124 3.176 0 1.755 1.399 3.177 3.124 3.177zm0 8.679c1.726 0 3.124-1.422 3.124-3.176 0-1.754-1.398-3.177-3.124-3.177-1.725 0-3.124 1.423-3.124 3.177s1.399 3.176 3.124 3.176zm0 8.679c1.726 0 3.124-1.422 3.124-3.176 0-1.754-1.398-3.176-3.124-3.176-1.725 0-3.124 1.422-3.124 3.176 0 1.754 1.399 3.176 3.124 3.176zm0 8.681c1.726 0 3.124-1.423 3.124-3.177s-1.398-3.176-3.124-3.176c-1.725 0-3.124 1.422-3.124 3.176 0 1.754 1.399 3.177 3.124 3.177zm0 8.681c1.726 0 3.124-1.422 3.124-3.176 0-1.755-1.398-3.177-3.124-3.177-1.725 0-3.124 1.422-3.124 3.177 0 1.754 1.399 3.176 3.124 3.176zm0 8.679c1.726 0 3.124-1.422 3.124-3.176 0-1.754-1.398-3.176-3.124-3.176-1.725 0-3.124 1.422-3.124 3.176 0 1.754 1.399 3.176 3.124 3.176zm0 8.681c1.726 0 3.124-1.422 3.124-3.176 0-1.754-1.398-3.176-3.124-3.176-1.725 0-3.124 1.422-3.124 3.176 0 1.754 1.399 3.176 3.124 3.176zm0 8.682c1.726 0 3.124-1.422 3.124-3.177 0-1.754-1.398-3.176-3.124-3.176-1.725 0-3.124 1.422-3.124 3.176 0 1.755 1.399 3.177 3.124 3.177zm0 8.679c1.726 0 3.124-1.422 3.124-3.176 0-1.755-1.398-3.177-3.124-3.177-1.725 0-3.124 1.422-3.124 3.177 0 1.754 1.399 3.176 3.124 3.176zm8.538-121.525c1.726 0 3.124-1.422 3.124-3.176 0-1.755-1.398-3.177-3.124-3.177-1.725 0-3.124 1.422-3.124 3.177 0 1.754 1.399 3.176 3.124 3.176zm0 8.681c1.726 0 3.124-1.422 3.124-3.176 0-1.754-1.398-3.176-3.124-3.176-1.725 0-3.124 1.422-3.124 3.176 0 1.754 1.399 3.176 3.124 3.176zm0 8.682c1.726 0 3.124-1.422 3.124-3.177 0-1.754-1.398-3.176-3.124-3.176-1.725 0-3.124 1.422-3.124 3.176 0 1.755 1.399 3.177 3.124 3.177zm0 8.679c1.726 0 3.124-1.422 3.124-3.177 0-1.754-1.398-3.176-3.124-3.176-1.725 0-3.124 1.422-3.124 3.176 0 1.755 1.399 3.177 3.124 3.177zm0 8.679c1.726 0 3.124-1.422 3.124-3.176 0-1.754-1.398-3.176-3.124-3.176-1.725 0-3.124 1.422-3.124 3.176 0 1.754 1.399 3.176 3.124 3.176zm0 8.682c1.726 0 3.124-1.423 3.124-3.177s-1.398-3.176-3.124-3.176c-1.725 0-3.124 1.422-3.124 3.176 0 1.754 1.399 3.177 3.124 3.177zm0 8.681c1.726 0 3.124-1.422 3.124-3.177 0-1.754-1.398-3.176-3.124-3.176-1.725 0-3.124 1.422-3.124 3.176 0 1.755 1.399 3.177 3.124 3.177zm0 8.679c1.726 0 3.124-1.422 3.124-3.176 0-1.754-1.398-3.177-3.124-3.177-1.725 0-3.124 1.423-3.124 3.177s1.399 3.176 3.124 3.176zm0 8.679c1.726 0 3.124-1.422 3.124-3.176 0-1.754-1.398-3.176-3.124-3.176-1.725 0-3.124 1.422-3.124 3.176 0 1.754 1.399 3.176 3.124 3.176zm0 8.681c1.726 0 3.124-1.423 3.124-3.177s-1.398-3.176-3.124-3.176c-1.725 0-3.124 1.422-3.124 3.176 0 1.754 1.399 3.177 3.124 3.177zm0 8.681c1.726 0 3.124-1.422 3.124-3.176 0-1.755-1.398-3.177-3.124-3.177-1.725 0-3.124 1.422-3.124 3.177 0 1.754 1.399 3.176 3.124 3.176zm0 8.679c1.726 0 3.124-1.422 3.124-3.176 0-1.754-1.398-3.176-3.124-3.176-1.725 0-3.124 1.422-3.124 3.176 0 1.754 1.399 3.176 3.124 3.176zm0 8.681c1.726 0 3.124-1.422 3.124-3.176 0-1.754-1.398-3.176-3.124-3.176-1.725 0-3.124 1.422-3.124 3.176 0 1.754 1.399 3.176 3.124 3.176zm0 8.682c1.726 0 3.124-1.422 3.124-3.177 0-1.754-1.398-3.176-3.124-3.176-1.725 0-3.124 1.422-3.124 3.176 0 1.755 1.399 3.177 3.124 3.177zm0 8.679c1.726 0 3.124-1.422 3.124-3.176 0-1.755-1.398-3.177-3.124-3.177-1.725 0-3.124 1.422-3.124 3.177 0 1.754 1.399 3.176 3.124 3.176zm8.537-121.525c1.725 0 3.124-1.422 3.124-3.176 0-1.755-1.399-3.177-3.124-3.177s-3.124 1.422-3.124 3.177c0 1.754 1.399 3.176 3.124 3.176zm0 8.681c1.725 0 3.124-1.422 3.124-3.176 0-1.754-1.399-3.176-3.124-3.176s-3.124 1.422-3.124 3.176c0 1.754 1.399 3.176 3.124 3.176zm0 8.682c1.725 0 3.124-1.422 3.124-3.177 0-1.754-1.399-3.176-3.124-3.176s-3.124 1.422-3.124 3.176c0 1.755 1.399 3.177 3.124 3.177zm0 8.679c1.725 0 3.124-1.422 3.124-3.177 0-1.754-1.399-3.176-3.124-3.176s-3.124 1.422-3.124 3.176c0 1.755 1.399 3.177 3.124 3.177zm0 8.679c1.725 0 3.124-1.422 3.124-3.176 0-1.754-1.399-3.176-3.124-3.176s-3.124 1.422-3.124 3.176c0 1.754 1.399 3.176 3.124 3.176zm0 8.682c1.725 0 3.124-1.423 3.124-3.177s-1.399-3.176-3.124-3.176-3.124 1.422-3.124 3.176c0 1.754 1.399 3.177 3.124 3.177zm0 8.681c1.725 0 3.124-1.422 3.124-3.177 0-1.754-1.399-3.176-3.124-3.176s-3.124 1.422-3.124 3.176c0 1.755 1.399 3.177 3.124 3.177zm0 8.679c1.725 0 3.124-1.422 3.124-3.176 0-1.754-1.399-3.177-3.124-3.177s-3.124 1.423-3.124 3.177 1.399 3.176 3.124 3.176zm0 8.679c1.725 0 3.124-1.422 3.124-3.176 0-1.754-1.399-3.176-3.124-3.176s-3.124 1.422-3.124 3.176c0 1.754 1.399 3.176 3.124 3.176zm0 8.681c1.725 0 3.124-1.423 3.124-3.177s-1.399-3.176-3.124-3.176-3.124 1.422-3.124 3.176c0 1.754 1.399 3.177 3.124 3.177zm0 8.681c1.725 0 3.124-1.422 3.124-3.176 0-1.755-1.399-3.177-3.124-3.177s-3.124 1.422-3.124 3.177c0 1.754 1.399 3.176 3.124 3.176zm0 8.679c1.725 0 3.124-1.422 3.124-3.176 0-1.754-1.399-3.176-3.124-3.176s-3.124 1.422-3.124 3.176c0 1.754 1.399 3.176 3.124 3.176zm0 8.681c1.725 0 3.124-1.422 3.124-3.176 0-1.754-1.399-3.176-3.124-3.176s-3.124 1.422-3.124 3.176c0 1.754 1.399 3.176 3.124 3.176zm0 8.682c1.725 0 3.124-1.422 3.124-3.177 0-1.754-1.399-3.176-3.124-3.176s-3.124 1.422-3.124 3.176c0 1.755 1.399 3.177 3.124 3.177zm0 8.679c1.725 0 3.124-1.422 3.124-3.176 0-1.755-1.399-3.177-3.124-3.177s-3.124 1.422-3.124 3.177c0 1.754 1.399 3.176 3.124 3.176zm22.505-130.205c1.725 0 3.124-1.422 3.124-3.176 0-1.754-1.399-3.176-3.124-3.176-1.726 0-3.124 1.422-3.124 3.176 0 1.754 1.398 3.176 3.124 3.176zm8.534 0c1.725 0 3.124-1.422 3.124-3.176 0-1.754-1.399-3.176-3.124-3.176s-3.124 1.422-3.124 3.176c0 1.754 1.399 3.176 3.124 3.176zm8.538 0c1.725 0 3.124-1.422 3.124-3.176 0-1.754-1.399-3.176-3.124-3.176s-3.124 1.422-3.124 3.176c0 1.754 1.399 3.176 3.124 3.176zm8.538 0c1.726 0 3.124-1.422 3.124-3.176 0-1.754-1.398-3.176-3.124-3.176-1.725 0-3.124 1.422-3.124 3.176 0 1.754 1.399 3.176 3.124 3.176zm-25.61 8.68c1.725 0 3.124-1.422 3.124-3.176 0-1.755-1.399-3.177-3.124-3.177-1.726 0-3.124 1.422-3.124 3.177 0 1.754 1.398 3.176 3.124 3.176zm0 8.681c1.725 0 3.124-1.422 3.124-3.176 0-1.754-1.399-3.176-3.124-3.176-1.726 0-3.124 1.422-3.124 3.176 0 1.754 1.398 3.176 3.124 3.176zm0 8.682c1.725 0 3.124-1.422 3.124-3.177 0-1.754-1.399-3.176-3.124-3.176-1.726 0-3.124 1.422-3.124 3.176 0 1.755 1.398 3.177 3.124 3.177zm0 8.679c1.725 0 3.124-1.422 3.124-3.177 0-1.754-1.399-3.176-3.124-3.176-1.726 0-3.124 1.422-3.124 3.176 0 1.755 1.398 3.177 3.124 3.177zm0 8.679c1.725 0 3.124-1.422 3.124-3.176 0-1.754-1.399-3.176-3.124-3.176-1.726 0-3.124 1.422-3.124 3.176 0 1.754 1.398 3.176 3.124 3.176zm0 8.682c1.725 0 3.124-1.423 3.124-3.177s-1.399-3.176-3.124-3.176c-1.726 0-3.124 1.422-3.124 3.176 0 1.754 1.398 3.177 3.124 3.177zm0 8.681c1.725 0 3.124-1.422 3.124-3.177 0-1.754-1.399-3.176-3.124-3.176-1.726 0-3.124 1.422-3.124 3.176 0 1.755 1.398 3.177 3.124 3.177zm0 8.679c1.725 0 3.124-1.422 3.124-3.176 0-1.754-1.399-3.177-3.124-3.177-1.726 0-3.124 1.423-3.124 3.177s1.398 3.176 3.124 3.176zm0 8.679c1.725 0 3.124-1.422 3.124-3.176 0-1.754-1.399-3.176-3.124-3.176-1.726 0-3.124 1.422-3.124 3.176 0 1.754 1.398 3.176 3.124 3.176zm0 8.681c1.725 0 3.124-1.423 3.124-3.177s-1.399-3.176-3.124-3.176c-1.726 0-3.124 1.422-3.124 3.176 0 1.754 1.398 3.177 3.124 3.177zm0 8.681c1.725 0 3.124-1.422 3.124-3.176 0-1.755-1.399-3.177-3.124-3.177-1.726 0-3.124 1.422-3.124 3.177 0 1.754 1.398 3.176 3.124 3.176zm0 8.679c1.725 0 3.124-1.422 3.124-3.176 0-1.754-1.399-3.177-3.124-3.177-1.726 0-3.124 1.423-3.124 3.177s1.398 3.176 3.124 3.176zm0 8.681c1.725 0 3.124-1.422 3.124-3.176 0-1.754-1.399-3.176-3.124-3.176-1.726 0-3.124 1.422-3.124 3.176 0 1.754 1.398 3.176 3.124 3.176zm0 8.682c1.725 0 3.124-1.422 3.124-3.177 0-1.754-1.399-3.176-3.124-3.176-1.726 0-3.124 1.422-3.124 3.176 0 1.755 1.398 3.177 3.124 3.177zm0 8.679c1.725 0 3.124-1.422 3.124-3.176 0-1.755-1.399-3.177-3.124-3.177-1.726 0-3.124 1.422-3.124 3.177 0 1.754 1.398 3.176 3.124 3.176zm8.534-121.525c1.725 0 3.124-1.422 3.124-3.176 0-1.755-1.399-3.177-3.124-3.177s-3.124 1.422-3.124 3.177c0 1.754 1.399 3.176 3.124 3.176zm0 8.681c1.725 0 3.124-1.422 3.124-3.176 0-1.754-1.399-3.176-3.124-3.176s-3.124 1.422-3.124 3.176c0 1.754 1.399 3.176 3.124 3.176zm0 8.682c1.725 0 3.124-1.422 3.124-3.177 0-1.754-1.399-3.176-3.124-3.176s-3.124 1.422-3.124 3.176c0 1.755 1.399 3.177 3.124 3.177zm0 8.679c1.725 0 3.124-1.422 3.124-3.177 0-1.754-1.399-3.176-3.124-3.176s-3.124 1.422-3.124 3.176c0 1.755 1.399 3.177 3.124 3.177zm0 8.679c1.725 0 3.124-1.422 3.124-3.176 0-1.754-1.399-3.176-3.124-3.176s-3.124 1.422-3.124 3.176c0 1.754 1.399 3.176 3.124 3.176zm0 8.682c1.725 0 3.124-1.423 3.124-3.177s-1.399-3.176-3.124-3.176-3.124 1.422-3.124 3.176c0 1.754 1.399 3.177 3.124 3.177zm0 8.681c1.725 0 3.124-1.422 3.124-3.177 0-1.754-1.399-3.176-3.124-3.176s-3.124 1.422-3.124 3.176c0 1.755 1.399 3.177 3.124 3.177zm0 8.679c1.725 0 3.124-1.422 3.124-3.176 0-1.754-1.399-3.177-3.124-3.177s-3.124 1.423-3.124 3.177 1.399 3.176 3.124 3.176zm0 8.679c1.725 0 3.124-1.422 3.124-3.176 0-1.754-1.399-3.176-3.124-3.176s-3.124 1.422-3.124 3.176c0 1.754 1.399 3.176 3.124 3.176zm0 8.681c1.725 0 3.124-1.423 3.124-3.177s-1.399-3.176-3.124-3.176-3.124 1.422-3.124 3.176c0 1.754 1.399 3.177 3.124 3.177zm0 8.681c1.725 0 3.124-1.422 3.124-3.176 0-1.755-1.399-3.177-3.124-3.177s-3.124 1.422-3.124 3.177c0 1.754 1.399 3.176 3.124 3.176zm0 8.679c1.725 0 3.124-1.422 3.124-3.176 0-1.754-1.399-3.177-3.124-3.177s-3.124 1.423-3.124 3.177 1.399 3.176 3.124 3.176zm0 8.681c1.725 0 3.124-1.422 3.124-3.176 0-1.754-1.399-3.176-3.124-3.176s-3.124 1.422-3.124 3.176c0 1.754 1.399 3.176 3.124 3.176zm0 8.682c1.725 0 3.124-1.422 3.124-3.177 0-1.754-1.399-3.176-3.124-3.176s-3.124 1.422-3.124 3.176c0 1.755 1.399 3.177 3.124 3.177zm0 8.679c1.725 0 3.124-1.422 3.124-3.176 0-1.755-1.399-3.177-3.124-3.177s-3.124 1.422-3.124 3.177c0 1.754 1.399 3.176 3.124 3.176zm8.538-121.525c1.725 0 3.124-1.422 3.124-3.176 0-1.755-1.399-3.177-3.124-3.177s-3.124 1.422-3.124 3.177c0 1.754 1.399 3.176 3.124 3.176zm0 8.681c1.725 0 3.124-1.422 3.124-3.176 0-1.754-1.399-3.176-3.124-3.176s-3.124 1.422-3.124 3.176c0 1.754 1.399 3.176 3.124 3.176zm0 8.682c1.725 0 3.124-1.422 3.124-3.177 0-1.754-1.399-3.176-3.124-3.176s-3.124 1.422-3.124 3.176c0 1.755 1.399 3.177 3.124 3.177zm0 8.679c1.725 0 3.124-1.422 3.124-3.177 0-1.754-1.399-3.176-3.124-3.176s-3.124 1.422-3.124 3.176c0 1.755 1.399 3.177 3.124 3.177zm0 8.679c1.725 0 3.124-1.422 3.124-3.176 0-1.754-1.399-3.176-3.124-3.176s-3.124 1.422-3.124 3.176c0 1.754 1.399 3.176 3.124 3.176zm0 8.682c1.725 0 3.124-1.423 3.124-3.177s-1.399-3.176-3.124-3.176-3.124 1.422-3.124 3.176c0 1.754 1.399 3.177 3.124 3.177zm0 8.681c1.725 0 3.124-1.422 3.124-3.177 0-1.754-1.399-3.176-3.124-3.176s-3.124 1.422-3.124 3.176c0 1.755 1.399 3.177 3.124 3.177zm0 8.679c1.725 0 3.124-1.422 3.124-3.176 0-1.754-1.399-3.177-3.124-3.177s-3.124 1.423-3.124 3.177 1.399 3.176 3.124 3.176zm0 8.679c1.725 0 3.124-1.422 3.124-3.176 0-1.754-1.399-3.176-3.124-3.176s-3.124 1.422-3.124 3.176c0 1.754 1.399 3.176 3.124 3.176zm0 8.681c1.725 0 3.124-1.423 3.124-3.177s-1.399-3.176-3.124-3.176-3.124 1.422-3.124 3.176c0 1.754 1.399 3.177 3.124 3.177zm0 8.681c1.725 0 3.124-1.422 3.124-3.176 0-1.755-1.399-3.177-3.124-3.177s-3.124 1.422-3.124 3.177c0 1.754 1.399 3.176 3.124 3.176zm0 8.679c1.725 0 3.124-1.422 3.124-3.176 0-1.754-1.399-3.177-3.124-3.177s-3.124 1.423-3.124 3.177 1.399 3.176 3.124 3.176zm0 8.681c1.725 0 3.124-1.422 3.124-3.176 0-1.754-1.399-3.176-3.124-3.176s-3.124 1.422-3.124 3.176c0 1.754 1.399 3.176 3.124 3.176zm0 8.682c1.725 0 3.124-1.422 3.124-3.177 0-1.754-1.399-3.176-3.124-3.176s-3.124 1.422-3.124 3.176c0 1.755 1.399 3.177 3.124 3.177zm0 8.679c1.725 0 3.124-1.422 3.124-3.176 0-1.755-1.399-3.177-3.124-3.177s-3.124 1.422-3.124 3.177c0 1.754 1.399 3.176 3.124 3.176zm8.538-121.525c1.726 0 3.124-1.422 3.124-3.176 0-1.755-1.398-3.177-3.124-3.177-1.725 0-3.124 1.422-3.124 3.177 0 1.754 1.399 3.176 3.124 3.176zm0 8.681c1.726 0 3.124-1.422 3.124-3.176 0-1.754-1.398-3.176-3.124-3.176-1.725 0-3.124 1.422-3.124 3.176 0 1.754 1.399 3.176 3.124 3.176zm0 8.682c1.726 0 3.124-1.422 3.124-3.177 0-1.754-1.398-3.176-3.124-3.176-1.725 0-3.124 1.422-3.124 3.176 0 1.755 1.399 3.177 3.124 3.177zm0 8.679c1.726 0 3.124-1.422 3.124-3.177 0-1.754-1.398-3.176-3.124-3.176-1.725 0-3.124 1.422-3.124 3.176 0 1.755 1.399 3.177 3.124 3.177zm0 8.679c1.726 0 3.124-1.422 3.124-3.176 0-1.754-1.398-3.176-3.124-3.176-1.725 0-3.124 1.422-3.124 3.176 0 1.754 1.399 3.176 3.124 3.176zm0 8.682c1.726 0 3.124-1.423 3.124-3.177s-1.398-3.176-3.124-3.176c-1.725 0-3.124 1.422-3.124 3.176 0 1.754 1.399 3.177 3.124 3.177zm0 8.681c1.726 0 3.124-1.422 3.124-3.177 0-1.754-1.398-3.176-3.124-3.176-1.725 0-3.124 1.422-3.124 3.176 0 1.755 1.399 3.177 3.124 3.177zm0 8.679c1.726 0 3.124-1.422 3.124-3.176 0-1.754-1.398-3.177-3.124-3.177-1.725 0-3.124 1.423-3.124 3.177s1.399 3.176 3.124 3.176zm0 8.679c1.726 0 3.124-1.422 3.124-3.176 0-1.754-1.398-3.176-3.124-3.176-1.725 0-3.124 1.422-3.124 3.176 0 1.754 1.399 3.176 3.124 3.176zm0 8.681c1.726 0 3.124-1.423 3.124-3.177s-1.398-3.176-3.124-3.176c-1.725 0-3.124 1.422-3.124 3.176 0 1.754 1.399 3.177 3.124 3.177zm0 8.681c1.726 0 3.124-1.422 3.124-3.176 0-1.755-1.398-3.177-3.124-3.177-1.725 0-3.124 1.422-3.124 3.177 0 1.754 1.399 3.176 3.124 3.176zm0 8.679c1.726 0 3.124-1.422 3.124-3.176 0-1.754-1.398-3.177-3.124-3.177-1.725 0-3.124 1.423-3.124 3.177s1.399 3.176 3.124 3.176zm0 8.681c1.726 0 3.124-1.422 3.124-3.176 0-1.754-1.398-3.176-3.124-3.176-1.725 0-3.124 1.422-3.124 3.176 0 1.754 1.399 3.176 3.124 3.176zm0 8.682c1.726 0 3.124-1.422 3.124-3.177 0-1.754-1.398-3.176-3.124-3.176-1.725 0-3.124 1.422-3.124 3.176 0 1.755 1.399 3.177 3.124 3.177zm0 8.679c1.726 0 3.124-1.422 3.124-3.176 0-1.755-1.398-3.177-3.124-3.177-1.725 0-3.124 1.422-3.124 3.177 0 1.754 1.399 3.176 3.124 3.176zm42.688-130.205c1.725 0 3.124-1.422 3.124-3.176 0-1.754-1.399-3.176-3.124-3.176-1.726 0-3.124 1.422-3.124 3.176 0 1.754 1.398 3.176 3.124 3.176zm8.535 0c1.726 0 3.124-1.422 3.124-3.176 0-1.754-1.398-3.176-3.124-3.176-1.725 0-3.124 1.422-3.124 3.176 0 1.754 1.399 3.176 3.124 3.176zm8.539 0c1.725 0 3.124-1.422 3.124-3.176 0-1.754-1.399-3.176-3.124-3.176-1.726 0-3.124 1.422-3.124 3.176 0 1.754 1.398 3.176 3.124 3.176zm8.536 0c1.725 0 3.124-1.422 3.124-3.176 0-1.754-1.399-3.176-3.124-3.176s-3.124 1.422-3.124 3.176c0 1.754 1.399 3.176 3.124 3.176zm-25.61 8.68c1.725 0 3.124-1.422 3.124-3.176 0-1.755-1.399-3.177-3.124-3.177-1.726 0-3.124 1.422-3.124 3.177 0 1.754 1.398 3.176 3.124 3.176zm0 8.681c1.725 0 3.124-1.422 3.124-3.176 0-1.754-1.399-3.176-3.124-3.176-1.726 0-3.124 1.422-3.124 3.176 0 1.754 1.398 3.176 3.124 3.176zm0 8.682c1.725 0 3.124-1.422 3.124-3.177 0-1.754-1.399-3.176-3.124-3.176-1.726 0-3.124 1.422-3.124 3.176 0 1.755 1.398 3.177 3.124 3.177zm0 8.679c1.725 0 3.124-1.422 3.124-3.177 0-1.754-1.399-3.176-3.124-3.176-1.726 0-3.124 1.422-3.124 3.176 0 1.755 1.398 3.177 3.124 3.177zm0 8.679c1.725 0 3.124-1.422 3.124-3.176 0-1.754-1.399-3.176-3.124-3.176-1.726 0-3.124 1.422-3.124 3.176 0 1.754 1.398 3.176 3.124 3.176zm0 8.682c1.725 0 3.124-1.423 3.124-3.177s-1.399-3.176-3.124-3.176c-1.726 0-3.124 1.422-3.124 3.176 0 1.754 1.398 3.177 3.124 3.177zm0 8.681c1.725 0 3.124-1.422 3.124-3.177 0-1.754-1.399-3.176-3.124-3.176-1.726 0-3.124 1.422-3.124 3.176 0 1.755 1.398 3.177 3.124 3.177zm0 8.679c1.725 0 3.124-1.422 3.124-3.176 0-1.754-1.399-3.177-3.124-3.177-1.726 0-3.124 1.423-3.124 3.177s1.398 3.176 3.124 3.176zm0 8.679c1.725 0 3.124-1.422 3.124-3.176 0-1.754-1.399-3.176-3.124-3.176-1.726 0-3.124 1.422-3.124 3.176 0 1.754 1.398 3.176 3.124 3.176zm0 8.681c1.725 0 3.124-1.423 3.124-3.177s-1.399-3.176-3.124-3.176c-1.726 0-3.124 1.422-3.124 3.176 0 1.754 1.398 3.177 3.124 3.177zm0 8.681c1.725 0 3.124-1.422 3.124-3.176 0-1.755-1.399-3.177-3.124-3.177-1.726 0-3.124 1.422-3.124 3.177 0 1.754 1.398 3.176 3.124 3.176zm0 8.679c1.725 0 3.124-1.422 3.124-3.176 0-1.754-1.399-3.177-3.124-3.177-1.726 0-3.124 1.423-3.124 3.177s1.398 3.176 3.124 3.176zm0 8.681c1.725 0 3.124-1.422 3.124-3.176 0-1.754-1.399-3.176-3.124-3.176-1.726 0-3.124 1.422-3.124 3.176 0 1.754 1.398 3.176 3.124 3.176zm0 8.682c1.725 0 3.124-1.422 3.124-3.177 0-1.754-1.399-3.176-3.124-3.176-1.726 0-3.124 1.422-3.124 3.176 0 1.755 1.398 3.177 3.124 3.177zm0 8.679c1.725 0 3.124-1.422 3.124-3.176 0-1.755-1.399-3.177-3.124-3.177-1.726 0-3.124 1.422-3.124 3.177 0 1.754 1.398 3.176 3.124 3.176zm8.535-121.525c1.726 0 3.124-1.422 3.124-3.176 0-1.755-1.398-3.177-3.124-3.177-1.725 0-3.124 1.422-3.124 3.177 0 1.754 1.399 3.176 3.124 3.176zm0 8.681c1.726 0 3.124-1.422 3.124-3.176 0-1.754-1.398-3.176-3.124-3.176-1.725 0-3.124 1.422-3.124 3.176 0 1.754 1.399 3.176 3.124 3.176zm0 8.682c1.726 0 3.124-1.422 3.124-3.177 0-1.754-1.398-3.176-3.124-3.176-1.725 0-3.124 1.422-3.124 3.176 0 1.755 1.399 3.177 3.124 3.177zm0 8.679c1.726 0 3.124-1.422 3.124-3.177 0-1.754-1.398-3.176-3.124-3.176-1.725 0-3.124 1.422-3.124 3.176 0 1.755 1.399 3.177 3.124 3.177zm0 8.679c1.726 0 3.124-1.422 3.124-3.176 0-1.754-1.398-3.176-3.124-3.176-1.725 0-3.124 1.422-3.124 3.176 0 1.754 1.399 3.176 3.124 3.176zm0 8.682c1.726 0 3.124-1.423 3.124-3.177s-1.398-3.176-3.124-3.176c-1.725 0-3.124 1.422-3.124 3.176 0 1.754 1.399 3.177 3.124 3.177zm0 8.681c1.726 0 3.124-1.422 3.124-3.177 0-1.754-1.398-3.176-3.124-3.176-1.725 0-3.124 1.422-3.124 3.176 0 1.755 1.399 3.177 3.124 3.177zm0 8.679c1.726 0 3.124-1.422 3.124-3.176 0-1.754-1.398-3.177-3.124-3.177-1.725 0-3.124 1.423-3.124 3.177s1.399 3.176 3.124 3.176zm0 8.679c1.726 0 3.124-1.422 3.124-3.176 0-1.754-1.398-3.176-3.124-3.176-1.725 0-3.124 1.422-3.124 3.176 0 1.754 1.399 3.176 3.124 3.176zm0 8.681c1.726 0 3.124-1.423 3.124-3.177s-1.398-3.176-3.124-3.176c-1.725 0-3.124 1.422-3.124 3.176 0 1.754 1.399 3.177 3.124 3.177zm0 8.681c1.726 0 3.124-1.422 3.124-3.176 0-1.755-1.398-3.177-3.124-3.177-1.725 0-3.124 1.422-3.124 3.177 0 1.754 1.399 3.176 3.124 3.176zm0 8.679c1.726 0 3.124-1.422 3.124-3.176 0-1.754-1.398-3.177-3.124-3.177-1.725 0-3.124 1.423-3.124 3.177s1.399 3.176 3.124 3.176zm0 8.681c1.726 0 3.124-1.422 3.124-3.176 0-1.754-1.398-3.176-3.124-3.176-1.725 0-3.124 1.422-3.124 3.176 0 1.754 1.399 3.176 3.124 3.176zm0 8.682c1.726 0 3.124-1.422 3.124-3.177 0-1.754-1.398-3.176-3.124-3.176-1.725 0-3.124 1.422-3.124 3.176 0 1.755 1.399 3.177 3.124 3.177zm0 8.679c1.726 0 3.124-1.422 3.124-3.176 0-1.755-1.398-3.177-3.124-3.177-1.725 0-3.124 1.422-3.124 3.177 0 1.754 1.399 3.176 3.124 3.176zm8.539-121.525c1.725 0 3.124-1.422 3.124-3.176 0-1.755-1.399-3.177-3.124-3.177-1.726 0-3.124 1.422-3.124 3.177 0 1.754 1.398 3.176 3.124 3.176zm0 8.681c1.725 0 3.124-1.422 3.124-3.176 0-1.754-1.399-3.176-3.124-3.176-1.726 0-3.124 1.422-3.124 3.176 0 1.754 1.398 3.176 3.124 3.176zm0 8.682c1.725 0 3.124-1.422 3.124-3.177 0-1.754-1.399-3.176-3.124-3.176-1.726 0-3.124 1.422-3.124 3.176 0 1.755 1.398 3.177 3.124 3.177zm0 8.679c1.725 0 3.124-1.422 3.124-3.177 0-1.754-1.399-3.176-3.124-3.176-1.726 0-3.124 1.422-3.124 3.176 0 1.755 1.398 3.177 3.124 3.177zm0 8.679c1.725 0 3.124-1.422 3.124-3.176 0-1.754-1.399-3.176-3.124-3.176-1.726 0-3.124 1.422-3.124 3.176 0 1.754 1.398 3.176 3.124 3.176zm0 8.682c1.725 0 3.124-1.423 3.124-3.177s-1.399-3.176-3.124-3.176c-1.726 0-3.124 1.422-3.124 3.176 0 1.754 1.398 3.177 3.124 3.177zm0 8.681c1.725 0 3.124-1.422 3.124-3.177 0-1.754-1.399-3.176-3.124-3.176-1.726 0-3.124 1.422-3.124 3.176 0 1.755 1.398 3.177 3.124 3.177zm0 8.679c1.725 0 3.124-1.422 3.124-3.176 0-1.754-1.399-3.177-3.124-3.177-1.726 0-3.124 1.423-3.124 3.177s1.398 3.176 3.124 3.176zm0 8.679c1.725 0 3.124-1.422 3.124-3.176 0-1.754-1.399-3.176-3.124-3.176-1.726 0-3.124 1.422-3.124 3.176 0 1.754 1.398 3.176 3.124 3.176zm0 8.681c1.725 0 3.124-1.423 3.124-3.177s-1.399-3.176-3.124-3.176c-1.726 0-3.124 1.422-3.124 3.176 0 1.754 1.398 3.177 3.124 3.177zm0 8.681c1.725 0 3.124-1.422 3.124-3.176 0-1.755-1.399-3.177-3.124-3.177-1.726 0-3.124 1.422-3.124 3.177 0 1.754 1.398 3.176 3.124 3.176zm0 8.679c1.725 0 3.124-1.422 3.124-3.176 0-1.754-1.399-3.177-3.124-3.177-1.726 0-3.124 1.423-3.124 3.177s1.398 3.176 3.124 3.176zm0 8.681c1.725 0 3.124-1.422 3.124-3.176 0-1.754-1.399-3.176-3.124-3.176-1.726 0-3.124 1.422-3.124 3.176 0 1.754 1.398 3.176 3.124 3.176zm0 8.682c1.725 0 3.124-1.422 3.124-3.177 0-1.754-1.399-3.176-3.124-3.176-1.726 0-3.124 1.422-3.124 3.176 0 1.755 1.398 3.177 3.124 3.177zm0 8.679c1.725 0 3.124-1.422 3.124-3.176 0-1.755-1.399-3.177-3.124-3.177-1.726 0-3.124 1.422-3.124 3.177 0 1.754 1.398 3.176 3.124 3.176zm8.536-121.525c1.725 0 3.124-1.422 3.124-3.176 0-1.755-1.399-3.177-3.124-3.177s-3.124 1.422-3.124 3.177c0 1.754 1.399 3.176 3.124 3.176zm0 8.681c1.725 0 3.124-1.422 3.124-3.176 0-1.754-1.399-3.176-3.124-3.176s-3.124 1.422-3.124 3.176c0 1.754 1.399 3.176 3.124 3.176zm0 8.682c1.725 0 3.124-1.422 3.124-3.177 0-1.754-1.399-3.176-3.124-3.176s-3.124 1.422-3.124 3.176c0 1.755 1.399 3.177 3.124 3.177zm0 8.679c1.725 0 3.124-1.422 3.124-3.177 0-1.754-1.399-3.176-3.124-3.176s-3.124 1.422-3.124 3.176c0 1.755 1.399 3.177 3.124 3.177zm0 8.679c1.725 0 3.124-1.422 3.124-3.176 0-1.754-1.399-3.176-3.124-3.176s-3.124 1.422-3.124 3.176c0 1.754 1.399 3.176 3.124 3.176zm0 8.682c1.725 0 3.124-1.423 3.124-3.177s-1.399-3.176-3.124-3.176-3.124 1.422-3.124 3.176c0 1.754 1.399 3.177 3.124 3.177zm0 8.681c1.725 0 3.124-1.422 3.124-3.177 0-1.754-1.399-3.176-3.124-3.176s-3.124 1.422-3.124 3.176c0 1.755 1.399 3.177 3.124 3.177zm0 8.679c1.725 0 3.124-1.422 3.124-3.176 0-1.754-1.399-3.177-3.124-3.177s-3.124 1.423-3.124 3.177 1.399 3.176 3.124 3.176zm0 8.679c1.725 0 3.124-1.422 3.124-3.176 0-1.754-1.399-3.176-3.124-3.176s-3.124 1.422-3.124 3.176c0 1.754 1.399 3.176 3.124 3.176zm0 8.681c1.725 0 3.124-1.423 3.124-3.177s-1.399-3.176-3.124-3.176-3.124 1.422-3.124 3.176c0 1.754 1.399 3.177 3.124 3.177zm0 8.681c1.725 0 3.124-1.422 3.124-3.176 0-1.755-1.399-3.177-3.124-3.177s-3.124 1.422-3.124 3.177c0 1.754 1.399 3.176 3.124 3.176zm0 8.679c1.725 0 3.124-1.422 3.124-3.176 0-1.754-1.399-3.177-3.124-3.177s-3.124 1.423-3.124 3.177 1.399 3.176 3.124 3.176zm0 8.681c1.725 0 3.124-1.422 3.124-3.176 0-1.754-1.399-3.176-3.124-3.176s-3.124 1.422-3.124 3.176c0 1.754 1.399 3.176 3.124 3.176zm0 8.682c1.725 0 3.124-1.422 3.124-3.177 0-1.754-1.399-3.176-3.124-3.176s-3.124 1.422-3.124 3.176c0 1.755 1.399 3.177 3.124 3.177zm0 8.679c1.725 0 3.124-1.422 3.124-3.176 0-1.755-1.399-3.177-3.124-3.177s-3.124 1.422-3.124 3.177c0 1.754 1.399 3.176 3.124 3.176z" fill="#000" stroke="#000" stroke-width=".326"/><path d="M562.688 401.639c1.726 0 3.124-1.422 3.124-3.176 0-1.754-1.398-3.176-3.124-3.176-1.725 0-3.124 1.422-3.124 3.176 0 1.754 1.399 3.176 3.124 3.176zm8.536 0c1.726 0 3.124-1.422 3.124-3.176 0-1.754-1.398-3.176-3.124-3.176-1.725 0-3.124 1.422-3.124 3.176 0 1.754 1.399 3.176 3.124 3.176zm8.537 0c1.725 0 3.124-1.422 3.124-3.176 0-1.754-1.399-3.176-3.124-3.176-1.726 0-3.124 1.422-3.124 3.176 0 1.754 1.398 3.176 3.124 3.176zm8.538 0c1.725 0 3.124-1.422 3.124-3.176 0-1.754-1.399-3.176-3.124-3.176s-3.124 1.422-3.124 3.176c0 1.754 1.399 3.176 3.124 3.176zm-34.149-8.681c1.726 0 3.124-1.422 3.124-3.176 0-1.754-1.398-3.177-3.124-3.177-1.725 0-3.124 1.423-3.124 3.177s1.399 3.176 3.124 3.176zm8.538 0c1.726 0 3.124-1.422 3.124-3.176 0-1.754-1.398-3.177-3.124-3.177-1.725 0-3.124 1.423-3.124 3.177s1.399 3.176 3.124 3.176zm8.536 0c1.726 0 3.124-1.422 3.124-3.176 0-1.754-1.398-3.177-3.124-3.177-1.725 0-3.124 1.423-3.124 3.177s1.399 3.176 3.124 3.176zm8.537 0c1.725 0 3.124-1.422 3.124-3.176 0-1.754-1.399-3.177-3.124-3.177-1.726 0-3.124 1.423-3.124 3.177s1.398 3.176 3.124 3.176zm-25.611-8.679c1.726 0 3.124-1.422 3.124-3.176 0-1.755-1.398-3.177-3.124-3.177-1.725 0-3.124 1.422-3.124 3.177 0 1.754 1.399 3.176 3.124 3.176zm0-8.681c1.726 0 3.124-1.423 3.124-3.177s-1.398-3.176-3.124-3.176c-1.725 0-3.124 1.422-3.124 3.176 0 1.754 1.399 3.177 3.124 3.177zm8.538 8.681c1.726 0 3.124-1.422 3.124-3.176 0-1.755-1.398-3.177-3.124-3.177-1.725 0-3.124 1.422-3.124 3.177 0 1.754 1.399 3.176 3.124 3.176zm0-8.681c1.726 0 3.124-1.423 3.124-3.177s-1.398-3.176-3.124-3.176c-1.725 0-3.124 1.422-3.124 3.176 0 1.754 1.399 3.177 3.124 3.177zm8.536 8.681c1.726 0 3.124-1.422 3.124-3.176 0-1.755-1.398-3.177-3.124-3.177-1.725 0-3.124 1.422-3.124 3.177 0 1.754 1.399 3.176 3.124 3.176zm0-8.681c1.726 0 3.124-1.423 3.124-3.177s-1.398-3.176-3.124-3.176c-1.725 0-3.124 1.422-3.124 3.176 0 1.754 1.399 3.177 3.124 3.177zm8.537 8.681c1.725 0 3.124-1.422 3.124-3.176 0-1.755-1.399-3.177-3.124-3.177-1.726 0-3.124 1.422-3.124 3.177 0 1.754 1.398 3.176 3.124 3.176zm0-8.681c1.725 0 3.124-1.423 3.124-3.177s-1.399-3.176-3.124-3.176c-1.726 0-3.124 1.422-3.124 3.176 0 1.754 1.398 3.177 3.124 3.177zm-34.149-8.681c1.726 0 3.124-1.422 3.124-3.176 0-1.754-1.398-3.176-3.124-3.176-1.725 0-3.124 1.422-3.124 3.176 0 1.754 1.399 3.176 3.124 3.176zm8.538 0c1.726 0 3.124-1.422 3.124-3.176 0-1.754-1.398-3.176-3.124-3.176-1.725 0-3.124 1.422-3.124 3.176 0 1.754 1.399 3.176 3.124 3.176zm8.538 0c1.726 0 3.124-1.422 3.124-3.176 0-1.754-1.398-3.176-3.124-3.176-1.725 0-3.124 1.422-3.124 3.176 0 1.754 1.399 3.176 3.124 3.176zm8.536 0c1.726 0 3.124-1.422 3.124-3.176 0-1.754-1.398-3.176-3.124-3.176-1.725 0-3.124 1.422-3.124 3.176 0 1.754 1.399 3.176 3.124 3.176zm-25.612-8.679c1.726 0 3.124-1.422 3.124-3.176 0-1.754-1.398-3.177-3.124-3.177-1.725 0-3.124 1.423-3.124 3.177s1.399 3.176 3.124 3.176zm0-8.679c1.726 0 3.124-1.422 3.124-3.177 0-1.754-1.398-3.176-3.124-3.176-1.725 0-3.124 1.422-3.124 3.176 0 1.755 1.399 3.177 3.124 3.177zm8.538 8.679c1.726 0 3.124-1.422 3.124-3.176 0-1.754-1.398-3.177-3.124-3.177-1.725 0-3.124 1.423-3.124 3.177s1.399 3.176 3.124 3.176zm0-8.679c1.726 0 3.124-1.422 3.124-3.177 0-1.754-1.398-3.176-3.124-3.176-1.725 0-3.124 1.422-3.124 3.176 0 1.755 1.399 3.177 3.124 3.177zm8.538 8.679c1.726 0 3.124-1.422 3.124-3.176 0-1.754-1.398-3.177-3.124-3.177-1.725 0-3.124 1.423-3.124 3.177s1.399 3.176 3.124 3.176zm0-8.679c1.726 0 3.124-1.422 3.124-3.177 0-1.754-1.398-3.176-3.124-3.176-1.725 0-3.124 1.422-3.124 3.176 0 1.755 1.399 3.177 3.124 3.177zm8.536 8.679c1.726 0 3.124-1.422 3.124-3.176 0-1.754-1.398-3.177-3.124-3.177-1.725 0-3.124 1.423-3.124 3.177s1.399 3.176 3.124 3.176zm0-8.679c1.726 0 3.124-1.422 3.124-3.177 0-1.754-1.398-3.176-3.124-3.176-1.725 0-3.124 1.422-3.124 3.176 0 1.755 1.399 3.177 3.124 3.177zm-34.148-8.681c1.725 0 3.124-1.423 3.124-3.177s-1.399-3.176-3.124-3.176c-1.726 0-3.124 1.422-3.124 3.176 0 1.754 1.398 3.177 3.124 3.177zm8.536 0c1.726 0 3.124-1.423 3.124-3.177s-1.398-3.176-3.124-3.176c-1.725 0-3.124 1.422-3.124 3.176 0 1.754 1.399 3.177 3.124 3.177zm8.538 0c1.726 0 3.124-1.423 3.124-3.177s-1.398-3.176-3.124-3.176c-1.725 0-3.124 1.422-3.124 3.176 0 1.754 1.399 3.177 3.124 3.177zm8.538 0c1.726 0 3.124-1.423 3.124-3.177s-1.398-3.176-3.124-3.176c-1.725 0-3.124 1.422-3.124 3.176 0 1.754 1.399 3.177 3.124 3.177zm-25.612-8.682c1.725 0 3.124-1.422 3.124-3.176 0-1.754-1.399-3.176-3.124-3.176-1.726 0-3.124 1.422-3.124 3.176 0 1.754 1.398 3.176 3.124 3.176zm8.536 0c1.726 0 3.124-1.422 3.124-3.176 0-1.754-1.398-3.176-3.124-3.176-1.725 0-3.124 1.422-3.124 3.176 0 1.754 1.399 3.176 3.124 3.176zm8.538 0c1.726 0 3.124-1.422 3.124-3.176 0-1.754-1.398-3.176-3.124-3.176-1.725 0-3.124 1.422-3.124 3.176 0 1.754 1.399 3.176 3.124 3.176zm8.538 0c1.726 0 3.124-1.422 3.124-3.176 0-1.754-1.398-3.176-3.124-3.176-1.725 0-3.124 1.422-3.124 3.176 0 1.754 1.399 3.176 3.124 3.176zm68.298-43.401c1.726 0 3.124-1.422 3.124-3.176 0-1.754-1.398-3.176-3.124-3.176-1.725 0-3.124 1.422-3.124 3.176 0 1.754 1.399 3.176 3.124 3.176zm-8.538 0c1.726 0 3.124-1.422 3.124-3.176 0-1.754-1.398-3.176-3.124-3.176-1.725 0-3.124 1.422-3.124 3.176 0 1.754 1.399 3.176 3.124 3.176zm-8.538 0c1.726 0 3.124-1.422 3.124-3.176 0-1.754-1.398-3.176-3.124-3.176-1.725 0-3.124 1.422-3.124 3.176 0 1.754 1.399 3.176 3.124 3.176zm-8.535 0c1.725 0 3.124-1.422 3.124-3.176 0-1.754-1.399-3.176-3.124-3.176s-3.124 1.422-3.124 3.176c0 1.754 1.399 3.176 3.124 3.176zm17.073 8.68c1.726 0 3.124-1.422 3.124-3.176 0-1.755-1.398-3.177-3.124-3.177-1.725 0-3.124 1.422-3.124 3.177 0 1.754 1.399 3.176 3.124 3.176zm0 8.681c1.726 0 3.124-1.422 3.124-3.176 0-1.754-1.398-3.176-3.124-3.176-1.725 0-3.124 1.422-3.124 3.176 0 1.754 1.399 3.176 3.124 3.176zm0 8.682c1.726 0 3.124-1.422 3.124-3.177 0-1.754-1.398-3.176-3.124-3.176-1.725 0-3.124 1.422-3.124 3.176 0 1.755 1.399 3.177 3.124 3.177zm-34.149 8.679c1.725 0 3.124-1.422 3.124-3.177 0-1.754-1.399-3.176-3.124-3.176s-3.124 1.422-3.124 3.176c0 1.755 1.399 3.177 3.124 3.177zm25.611-26.042c1.726 0 3.124-1.422 3.124-3.176 0-1.755-1.398-3.177-3.124-3.177-1.725 0-3.124 1.422-3.124 3.177 0 1.754 1.399 3.176 3.124 3.176zm0 8.681c1.726 0 3.124-1.422 3.124-3.176 0-1.754-1.398-3.176-3.124-3.176-1.725 0-3.124 1.422-3.124 3.176 0 1.754 1.399 3.176 3.124 3.176zm0 8.682c1.726 0 3.124-1.422 3.124-3.177 0-1.754-1.398-3.176-3.124-3.176-1.725 0-3.124 1.422-3.124 3.176 0 1.755 1.399 3.177 3.124 3.177zm0 8.679c1.726 0 3.124-1.422 3.124-3.177 0-1.754-1.398-3.176-3.124-3.176-1.725 0-3.124 1.422-3.124 3.176 0 1.755 1.399 3.177 3.124 3.177zm-8.535-26.042c1.725 0 3.124-1.422 3.124-3.176 0-1.755-1.399-3.177-3.124-3.177s-3.124 1.422-3.124 3.177c0 1.754 1.399 3.176 3.124 3.176zm0 8.681c1.725 0 3.124-1.422 3.124-3.176 0-1.754-1.399-3.176-3.124-3.176s-3.124 1.422-3.124 3.176c0 1.754 1.399 3.176 3.124 3.176zm0 8.682c1.725 0 3.124-1.422 3.124-3.177 0-1.754-1.399-3.176-3.124-3.176s-3.124 1.422-3.124 3.176c0 1.755 1.399 3.177 3.124 3.177zm0 8.679c1.725 0 3.124-1.422 3.124-3.177 0-1.754-1.399-3.176-3.124-3.176s-3.124 1.422-3.124 3.176c0 1.755 1.399 3.177 3.124 3.177zm-8.538-26.042c1.725 0 3.124-1.422 3.124-3.176 0-1.755-1.399-3.177-3.124-3.177s-3.124 1.422-3.124 3.177c0 1.754 1.399 3.176 3.124 3.176zm0 8.681c1.725 0 3.124-1.422 3.124-3.176 0-1.754-1.399-3.176-3.124-3.176s-3.124 1.422-3.124 3.176c0 1.754 1.399 3.176 3.124 3.176zm0 8.682c1.725 0 3.124-1.422 3.124-3.177 0-1.754-1.399-3.176-3.124-3.176s-3.124 1.422-3.124 3.176c0 1.755 1.399 3.177 3.124 3.177zm0 8.679c1.725 0 3.124-1.422 3.124-3.177 0-1.754-1.399-3.176-3.124-3.176s-3.124 1.422-3.124 3.176c0 1.755 1.399 3.177 3.124 3.177zM588.299 419c1.725 0 3.124-1.422 3.124-3.176 0-1.755-1.399-3.177-3.124-3.177s-3.124 1.422-3.124 3.177c0 1.754 1.399 3.176 3.124 3.176zm-8.538 0c1.725 0 3.124-1.422 3.124-3.176 0-1.755-1.399-3.177-3.124-3.177-1.726 0-3.124 1.422-3.124 3.177 0 1.754 1.398 3.176 3.124 3.176zm-8.537 0c1.726 0 3.124-1.422 3.124-3.176 0-1.755-1.398-3.177-3.124-3.177-1.725 0-3.124 1.422-3.124 3.177 0 1.754 1.399 3.176 3.124 3.176zm-8.536 0c1.726 0 3.124-1.422 3.124-3.176 0-1.755-1.398-3.177-3.124-3.177-1.725 0-3.124 1.422-3.124 3.177 0 1.754 1.399 3.176 3.124 3.176zm25.611-8.679c1.725 0 3.124-1.422 3.124-3.177 0-1.754-1.399-3.176-3.124-3.176s-3.124 1.422-3.124 3.176c0 1.755 1.399 3.177 3.124 3.177zm-8.538 0c1.725 0 3.124-1.422 3.124-3.177 0-1.754-1.399-3.176-3.124-3.176-1.726 0-3.124 1.422-3.124 3.176 0 1.755 1.398 3.177 3.124 3.177zm-8.537 0c1.726 0 3.124-1.422 3.124-3.177 0-1.754-1.398-3.176-3.124-3.176-1.725 0-3.124 1.422-3.124 3.176 0 1.755 1.399 3.177 3.124 3.177zm-8.536 0c1.726 0 3.124-1.422 3.124-3.177 0-1.754-1.398-3.176-3.124-3.176-1.725 0-3.124 1.422-3.124 3.176 0 1.755 1.399 3.177 3.124 3.177z" fill="red" stroke="red" stroke-width=".326"/><path d="M588.299 401.639c1.725 0 3.124-1.422 3.124-3.176 0-1.754-1.399-3.176-3.124-3.176s-3.124 1.422-3.124 3.176c0 1.754 1.399 3.176 3.124 3.176zm-8.538 0c1.725 0 3.124-1.422 3.124-3.176 0-1.754-1.399-3.176-3.124-3.176-1.726 0-3.124 1.422-3.124 3.176 0 1.754 1.398 3.176 3.124 3.176zm-8.537 0c1.726 0 3.124-1.422 3.124-3.176 0-1.754-1.398-3.176-3.124-3.176-1.725 0-3.124 1.422-3.124 3.176 0 1.754 1.399 3.176 3.124 3.176zm-8.536 0c1.726 0 3.124-1.422 3.124-3.176 0-1.754-1.398-3.176-3.124-3.176-1.725 0-3.124 1.422-3.124 3.176 0 1.754 1.399 3.176 3.124 3.176zm34.149-8.681c1.725 0 3.124-1.422 3.124-3.176 0-1.754-1.399-3.177-3.124-3.177s-3.124 1.423-3.124 3.177 1.399 3.176 3.124 3.176zm-8.538 0c1.725 0 3.124-1.422 3.124-3.176 0-1.754-1.399-3.177-3.124-3.177s-3.124 1.423-3.124 3.177 1.399 3.176 3.124 3.176zm-8.538 0c1.725 0 3.124-1.422 3.124-3.176 0-1.754-1.399-3.177-3.124-3.177-1.726 0-3.124 1.423-3.124 3.177s1.398 3.176 3.124 3.176zm-8.537 0c1.726 0 3.124-1.422 3.124-3.176 0-1.754-1.398-3.177-3.124-3.177-1.725 0-3.124 1.423-3.124 3.177s1.399 3.176 3.124 3.176zm25.613-8.679c1.725 0 3.124-1.422 3.124-3.176 0-1.755-1.399-3.177-3.124-3.177s-3.124 1.422-3.124 3.177c0 1.754 1.399 3.176 3.124 3.176zm0-8.681c1.725 0 3.124-1.423 3.124-3.177s-1.399-3.176-3.124-3.176-3.124 1.422-3.124 3.176c0 1.754 1.399 3.177 3.124 3.177zm-8.538 8.681c1.725 0 3.124-1.422 3.124-3.176 0-1.755-1.399-3.177-3.124-3.177s-3.124 1.422-3.124 3.177c0 1.754 1.399 3.176 3.124 3.176zm0-8.681c1.725 0 3.124-1.423 3.124-3.177s-1.399-3.176-3.124-3.176-3.124 1.422-3.124 3.176c0 1.754 1.399 3.177 3.124 3.177zm-8.538 8.681c1.725 0 3.124-1.422 3.124-3.176 0-1.755-1.399-3.177-3.124-3.177-1.726 0-3.124 1.422-3.124 3.177 0 1.754 1.398 3.176 3.124 3.176zm0-8.681c1.725 0 3.124-1.423 3.124-3.177s-1.399-3.176-3.124-3.176c-1.726 0-3.124 1.422-3.124 3.176 0 1.754 1.398 3.177 3.124 3.177zm-8.537 8.681c1.726 0 3.124-1.422 3.124-3.176 0-1.755-1.398-3.177-3.124-3.177-1.725 0-3.124 1.422-3.124 3.177 0 1.754 1.399 3.176 3.124 3.176zm0-8.681c1.726 0 3.124-1.423 3.124-3.177s-1.398-3.176-3.124-3.176c-1.725 0-3.124 1.422-3.124 3.176 0 1.754 1.399 3.177 3.124 3.177zm34.151-8.681c1.725 0 3.124-1.422 3.124-3.176 0-1.754-1.399-3.176-3.124-3.176s-3.124 1.422-3.124 3.176c0 1.754 1.399 3.176 3.124 3.176zm-8.538 0c1.725 0 3.124-1.422 3.124-3.176 0-1.754-1.399-3.176-3.124-3.176s-3.124 1.422-3.124 3.176c0 1.754 1.399 3.176 3.124 3.176zm-8.538 0c1.725 0 3.124-1.422 3.124-3.176 0-1.754-1.399-3.176-3.124-3.176s-3.124 1.422-3.124 3.176c0 1.754 1.399 3.176 3.124 3.176zm-8.538 0c1.725 0 3.124-1.422 3.124-3.176 0-1.754-1.399-3.176-3.124-3.176-1.726 0-3.124 1.422-3.124 3.176 0 1.754 1.398 3.176 3.124 3.176zm25.614-8.679c1.725 0 3.124-1.422 3.124-3.176 0-1.754-1.399-3.177-3.124-3.177s-3.124 1.423-3.124 3.177 1.399 3.176 3.124 3.176zm0-8.679c1.725 0 3.124-1.422 3.124-3.177 0-1.754-1.399-3.176-3.124-3.176s-3.124 1.422-3.124 3.176c0 1.755 1.399 3.177 3.124 3.177zm-8.538 8.679c1.725 0 3.124-1.422 3.124-3.176 0-1.754-1.399-3.177-3.124-3.177s-3.124 1.423-3.124 3.177 1.399 3.176 3.124 3.176zm0-8.679c1.725 0 3.124-1.422 3.124-3.177 0-1.754-1.399-3.176-3.124-3.176s-3.124 1.422-3.124 3.176c0 1.755 1.399 3.177 3.124 3.177zm-8.538 8.679c1.725 0 3.124-1.422 3.124-3.176 0-1.754-1.399-3.177-3.124-3.177s-3.124 1.423-3.124 3.177 1.399 3.176 3.124 3.176zm0-8.679c1.725 0 3.124-1.422 3.124-3.177 0-1.754-1.399-3.176-3.124-3.176s-3.124 1.422-3.124 3.176c0 1.755 1.399 3.177 3.124 3.177zm-8.538 8.679c1.725 0 3.124-1.422 3.124-3.176 0-1.754-1.399-3.177-3.124-3.177-1.726 0-3.124 1.423-3.124 3.177s1.398 3.176 3.124 3.176zm0-8.679c1.725 0 3.124-1.422 3.124-3.177 0-1.754-1.399-3.176-3.124-3.176-1.726 0-3.124 1.422-3.124 3.176 0 1.755 1.398 3.177 3.124 3.177zm34.149-8.681c1.726 0 3.124-1.423 3.124-3.177s-1.398-3.176-3.124-3.176c-1.725 0-3.124 1.422-3.124 3.176 0 1.754 1.399 3.177 3.124 3.177zm-8.535 0c1.725 0 3.124-1.423 3.124-3.177s-1.399-3.176-3.124-3.176-3.124 1.422-3.124 3.176c0 1.754 1.399 3.177 3.124 3.177zm-8.538 0c1.725 0 3.124-1.423 3.124-3.177s-1.399-3.176-3.124-3.176-3.124 1.422-3.124 3.176c0 1.754 1.399 3.177 3.124 3.177zm-8.538 0c1.725 0 3.124-1.423 3.124-3.177s-1.399-3.176-3.124-3.176-3.124 1.422-3.124 3.176c0 1.754 1.399 3.177 3.124 3.177zm25.611-8.682c1.726 0 3.124-1.422 3.124-3.176 0-1.754-1.398-3.176-3.124-3.176-1.725 0-3.124 1.422-3.124 3.176 0 1.754 1.399 3.176 3.124 3.176zm-8.535 0c1.725 0 3.124-1.422 3.124-3.176 0-1.754-1.399-3.176-3.124-3.176s-3.124 1.422-3.124 3.176c0 1.754 1.399 3.176 3.124 3.176zm-8.538 0c1.725 0 3.124-1.422 3.124-3.176 0-1.754-1.399-3.176-3.124-3.176s-3.124 1.422-3.124 3.176c0 1.754 1.399 3.176 3.124 3.176zm-8.538 0c1.725 0 3.124-1.422 3.124-3.176 0-1.754-1.399-3.176-3.124-3.176s-3.124 1.422-3.124 3.176c0 1.754 1.399 3.176 3.124 3.176z" fill="red" stroke="red" stroke-width=".326"/><path d="M710.14 288.795c1.725 0 3.124-1.422 3.124-3.176 0-1.754-1.399-3.176-3.124-3.176s-3.124 1.422-3.124 3.176c0 1.754 1.399 3.176 3.124 3.176zm8.538 0c1.726 0 3.124-1.422 3.124-3.176 0-1.754-1.398-3.176-3.124-3.176-1.725 0-3.124 1.422-3.124 3.176 0 1.754 1.399 3.176 3.124 3.176zm-8.538 8.68c1.726 0 3.124-1.422 3.124-3.176 0-1.755-1.398-3.177-3.124-3.177-1.725 0-3.124 1.422-3.124 3.177 0 1.754 1.399 3.176 3.124 3.176zm0 8.681c1.726 0 3.124-1.422 3.124-3.176 0-1.754-1.398-3.176-3.124-3.176-1.725 0-3.124 1.422-3.124 3.176 0 1.754 1.399 3.176 3.124 3.176zm0 8.682c1.726 0 3.124-1.422 3.124-3.177 0-1.754-1.398-3.176-3.124-3.176-1.725 0-3.124 1.422-3.124 3.176 0 1.755 1.399 3.177 3.124 3.177zm8.538-17.363c1.726 0 3.124-1.422 3.124-3.176 0-1.755-1.398-3.177-3.124-3.177-1.725 0-3.124 1.422-3.124 3.177 0 1.754 1.399 3.176 3.124 3.176zm0 8.681c1.726 0 3.124-1.422 3.124-3.176 0-1.754-1.398-3.176-3.124-3.176-1.725 0-3.124 1.422-3.124 3.176 0 1.754 1.399 3.176 3.124 3.176zm0 8.682c1.726 0 3.124-1.422 3.124-3.177 0-1.754-1.398-3.176-3.124-3.176-1.725 0-3.124 1.422-3.124 3.176 0 1.755 1.399 3.177 3.124 3.177zm0 8.679c1.726 0 3.124-1.422 3.124-3.177 0-1.754-1.398-3.176-3.124-3.176-1.725 0-3.124 1.422-3.124 3.176 0 1.755 1.399 3.177 3.124 3.177zm8.538 0c1.726 0 3.124-1.422 3.124-3.177 0-1.754-1.398-3.176-3.124-3.176-1.725 0-3.124 1.422-3.124 3.176 0 1.755 1.399 3.177 3.124 3.177zM761.366 419c1.725 0 3.124-1.422 3.124-3.176 0-1.755-1.399-3.177-3.124-3.177-1.726 0-3.124 1.422-3.124 3.177 0 1.754 1.398 3.176 3.124 3.176zm8.536 0c1.725 0 3.124-1.422 3.124-3.176 0-1.755-1.399-3.177-3.124-3.177-1.726 0-3.124 1.422-3.124 3.177 0 1.754 1.398 3.176 3.124 3.176zm-8.536-8.679c1.725 0 3.124-1.422 3.124-3.177 0-1.754-1.399-3.176-3.124-3.176-1.726 0-3.124 1.422-3.124 3.176 0 1.755 1.398 3.177 3.124 3.177zm8.536 0c1.725 0 3.124-1.422 3.124-3.177 0-1.754-1.399-3.176-3.124-3.176-1.726 0-3.124 1.422-3.124 3.176 0 1.755 1.398 3.177 3.124 3.177zm-8.536-8.682c1.725 0 3.124-1.422 3.124-3.176 0-1.754-1.399-3.176-3.124-3.176-1.726 0-3.124 1.422-3.124 3.176 0 1.754 1.398 3.176 3.124 3.176zm8.536 0c1.725 0 3.124-1.422 3.124-3.176 0-1.754-1.399-3.176-3.124-3.176-1.726 0-3.124 1.422-3.124 3.176 0 1.754 1.398 3.176 3.124 3.176zm-17.074-8.681c1.725 0 3.124-1.422 3.124-3.176 0-1.754-1.399-3.176-3.124-3.176-1.726 0-3.124 1.422-3.124 3.176 0 1.754 1.398 3.176 3.124 3.176zm8.538 0c1.725 0 3.124-1.422 3.124-3.176 0-1.754-1.399-3.176-3.124-3.176-1.726 0-3.124 1.422-3.124 3.176 0 1.754 1.398 3.176 3.124 3.176zm-25.612-17.36c1.725 0 3.124-1.423 3.124-3.177s-1.399-3.176-3.124-3.176c-1.726 0-3.124 1.422-3.124 3.176 0 1.754 1.398 3.177 3.124 3.177zm8.536 8.681c1.725 0 3.124-1.422 3.124-3.176 0-1.755-1.399-3.177-3.124-3.177-1.726 0-3.124 1.422-3.124 3.177 0 1.754 1.398 3.176 3.124 3.176zm0-8.681c1.725 0 3.124-1.423 3.124-3.177s-1.399-3.176-3.124-3.176c-1.726 0-3.124 1.422-3.124 3.176 0 1.754 1.398 3.177 3.124 3.177zm8.538 8.681c1.725 0 3.124-1.422 3.124-3.176 0-1.755-1.399-3.177-3.124-3.177-1.726 0-3.124 1.422-3.124 3.177 0 1.754 1.398 3.176 3.124 3.176zm0-8.681c1.725 0 3.124-1.423 3.124-3.177s-1.399-3.176-3.124-3.176c-1.726 0-3.124 1.422-3.124 3.176 0 1.754 1.398 3.177 3.124 3.177zm8.538 8.681c1.725 0 3.124-1.422 3.124-3.176 0-1.755-1.399-3.177-3.124-3.177-1.726 0-3.124 1.422-3.124 3.177 0 1.754 1.398 3.176 3.124 3.176zm0-8.681c1.725 0 3.124-1.423 3.124-3.177s-1.399-3.176-3.124-3.176c-1.726 0-3.124 1.422-3.124 3.176 0 1.754 1.398 3.177 3.124 3.177zm-34.15-8.681c1.726 0 3.124-1.422 3.124-3.176 0-1.754-1.398-3.176-3.124-3.176-1.725 0-3.124 1.422-3.124 3.176 0 1.754 1.399 3.176 3.124 3.176zm8.538 0c1.725 0 3.124-1.422 3.124-3.176 0-1.754-1.399-3.176-3.124-3.176-1.726 0-3.124 1.422-3.124 3.176 0 1.754 1.398 3.176 3.124 3.176zm8.536 0c1.725 0 3.124-1.422 3.124-3.176 0-1.754-1.399-3.176-3.124-3.176-1.726 0-3.124 1.422-3.124 3.176 0 1.754 1.398 3.176 3.124 3.176zm8.538 0c1.725 0 3.124-1.422 3.124-3.176 0-1.754-1.399-3.176-3.124-3.176-1.726 0-3.124 1.422-3.124 3.176 0 1.754 1.398 3.176 3.124 3.176zm-25.612-8.679c1.726 0 3.124-1.422 3.124-3.176 0-1.754-1.398-3.177-3.124-3.177-1.725 0-3.124 1.423-3.124 3.177s1.399 3.176 3.124 3.176zm0-8.679c1.726 0 3.124-1.422 3.124-3.177 0-1.754-1.398-3.176-3.124-3.176-1.725 0-3.124 1.422-3.124 3.176 0 1.755 1.399 3.177 3.124 3.177zm8.538 8.679c1.725 0 3.124-1.422 3.124-3.176 0-1.754-1.399-3.177-3.124-3.177-1.726 0-3.124 1.423-3.124 3.177s1.398 3.176 3.124 3.176zm0-8.679c1.725 0 3.124-1.422 3.124-3.177 0-1.754-1.399-3.176-3.124-3.176-1.726 0-3.124 1.422-3.124 3.176 0 1.755 1.398 3.177 3.124 3.177zm8.536 8.679c1.725 0 3.124-1.422 3.124-3.176 0-1.754-1.399-3.177-3.124-3.177-1.726 0-3.124 1.423-3.124 3.177s1.398 3.176 3.124 3.176zm0-8.679c1.725 0 3.124-1.422 3.124-3.177 0-1.754-1.399-3.176-3.124-3.176-1.726 0-3.124 1.422-3.124 3.176 0 1.755 1.398 3.177 3.124 3.177zm8.538 8.679c1.725 0 3.124-1.422 3.124-3.176 0-1.754-1.399-3.177-3.124-3.177-1.726 0-3.124 1.423-3.124 3.177s1.398 3.176 3.124 3.176zm0-8.679c1.725 0 3.124-1.422 3.124-3.177 0-1.754-1.399-3.176-3.124-3.176-1.726 0-3.124 1.422-3.124 3.176 0 1.755 1.398 3.177 3.124 3.177zm-34.15-8.681c1.726 0 3.124-1.423 3.124-3.177s-1.398-3.176-3.124-3.176c-1.725 0-3.124 1.422-3.124 3.176 0 1.754 1.399 3.177 3.124 3.177zm8.538 0c1.726 0 3.124-1.423 3.124-3.177s-1.398-3.176-3.124-3.176c-1.725 0-3.124 1.422-3.124 3.176 0 1.754 1.399 3.177 3.124 3.177zm8.538 0c1.725 0 3.124-1.423 3.124-3.177s-1.399-3.176-3.124-3.176c-1.726 0-3.124 1.422-3.124 3.176 0 1.754 1.398 3.177 3.124 3.177zm8.536 0c1.725 0 3.124-1.423 3.124-3.177s-1.399-3.176-3.124-3.176c-1.726 0-3.124 1.422-3.124 3.176 0 1.754 1.398 3.177 3.124 3.177zm-25.612-8.682c1.726 0 3.124-1.422 3.124-3.176 0-1.754-1.398-3.176-3.124-3.176-1.725 0-3.124 1.422-3.124 3.176 0 1.754 1.399 3.176 3.124 3.176zm8.538 0c1.726 0 3.124-1.422 3.124-3.176 0-1.754-1.398-3.176-3.124-3.176-1.725 0-3.124 1.422-3.124 3.176 0 1.754 1.399 3.176 3.124 3.176zm8.538 0c1.725 0 3.124-1.422 3.124-3.176 0-1.754-1.399-3.176-3.124-3.176-1.726 0-3.124 1.422-3.124 3.176 0 1.754 1.398 3.176 3.124 3.176z" fill="#000" stroke="#000" stroke-width=".326"/><path d="M630.986 280.115c1.726 0 3.124-1.422 3.124-3.177 0-1.754-1.398-3.176-3.124-3.176-1.725 0-3.124 1.422-3.124 3.176 0 1.755 1.399 3.177 3.124 3.177zm0-8.68c1.726 0 3.124-1.422 3.124-3.176 0-1.754-1.398-3.176-3.124-3.176-1.725 0-3.124 1.422-3.124 3.176 0 1.754 1.399 3.176 3.124 3.176zm-8.538 8.68c1.726 0 3.124-1.422 3.124-3.177 0-1.754-1.398-3.176-3.124-3.176-1.725 0-3.124 1.422-3.124 3.176 0 1.755 1.399 3.177 3.124 3.177zm0-8.68c1.726 0 3.124-1.422 3.124-3.176 0-1.754-1.398-3.176-3.124-3.176-1.725 0-3.124 1.422-3.124 3.176 0 1.754 1.399 3.176 3.124 3.176zm-8.538 8.68c1.726 0 3.124-1.422 3.124-3.177 0-1.754-1.398-3.176-3.124-3.176-1.725 0-3.124 1.422-3.124 3.176 0 1.755 1.399 3.177 3.124 3.177zm0-8.68c1.726 0 3.124-1.422 3.124-3.176 0-1.754-1.398-3.176-3.124-3.176-1.725 0-3.124 1.422-3.124 3.176 0 1.754 1.399 3.176 3.124 3.176zm-8.535 8.68c1.725 0 3.124-1.422 3.124-3.177 0-1.754-1.399-3.176-3.124-3.176s-3.124 1.422-3.124 3.176c0 1.755 1.399 3.177 3.124 3.177zm0-8.68c1.725 0 3.124-1.422 3.124-3.176 0-1.754-1.399-3.176-3.124-3.176s-3.124 1.422-3.124 3.176c0 1.754 1.399 3.176 3.124 3.176zm34.149-8.681c1.726 0 3.124-1.422 3.124-3.176 0-1.755-1.398-3.177-3.124-3.177-1.725 0-3.124 1.422-3.124 3.177 0 1.754 1.399 3.176 3.124 3.176zm-8.538 0c1.726 0 3.124-1.422 3.124-3.176 0-1.755-1.398-3.177-3.124-3.177-1.725 0-3.124 1.422-3.124 3.177 0 1.754 1.399 3.176 3.124 3.176zm-8.538 0c1.726 0 3.124-1.422 3.124-3.176 0-1.755-1.398-3.177-3.124-3.177-1.725 0-3.124 1.422-3.124 3.177 0 1.754 1.399 3.176 3.124 3.176zm-8.538 0c1.726 0 3.124-1.422 3.124-3.176 0-1.755-1.398-3.177-3.124-3.177-1.725 0-3.124 1.422-3.124 3.177 0 1.754 1.399 3.176 3.124 3.176zm25.614-8.679c1.726 0 3.124-1.423 3.124-3.177s-1.398-3.176-3.124-3.176c-1.725 0-3.124 1.422-3.124 3.176 0 1.754 1.399 3.177 3.124 3.177zm0-8.681c1.726 0 3.124-1.422 3.124-3.176 0-1.754-1.398-3.176-3.124-3.176-1.725 0-3.124 1.422-3.124 3.176 0 1.754 1.399 3.176 3.124 3.176zm-8.538 8.681c1.726 0 3.124-1.423 3.124-3.177s-1.398-3.176-3.124-3.176c-1.725 0-3.124 1.422-3.124 3.176 0 1.754 1.399 3.177 3.124 3.177zm0-8.681c1.726 0 3.124-1.422 3.124-3.176 0-1.754-1.398-3.176-3.124-3.176-1.725 0-3.124 1.422-3.124 3.176 0 1.754 1.399 3.176 3.124 3.176zm-8.538 8.681c1.726 0 3.124-1.423 3.124-3.177s-1.398-3.176-3.124-3.176c-1.725 0-3.124 1.422-3.124 3.176 0 1.754 1.399 3.177 3.124 3.177zm0-8.681c1.726 0 3.124-1.422 3.124-3.176 0-1.754-1.398-3.176-3.124-3.176-1.725 0-3.124 1.422-3.124 3.176 0 1.754 1.399 3.176 3.124 3.176zm-8.538 8.681c1.726 0 3.124-1.423 3.124-3.177s-1.398-3.176-3.124-3.176c-1.725 0-3.124 1.422-3.124 3.176 0 1.754 1.399 3.177 3.124 3.177zm34.149-17.361c1.725 0 3.124-1.422 3.124-3.176 0-1.754-1.399-3.176-3.124-3.176s-3.124 1.422-3.124 3.176c0 1.754 1.399 3.176 3.124 3.176zm-8.535 0c1.726 0 3.124-1.422 3.124-3.176 0-1.754-1.398-3.176-3.124-3.176-1.725 0-3.124 1.422-3.124 3.176 0 1.754 1.399 3.176 3.124 3.176zm-8.538 0c1.726 0 3.124-1.422 3.124-3.176 0-1.754-1.398-3.176-3.124-3.176-1.725 0-3.124 1.422-3.124 3.176 0 1.754 1.399 3.176 3.124 3.176zm17.073-8.68c1.725 0 3.124-1.422 3.124-3.177 0-1.754-1.399-3.176-3.124-3.176s-3.124 1.422-3.124 3.176c0 1.755 1.399 3.177 3.124 3.177zm.001-8.681c1.726 0 3.124-1.422 3.124-3.177 0-1.754-1.398-3.176-3.124-3.176-1.725 0-3.124 1.422-3.124 3.176 0 1.755 1.399 3.177 3.124 3.177zm-8.536 8.681c1.726 0 3.124-1.422 3.124-3.177 0-1.754-1.398-3.176-3.124-3.176-1.725 0-3.124 1.422-3.124 3.176 0 1.755 1.399 3.177 3.124 3.177z" fill="red" stroke="red" stroke-width=".326"/><defs><linearGradient id="paint0_linear_1553_818" x1="0" y1="315" x2="1200" y2="315" gradientUnits="userSpaceOnUse"><stop stop-color="#FFBBB5"/><stop offset="1" stop-color="#FBEBEB"/></linearGradient></defs></svg>