<svg width="40" height="32" fill="none" xmlns="http://www.w3.org/2000/svg"><path fill-rule="evenodd" clip-rule="evenodd" d="M31.596 13.337a1.999 1.999 0 011.808 0l5.315 2.692a1.955 1.955 0 011.061 1.494c.15 1.176.446 4.224-.078 7.202-.3 1.71-1.624 3.218-2.857 4.32-1.274 1.14-2.653 2.017-3.36 2.441a1.904 1.904 0 01-1.973-.007c-.702-.426-2.063-1.307-3.33-2.444-1.227-1.102-2.543-2.6-2.88-4.287-.536-2.686-.224-5.985-.079-7.206a1.96 1.96 0 011.067-1.517l5.306-2.688zm-4.39 4.466c-.145 1.228-.408 4.223.057 6.554.202 1.01 1.082 2.136 2.256 3.19 1.108.996 2.321 1.79 2.985 2.195.67-.403 1.895-1.194 3.007-2.187 1.18-1.055 2.046-2.175 2.221-3.176.467-2.655.21-5.44.068-6.572l-5.3-2.686-5.294 2.682z" fill="#2B3151"/><path fill-rule="evenodd" clip-rule="evenodd" d="M36.24 19.36a1 1 0 010 1.413l-4.333 4.334a1 1 0 01-1.414 0l-2.168-2.167a.999.999 0 111.414-1.414l1.46 1.46 3.626-3.626c.39-.39 1.024-.39 1.415 0zM7 5.846a1.154 1.154 0 100 2.308 1.154 1.154 0 000-2.308zM4 7a3 3 0 116 0 3 3 0 01-6 0z" fill="#2B3151"/><path fill-rule="evenodd" clip-rule="evenodd" d="M11.2 5.846a1.154 1.154 0 100 2.308 1.154 1.154 0 000-2.308zM8.2 7a3 3 0 116 0 3 3 0 01-6 0z" fill="#2B3151"/><path fill-rule="evenodd" clip-rule="evenodd" d="M0 5a5 5 0 015-5h26a5 5 0 015 5v10h-2V5a3 3 0 00-3-3H5a3 3 0 00-3 3v12h24v2H2v2a3 3 0 003 3h21v2H5a5 5 0 01-5-5V5z" fill="#2B3151"/></svg>