<svg width="76" height="77" fill="none" xmlns="http://www.w3.org/2000/svg"><path fill-rule="evenodd" clip-rule="evenodd" d="M38 .875c-20.987 0-38 17.013-38 38 0 20.986 17.013 38 38 38s38-17.014 38-38c0-20.987-17.013-38-38-38zm-11.42 19a.343.343 0 00.291.077c.462-.039.857.074 1.113.496l.136.22c.529.858 1.059 1.717 1.563 2.596.364.635.712 1.28 1.06 1.927.256.474.511.948.774 1.419.101.19.228.37.355.55.072.102.144.203.21.307.163.257.317.522.468.78l.025.042c.326.616.31 1.237-.174 1.73a35.12 35.12 0 01-1.606 1.508c-.193.174-.386.348-.577.523-.238.218-.48.433-.72.647-.38.339-.76.677-1.126 1.028-.465.45-.586 1.012-.271 1.606l.087.163c.455.853.91 1.705 1.41 2.54 1.969 3.284 4.486 6.076 7.665 8.228a54.151 54.151 0 003.789 2.326c1.213.687 1.687.57 2.629-.48.497-.553.985-1.111 1.473-1.67.372-.424.744-.85 1.12-1.274a6.21 6.21 0 01.707-.647c.496-.419 1.039-.466 1.609-.179.035.018.072.035.108.052.126.059.253.118.361.197 1.011.723 2.102 1.304 3.192 1.885.54.287 1.08.575 1.608.88.546.313 1.083.64 1.618.968.305.186.609.372.915.555.453.268.636.66.604 1.198-.085 1.517-.337 3.005-1.217 4.285-.369.531-.892.997-1.42 1.373-1.461 1.023-3.094 1.656-4.83 2.043-1.579.353-3.153.225-4.666-.248-2.92-.9-5.797-1.93-8.445-3.494-2.404-1.423-4.591-3.14-6.615-5.06-2.563-2.439-4.851-5.099-6.7-8.127-1.207-1.966-2.068-4.084-2.847-6.243-.473-1.303-.938-2.594-1.148-3.975-.24-1.563-.073-3.067.427-4.548.45-1.338 1.012-2.618 1.861-3.762.667-.888 1.5-1.539 2.579-1.83.609-.161 1.222-.299 1.834-.437l.771-.175z" fill="#FD848D"/></svg>