<svg width="40" height="40" fill="none" xmlns="http://www.w3.org/2000/svg"><path d="M20 .127c10.974 0 19.873 8.9 19.873 19.873 0 10.974-8.9 19.873-19.873 19.873C9.026 39.873.127 30.973.127 20 .127 9.026 9.027.127 20 .127z" fill="url(#paint0_linear_1213_1248)"/><path d="M20 0C8.962 0 0 8.95 0 20s8.95 20 20 20 20-8.95 20-20S31.05 0 20 0zm0 37.798c-9.828 0-17.798-7.97-17.798-17.798S10.172 2.202 20 2.202 37.798 10.172 37.798 20 29.828 37.798 20 37.798z" fill="#8DC641"/><path d="M26.99 15.455l-4.456 6.607h4.455v-6.607zm1.68-2.673v9.293h1.96v1.68h-1.96v3.476h-1.694v-3.475h-6.301v-1.808l6.352-9.154 1.643-.012zm-9.854 12.756v1.68H9.37v-.05c.089-1.58.496-2.738 1.286-3.692.636-.79 1.413-1.375 3.004-2.368 0 0 .56-.357.726-.459.853-.547 1.4-.98 1.846-1.476.547-.637.827-1.324.827-2.14 0-1.578-1.12-2.66-2.724-2.66-1.872 0-2.826 1.426-2.877 3.552v.038h-1.68v-.038l-.013-.382c0-2.852 1.858-4.761 4.659-4.761 2.737 0 4.52 1.655 4.52 4.214 0 1.31-.472 2.367-1.375 3.297-.675.713-1.375 1.184-2.941 2.139-.026.012-.039.025-.064.038-.076.038-.42.242-.51.305-.75.446-1.209.764-1.616 1.146-.497.471-.828.993-.98 1.604h7.358v.013z" fill="#fff"/><defs><linearGradient id="paint0_linear_1213_1248" x1=".127" y1="20" x2="39.873" y2="20" gradientUnits="userSpaceOnUse"><stop stop-color="#333"/><stop offset="1"/></linearGradient></defs></svg>