<svg width="227" height="223" viewBox="0 0 227 223" fill="none" xmlns="http://www.w3.org/2000/svg">
<path d="M227 109.5C227 130.598 221.119 151.279 210.018 169.22C198.917 187.162 183.035 201.654 164.154 211.07C145.274 220.486 124.143 224.453 103.133 222.526C82.1227 220.598 62.0657 212.853 45.2133 200.16C28.3609 187.466 15.3801 170.326 7.72807 150.665C0.0760596 131.003 -1.94424 109.598 1.89396 88.8519C5.73216 68.1059 15.2769 48.8402 29.4568 33.2177C43.6367 17.5952 61.8903 6.23422 82.1687 0.410139L90.8282 30.5611C76.1545 34.7755 62.9459 42.9964 52.6852 54.3011C42.4244 65.6058 35.5177 79.5466 32.7403 94.5588C29.963 109.571 31.4249 125.06 36.962 139.287C42.4991 153.515 51.8922 165.917 64.0868 175.103C76.2815 184.288 90.7949 189.892 105.998 191.287C121.201 192.681 136.492 189.811 150.154 182.997C163.816 176.184 175.309 165.697 183.342 152.714C191.375 139.732 195.63 124.767 195.63 109.5H227Z" fill="url(#paint0_linear_296_206)"/>
<defs>
<linearGradient id="paint0_linear_296_206" x1="0" y1="109.5" x2="227" y2="109.5" gradientUnits="userSpaceOnUse">
<stop stop-color="#FFC3A0"/>
<stop offset="1" stop-color="#FFAFBD"/>
</linearGradient>
</defs>
</svg>
