<svg width="227" height="158" viewBox="0 0 227 158" fill="none" xmlns="http://www.w3.org/2000/svg">
<path d="M227 44.5C227 61.3174 223.263 77.9247 216.059 93.1209C208.854 108.317 198.363 121.723 185.344 132.368C172.324 143.013 157.102 150.632 140.777 154.673C124.453 158.715 107.434 159.079 90.9519 155.738C74.4697 152.397 58.9359 145.435 45.4738 135.355C32.0116 125.276 20.9576 112.331 13.1111 97.4558C5.26459 82.5811 0.82163 66.1486 0.103521 49.3465C-0.614589 32.5444 2.4101 15.7927 8.95886 0.302719L37.8526 12.5182C33.1138 23.727 30.9251 35.8488 31.4448 48.007C31.9644 60.1652 35.1794 72.056 40.8572 82.8196C46.5351 93.5831 54.5339 102.95 64.2753 110.244C74.0167 117.538 85.2571 122.576 97.1839 124.993C109.111 127.411 121.426 127.148 133.238 124.223C145.051 121.298 156.066 115.785 165.487 108.082C174.908 100.379 182.5 90.679 187.713 79.6828C192.926 68.6866 195.63 56.6693 195.63 44.5H227Z" fill="url(#paint0_linear_1616_823)"/>
<defs>
<linearGradient id="paint0_linear_1616_823" x1="0" y1="44.5" x2="227" y2="44.5" gradientUnits="userSpaceOnUse">
<stop stop-color="#FFC3A0"/>
<stop offset="1" stop-color="#FFAFBD"/>
</linearGradient>
</defs>
</svg>
