<svg width="42" height="42" fill="none" xmlns="http://www.w3.org/2000/svg"><path d="M.75 21C.75 32.166 9.834 41.25 21 41.25S41.25 32.166 41.25 21 32.166.75 21 .75.75 9.834.75 21zm1.833 0C2.583 10.845 10.845 2.583 21 2.583c10.155 0 18.417 8.262 18.417 18.417 0 10.155-8.262 18.417-18.417 18.417-10.155 0-18.417-8.262-18.417-18.417z" fill="#424242" stroke="#424242" stroke-width=".5"/><path d="M31.22 27.19h0l-6.291-2.183-.423-3.383-.032-.258-.15.213a2.222 2.222 0 01-1.18.856l-.079.025.01.083.391 3.126s0 0 0 0c.035.29.233.536.51.63 0 0 0 0 0 0l6.739 2.34c.576.201 1.123.661 1.527 1.232.405.57.658 1.239.658 1.849h0a.767.767 0 001.533-.006v0c-.002-.945-.364-1.92-.943-2.735-.58-.815-1.38-1.478-2.27-1.79zm-20.44 0h-.001c-.89.311-1.692.975-2.271 1.791-.578.814-.939 1.787-.941 2.728h0v.01h0a.767.767 0 001.533 0h0c0-.61.253-1.279.657-1.849.405-.57.952-1.03 1.526-1.232 0 0 0 0 0 0l6.739-2.322a.765.765 0 00.51-.63h0v-.003l.069-.783a.768.768 0 00-.666-.855h-.001a.774.774 0 00-.856.665h0v.008l-.014.306-6.285 2.165zm-1.186 2.564c-.42.592-.691 1.297-.694 1.955h0a.566.566 0 01-1.133.003c.001-.893.345-1.827.904-2.615.56-.79 1.33-1.423 2.174-1.719 0 0 0 0 0 0l6.349-2.188.064-.022.003-.068.016-.369a.574.574 0 01.634-.488c.308.039.53.322.491.634h0v.004l-.068.783a.564.564 0 01-.377.463h0l-6.739 2.322h0c-.624.22-1.202.711-1.624 1.305z" fill="#424242" stroke="#424242" stroke-width=".2"/><path d="M15.299 15.094h0c.006 3.09.48 5.27 1.433 6.68.958 1.42 2.39 2.045 4.268 2.045 1.878 0 3.31-.625 4.269-2.044.953-1.41 1.427-3.591 1.434-6.68v0c.002-1.574-.165-3.195-1.665-4.696-.963-.965-2.324-1.447-4.038-1.447-1.713 0-3.075.482-4.036 1.445-1.5 1.503-1.668 3.122-1.665 4.697zm8.65-3.613h0c.416.417.718.805.918 1.341.201.539.302 1.235.3 2.27-.006 2.674-.358 4.475-1.05 5.604-.346.563-.775.958-1.29 1.215-.516.256-1.124.376-1.828.376-.705 0-1.312-.12-1.828-.376-.515-.257-.945-.652-1.29-1.215-.693-1.13-1.045-2.93-1.05-5.604-.002-1.035.098-1.731.3-2.27.2-.536.501-.924.917-1.34.665-.665 1.623-.997 2.952-.997 1.33 0 2.288.332 2.95.996z" fill="#424242" stroke="#424242" stroke-width=".2"/></svg>