<svg width="185" height="185" fill="none" xmlns="http://www.w3.org/2000/svg"><g clip-path="url(#clip0_1512_2055)"><path d="M92.5 185c51.086 0 92.5-41.414 92.5-92.5S143.586 0 92.5 0 0 41.414 0 92.5 41.414 185 92.5 185z" fill="#6C5FFF"/><path d="M92.508 42.372c12.811 0 25.622 4.895 35.427 14.692A50.067 50.067 0 01142.636 92.5a50.064 50.064 0 01-14.701 35.435 50.043 50.043 0 01-35.435 14.7 50.05 50.05 0 01-35.435-14.7 50.06 50.06 0 010-70.87 49.966 49.966 0 0135.443-14.693zm22.816 34.703a3.88 3.88 0 00-2.004.794L85.154 98.99l-13.05-13.042c-2.83-2.945-8.402 2.62-5.45 5.45l15.417 15.416a3.984 3.984 0 005.033.362l30.834-23.125c2.59-1.888.994-6.922-2.213-6.968a3.845 3.845 0 00-.393 0l-.008-.008z" fill="#fff"/></g><defs><clipPath id="clip0_1512_2055"><path fill="#fff" d="M0 0h185v185H0z"/></clipPath></defs></svg>